<svg width="16" height="20" viewBox="0 0 16 20" fill="none" xmlns="http://www.w3.org/2000/svg">
<path d="M12.9673 10.5734C12.9931 13.3479 15.4013 14.2711 15.4279 14.2829C15.4075 14.348 15.0431 15.5986 14.1592 16.8904C13.3951 18.0072 12.602 19.12 11.3527 19.143C10.1252 19.1656 9.73042 18.4151 8.32697 18.4151C6.92392 18.4151 6.48535 19.12 5.32331 19.1656C4.11741 19.2113 3.19911 17.958 2.42869 16.8452C0.854262 14.5691 -0.348893 10.4134 1.26665 7.6082C2.0692 6.21513 3.5035 5.33304 5.0602 5.31041C6.24435 5.28785 7.36207 6.10707 8.08596 6.10707C8.80938 6.10707 10.1676 5.12189 11.5955 5.26656C12.1932 5.29146 13.8712 5.50797 14.9487 7.08509C14.8618 7.13891 12.9465 8.25389 12.9673 10.5734V10.5734ZM10.6603 3.76071C11.3006 2.98574 11.7315 1.90696 11.6139 0.833496C10.6911 0.870583 9.5752 1.44846 8.91324 2.22296C8.32003 2.90888 7.80052 4.00667 7.94071 5.05885C8.96933 5.13845 10.0201 4.53614 10.6604 3.76071" fill="black"/>
</svg>
