<svg width="20" height="20" viewBox="0 0 20 20" fill="none" xmlns="http://www.w3.org/2000/svg">
<path d="M19.1666 10.0002C19.1666 4.93758 15.0625 0.833496 9.99992 0.833496C4.93734 0.833496 0.833252 4.93751 0.833252 10.0002C0.833252 14.5755 4.18539 18.3678 8.56763 19.0555V12.6499H6.24015V10.0002H8.56763V7.98063C8.56763 5.68324 9.93618 4.41423 12.03 4.41423C13.0329 4.41423 14.0819 4.59326 14.0819 4.59326V6.84912H12.9261C11.7873 6.84912 11.4322 7.55574 11.4322 8.2807V10.0002H13.9745L13.5681 12.6499H11.4322V19.0555C15.8144 18.3678 19.1666 14.5755 19.1666 10.0002Z" fill="#1877F2"/>
<path d="M13.5682 12.6497L13.9746 10H11.4323V8.28053C11.4323 7.55551 11.7874 6.84896 12.9262 6.84896H14.082V4.5931C14.082 4.5931 13.033 4.41406 12.0301 4.41406C9.93626 4.41406 8.56771 5.68307 8.56771 7.98047V10H6.24023V12.6497H8.56771V19.0553C9.04152 19.1296 9.5204 19.1668 10 19.1667C10.4796 19.1668 10.9585 19.1296 11.4323 19.0553V12.6497H13.5682Z" fill="white"/>
</svg>
