<svg width="20" height="20" viewBox="0 0 20 20" fill="none" xmlns="http://www.w3.org/2000/svg">
<path d="M19.1668 10.1761C19.1668 9.42466 19.1044 8.87629 18.9694 8.30762H10.1873V11.6994H15.3421C15.2383 12.5422 14.677 13.8116 13.4299 14.6646L13.4124 14.7781L16.1891 16.88L16.3815 16.8988C18.1483 15.3044 19.1668 12.9586 19.1668 10.1761" fill="#4285F4"/>
<path d="M10.1873 19.1127C12.7128 19.1127 14.8329 18.3002 16.3815 16.8989L13.4299 14.6647C12.64 15.2029 11.5799 15.5787 10.1873 15.5787C7.71378 15.5787 5.61441 13.9844 4.86604 11.7808L4.75635 11.7899L1.86906 13.9732L1.8313 14.0758C3.36945 17.0613 6.52893 19.1127 10.1873 19.1127Z" fill="#34A853"/>
<path d="M4.8657 11.7804C4.66824 11.2117 4.55396 10.6024 4.55396 9.9728C4.55396 9.34315 4.66824 8.73387 4.85531 8.1652L4.85008 8.04409L1.92661 5.82568L1.83096 5.87014C1.19701 7.10907 0.833252 8.50033 0.833252 9.9728C0.833252 11.4453 1.19701 12.8365 1.83096 14.0754L4.8657 11.7804" fill="#FBBC05"/>
<path d="M10.1873 4.36741C11.9437 4.36741 13.1285 5.10873 13.804 5.72822L16.4439 3.20977C14.8226 1.7373 12.7128 0.833496 10.1873 0.833496C6.52893 0.833496 3.36945 2.88479 1.8313 5.87034L4.85565 8.1654C5.61441 5.96177 7.71378 4.36741 10.1873 4.36741" fill="#EB4335"/>
</svg>
