<svg width="18" height="14" viewBox="0 0 18 14" fill="none" xmlns="http://www.w3.org/2000/svg">
<path d="M17.0734 1.91186C16.459 2.18403 15.8074 2.36268 15.1401 2.44188C15.8351 2.0253 16.3688 1.36564 16.6201 0.57966C15.9594 0.971743 15.2365 1.24799 14.4827 1.39647C13.8686 0.742316 12.9939 0.333496 12.0257 0.333496C10.1668 0.333496 8.6596 1.8406 8.6596 3.69942C8.6596 3.96327 8.6894 4.22014 8.74676 4.46656C5.9493 4.32614 3.46908 2.98611 1.80887 0.949642C1.51919 1.44678 1.3532 2.02505 1.3532 2.64183C1.3532 3.80965 1.94749 4.83987 2.85062 5.44352C2.31609 5.42678 1.79333 5.28241 1.32596 5.02246C1.32577 5.03656 1.32577 5.05066 1.32577 5.06482C1.32577 6.69568 2.48603 8.05615 4.02581 8.36537C3.53015 8.50018 3.01022 8.51991 2.50576 8.42305C2.93407 9.76032 4.17719 10.7334 5.65007 10.7607C4.49808 11.6634 3.04667 12.2016 1.46971 12.2016C1.19798 12.2016 0.930087 12.1856 0.666748 12.1545C2.15635 13.1096 3.92564 13.6668 5.82651 13.6668C12.0179 13.6668 15.4035 8.53777 15.4035 4.08978C15.4035 3.94379 15.4003 3.79863 15.3937 3.6543C16.0527 3.17792 16.6215 2.58788 17.0734 1.91186" fill="#55ACEE"/>
</svg>
