<svg width="288" height="204" viewBox="0 0 288 204" fill="none" xmlns="http://www.w3.org/2000/svg">
<mask id="mask0_1052_11877" style="mask-type:alpha" maskUnits="userSpaceOnUse" x="0" y="0" width="288" height="204">
<rect x="0.5" width="287" height="204" rx="64" fill="#EAF0FF"/>
</mask>
<g mask="url(#mask0_1052_11877)">
<rect x="0.5" y="33" width="287" height="198" rx="64" fill="#224495" fill-opacity="0.2"/>
<path d="M137.11 187.303H34.7723C33.9706 187.301 33.2022 186.982 32.6358 186.415C32.0694 185.847 31.7513 185.078 31.7513 184.276V40.4186C31.7582 39.6215 32.0794 38.8593 32.6451 38.2976C33.2107 37.736 33.9751 37.4201 34.7723 37.4188H137.11C137.913 37.4188 138.682 37.7376 139.25 38.3052C139.817 38.8727 140.136 39.6425 140.136 40.4451V184.276C140.136 185.079 139.817 185.849 139.25 186.416C138.682 186.984 137.913 187.303 137.11 187.303ZM34.7723 37.5248C34.0057 37.5262 33.271 37.8317 32.7295 38.3742C32.1879 38.9168 31.8838 39.652 31.8838 40.4186V184.276C31.8838 185.043 32.1879 185.778 32.7295 186.321C33.271 186.863 34.0057 187.169 34.7723 187.17H137.11C137.877 187.169 138.612 186.864 139.155 186.321C139.697 185.779 140.002 185.044 140.004 184.276V40.4186C140.002 39.6515 139.697 38.9163 139.155 38.3739C138.612 37.8315 137.877 37.5262 137.11 37.5248H34.7723Z" fill="#E6E6E6"/>
<path d="M251.754 187.303H149.411C148.609 187.301 147.84 186.982 147.273 186.415C146.706 185.848 146.386 185.079 146.385 184.276V40.4186C146.393 39.621 146.716 38.8588 147.282 38.2973C147.849 37.7358 148.614 37.4201 149.411 37.4188H251.754C252.55 37.4215 253.314 37.738 253.878 38.2995C254.443 38.861 254.763 39.6224 254.77 40.4186V184.276C254.77 185.077 254.453 185.845 253.887 186.413C253.322 186.98 252.555 187.3 251.754 187.303ZM149.411 37.5248C148.644 37.5262 147.909 37.8315 147.367 38.3739C146.824 38.9163 146.519 39.6515 146.517 40.4186V184.276C146.519 185.044 146.824 185.779 147.367 186.321C147.909 186.864 148.644 187.169 149.411 187.17H251.754C252.521 187.169 253.257 186.864 253.799 186.321C254.341 185.779 254.647 185.044 254.648 184.276V40.4186C254.647 39.6515 254.341 38.9163 253.799 38.3739C253.257 37.8315 252.521 37.5262 251.754 37.5248H149.411Z" fill="#E6E6E6"/>
<path d="M153.222 165.668H141.567V211.9H153.222V165.668Z" fill="#E0E0E0"/>
<path d="M102.151 165.668H90.4965V211.9H102.151V165.668Z" fill="#E0E0E0"/>
<path d="M153.222 165.668H100.222V208.036H153.222V165.668Z" fill="#FAFAFA"/>
<path d="M151.298 167.751V178.961H102.13V167.751H151.282H151.298ZM151.489 167.544H101.939V179.162H151.505V167.544H151.489Z" fill="#E0E0E0"/>
<path d="M125.551 173.353C125.551 173.585 125.619 173.811 125.748 174.004C125.877 174.197 126.06 174.347 126.274 174.435C126.488 174.524 126.723 174.547 126.95 174.502C127.178 174.457 127.386 174.345 127.55 174.181C127.714 174.018 127.826 173.809 127.871 173.582C127.916 173.354 127.893 173.119 127.804 172.905C127.715 172.691 127.565 172.508 127.373 172.379C127.18 172.251 126.954 172.182 126.722 172.182C126.411 172.182 126.113 172.305 125.894 172.525C125.674 172.745 125.551 173.043 125.551 173.353Z" fill="#E6E6E6"/>
<path d="M151.298 181.245V192.454H102.13V181.245H151.282H151.298ZM151.489 181.043H101.939V192.661H151.505V181.049L151.489 181.043Z" fill="#E0E0E0"/>
<path d="M125.551 186.879C125.551 187.11 125.619 187.337 125.748 187.529C125.877 187.722 126.06 187.872 126.274 187.961C126.488 188.05 126.723 188.073 126.95 188.028C127.178 187.982 127.386 187.871 127.55 187.707C127.714 187.543 127.826 187.334 127.871 187.107C127.916 186.88 127.893 186.645 127.804 186.43C127.715 186.216 127.565 186.034 127.373 185.905C127.18 185.776 126.954 185.707 126.722 185.707C126.411 185.707 126.113 185.831 125.894 186.05C125.674 186.27 125.551 186.568 125.551 186.879Z" fill="#E6E6E6"/>
<path d="M151.298 194.744V205.959H102.13V194.744H151.282H151.298ZM151.489 194.537H101.939V206.16H151.505V194.537H151.489Z" fill="#E0E0E0"/>
<path d="M125.551 200.351C125.552 200.583 125.621 200.809 125.751 201.001C125.88 201.193 126.063 201.342 126.277 201.43C126.492 201.518 126.727 201.54 126.954 201.494C127.181 201.448 127.389 201.336 127.552 201.172C127.715 201.008 127.826 200.8 127.871 200.573C127.916 200.346 127.892 200.11 127.804 199.897C127.715 199.683 127.565 199.5 127.372 199.372C127.18 199.243 126.953 199.175 126.722 199.175C126.568 199.175 126.415 199.205 126.273 199.264C126.13 199.324 126.001 199.41 125.892 199.52C125.783 199.629 125.697 199.759 125.638 199.901C125.58 200.044 125.55 200.197 125.551 200.351Z" fill="#E6E6E6"/>
<path d="M95.0333 138.818H83.3786V211.905H95.0333V138.818Z" fill="#E0E0E0"/>
<path d="M51.4779 138.818H39.8232V211.905H51.4779V138.818Z" fill="#E0E0E0"/>
<path d="M95.0333 138.818H49.5434V208.042H95.0333V138.818Z" fill="#FAFAFA"/>
<path d="M93.0723 140.769V156.441H51.5044V140.769H93.0723ZM93.3161 140.53H51.25V156.669H93.3055V140.536L93.3161 140.53Z" fill="#E0E0E0"/>
<path d="M93.0723 158.354V199.922H73.2715V158.354H93.0723ZM93.3161 158.11H73.033V200.166H93.3161V158.11Z" fill="#E0E0E0"/>
<path d="M71.3052 158.354V199.922H51.5044V158.354H71.3052ZM71.5437 158.11H51.25V200.166H71.5331V158.11H71.5437Z" fill="#E0E0E0"/>
<path d="M71.1144 148.613C71.1134 148.846 71.1815 149.074 71.3101 149.268C71.4388 149.462 71.6222 149.614 71.8371 149.704C72.052 149.793 72.2887 149.817 72.5173 149.773C72.7459 149.728 72.956 149.616 73.1211 149.452C73.2862 149.288 73.3988 149.078 73.4446 148.85C73.4904 148.621 73.4674 148.384 73.3785 148.169C73.2897 147.954 73.1389 147.77 72.9452 147.64C72.7516 147.511 72.5239 147.441 72.291 147.441C71.9799 147.441 71.6814 147.565 71.4609 147.784C71.2404 148.004 71.1158 148.302 71.1144 148.613Z" fill="#E6E6E6"/>
<path d="M75.312 178.15C75.312 178.383 75.3811 178.61 75.5106 178.804C75.6402 178.997 75.8242 179.148 76.0395 179.237C76.2548 179.326 76.4917 179.349 76.7201 179.303C76.9484 179.257 77.1581 179.145 77.3224 178.98C77.4868 178.815 77.5984 178.604 77.6432 178.376C77.688 178.147 77.6639 177.911 77.5741 177.696C77.4842 177.481 77.3326 177.297 77.1384 177.169C76.9442 177.04 76.7162 176.972 76.4833 176.973C76.329 176.973 76.1763 177.003 76.0338 177.063C75.8913 177.122 75.762 177.209 75.6531 177.318C75.5443 177.427 75.4581 177.557 75.3996 177.7C75.341 177.842 75.3113 177.995 75.312 178.15Z" fill="#E6E6E6"/>
<path d="M66.9221 178.15C66.9231 178.381 66.9927 178.607 67.122 178.799C67.2514 178.991 67.4347 179.14 67.6488 179.228C67.8629 179.316 68.0983 179.338 68.3251 179.293C68.552 179.247 68.7602 179.135 68.9235 178.971C69.0867 178.807 69.1978 178.598 69.2425 178.371C69.2873 178.144 69.2638 177.909 69.175 177.695C69.0862 177.481 68.9361 177.299 68.7436 177.17C68.5511 177.042 68.3248 176.973 68.0934 176.973C67.9391 176.973 67.7864 177.004 67.6439 177.063C67.5015 177.122 67.3721 177.209 67.2633 177.318C67.1544 177.427 67.0683 177.557 67.0097 177.7C66.9512 177.843 66.9214 177.995 66.9221 178.15Z" fill="#E6E6E6"/>
<path d="M65.5971 118.44H60.684C61.1368 120.823 61.4219 123.235 61.5373 125.659C61.5373 128.309 57.7955 138.818 63.1273 138.818C68.4591 138.818 64.7173 128.335 64.7173 125.659C64.8415 123.235 65.1354 120.823 65.5971 118.44Z" fill="#E0E0E0"/>
<path d="M46.904 129.188V132.368C46.9096 134.073 47.5893 135.706 48.7947 136.912C50.0001 138.117 51.6334 138.797 53.3382 138.802H56.5182C58.2229 138.797 59.8562 138.117 61.0617 136.912C62.2671 135.706 62.9468 134.073 62.9524 132.368V129.188H46.904Z" fill="#F5F5F5"/>
<path d="M115.205 158.927C115.205 162.637 119.355 165.668 124.427 165.668H129.006C134.078 165.668 138.228 162.637 138.228 158.927H115.205Z" fill="#E0E0E0"/>
<path d="M236.543 153.489C233.766 155.757 229.929 159.907 226.42 165.748C224.078 169.638 222.668 173.698 222.048 179.093C222.048 172.998 222.085 166.453 222.106 160.273C222.811 158.683 224.422 155.015 225.578 152.121C229.431 142.459 230.878 140.08 234.339 131.748C238.965 120.618 243.704 107.442 242.347 108.497C239.58 110.644 228.98 130.492 227.835 133.333C224.715 140.914 222.786 148.932 222.117 157.103C222.117 151.273 222.159 145.973 222.18 141.861C222.255 128.446 222.482 124.116 222.594 122.781C223.023 122.102 223.526 121.312 223.823 120.888C226.314 117.284 227.274 114.221 229.616 108.847C232.945 101.241 235.807 87.7316 234.969 88.41C231.482 91.2508 228.736 97.3458 225.122 105.121C221.507 112.896 222.541 117.364 221.825 124C221.677 125.303 221.56 130.222 221.475 137.032C220.543 129.771 218.783 124.991 215.576 120.645C211.633 115.297 207.817 111.688 205.019 109.801C202.221 107.914 209.853 121.047 213.499 126.761C216.748 131.87 219.742 136.37 221.449 140.806C221.359 150.044 221.316 161.736 221.316 172.606C220.479 167.656 219.112 162.319 217.288 158.19C215.094 153.229 211.723 145.618 209.036 143.037C208.395 142.417 211.845 157.22 214.061 161.153C216.276 165.085 217.903 168.8 219.297 171.032C219.62 171.562 220.702 173.56 221.316 174.715C221.316 188.002 221.391 199.726 221.507 203.717H222.08C222.043 202.689 222.032 195.926 222.048 186.979C223.431 182.125 226.59 176.581 229.198 171.525C232.038 166.05 239.32 151.236 236.543 153.489Z" fill="#E0E0E0"/>
<path d="M230.093 211.9H213.483L212.227 195.619H231.349L230.093 211.9Z" fill="#F0F0F0"/>
<path d="M232.584 197.516H210.987L210.372 192.02H233.204L232.584 197.516Z" fill="#F5F5F5"/>
<path d="M77.3578 48.2838H47.6513V80.9053H77.3578V48.2838Z" fill="#E0E0E0"/>
<path d="M80.5749 48.2838H49.8879V80.9053H80.5749V48.2838Z" fill="#F5F5F5"/>
<path d="M78.0044 78.3348V50.8543H52.4584V78.3348H78.0044Z" fill="white"/>
<path d="M71.8087 71.6673V57.511H58.6488V71.6673H71.8087Z" fill="#F5F5F5"/>
<path d="M228.826 52.0839H201.229V82.3893H228.826V52.0839Z" fill="#E0E0E0"/>
<path d="M231.816 52.0839H203.312V82.3893H231.816V52.0839Z" fill="#F5F5F5"/>
<path d="M229.431 79.999V54.4742H205.703V79.999H229.431Z" fill="white"/>
<path d="M217.564 74.6407C221.653 74.6407 224.968 71.3258 224.968 67.2366C224.968 63.1474 221.653 59.8325 217.564 59.8325C213.475 59.8325 210.16 63.1474 210.16 67.2366C210.16 71.3258 213.475 74.6407 217.564 74.6407Z" fill="#F5F5F5"/>
<path d="M108.22 67.7348H86.1823V91.9346H108.22V67.7348Z" fill="#E0E0E0"/>
<path d="M110.605 67.7348H87.8412V91.9346H110.605V67.7348Z" fill="#F5F5F5"/>
<path d="M108.697 90.0265V69.6427H89.7492V90.0265H108.697Z" fill="white"/>
<path d="M99.2256 74.6777L94.0422 83.6559H104.409L99.2256 74.6777Z" fill="#F5F5F5"/>
<path d="M185.711 61.5792L179.758 59.1788C179.758 59.1788 171.903 73.5031 169.652 74.2293C166.592 75.2134 160.255 77.9499 156.498 78.4299C155.988 79.03 155.154 80.8963 155.232 81.5744C160.279 83.2607 171.369 81.0224 173.745 79.2581C179.152 75.2554 185.711 61.5792 185.711 61.5792Z" fill="#E58A7B"/>
<path d="M187.541 58.3207C188.652 62.4194 182.639 70.6647 182.639 70.6647L174.759 66.248C174.759 66.248 176.236 62.8575 178.036 59.4069C180.922 53.832 186.275 53.646 187.541 58.3207Z" fill="#21217A"/>
<path opacity="0.2" d="M187.541 58.3207C188.652 62.4194 182.639 70.6647 182.639 70.6647L174.759 66.248C174.759 66.248 176.236 62.8575 178.036 59.4069C180.922 53.832 186.275 53.646 187.541 58.3207Z" fill="black"/>
<path opacity="0.2" d="M177.886 68.0123L180.988 69.7526L181.534 60.229C179.728 61.6153 178.456 65.7919 177.886 68.0123Z" fill="black"/>
<path d="M182.357 55.2363C182.357 55.2363 176.224 68.8824 179.8 94.2905H203.966C204.35 90.5819 203.078 72.483 207.681 55.0082C205.03 54.4901 202.347 54.1473 199.651 53.9821C196.232 53.7839 192.803 53.7839 189.384 53.9821C187.013 54.2228 184.664 54.642 182.357 55.2363Z" fill="#21217A"/>
<path opacity="0.2" d="M182.357 55.2363C182.357 55.2363 176.224 68.8824 179.8 94.2905H203.966C204.35 90.5819 203.078 72.483 207.681 55.0082C205.03 54.4901 202.347 54.1473 199.651 53.9821C196.232 53.7839 192.803 53.7839 189.384 53.9821C187.013 54.2228 184.664 54.642 182.357 55.2363Z" fill="black"/>
<path d="M192.883 196.801L188.596 198.46L192.288 207.998L196.575 206.338L192.883 196.801Z" fill="#E58A7B"/>
<path d="M211.995 209.215H207.477L205.82 198.755H210.339L211.995 209.215Z" fill="#E58A7B"/>
<path d="M157.254 78.406L152.286 76.3237L150.239 81.8326C152.276 82.1428 154.348 82.1428 156.384 81.8326L157.254 78.406Z" fill="#E58A7B"/>
<path d="M148.589 76.1796L148.457 79.8402L150.239 81.8205L152.286 76.3116L148.589 76.1796Z" fill="#E58A7B"/>
<path d="M193.471 197.611L189.171 199.271L191.075 204.203L195.375 202.543L193.471 197.611Z" fill="#CF6F64"/>
<path d="M210.339 198.755H205.82L206.678 204.15H211.197L210.339 198.755Z" fill="#CF6F64"/>
<path opacity="0.2" d="M179.032 87.4194C179.122 88.5056 179.224 89.6158 179.356 90.756L197.323 84.923C200.129 84.0914 202.567 82.3282 204.236 79.9242C204.308 78.322 204.398 76.6357 204.536 74.8774C204.596 74.0253 204.668 73.1491 204.746 72.261C204.824 71.3728 204.932 70.3887 205.046 69.4405L179.032 87.4194Z" fill="black"/>
<path d="M184.901 67.7362L184.301 67.6642C184.655 64.6638 186.893 62.2994 189.252 62.3594V62.9595C187.187 62.9175 185.219 65.0478 184.901 67.7362Z" fill="white"/>
<path d="M188.099 73.2752H187.997V72.6751C190.062 72.7531 192 70.5988 192.318 67.9163L192.918 67.9883C192.6 70.9228 190.434 73.2752 188.099 73.2752Z" fill="white"/>
<path d="M199.315 42.4182C198.469 45.7247 197.473 51.7797 199.651 53.982C199.651 53.982 198.127 57.3366 191.988 57.3366C186.377 57.3366 189.384 53.982 189.384 53.982C193.116 53.1059 193.182 50.3815 192.69 47.8011L199.315 42.4182Z" fill="#E58A7B"/>
<path d="M196.615 44.6145L192.696 47.801C192.818 48.394 192.888 48.9963 192.906 49.6013C194.052 50.7415 196.351 47.8551 196.585 46.3788C196.704 45.7976 196.714 45.1994 196.615 44.6145Z" fill="#CF6F64"/>
<path d="M185.957 42.3761C186.23 42.8487 186.597 43.26 187.036 43.5842C187.475 43.9085 187.976 44.1387 188.508 44.2605C189.948 44.5785 190.668 43.2523 190.272 41.9201C189.918 40.7199 188.736 39.1056 187.271 39.3817C186.958 39.4463 186.664 39.5851 186.415 39.7865C186.166 39.9879 185.969 40.246 185.84 40.5393C185.712 40.8325 185.655 41.1523 185.675 41.4719C185.696 41.7915 185.792 42.1016 185.957 42.3761Z" fill="#CF6F64"/>
<path d="M188.339 31.7965C186.095 32.8226 185.303 41.7401 188.123 43.0603C190.944 44.3805 192.588 29.8461 188.339 31.7965Z" fill="#263238"/>
<path d="M199.999 37.4434C199.459 41.9201 199.399 44.5546 196.999 46.8469C196.255 47.6076 195.316 48.148 194.284 48.4084C193.252 48.6687 192.169 48.6389 191.153 48.3223C190.137 48.0057 189.229 47.4145 188.528 46.6141C187.827 45.8136 187.361 44.8351 187.181 43.7864C186.455 39.7658 187.457 33.1227 191.946 31.3404C192.889 30.9244 193.926 30.7683 194.95 30.8881C195.974 31.008 196.947 31.3995 197.769 32.0221C198.59 32.6446 199.23 33.4756 199.622 34.4289C200.015 35.3821 200.145 36.4229 199.999 37.4434Z" fill="#E58A7B"/>
<path d="M192.624 34.1128C195.949 33.2667 198.391 32.6906 197.515 35.4571C196.357 39.1537 194.965 42.7302 196.831 42.8923C197.971 42.9943 203.012 40.8579 202.37 38.6916C201.812 36.8073 204.17 36.2912 204.59 35.337C206.144 31.8805 201.698 32.3366 202.49 30.2362C203.282 28.1359 198.889 24.7513 196.489 26.4376C192.582 29.162 185.879 29.12 189.402 24.6373C191.928 21.4388 187.421 22.0929 187.421 22.0929C187.421 22.0929 190.146 23.7072 185.561 26.2036C180.712 28.868 185.159 36.0272 192.624 34.1128Z" fill="#263238"/>
<path d="M201.764 42.3761C201.107 43.3258 200.121 43.9975 198.997 44.2605C197.515 44.5785 196.945 43.2523 197.503 41.9201C198.001 40.7199 199.369 39.1056 200.786 39.3817C202.202 39.6577 202.526 41.2 201.764 42.3761Z" fill="#E58A7B"/>
<path d="M179.8 94.2906C179.8 94.2906 175.743 130.596 175.425 144.375C175.101 158.705 189.174 203.418 189.174 203.418L196.375 200.418C196.375 200.418 187.973 159.563 189.174 145.491C190.446 130.146 195.703 94.3146 195.703 94.3146L179.8 94.2906Z" fill="#21217A"/>
<path opacity="0.2" d="M189.882 104.258C186.647 110.967 188.826 124.235 190.578 132.097C191.244 126.546 192.036 120.521 192.786 114.946C192.714 106.376 192.048 99.7574 189.882 104.258Z" fill="black"/>
<path d="M196.057 198.041C196.093 198.041 196.909 200.334 196.909 200.334L188.604 203.826L187.295 201.39L196.057 198.041Z" fill="#21217A"/>
<path d="M188.375 94.2906C188.375 94.2906 191.478 128.82 193.53 141.752C195.787 155.92 204.632 203.106 204.632 203.106H212.907C212.907 203.106 207.951 157.067 207.014 143.036C205.994 127.818 203.966 94.2906 203.966 94.2906H188.375Z" fill="#21217A"/>
<path d="M213.033 200.952C213.069 200.952 213.31 203.262 213.31 203.262H204.212L203.564 200.61L213.033 200.952Z" fill="#21217A"/>
<path opacity="0.2" d="M209.865 198.215C209.846 198.215 209.828 198.209 209.814 198.197C209.799 198.185 209.79 198.168 209.787 198.149C209.739 197.729 205.268 156.143 204.428 143.54C203.516 129.87 201.68 99.5474 201.662 99.2413C201.661 99.2314 201.662 99.2214 201.665 99.2119C201.669 99.2025 201.674 99.1938 201.681 99.1865C201.687 99.1792 201.695 99.1733 201.705 99.1693C201.714 99.1653 201.724 99.1633 201.734 99.1633C201.753 99.1633 201.772 99.1707 201.787 99.184C201.801 99.1974 201.81 99.2157 201.812 99.2353C201.812 99.5414 203.666 129.84 204.578 143.534C205.418 156.137 209.889 197.693 209.931 198.143C209.933 198.153 209.932 198.163 209.93 198.173C209.927 198.183 209.923 198.192 209.917 198.2C209.91 198.208 209.903 198.214 209.894 198.219C209.885 198.224 209.875 198.227 209.865 198.227V198.215Z" fill="black"/>
<path d="M193.134 38.6916C193.134 39.0577 192.906 39.3517 192.666 39.3517C192.426 39.3517 192.252 39.0577 192.276 38.6916C192.3 38.3256 192.504 38.0315 192.744 38.0315C192.984 38.0315 193.158 38.3316 193.134 38.6916Z" fill="#263238"/>
<path d="M189.018 38.6916C189.018 39.0577 188.784 39.3517 188.55 39.3517C188.315 39.3517 188.135 39.0577 188.153 38.6916C188.171 38.3256 188.387 38.0315 188.628 38.0315C188.868 38.0315 189.042 38.3316 189.018 38.6916Z" fill="#263238"/>
<path d="M190.314 38.8776C189.813 39.9954 189.167 41.0426 188.394 41.9921C188.994 42.5922 190.116 42.3162 190.116 42.3162L190.314 38.8776Z" fill="#DF5753"/>
<path d="M190.422 43.8464C190.408 43.8464 190.394 43.8436 190.381 43.8381C190.369 43.8326 190.357 43.8245 190.347 43.8144C190.338 43.8043 190.331 43.7923 190.326 43.7792C190.321 43.7662 190.319 43.7522 190.32 43.7383C190.321 43.7092 190.334 43.6817 190.355 43.6616C190.376 43.6415 190.405 43.6303 190.434 43.6303C190.893 43.6335 191.347 43.5338 191.762 43.3386C192.177 43.1434 192.544 42.8575 192.834 42.5021C192.855 42.484 192.882 42.474 192.909 42.474C192.937 42.474 192.963 42.484 192.984 42.5021C193.004 42.5223 193.015 42.5492 193.015 42.5772C193.015 42.6051 193.004 42.632 192.984 42.6522C192.673 43.0299 192.282 43.3332 191.838 43.5398C191.395 43.7465 190.911 43.8512 190.422 43.8464Z" fill="#263238"/>
<path d="M193.866 37.5874C193.838 37.6022 193.806 37.6099 193.773 37.6099C193.741 37.6099 193.709 37.6022 193.68 37.5874C193.456 37.4423 193.2 37.352 192.935 37.3239C192.669 37.2957 192.4 37.3305 192.15 37.4254C192.126 37.4376 192.099 37.4448 192.072 37.4465C192.045 37.4483 192.018 37.4446 191.992 37.4356C191.966 37.4267 191.942 37.4127 191.922 37.3944C191.902 37.3762 191.886 37.3541 191.874 37.3294C191.852 37.276 191.851 37.216 191.873 37.1622C191.894 37.1084 191.935 37.065 191.988 37.0413C192.302 36.9132 192.642 36.8627 192.979 36.894C193.317 36.9253 193.642 37.0376 193.926 37.2214C193.949 37.237 193.969 37.2571 193.984 37.2804C193.999 37.3037 194.01 37.3297 194.015 37.3571C194.02 37.3845 194.019 37.4125 194.014 37.4397C194.008 37.4669 193.996 37.4926 193.98 37.5154C193.95 37.5498 193.91 37.5748 193.866 37.5874Z" fill="#263238"/>
<path d="M187.427 36.3872C187.395 36.3795 187.366 36.3629 187.343 36.3392C187.323 36.3197 187.308 36.2963 187.297 36.2706C187.286 36.2448 187.28 36.2172 187.28 36.1892C187.28 36.1613 187.286 36.1336 187.297 36.1078C187.308 36.0821 187.323 36.0587 187.343 36.0392C187.573 35.7812 187.86 35.5799 188.18 35.4508C188.501 35.3217 188.847 35.2684 189.192 35.2951C189.219 35.2993 189.246 35.3092 189.269 35.3241C189.293 35.339 189.313 35.3586 189.329 35.3816C189.345 35.4047 189.356 35.4308 189.361 35.4582C189.366 35.4856 189.366 35.5138 189.36 35.5411C189.347 35.5967 189.314 35.6456 189.268 35.6788C189.221 35.7119 189.164 35.727 189.108 35.7211C188.835 35.704 188.562 35.7491 188.309 35.853C188.057 35.957 187.831 36.1171 187.649 36.3212C187.622 36.3516 187.587 36.3738 187.548 36.3855C187.509 36.3971 187.467 36.3977 187.427 36.3872Z" fill="#263238"/>
<path d="M210.003 60.9132L203.762 59.2509C203.762 59.2509 197.641 74.3193 195.475 75.2975C192.534 76.6417 185.087 81.2985 181.918 83.5008C181.744 84.2509 181.882 86.2373 182.279 86.7833C187.679 85.7992 198.019 81.8205 200.179 79.7982C205.106 75.1835 210.003 60.9132 210.003 60.9132Z" fill="#E58A7B"/>
<path d="M182.429 83.1467L176.17 86.0272L175.443 87.8275L177.754 89.3817C177.754 89.3817 182.074 88.9136 183.305 86.1352L182.429 83.1467Z" fill="#E58A7B"/>
<path d="M182.693 86.8854C182.553 85.6828 182.156 84.5244 181.528 83.4888L182.519 82.7447C183.263 83.9379 183.739 85.2793 183.911 86.6753L182.693 86.8854Z" fill="#263238"/>
<path d="M183.761 83.9989C183.893 84.207 183.958 84.4508 183.947 84.6972C183.936 84.9436 183.849 85.1805 183.698 85.3758C183.548 85.5711 183.341 85.7153 183.105 85.7887C182.87 85.8621 182.617 85.8612 182.383 85.7861C182.148 85.711 181.942 85.5654 181.792 85.369C181.643 85.1726 181.558 84.9351 181.549 84.6886C181.539 84.4422 181.606 84.1988 181.74 83.9917C181.874 83.7845 182.068 83.6236 182.297 83.5308C182.553 83.4001 182.851 83.376 183.125 83.4636C183.399 83.5513 183.628 83.7437 183.761 83.9989Z" fill="#263238"/>
<path d="M171.939 88.3556L172.773 89.1957L178.39 86.7953L176.17 86.0272L171.939 88.3556Z" fill="#E58A7B"/>
<path opacity="0.2" d="M196.057 198.041C196.093 198.041 196.909 200.334 196.909 200.334L188.604 203.826L187.295 201.39L196.057 198.041Z" fill="black"/>
<path opacity="0.2" d="M213.033 200.952C213.069 200.952 213.31 203.262 213.31 203.262H204.212L203.564 200.61L213.033 200.952Z" fill="black"/>
<path d="M211.629 59.1848C213.28 64.5077 206.828 71.7869 206.828 71.7869L197.917 68.1503C198.973 65.0737 200.191 62.055 201.566 59.1068C204.302 53.2079 209.961 53.814 211.629 59.1848Z" fill="#21217A"/>
<path opacity="0.2" d="M211.629 59.1848C213.28 64.5077 206.828 71.7869 206.828 71.7869L197.917 68.1503C198.973 65.0737 200.191 62.055 201.566 59.1068C204.302 53.2079 209.961 53.814 211.629 59.1848Z" fill="black"/>
<path d="M123.079 5.85431H119.244V6.47241H123.079V5.85431Z" fill="#21217A"/>
<path d="M172.718 30.3181L172.254 40.6173L172.871 40.6451L173.335 30.3459L172.718 30.3181Z" fill="#21217A"/>
<path d="M171.525 8.62675H100.713L94.1243 156.083H164.936L171.525 8.62675Z" fill="#21217A"/>
<path opacity="0.56" d="M169.412 10.6551H98.601L92.0119 158.111H162.823L169.412 10.6551Z" fill="#FAFAFA"/>
<path opacity="0.07" d="M167.3 12.6775H96.4887L89.8936 160.133H160.705L167.3 12.6775Z" fill="#21217A"/>
<path d="M159.241 76.9898H98.7991L98.295 88.2716H158.737L159.241 76.9898Z" fill="white"/>
<path d="M132.038 68.7564H99.1651L98.9431 73.8032H131.816L132.038 68.7564Z" fill="#21217A"/>
<path d="M157.879 107.439H97.4368L96.9327 118.72H157.374L157.879 107.439Z" fill="white"/>
<path opacity="0.47" d="M146.795 133.957H106.15L105.544 147.477H146.189L146.795 133.957Z" fill="#21217A"/>
<path d="M144.076 149.577H103.432C103.414 149.582 103.395 149.582 103.378 149.577C103.372 149.56 103.372 149.541 103.378 149.523L103.978 135.997C103.978 135.988 103.98 135.979 103.983 135.971C103.987 135.962 103.993 135.955 103.999 135.948C104.006 135.942 104.014 135.937 104.023 135.934C104.032 135.932 104.041 135.93 104.05 135.931H144.694C144.702 135.928 144.71 135.926 144.718 135.926C144.727 135.926 144.735 135.928 144.742 135.931C144.747 135.939 144.749 135.947 144.749 135.955C144.749 135.964 144.747 135.972 144.742 135.979L144.154 149.535C144.147 149.55 144.136 149.561 144.122 149.569C144.108 149.576 144.092 149.579 144.076 149.577ZM103.504 149.433H144.004L144.604 136.051H104.104L103.504 149.433Z" fill="white"/>
<path d="M124.939 99.2053H97.8029L97.5809 104.258H124.711L124.939 99.2053Z" fill="#21217A"/>
<path d="M146.021 40.5459C145.866 43.8292 144.698 46.9841 142.678 49.5773C141.183 51.5361 139.259 53.1263 137.054 54.2259C134.848 55.3254 132.42 55.9051 129.956 55.9203C127.965 55.9355 125.991 55.5429 124.158 54.7665C122.324 53.9902 120.668 52.8466 119.293 51.4063C117.918 49.966 116.852 48.2593 116.162 46.3915C115.471 44.5238 115.17 42.5343 115.278 40.5459C115.489 36.4196 117.268 32.5298 120.252 29.672C123.236 26.8142 127.199 25.2043 131.33 25.1714C133.323 25.1528 135.299 25.5431 137.135 26.3181C138.971 27.0931 140.628 28.2363 142.005 29.6772C143.382 31.1181 144.449 32.826 145.139 34.6954C145.83 36.5648 146.13 38.556 146.021 40.5459Z" fill="white"/>
<path d="M147.467 28.3879C147.428 29.261 147.117 30.1 146.579 30.7883C146.18 31.3086 145.668 31.7309 145.082 32.0232C144.495 32.3154 143.85 32.4698 143.194 32.4746C142.559 32.4784 141.933 32.3268 141.37 32.0328C140.808 31.7389 140.325 31.3116 139.966 30.7883C139.49 30.0812 139.254 29.2395 139.294 28.3879C139.352 27.2924 139.825 26.2602 140.618 25.502C141.411 24.7437 142.463 24.3164 143.56 24.3073C144.09 24.3024 144.614 24.406 145.102 24.6117C145.589 24.8173 146.03 25.1206 146.396 25.5029C146.762 25.8852 147.046 26.3384 147.23 26.8346C147.414 27.3308 147.495 27.8594 147.467 28.3879Z" fill="#21217A"/>
<path d="M105.31 82.6307C105.281 83.1143 105.07 83.5689 104.719 83.903C104.369 84.2371 103.904 84.4258 103.42 84.431C103.186 84.4338 102.954 84.3886 102.738 84.2981C102.522 84.2077 102.328 84.074 102.166 83.9053C102.004 83.7365 101.878 83.5364 101.796 83.3171C101.715 83.0979 101.679 82.8643 101.692 82.6307C101.718 82.1461 101.928 81.6898 102.279 81.3552C102.631 81.0205 103.097 80.8328 103.582 80.8304C103.815 80.8285 104.047 80.8743 104.262 80.965C104.478 81.0558 104.672 81.1895 104.834 81.3581C104.996 81.5266 105.121 81.7264 105.203 81.9453C105.285 82.1641 105.322 82.3973 105.31 82.6307Z" fill="#263238"/>
<path d="M113.399 82.6307C113.372 83.1147 113.161 83.5702 112.81 83.9046C112.459 84.239 111.994 84.4272 111.509 84.431C111.276 84.4329 111.044 84.3871 110.829 84.2963C110.614 84.2055 110.42 84.0717 110.259 83.903C110.098 83.7344 109.972 83.5345 109.891 83.3157C109.81 83.0969 109.775 82.8637 109.787 82.6307C109.813 82.1471 110.022 81.6917 110.372 81.3572C110.722 81.0227 111.187 80.8343 111.671 80.8304C111.905 80.8276 112.137 80.8728 112.353 80.9632C112.568 81.0537 112.763 81.1874 112.925 81.3561C113.087 81.5249 113.213 81.725 113.294 81.9442C113.376 82.1635 113.412 82.3971 113.399 82.6307Z" fill="#263238"/>
<path d="M121.495 82.6307C121.467 83.1147 121.257 83.5702 120.906 83.9046C120.554 84.239 120.089 84.4272 119.604 84.431C119.371 84.4329 119.139 84.3871 118.924 84.2963C118.709 84.2056 118.514 84.0719 118.352 83.9033C118.19 83.7348 118.065 83.535 117.983 83.3161C117.901 83.0973 117.865 82.864 117.876 82.6307C117.904 82.1466 118.114 81.6911 118.465 81.3568C118.816 81.0224 119.282 80.8342 119.766 80.8304C120 80.8276 120.232 80.8728 120.448 80.9632C120.664 81.0537 120.859 81.1874 121.021 81.3561C121.183 81.5249 121.308 81.725 121.39 81.9442C121.471 82.1635 121.507 82.3971 121.495 82.6307Z" fill="#263238"/>
<path d="M103.948 113.08C103.919 113.563 103.708 114.018 103.357 114.352C103.006 114.686 102.542 114.875 102.058 114.88C101.824 114.882 101.592 114.836 101.377 114.745C101.162 114.655 100.967 114.521 100.805 114.352C100.644 114.184 100.518 113.984 100.436 113.765C100.354 113.546 100.318 113.313 100.329 113.08C100.357 112.596 100.567 112.14 100.918 111.806C101.27 111.471 101.735 111.283 102.22 111.279C102.453 111.277 102.685 111.323 102.9 111.414C103.115 111.505 103.31 111.638 103.472 111.807C103.634 111.976 103.759 112.175 103.841 112.394C103.923 112.613 103.959 112.846 103.948 113.08Z" fill="#263238"/>
<path d="M112.037 113.08C112.01 113.563 111.8 114.017 111.45 114.351C111.1 114.686 110.637 114.875 110.153 114.88C109.919 114.883 109.687 114.837 109.471 114.747C109.256 114.657 109.061 114.523 108.899 114.354C108.737 114.185 108.611 113.985 108.53 113.766C108.448 113.547 108.412 113.313 108.425 113.08C108.452 112.596 108.663 112.14 109.014 111.806C109.365 111.471 109.83 111.283 110.315 111.279C110.548 111.277 110.78 111.323 110.995 111.414C111.21 111.505 111.404 111.639 111.565 111.807C111.726 111.976 111.852 112.176 111.933 112.395C112.014 112.613 112.049 112.847 112.037 113.08Z" fill="#263238"/>
<path d="M120.15 113.08C120.123 113.564 119.912 114.019 119.561 114.354C119.21 114.688 118.745 114.876 118.26 114.88C118.027 114.881 117.796 114.835 117.581 114.744C117.366 114.652 117.172 114.519 117.01 114.35C116.848 114.182 116.723 113.983 116.64 113.764C116.558 113.546 116.521 113.313 116.532 113.08C116.561 112.596 116.772 112.141 117.123 111.807C117.473 111.473 117.938 111.285 118.422 111.279C118.656 111.277 118.888 111.322 119.104 111.412C119.319 111.503 119.514 111.636 119.676 111.805C119.838 111.974 119.964 112.174 120.046 112.393C120.127 112.612 120.163 112.846 120.15 113.08Z" fill="#263238"/>
<path d="M128.228 113.08C128.199 113.563 127.988 114.018 127.637 114.352C127.286 114.686 126.822 114.875 126.337 114.88C126.104 114.881 125.873 114.835 125.658 114.744C125.443 114.653 125.249 114.519 125.087 114.35C124.926 114.182 124.8 113.983 124.718 113.764C124.636 113.546 124.599 113.313 124.609 113.08C124.638 112.596 124.849 112.141 125.2 111.807C125.551 111.473 126.015 111.285 126.5 111.279C126.733 111.277 126.965 111.323 127.18 111.414C127.395 111.505 127.59 111.638 127.752 111.807C127.913 111.976 128.039 112.175 128.121 112.394C128.203 112.613 128.239 112.846 128.228 113.08Z" fill="#263238"/>
<path d="M136.353 113.08C136.324 113.563 136.113 114.018 135.762 114.352C135.412 114.686 134.947 114.875 134.463 114.88C134.229 114.883 133.997 114.837 133.781 114.747C133.566 114.657 133.371 114.523 133.209 114.354C133.047 114.185 132.921 113.985 132.839 113.766C132.758 113.547 132.722 113.313 132.735 113.08C132.762 112.596 132.973 112.14 133.324 111.806C133.675 111.471 134.14 111.283 134.625 111.279C134.858 111.277 135.09 111.323 135.305 111.414C135.521 111.505 135.715 111.638 135.877 111.807C136.039 111.976 136.164 112.175 136.246 112.394C136.328 112.613 136.365 112.846 136.353 113.08Z" fill="#263238"/>
<path d="M135.125 39.7451C137.637 37.2889 137.77 33.3518 135.423 30.9515C133.075 28.5511 129.136 28.5964 126.625 31.0527C124.113 33.5089 123.98 37.4459 126.327 39.8463C128.674 42.2467 132.613 42.2014 135.125 39.7451Z" fill="#21217A"/>
<path d="M142.678 49.5773C141.183 51.5361 139.259 53.1263 137.054 54.2259C134.848 55.3254 132.42 55.9051 129.956 55.9203C127.567 55.9406 125.209 55.3726 123.091 54.2664C120.972 53.1602 119.159 51.5499 117.81 49.5773C120.727 46.6728 125.341 44.7765 130.454 44.7765C135.567 44.7765 140.02 46.6728 142.678 49.5773Z" fill="#21217A"/>
<path opacity="0.1" d="M135.125 39.7451C137.637 37.2889 137.77 33.3518 135.423 30.9515C133.075 28.5511 129.136 28.5964 126.625 31.0527C124.113 33.5089 123.98 37.4459 126.327 39.8463C128.674 42.2467 132.613 42.2014 135.125 39.7451Z" fill="white"/>
<path opacity="0.1" d="M142.678 49.5773C141.183 51.5361 139.259 53.1263 137.054 54.2259C134.848 55.3254 132.42 55.9051 129.956 55.9203C127.567 55.9406 125.209 55.3726 123.091 54.2664C120.972 53.1602 119.159 51.5499 117.81 49.5773C120.727 46.6728 125.341 44.7765 130.454 44.7765C135.567 44.7765 140.02 46.6728 142.678 49.5773Z" fill="white"/>
<path d="M54.3859 90.99C53.8158 92.2382 53.2157 93.6125 52.6936 94.9447C52.1715 96.2769 51.6374 97.6511 51.1753 99.0193C50.2319 101.716 49.5133 104.486 49.027 107.301L48.895 108.183C48.8824 108.334 48.8966 108.486 48.937 108.633C49.0786 109.13 49.3017 109.601 49.5971 110.025C50.3677 111.124 51.2617 112.13 52.2615 113.026C53.3156 114.006 54.4214 114.93 55.574 115.792C56.7262 116.68 57.9384 117.544 59.1326 118.36L58.0104 120.467C55.1589 119.224 52.4523 117.673 49.9391 115.84C48.5984 114.862 47.3883 113.717 46.3386 112.431C45.7163 111.666 45.2311 110.8 44.9043 109.869C44.7143 109.288 44.6171 108.68 44.6163 108.069C44.6163 107.925 44.6163 107.715 44.6163 107.613V107.319L44.6763 106.719C45.0203 103.592 45.6777 100.508 46.6386 97.5131C47.1067 96.0368 47.6048 94.5666 48.1749 93.1324C48.7449 91.6981 49.333 90.2939 50.0592 88.8357L54.3859 90.99Z" fill="#E58A7B"/>
<path d="M58.2865 117.988L62.5291 115.84L61.431 120.497C61.431 120.497 58.5205 121.313 57.1703 119.897L58.2865 117.988Z" fill="#E58A7B"/>
<path d="M66.4118 116.602L65.2836 120.455L61.4309 120.497L62.5291 115.84L66.4118 116.602Z" fill="#E58A7B"/>
<path d="M72.4007 68.5224C72.6277 69.3541 72.9436 70.1588 73.3429 70.9228C73.2262 71.0551 73.076 71.1534 72.908 71.2073C72.74 71.2612 72.5606 71.2686 72.3887 71.2288L72.4007 68.5224Z" fill="#DF5753"/>
<path d="M72.2747 68.5584C72.5233 68.5584 72.7248 68.2495 72.7248 67.8683C72.7248 67.4872 72.5233 67.1782 72.2747 67.1782C72.0261 67.1782 71.8246 67.4872 71.8246 67.8683C71.8246 68.2495 72.0261 68.5584 72.2747 68.5584Z" fill="#263238"/>
<path d="M72.1427 67.2022L73.0548 66.9441C73.0548 66.9441 72.6108 67.6523 72.1427 67.2022Z" fill="#263238"/>
<path d="M60.6809 72.9271C61.2269 75.7175 61.773 80.8364 59.8167 82.7027C59.8167 82.7027 60.5848 85.5351 65.7757 85.5351C71.4826 85.5351 68.5001 82.7027 68.5001 82.7027C65.3856 81.9586 65.4636 79.6482 66.0097 77.4758L60.6809 72.9271Z" fill="#E58A7B"/>
<path d="M59.1626 66.5662C59.4507 71.2289 59.4747 73.2092 61.827 75.6036C65.3736 79.2042 71.0385 77.836 72.1487 73.2032C73.1509 69.0026 72.5148 62.0895 67.948 60.2352C66.9456 59.8222 65.8544 59.6718 64.7776 59.7982C63.7009 59.9246 62.6742 60.3235 61.7946 60.9574C60.9151 61.5912 60.2117 62.4389 59.7512 63.4204C59.2906 64.4019 59.088 65.4846 59.1626 66.5662Z" fill="#E58A7B"/>
<path d="M59.6247 61.3213C57.2843 62.1734 54.1638 61.5373 55.388 68.7565C56.6842 76.4017 54.6919 78.9161 54.6919 78.9161C54.6919 78.9161 63.5673 80.8064 72.6288 78.8021C72.6288 78.8021 69.8623 73.9653 70.6364 70.4007C71.6266 65.9 70.8465 64.2377 70.8465 64.2377C70.8465 64.2377 62.9132 60.1211 59.6247 61.3213Z" fill="#263238"/>
<path d="M69.5263 68.9965C69.5287 69.8831 69.7826 70.7508 70.2584 71.4989C70.8945 72.4711 71.6446 72.099 71.8307 71.0668C71.9987 70.1607 71.8727 68.5584 71.0625 67.9343C70.2524 67.3102 69.5383 67.9223 69.5263 68.9965Z" fill="#E58A7B"/>
<path d="M57.5903 62.1074C56.9182 60.2171 60.1227 57.3066 66.9038 58.5068C73.6849 59.707 73.979 65.3539 73.979 65.3539L72.6108 63.7217L72.6708 65.4379L65.7036 66.7762L57.5903 62.1074Z" fill="#263238"/>
<path d="M58.1664 83.0208C58.1264 82.7468 58.195 82.468 58.3575 82.2438C58.52 82.0196 58.7637 81.8678 59.0366 81.8206C61.1489 81.4726 65.9497 80.7645 68.3621 81.1005C70.1624 81.3526 70.6304 82.3967 70.7084 83.2549C70.7207 83.4051 70.7006 83.5562 70.6495 83.6981C70.5985 83.8399 70.5176 83.9692 70.4125 84.0772C70.3073 84.1852 70.1802 84.2695 70.0398 84.3243C69.8993 84.3791 69.7488 84.4032 69.5983 84.395L59.1686 83.927C58.9227 83.9145 58.6887 83.8176 58.506 83.6525C58.3234 83.4873 58.2035 83.2642 58.1664 83.0208Z" fill="#21217A"/>
<path opacity="0.6" d="M58.1664 83.0208C58.1264 82.7468 58.195 82.468 58.3575 82.2438C58.52 82.0196 58.7637 81.8678 59.0366 81.8206C61.1489 81.4726 65.9497 80.7645 68.3621 81.1005C70.1624 81.3526 70.6304 82.3967 70.7084 83.2549C70.7207 83.4051 70.7006 83.5562 70.6495 83.6981C70.5985 83.8399 70.5176 83.9692 70.4125 84.0772C70.3073 84.1852 70.1802 84.2695 70.0398 84.3243C69.8993 84.3791 69.7488 84.4032 69.5983 84.395L59.1686 83.927C58.9227 83.9145 58.6887 83.8176 58.506 83.6525C58.3234 83.4873 58.2035 83.2642 58.1664 83.0208Z" fill="black"/>
<path d="M64.1974 187.858L68.068 190.546L74.5431 181.767L70.6725 179.084L64.1974 187.858Z" fill="#E58A7B"/>
<path d="M55.172 187.684L59.2586 190.012L64.9895 180.729L60.9029 178.4L55.172 187.684Z" fill="#E58A7B"/>
<path d="M74.5371 181.767L71.2005 186.291L67.3299 183.609L70.6664 179.084L74.5371 181.767Z" fill="#CF6F64"/>
<path d="M60.8969 178.4L64.9896 180.735L62.0371 185.517L57.9444 183.183L60.8969 178.4Z" fill="#CF6F64"/>
<path d="M67.4619 112.329C67.4619 112.329 82.5724 131.371 79.7339 149.583C77.4475 164.292 64.1854 184.209 64.1854 184.209L57.9504 181.113C62.3452 172.306 66.0956 163.193 69.1722 153.844C70.1209 150.942 70.3979 147.862 69.982 144.836C69.5662 141.811 68.4685 138.92 66.7718 136.381C59.1146 125.202 46.8486 131.857 55.0999 112.329H67.4619Z" fill="#21217A"/>
<path opacity="0.6" d="M67.4619 112.329C67.4619 112.329 82.5724 131.371 79.7339 149.583C77.4475 164.292 64.1854 184.209 64.1854 184.209L57.9504 181.113C62.3452 172.306 66.0956 163.193 69.1722 153.844C70.1209 150.942 70.3979 147.862 69.982 144.836C69.5662 141.811 68.4685 138.92 66.7718 136.381C59.1146 125.202 46.8486 131.857 55.0999 112.329H67.4619Z" fill="black"/>
<path opacity="0.4" d="M74.8732 124.559L72.6768 122.375C72.6768 122.549 76.9315 148.815 78.1257 156.197C78.8304 154.04 79.37 151.834 79.7399 149.596C81.1442 140.66 78.2097 131.533 74.8732 124.559Z" fill="black"/>
<path d="M74.207 112.329C74.207 112.329 92.4019 136.261 92.918 150.61C93.3441 162.612 73.1148 185.865 73.1148 185.865L67.2339 182.061C67.2339 182.061 79.0738 165.546 82.0563 152.056C80.9041 138.686 56.5402 112.329 56.5402 112.329H74.207Z" fill="#21217A"/>
<path opacity="0.6" d="M74.207 112.329C74.207 112.329 92.4019 136.261 92.918 150.61C93.3441 162.612 73.1148 185.865 73.1148 185.865L67.2339 182.061C67.2339 182.061 79.0738 165.546 82.0563 152.056C80.9041 138.686 56.5402 112.329 56.5402 112.329H74.207Z" fill="black"/>
<path d="M51.6974 83.7709C49.7531 84.233 47.8868 91.3021 47.8868 91.3021L55.49 96.3789C55.49 96.3789 58.0224 90.786 57.1343 88.3376C56.2161 85.7872 54.1398 83.1888 51.6974 83.7709Z" fill="#21217A"/>
<path opacity="0.2" d="M53.1857 88.3256L52.6576 94.4886L55.484 96.3849C56.2645 94.6279 56.8423 92.7878 57.2063 90.9L53.1857 88.3256Z" fill="black"/>
<path d="M76.4574 83.9089C76.4574 83.9089 78.7018 84.695 74.207 112.323H55.088C55.412 104.522 55.418 99.7214 51.6974 83.7709C54.3745 83.2192 57.088 82.8622 59.8167 82.7027C62.7075 82.4954 65.6094 82.4954 68.5001 82.7027C72.2327 83.0448 76.4574 83.9089 76.4574 83.9089Z" fill="#21217A"/>
<path d="M78.4017 88.3256C78.8337 89.5258 79.2898 90.816 79.7699 92.0582C80.25 93.3004 80.7061 94.5786 81.1921 95.8389L82.6624 99.6075L83.0344 100.55L83.2265 101.018L83.3165 101.252C83.3165 101.294 83.3165 101.294 83.3165 101.288C83.2068 101.133 83.0631 101.006 82.8964 100.916C82.659 100.776 82.3914 100.696 82.1163 100.682C81.8877 100.674 81.6603 100.718 81.4502 100.808C81.1741 100.934 81.1741 100.988 81.1801 100.982C81.23 100.942 81.2744 100.895 81.3121 100.844C81.6443 100.408 81.9318 99.9391 82.1703 99.4454C82.4523 98.8933 82.7224 98.3052 82.9924 97.7111C83.5205 96.511 84.0066 95.2688 84.4927 94.0146C84.9787 92.7603 85.4408 91.4941 85.8909 90.2159L87.2591 86.3873L89.5695 86.9874C89.1134 89.7239 88.5253 92.3883 87.8172 95.1007C87.4751 96.4509 87.0731 97.7892 86.617 99.1394C86.389 99.8175 86.1369 100.49 85.8489 101.18C85.5486 101.929 85.179 102.648 84.7447 103.328C84.5851 103.557 84.4086 103.774 84.2166 103.976C83.9102 104.307 83.5382 104.571 83.1244 104.75C82.7573 104.908 82.3595 104.982 81.9603 104.966C81.513 104.95 81.0773 104.82 80.694 104.588C80.242 104.306 79.8667 103.916 79.6019 103.454C79.5119 103.298 79.4338 103.142 79.3798 103.028L79.2658 102.8L79.0378 102.332L78.5817 101.402C77.9816 100.154 77.3815 98.8933 76.8594 97.6271C76.3373 96.3609 75.7853 95.0767 75.2692 93.7865C74.7531 92.4963 74.291 91.2061 73.853 89.8139L78.4017 88.3256Z" fill="#E58A7B"/>
<path d="M76.4574 83.909C78.7557 84.455 81.3422 91.2481 81.3422 91.2481L74.5071 97.0631C74.5071 97.0631 70.0843 89.6579 70.9785 87.2155C71.9086 84.6711 73.4569 83.1948 76.4574 83.909Z" fill="#21217A"/>
<path d="M88.3453 84.239L90.7457 82.2346L92.414 84.8331L91.1838 86.9994C91.1838 86.9994 89.2275 88.7997 87.4992 87.8816C87.2249 87.265 87.1591 86.5758 87.3118 85.9185C87.4645 85.2611 87.8273 84.6715 88.3453 84.239Z" fill="#E58A7B"/>
<path d="M95.0784 82.2406L94.8983 82.8948L91.0997 83.5309L90.7277 82.2346L95.0784 82.2406Z" fill="#E58A7B"/>
<path d="M73.5829 186.171L66.7298 181.743L67.96 179.606L75.6593 184.341L73.5829 186.171Z" fill="#21217A"/>
<path d="M61.9411 189.7C61.3398 189.627 60.762 189.422 60.2488 189.1C60.2276 189.093 60.2093 189.079 60.1963 189.06C60.1833 189.042 60.1763 189.02 60.1763 188.998C60.1763 188.975 60.1833 188.954 60.1963 188.935C60.2093 188.917 60.2276 188.903 60.2488 188.896C60.4348 188.836 62.0491 188.338 62.5172 188.722C62.5698 188.766 62.6097 188.823 62.633 188.887C62.6562 188.951 62.6618 189.021 62.6492 189.088C62.6408 189.196 62.605 189.3 62.5452 189.39C62.4853 189.481 62.4034 189.554 62.3071 189.604C62.1947 189.665 62.0691 189.698 61.9411 189.7ZM60.5908 189.04C61.341 189.424 61.9411 189.562 62.2291 189.418C62.2918 189.383 62.3446 189.333 62.3824 189.272C62.4202 189.211 62.4418 189.142 62.4451 189.07C62.4451 188.974 62.4451 188.932 62.3911 188.908C62.1391 188.704 61.239 188.86 60.5788 189.04H60.5908Z" fill="#263238"/>
<path d="M60.2908 189.142C60.2591 189.141 60.2289 189.128 60.2068 189.106C60.1979 189.089 60.1932 189.071 60.1932 189.052C60.1932 189.033 60.1979 189.014 60.2068 188.998C60.2068 188.944 60.5968 187.642 61.2089 187.348C61.2871 187.312 61.3721 187.293 61.458 187.293C61.5439 187.293 61.6288 187.312 61.707 187.348C61.7913 187.374 61.8642 187.428 61.9143 187.501C61.9643 187.574 61.9885 187.661 61.9831 187.75C61.9411 188.29 60.8429 189.034 60.3388 189.16L60.2908 189.142ZM61.455 187.504C61.3966 187.505 61.3393 187.52 61.287 187.546C60.9149 187.726 60.6088 188.428 60.4588 188.854C60.9869 188.632 61.713 188.044 61.737 187.714C61.737 187.66 61.737 187.594 61.599 187.534C61.5541 187.509 61.5054 187.493 61.455 187.486V187.504Z" fill="#263238"/>
<path d="M70.5044 192.292C69.8263 192.292 68.8842 191.422 68.3681 190.888C68.3549 190.87 68.3478 190.848 68.3478 190.825C68.3478 190.803 68.3549 190.781 68.3681 190.762C68.3799 190.743 68.3968 190.727 68.4168 190.716C68.4369 190.706 68.4594 190.701 68.4821 190.702C68.7221 190.702 70.8045 191.014 71.0985 191.602C71.1297 191.655 71.1461 191.715 71.1461 191.776C71.1461 191.838 71.1297 191.898 71.0985 191.95C71.0544 192.042 70.9878 192.121 70.9049 192.18C70.8219 192.238 70.7254 192.275 70.6244 192.286L70.5044 192.292ZM68.7641 190.972C69.5203 191.704 70.1864 192.112 70.5644 192.064C70.6306 192.056 70.6937 192.031 70.7481 191.992C70.8025 191.954 70.8466 191.902 70.8765 191.842C70.8899 191.822 70.8971 191.798 70.8971 191.773C70.8971 191.749 70.8899 191.725 70.8765 191.704C70.7205 191.38 69.6103 191.104 68.7641 190.972Z" fill="#263238"/>
<path d="M68.8302 190.942C68.6955 190.946 68.5607 190.936 68.4281 190.912C68.4096 190.909 68.3921 190.902 68.3774 190.89C68.3626 190.879 68.3512 190.863 68.3441 190.846C68.3351 190.828 68.3305 190.809 68.3305 190.789C68.3305 190.769 68.3351 190.75 68.3441 190.732C68.3801 190.69 69.1902 189.712 69.9584 189.646C70.1758 189.629 70.3912 189.698 70.5585 189.838C70.7925 190.042 70.7805 190.222 70.7205 190.336C70.5705 190.744 69.5323 190.942 68.8302 190.942ZM68.6741 190.72C69.3463 190.756 70.4204 190.534 70.5585 190.24C70.5585 190.24 70.6065 190.144 70.4504 190.012C70.3883 189.958 70.3158 189.917 70.2374 189.893C70.1589 189.868 70.0762 189.859 69.9944 189.868C69.4769 190.012 69.0162 190.312 68.6741 190.726V190.72Z" fill="#263238"/>
<path d="M60.4528 188.494L55.364 187.054C55.2763 187.027 55.1818 187.034 55.0988 187.072C55.0157 187.111 54.9499 187.179 54.9139 187.264L53.1976 191.122C53.1573 191.221 53.1384 191.327 53.1421 191.434C53.1458 191.541 53.172 191.645 53.2191 191.741C53.2661 191.837 53.3329 191.922 53.4151 191.99C53.4972 192.058 53.5929 192.108 53.6957 192.136C55.496 192.604 56.3601 192.736 58.5985 193.379C59.9787 193.763 61.947 194.477 63.8493 195.017C65.7517 195.557 66.3878 193.703 65.6496 193.307C62.3131 191.542 62.0491 190.306 61.1369 188.986C60.9736 188.747 60.7314 188.573 60.4528 188.494Z" fill="#21217A"/>
<path d="M68.5061 190.186L64.1614 187.186C64.0877 187.132 63.997 187.107 63.9062 187.116C63.8155 187.125 63.7312 187.167 63.6693 187.234L60.7889 190.33C60.7187 190.41 60.6663 190.504 60.6353 190.606C60.6042 190.708 60.5952 190.815 60.6089 190.921C60.6225 191.026 60.6584 191.128 60.7143 191.218C60.7702 191.309 60.8447 191.387 60.9329 191.446C62.4631 192.472 63.2553 192.886 65.1696 194.213C66.3698 195.029 68.6921 196.841 70.3124 197.969C71.9327 199.097 73.1389 197.549 72.5628 196.937C69.9823 194.183 69.4183 192.454 68.9922 190.888C68.9182 190.604 68.746 190.355 68.5061 190.186Z" fill="#21217A"/>
<path d="M64.9835 184.605L57.1523 180.71L57.9624 178.586L66.3277 182.691L64.9835 184.605Z" fill="#21217A"/>
<path d="M54.7999 111.201L54.1398 112.93C54.0738 113.062 54.2298 113.2 54.4519 113.2H74.3031C74.4771 113.2 74.6211 113.116 74.6331 113.008L74.8011 111.291C74.8011 111.177 74.6631 111.075 74.4771 111.075H55.112C55.0537 111.07 54.9949 111.078 54.9406 111.1C54.8863 111.122 54.8381 111.157 54.7999 111.201Z" fill="#21217A"/>
<path opacity="0.4" d="M54.7999 111.201L54.1398 112.93C54.0738 113.062 54.2298 113.2 54.4519 113.2H74.3031C74.4771 113.2 74.6211 113.116 74.6331 113.008L74.8011 111.291C74.8011 111.177 74.6631 111.075 74.4771 111.075H55.112C55.0537 111.07 54.9949 111.078 54.9406 111.1C54.8863 111.122 54.8381 111.157 54.7999 111.201Z" fill="white"/>
<path d="M57.9264 113.368H57.4043C57.3023 113.368 57.2243 113.314 57.2303 113.248L57.4763 111.021C57.4763 110.961 57.5723 110.907 57.6743 110.907H58.1964C58.2984 110.907 58.3765 110.961 58.3705 111.021L58.1244 113.248C58.1184 113.314 58.0284 113.368 57.9264 113.368Z" fill="#21217A"/>
<path d="M70.1684 113.368H69.6523C69.5503 113.368 69.4722 113.314 69.4782 113.248L69.7183 111.021C69.7183 110.961 69.8203 110.907 69.9223 110.907H70.4384C70.5404 110.907 70.6244 110.961 70.6124 111.021L70.3724 113.248C70.3424 113.314 70.2764 113.368 70.1684 113.368Z" fill="#21217A"/>
<path d="M67.2639 212.186C64.4195 211.357 61.2629 210.295 59.3546 209.185C59.3006 209.149 59.2406 209.131 59.1866 209.101V196.223H64.9415C65.3784 196.197 65.7889 196.005 66.089 195.687C66.3892 195.368 66.5564 194.947 66.5564 194.51C66.5564 194.072 66.3892 193.651 66.089 193.333C65.7889 193.014 65.3784 192.822 64.9415 192.796H59.2166V134.095H55.7601V192.796H50.0411C49.8076 192.783 49.5737 192.817 49.3539 192.897C49.134 192.976 48.9327 193.1 48.7625 193.261C48.5923 193.421 48.4567 193.615 48.3639 193.83C48.2712 194.044 48.2234 194.276 48.2234 194.51C48.2234 194.744 48.2712 194.975 48.3639 195.19C48.4567 195.405 48.5923 195.598 48.7625 195.759C48.9327 195.919 49.134 196.043 49.3539 196.123C49.5737 196.203 49.8076 196.237 50.0411 196.223H55.7601V209.083C55.7061 209.083 55.652 209.131 55.598 209.167C53.6597 210.295 50.5272 211.357 47.6828 212.168C47.4906 212.226 47.3256 212.351 47.2177 212.52C47.1097 212.689 47.0659 212.891 47.0942 213.09C47.1224 213.289 47.221 213.471 47.3719 213.603C47.5228 213.736 47.7161 213.81 47.9168 213.812H67.0299C67.2217 213.799 67.4032 213.72 67.5442 213.59C67.6851 213.459 67.7769 213.284 67.8043 213.093C67.8317 212.903 67.793 212.709 67.6946 212.544C67.5963 212.379 67.4443 212.252 67.2639 212.186Z" fill="#E0E0E0"/>
<path d="M68.1461 128.118H46.8066C45.0898 128.118 43.6981 129.51 43.6981 131.227V137.57C43.6981 139.286 45.0898 140.678 46.8066 140.678H68.1461C69.8628 140.678 71.2546 139.286 71.2546 137.57V131.227C71.2546 129.51 69.8628 128.118 68.1461 128.118Z" fill="#21217A"/>
<path d="M46.6086 140.684V141.776C46.6086 142.676 47.5867 143.408 48.7869 143.408H66.1897C67.3899 143.408 68.3681 142.676 68.3681 141.776V140.684H46.6086Z" fill="#21217A"/>
<path opacity="0.3" d="M46.6086 140.684V141.776C46.6086 142.676 47.5867 143.408 48.7869 143.408H66.1897C67.3899 143.408 68.3681 142.676 68.3681 141.776V140.684H46.6086Z" fill="white"/>
</g>
</svg>
