<svg width="287" height="204" viewBox="0 0 287 204" fill="none" xmlns="http://www.w3.org/2000/svg">
<mask id="mask0_1494_17586" style="mask-type:alpha" maskUnits="userSpaceOnUse" x="0" y="0" width="287" height="204">
<rect width="287" height="204" rx="64" fill="#EAF0FF"/>
</mask>
<g mask="url(#mask0_1494_17586)">
<rect y="33" width="287" height="198" rx="64" fill="#224495" fill-opacity="0.2"/>
<path d="M260.044 234.482V149.77C260.044 149.77 240.448 169.649 201.362 166.324C172.659 163.882 121.04 140.004 95.5898 127.478C90.9329 125.181 85.7752 124.087 80.587 124.294C75.3988 124.502 70.345 126.005 65.8865 128.666C45.1666 141.025 9.4575 162.318 5.56709 164.6L0.0466309 167.831V236.75L260.044 234.482Z" fill="#F5F5F5"/>
<path d="M81.9769 151.675C81.2525 153.443 79.7528 154.776 78.2821 156.022C72.2732 161.044 65.7104 165.363 58.7215 168.896C58.7215 168.896 17.7382 194.39 0.0393677 205.279V167.831L5.56708 164.6C9.45748 162.318 45.1666 141.025 65.8937 128.666C70.567 125.888 75.8889 124.389 81.3249 124.319C82.4979 125.093 83.318 126.298 83.607 127.673C84.0634 130.093 82.6145 132.469 80.8323 134.157C79.0501 135.845 76.9056 137.135 75.2828 138.982C74.1454 140.272 73.2978 142.199 74.1889 143.67C75.4857 145.807 78.9487 144.959 80.9409 146.466C82.4913 147.582 82.7159 149.9 81.9769 151.675Z" fill="#E6E6E6"/>
<path d="M-0.815552 234.837V139.743C-0.815552 139.743 21.1866 162.057 65.1112 158.326C97.3357 155.587 155.279 128.782 183.816 114.72C189.04 112.143 194.827 110.916 200.648 111.149C206.469 111.381 212.139 113.067 217.141 116.053C240.404 129.926 280.489 153.827 284.857 156.384L291.059 160.006V237.38L-0.815552 234.837Z" fill="#F0F0F0"/>
<path d="M217.54 177.3C195.074 186.968 171.966 195.073 148.382 201.555C145.839 202.279 142.666 203.83 143.108 206.431C143.579 209.227 147.455 209.43 150.28 208.973C166.756 206.283 183.505 205.687 200.131 207.198C204.362 207.59 209.65 209.126 210.099 213.356C210.483 217.03 206.781 219.688 203.521 221.42C192.657 227.206 181.383 232.187 169.79 236.322L-0.815552 234.837V139.743C-0.815552 139.743 21.1866 162.057 65.1112 158.326C97.3357 155.587 155.279 128.782 183.816 114.72C186.126 113.579 188.555 112.699 191.06 112.097C189.611 118.465 191.567 125.681 197.436 128.202C200.891 129.651 204.833 129.26 208.578 129.651C212.324 130.042 216.504 131.709 217.583 135.317C218.742 139.171 215.83 142.945 213.236 146.024C210.643 149.103 208.056 153.269 209.839 156.891C212.736 162.788 223.886 160.579 225.958 166.809C227.501 171.489 222.089 175.322 217.54 177.3Z" fill="#E0E0E0"/>
<path d="M222.676 67.3757L237.557 67.0859L238.796 67.6148C242.164 69.045 245.809 69.7009 249.465 69.5341C253.12 69.3673 256.691 68.3821 259.914 66.6512L272.368 66.4121C272.368 66.4121 283.959 61.7973 282.199 50.213C280.438 38.6287 263.073 48.6409 263.073 48.6409C263.073 48.6409 268.086 32.3258 251.148 37.2522C234.21 42.1786 232.855 58.2619 232.855 58.2619C232.855 58.2619 210.418 54.7989 222.676 67.3757Z" fill="#F0F0F0"/>
<path d="M51.1073 107.736H10.4066C5.19041 107.736 3.93708 100.441 8.85623 98.7236L9.04459 98.6584C3.60382 94.1232 15.5648 84.5602 28.5256 97.8035C27.5113 93.3915 39.0449 94.9853 42.5731 101.006C43.8481 97.079 54.8528 103.925 51.1073 107.736Z" fill="#F0F0F0"/>
<path d="M202.798 80.2374C202.63 81.9023 201.858 83.4481 200.629 84.5838C199.4 85.7195 197.798 86.3668 196.125 86.4038C195.335 86.4179 194.551 86.2637 193.825 85.9514C193.1 85.6391 192.449 85.1759 191.916 84.5926C191.383 84.0093 190.981 83.3192 190.735 82.5683C190.49 81.8174 190.407 81.0228 190.492 80.2374C190.663 78.5674 191.44 77.0179 192.676 75.8817C193.912 74.7455 195.521 74.1013 197.199 74.0709C197.987 74.0595 198.768 74.2158 199.491 74.5294C200.214 74.8431 200.861 75.307 201.391 75.8902C201.92 76.4735 202.32 77.1628 202.562 77.9123C202.805 78.6618 202.886 79.4544 202.798 80.2374Z" fill="#4C4DDC"/>
<path d="M199.148 83.0483C200.743 81.5219 200.905 79.1015 199.508 77.6422C198.112 76.1829 195.686 76.2374 194.091 77.7638C192.496 79.2902 192.335 81.7106 193.732 83.1699C195.128 84.6291 197.553 84.5747 199.148 83.0483Z" fill="white"/>
<path d="M197.692 81.5012C198.371 80.8512 198.44 79.8215 197.846 79.2011C197.252 78.5808 196.221 78.6048 195.542 79.2547C194.863 79.9046 194.794 80.9344 195.388 81.5547C195.981 82.1751 197.013 82.1511 197.692 81.5012Z" fill="#4C4DDC"/>
<path d="M202.618 9.77026C191.4 9.77026 181.503 18.8665 180.522 30.0849C179.541 41.3033 197.359 69.8332 197.359 69.8332C197.359 69.8332 220.177 41.2833 221.131 30.0582C222.085 18.8331 213.843 9.77026 202.618 9.77026ZM200.169 39.8017C198.938 39.8232 197.716 39.5823 196.585 39.095C195.454 38.6076 194.439 37.8851 193.609 36.9754C192.779 36.0657 192.152 34.9896 191.77 33.8188C191.388 32.648 191.259 31.4093 191.393 30.185C191.663 27.5835 192.876 25.1707 194.802 23.4017C196.729 21.6326 199.236 20.6295 201.851 20.5816C203.083 20.559 204.307 20.7994 205.439 21.2867C206.571 21.774 207.587 22.497 208.418 23.4076C209.249 24.3181 209.876 25.3954 210.258 26.5675C210.64 27.7396 210.768 28.9796 210.633 30.205C210.362 32.8064 209.147 35.2185 207.22 36.9863C205.292 38.7541 202.784 39.7556 200.169 39.8017Z" fill="#4C4DDC"/>
<path d="M92.7099 82.68L91.3351 84.2683C90.8746 84.8222 90.4141 85.3761 90.0004 85.9434C89.1061 87.0646 88.2118 88.1924 87.3309 89.347C85.647 91.579 84.1556 93.95 82.8729 96.4344L82.5192 97.1551L82.3991 97.4221L82.3057 97.7891C82.1734 98.3893 82.0842 98.9981 82.0387 99.611C81.9431 101.004 81.9208 102.4 81.972 103.795C82.0521 106.678 82.279 109.668 82.5192 112.598L79.2424 113.359C78.2028 110.42 77.3994 107.403 76.8399 104.336C76.5534 102.741 76.3729 101.129 76.2994 99.5109C76.2644 98.62 76.2957 97.7278 76.3928 96.8415C76.3928 96.6012 76.4529 96.361 76.5129 96.1007C76.573 95.8404 76.6264 95.5801 76.6998 95.3065L76.8333 94.8794L76.9067 94.6592L76.9801 94.5257L77.207 93.9451C77.8089 92.4209 78.5158 90.9402 79.3225 89.5138C80.0776 88.1112 80.9109 86.752 81.8185 85.4429C82.7061 84.1081 83.6404 82.8869 84.6281 81.6389C85.1153 81.0249 85.6091 80.431 86.1297 79.8236C86.6502 79.2163 87.1174 78.6491 87.7447 78.0284L92.7099 82.68Z" fill="#B65B52"/>
<path d="M79.0155 112.298C78.4149 114.386 79.9499 116.429 79.9499 116.429L84.3878 113.806L82.1188 111.37L79.0155 112.298Z" fill="#B55B52"/>
<path d="M84.3945 113.806L79.9565 116.422L83.0264 118.925L87.3442 117.41L84.3945 113.806Z" fill="#B55B52"/>
<path d="M104.289 58.6414C104.529 58.6414 104.736 58.9017 104.749 59.2621C104.763 59.6225 104.596 59.9295 104.355 59.9295C104.214 59.9048 104.087 59.8267 104.001 59.7112C103.915 59.5956 103.877 59.4516 103.895 59.3088C103.882 58.9484 104.055 58.6414 104.289 58.6414Z" fill="#263238"/>
<path d="M103.948 63.3731C104.245 63.437 104.551 63.4349 104.846 63.3668C105.142 63.2987 105.418 63.1664 105.657 62.9793C104.9 62.0604 104.272 61.0435 103.788 59.9562L103.948 63.3731Z" fill="#A02724"/>
<path d="M102.58 57.3134C102.784 57.1415 103.026 57.0213 103.287 56.9632C103.547 56.9051 103.817 56.9108 104.075 56.9797C104.129 56.9964 104.187 56.9911 104.238 56.9648C104.288 56.9385 104.325 56.8935 104.342 56.8396C104.359 56.7856 104.353 56.7272 104.327 56.6771C104.301 56.6271 104.256 56.5895 104.202 56.5726C103.88 56.4874 103.543 56.4798 103.218 56.5506C102.894 56.6214 102.59 56.7685 102.333 56.9797C102.314 56.999 102.299 57.0218 102.288 57.047C102.278 57.0722 102.272 57.0993 102.272 57.1266C102.272 57.1538 102.278 57.1809 102.288 57.2061C102.299 57.2313 102.314 57.2541 102.333 57.2734C102.366 57.3175 102.413 57.3483 102.467 57.3601C102.508 57.3546 102.547 57.3385 102.58 57.3134Z" fill="#263238"/>
<path d="M99.9241 68.3316C99.3235 70.8809 99.3435 74.0576 102.14 74.9185C102.14 74.9185 105.657 77.8415 98.9564 77.8415C92.85 77.8415 91.9157 74.5047 91.9157 74.5047C94.1781 72.3157 93.7376 67.771 93.0502 64.4942L99.9241 68.3316Z" fill="#B55B52"/>
<path d="M93.2637 85.7899C91.7884 88.7775 89.412 91.2263 86.4699 92.7905L79.7963 86.0034C79.7963 86.0034 85.8026 75.0987 90.1071 75.0453C94.5117 75.0052 95.8064 80.6044 93.2637 85.7899Z" fill="#4C4DDC"/>
<path opacity="0.3" d="M93.2637 85.7899C91.7884 88.7775 89.412 91.2263 86.4699 92.7905L79.7963 86.0034C79.7963 86.0034 85.8026 75.0987 90.1071 75.0453C94.5117 75.0052 95.8064 80.6044 93.2637 85.7899Z" fill="black"/>
<path d="M105.33 74.9719C104.349 74.7983 103.234 74.6315 102.113 74.5314C98.7167 74.3379 95.3121 74.3379 91.9157 74.5314H91.6621C91.4819 74.5314 91.295 74.5314 91.1148 74.5781C90.2042 74.6997 89.3264 74.9996 88.5316 75.4605C87.7369 75.9214 87.0407 76.5345 86.483 77.2645C85.9252 77.9946 85.5167 78.8274 85.2809 79.7154C85.0451 80.6033 84.9865 81.5291 85.1086 82.4397C87.164 97.3953 85.6158 111.33 85.7759 114.52H109.761C112.17 94.8193 111.469 84.8622 110.488 80.0171C110.231 78.7568 109.603 77.6025 108.683 76.7032C107.763 75.8038 106.595 75.2008 105.33 74.9719Z" fill="#4C4DDC"/>
<path opacity="0.2" d="M105.33 74.9719C104.349 74.7983 103.234 74.6315 102.113 74.5314C98.7167 74.3379 95.3121 74.3379 91.9157 74.5314H91.6621C91.4819 74.5314 91.295 74.5314 91.1148 74.5781C90.2042 74.6997 89.3264 74.9996 88.5316 75.4605C87.7369 75.9214 87.0407 76.5345 86.483 77.2645C85.9252 77.9946 85.5167 78.8274 85.2809 79.7154C85.0451 80.6033 84.9865 81.5291 85.1086 82.4397C87.164 97.3953 85.6158 111.33 85.7759 114.52H109.761C112.17 94.8193 111.469 84.8622 110.488 80.0171C110.231 78.7568 109.603 77.6025 108.683 76.7032C107.763 75.8038 106.595 75.2008 105.33 74.9719Z" fill="black"/>
<path opacity="0.2" d="M111.343 96.2274C111.51 91.8495 111.343 88.8197 108.226 87.8053L105.009 90.0009C105.583 93.0107 108.667 95.5534 111.343 96.2274Z" fill="black"/>
<path d="M104.496 64.8279C104.397 65.3461 104.236 65.8504 104.015 66.3295C103.597 67.229 102.965 68.0122 102.174 68.6102C101.382 69.2083 100.456 69.603 99.4769 69.7597C98.6274 69.8904 97.7593 69.8235 96.9398 69.5642C96.1204 69.305 95.3717 68.8603 94.752 68.2648C92.3895 66.0826 92.3161 63.4598 91.8022 59.0352C91.6743 58.0147 91.8105 56.9784 92.1979 56.0257C92.5852 55.0729 93.2107 54.2356 94.0145 53.594C94.8183 52.9523 95.7733 52.5278 96.7882 52.361C97.8031 52.1943 98.8438 52.291 99.8106 52.6418C104.275 54.2302 105.236 60.8037 104.496 64.8279Z" fill="#B55B52"/>
<path d="M87.2775 59.1887C86.0095 62.4455 84.7282 65.7222 82.7061 68.6253C83.0778 68.2802 83.513 68.0105 83.9874 67.8311C84.2267 67.6997 84.4952 67.6307 84.7682 67.6307C85.0412 67.6307 85.3098 67.6997 85.549 67.8311C85.7826 67.9779 85.9494 68.2048 86.183 68.3516C86.4653 68.4913 86.7826 68.5443 87.095 68.5039C87.4073 68.4636 87.7007 68.3316 87.9382 68.1247C88.3789 67.7084 88.7229 67.2003 88.9459 66.6365C89.1862 66.1293 89.8469 66.3696 90.2072 66.8034C89.5794 64.1674 89.3544 61.4516 89.5399 58.7483C89.3356 58.5506 89.0882 58.4032 88.8172 58.3175C88.5462 58.2318 88.259 58.2102 87.9782 58.2544C87.5044 58.3011 87.4377 58.7816 87.2775 59.1887Z" fill="#4C4DDC"/>
<path opacity="0.2" d="M87.2775 59.1887C86.0095 62.4455 84.7282 65.7222 82.7061 68.6253C83.0778 68.2802 83.513 68.0105 83.9874 67.8311C84.2267 67.6997 84.4952 67.6307 84.7682 67.6307C85.0412 67.6307 85.3098 67.6997 85.549 67.8311C85.7826 67.9779 85.9494 68.2048 86.183 68.3516C86.4653 68.4913 86.7826 68.5443 87.095 68.5039C87.4073 68.4636 87.7007 68.3316 87.9382 68.1247C88.3789 67.7084 88.7229 67.2003 88.9459 66.6365C89.1862 66.1293 89.8469 66.3696 90.2072 66.8034C89.5794 64.1674 89.3544 61.4516 89.5399 58.7483C89.3356 58.5506 89.0882 58.4032 88.8172 58.3175C88.5462 58.2318 88.259 58.2102 87.9782 58.2544C87.5044 58.3011 87.4377 58.7816 87.2775 59.1887Z" fill="black"/>
<path opacity="0.5" d="M104.015 66.3295C103.597 67.229 102.965 68.0121 102.174 68.6102C101.382 69.2083 100.456 69.603 99.4769 69.7597C99.4913 69.428 99.5925 69.1058 99.7706 68.8254C100.681 67.3447 101.447 65.7804 102.06 64.1539C102.459 62.995 102.594 61.7612 102.453 60.5434C102.413 60.2832 101.94 59.2087 102.066 58.9951C102.287 58.6615 102.901 58.8817 103.087 59.1353C103.374 59.5491 103.955 65.6621 104.015 66.3295Z" fill="black"/>
<path d="M102.247 51.0802C102.077 50.5156 101.733 50.0194 101.263 49.6631C100.794 49.3067 100.223 49.1088 99.6336 49.0976C99.0442 49.0865 98.4666 49.2628 97.9838 49.6011C97.5011 49.9394 97.1383 50.4223 96.9477 50.9801C95.3059 50.1726 93.1437 50.0791 91.6488 51.1336C84.4946 56.1522 87.7047 60.0362 88.6924 59.3956C86.6169 62.8459 88.6523 63.64 89.5199 63.5065C88.9326 63.6934 88.4254 65.1883 89.6133 66.6298C93.1103 70.8676 97.4882 70.3137 99.804 67.0903C100.798 67.8177 102.22 66.6231 102.307 65.3952C102.393 64.1672 101.733 63.0394 101.399 61.8582C101.065 60.6769 100.491 59.2888 101.619 58.7949C101.96 59.2554 102.34 60.1297 102.687 60.5701C102.987 59.6425 103.608 58.0275 103.161 57.1599C107.359 52.2614 102.247 51.0802 102.247 51.0802Z" fill="#263238"/>
<path d="M101.619 58.7949C102.847 59.3488 103.314 61.2775 103.234 62.4654C103.154 63.8002 102.187 64.5076 101.132 63.4932C100.34 62.713 99.822 61.6966 99.6572 60.5968C99.4903 59.2754 100.385 58.2477 101.619 58.7949Z" fill="#B55B52"/>
<path d="M132.578 86.2837L131.464 83.8879L126.699 86.831C126.699 86.831 128.267 90.041 131.524 89.694L132.251 88.8197C132.54 88.4714 132.725 88.0481 132.783 87.5991C132.84 87.1502 132.77 86.694 132.578 86.2837Z" fill="#B55B52"/>
<path d="M126.986 82.8601L125.918 83.7811C125.61 84.0469 125.421 84.4238 125.391 84.8291C125.361 85.2345 125.493 85.6352 125.758 85.9434L125.871 86.0635L126.699 86.831L131.464 83.8879L128.607 82.6399C128.343 82.5222 128.052 82.4805 127.765 82.5194C127.479 82.5583 127.209 82.6763 126.986 82.8601Z" fill="#B55B52"/>
<path d="M128.781 89.3469H123.562C123.508 89.3483 123.455 89.3381 123.405 89.3169C123.356 89.2957 123.312 89.264 123.275 89.2241C123.239 89.1841 123.212 89.1369 123.196 89.0855C123.18 89.0342 123.175 88.9799 123.182 88.9265L124.156 77.7481C124.168 77.6336 124.221 77.5274 124.306 77.4498C124.391 77.3722 124.502 77.3288 124.617 77.3277H129.835C129.889 77.3263 129.943 77.3366 129.992 77.3578C130.042 77.379 130.086 77.4106 130.122 77.4506C130.158 77.4905 130.185 77.5377 130.202 77.5891C130.218 77.6405 130.223 77.6947 130.216 77.7481L129.241 88.9265C129.23 89.041 129.177 89.1472 129.092 89.2248C129.007 89.3024 128.896 89.3459 128.781 89.3469Z" fill="#263238"/>
<path d="M128.634 88.6529H123.696L124.643 77.8082H129.582L128.634 88.6529Z" fill="#4C4DDC"/>
<path d="M128.094 77.9817H125.878L125.805 77.6013H128.214L128.094 77.9817Z" fill="#263238"/>
<path d="M85.8026 114.547C85.8026 114.547 79.5294 147.755 77.4672 162.811C71.808 181.03 64.0665 214.431 64.0665 214.431L71.3074 218.355C71.3074 218.355 87.8181 175.784 90.9347 161.783C93.7977 148.996 101.279 114.547 101.279 114.547H85.8026Z" fill="#4C4DDC"/>
<path opacity="0.3" d="M97.7618 130.563C95.406 141.335 92.4696 154.782 90.908 161.769C90.8412 162.103 90.7545 162.437 90.6744 162.817C90.5743 151.145 91.2083 131.251 96.8542 130.497C97.158 130.452 97.4679 130.475 97.7618 130.563Z" fill="black"/>
<path d="M94.0179 114.547C94.0179 114.547 97.1412 147.608 97.7084 162.844C98.2223 176.812 99.4636 222.56 99.4636 222.56H107.065C107.065 222.56 111.069 175.984 111.383 161.749C111.683 148.048 109.788 114.547 109.788 114.547H94.0179Z" fill="#4C4DDC"/>
<path d="M85.8026 114.547C85.8026 114.547 79.5294 147.755 77.4672 162.811C71.808 181.03 64.0665 214.431 64.0665 214.431L71.3074 218.355C71.3074 218.355 87.8181 175.784 90.9347 161.783C93.7977 148.996 101.279 114.547 101.279 114.547H85.8026Z" fill="#263238"/>
<path d="M94.0179 114.547C94.0179 114.547 97.1412 147.608 97.7084 162.844C98.2223 176.812 99.4636 222.56 99.4636 222.56H107.065C107.065 222.56 111.069 175.984 111.383 161.749C111.683 148.048 109.788 114.547 109.788 114.547H94.0179Z" fill="#263238"/>
<path d="M108.346 79.6368C109.444 81.1505 110.617 82.6073 111.863 84.0013C113.105 85.4028 114.393 86.7642 115.761 88.1056C117.129 89.447 118.51 90.715 120.032 92.1098L119.104 91.5359C119.283 91.6453 119.489 91.7009 119.698 91.6961C120.094 91.7063 120.49 91.6591 120.873 91.5559C121.908 91.2683 122.906 90.863 123.849 90.348C124.907 89.778 125.934 89.152 126.926 88.4727C127.953 87.8053 128.981 87.0445 129.935 86.3305L132.398 88.6329C131.971 89.2268 131.557 89.7474 131.117 90.2612C130.676 90.7751 130.222 91.3023 129.749 91.7895C128.783 92.8059 127.741 93.7473 126.632 94.6058C125.435 95.5481 124.117 96.3269 122.715 96.9215C121.876 97.2532 121 97.4775 120.105 97.5889C119.02 97.7231 117.919 97.602 116.888 97.2352L116.461 97.0884L115.948 96.6613C114.506 95.4734 112.898 94.172 111.356 92.8172C109.814 91.4625 108.313 90.021 106.891 88.5061C105.454 86.9862 104.104 85.3864 102.847 83.7144C101.599 82.0126 107.278 78.1219 108.346 79.6368Z" fill="#B65B52"/>
<path d="M109.261 76.7871C114.025 80.3776 117.563 87.9722 117.563 87.9722L107.959 93.2377C107.959 93.2377 100.565 87.8454 100.131 81.3986C99.8106 76.5068 103.374 72.3758 109.261 76.7871Z" fill="#4C4DDC"/>
<path opacity="0.2" d="M109.261 76.7871C114.025 80.3776 117.563 87.9722 117.563 87.9722L107.959 93.2377C107.959 93.2377 100.565 87.8454 100.131 81.3986C99.8106 76.5068 103.374 72.3758 109.261 76.7871Z" fill="black"/>
<path d="M89.2396 74.458C84.1609 77.9283 80.6306 83.3073 78.3549 89.0199C76.0791 94.7326 74.9646 100.839 73.8568 106.885C77.0389 108.724 80.7348 109.471 84.3812 109.014C85.5224 111.297 85.3088 114.046 84.5347 116.475C83.7605 118.905 82.4858 121.147 81.4915 123.496C78.5951 130.383 78.2748 138.031 77.0668 145.412C73.73 165.827 62.9788 182.117 47.309 195.625C49.6248 199.629 54.2163 202.299 58.7744 202.999C63.3325 203.7 67.9707 203.106 72.5688 202.919C77.1669 202.732 81.972 202.973 86.0563 205.095C89.8469 207.064 92.7299 210.507 96.5472 212.436C102.013 215.185 108.513 214.438 114.566 213.624C119.471 176.331 119.011 140.974 113.752 103.729C113.585 102.534 113.245 101.306 112.991 100.125C117.135 102.708 123.222 101.533 126.245 97.6957C129.028 94.1586 125.578 88.4527 122.161 85.5363L122.828 85.7699C122.161 87.0445 119.324 86.2637 118.39 85.1759C117.456 84.0881 117.242 82.5732 116.815 81.2051C115.906 78.5552 114.106 76.3026 111.722 74.8313C109.338 73.36 106.518 72.7611 103.741 73.1366C99.2167 71.6617 93.177 71.7619 89.2396 74.458Z" fill="#4C4DDC"/>
<path opacity="0.7" d="M122.841 85.7565C122.802 85.8407 122.745 85.9158 122.675 85.9767C122.508 85.8232 122.341 85.6697 122.174 85.5296L122.841 85.7565Z" fill="white"/>
<path opacity="0.8" d="M126.258 97.689C123.235 101.526 117.149 102.694 113.004 100.118C113.251 101.299 113.598 102.534 113.765 103.722C119.031 140.961 119.485 176.331 114.579 213.617C108.513 214.431 102.013 215.179 96.5606 212.429C92.7366 210.507 89.8869 207.09 86.0696 205.088C81.9786 202.959 77.187 202.712 72.5821 202.906C67.9773 203.099 63.3458 203.66 58.7877 202.986C54.2296 202.312 49.6181 199.602 47.309 195.618C62.9788 182.117 73.71 165.82 77.0668 145.406C78.2815 138.031 78.5951 130.383 81.4981 123.496C82.4792 121.14 83.7672 118.911 84.5347 116.475C85.3021 114.039 85.5157 111.297 84.3878 109.014C84.3078 109.014 84.2143 109.014 84.1342 109.014C81.9337 109.261 79.7062 109.068 77.5807 108.447C77.5807 108.447 77.5473 108.447 77.5273 108.447C76.2451 108.077 75.0125 107.553 73.8568 106.885C73.8568 106.805 73.8902 106.732 73.8969 106.645C74.998 100.679 76.1125 94.6324 78.3549 89.0199C79.534 85.9748 81.1164 83.1017 83.0598 80.4776C84.7709 78.1454 86.8596 76.1153 89.2396 74.4713C93.1704 71.8018 99.2167 71.675 103.748 73.1366C106.522 72.7591 109.341 73.354 111.725 74.8201C114.11 76.2861 115.913 78.5329 116.828 81.1783C117.262 82.5464 117.462 84.0614 118.403 85.1425C119.344 86.2236 121.827 86.9177 122.675 85.9567C125.925 88.9999 128.908 94.3254 126.258 97.689Z" fill="white"/>
<path opacity="0.1" d="M84.201 109.208C81.9656 109.476 79.6984 109.218 77.5807 108.454C77.5807 108.454 77.5473 108.454 77.5273 108.454C76.3002 108.023 75.1424 107.416 74.0904 106.652C74.026 106.658 73.9612 106.658 73.8969 106.652C74.998 100.685 76.1125 94.6391 78.3548 89.0266C79.534 85.9815 81.1164 83.1085 83.0598 80.4843C82.6803 81.2373 82.4063 82.039 82.2456 82.8668C80.5279 91.6037 81.18 100.641 84.1342 109.041C84.1609 109.108 84.1743 109.161 84.201 109.208Z" fill="black"/>
<path opacity="0.1" d="M114.466 108.06C109.688 103.081 108.293 96.6212 108.386 89.7206C109.378 93.621 111.03 97.3227 113.271 100.665L114.466 108.06Z" fill="black"/>
<path opacity="0.1" d="M63.7996 193.663C62.4649 195.511 60.97 197.847 61.9243 199.936C62.8787 202.025 65.9285 202.432 67.9306 201.324C69.9327 200.216 71.2007 198.107 72.3152 196.079C80.2368 181.65 86.6369 166.187 89.0661 149.904C89.0661 149.904 79.8564 167.322 77.7676 171.306C73.6865 179.102 69.017 186.576 63.7996 193.663Z" fill="black"/>
<path opacity="0.1" d="M94.0646 192.308C93.4373 195.024 92.8033 197.787 93.0102 200.57C93.2171 203.353 94.3916 206.189 96.7074 207.744C99.0232 209.299 102.554 209.119 104.249 206.903C105.537 205.222 105.517 202.899 105.443 200.804C104.909 185.694 105.17 170.305 103.801 155.263C100.011 157.925 95.6263 185.648 94.0646 192.308Z" fill="black"/>
<path d="M87.8915 51.554C87.2573 51.7318 86.6668 52.0388 86.1568 52.4556C85.6469 52.8725 85.2287 53.3903 84.9284 53.9765C84.6371 54.5671 84.4855 55.2167 84.4855 55.8752C84.4855 56.5337 84.6371 57.1833 84.9284 57.7738C85.2291 58.3587 85.6723 58.8584 86.2169 59.227C86.7616 59.5956 87.3903 59.8211 88.045 59.8827H87.8248C93.2714 60.1879 98.7227 59.3725 103.842 57.4869C104.337 56.83 104.718 56.0945 104.969 55.3113C105.208 54.6214 105.305 53.8906 105.256 53.1624C105.117 52.2291 104.831 51.3237 104.409 50.4795C104.238 50.1221 103.978 49.8144 103.655 49.5853C102.207 48.6243 100.318 50.7064 98.7095 51.2804C97.3516 51.6601 95.9338 51.7778 94.5318 51.6274C92.3629 51.5206 89.9804 50.9667 87.8915 51.554Z" fill="#4C4DDC"/>
<path d="M95.2659 48.6043C97.457 48.1373 99.7436 48.524 101.659 49.6854C102.106 49.9657 102.56 50.3861 102.527 50.9067C102.493 51.4272 102 51.7943 101.539 52.0412C98.3401 53.7736 94.5944 54.1993 91.0882 53.2291C90.6382 53.1263 90.2136 52.9333 89.8402 52.6618C88.5055 51.574 90.6077 50.6264 91.482 50.0991C92.6467 49.3845 93.9272 48.8786 95.2659 48.6043Z" fill="#4C4DDC"/>
<path opacity="0.2" d="M95.2659 48.6043C97.457 48.1373 99.7436 48.524 101.659 49.6854C102.106 49.9657 102.56 50.3861 102.527 50.9067C102.493 51.4272 102 51.7943 101.539 52.0412C98.3401 53.7736 94.5944 54.1993 91.0882 53.2291C90.6382 53.1263 90.2136 52.9333 89.8402 52.6618C88.5055 51.574 90.6077 50.6264 91.482 50.0991C92.6467 49.3845 93.9272 48.8786 95.2659 48.6043Z" fill="black"/>
<path opacity="0.2" d="M95.5929 56.8328C93.2075 57.4144 90.7003 57.2395 88.4188 56.3323C88.0181 56.2228 87.6476 56.0234 87.3354 55.7494C87.0232 55.4753 86.7775 55.1338 86.6169 54.7507C89.3122 56.3794 92.4558 57.1086 95.5929 56.8328Z" fill="black"/>
<path opacity="0.2" d="M95.2859 57.894C97.723 58.1905 100.192 57.7242 102.353 56.5592C102.737 56.4 103.08 56.1566 103.357 55.847C103.635 55.5375 103.839 55.1697 103.955 54.7707C101.47 56.7064 98.434 57.8003 95.2859 57.894Z" fill="black"/>
<path d="M206.075 204.534C204.293 196.072 197.486 190.94 190.552 185.781C194.77 193.015 199.735 199.642 201.958 207.718C198.91 203.427 195.029 199.795 190.546 197.04C190.546 197.04 196.952 209.479 199.402 211.889C194.063 206.63 188.056 203.373 180.635 202.325C194.063 211.241 198.841 219.597 200.656 224.549C201.097 225.714 201.885 226.717 202.914 227.421C203.943 228.125 205.162 228.497 206.409 228.486L220.624 228.386C221.864 228.371 223.071 227.981 224.085 227.266C225.099 226.551 225.873 225.545 226.303 224.382C228.786 217.708 233.117 211.929 239.55 208.632C234.145 210.14 229.593 211.241 226.343 215.819C228.345 209.146 231.802 205.255 238.196 202.432C232.256 203.393 226.397 205.595 223.974 211.108C224.681 204.367 227.444 199.462 232.81 195.325C227.725 196.092 222.84 199.716 221.865 204.768C221.692 198.034 222.412 191.254 226.09 185.614C223.628 187.248 221.536 189.38 219.949 191.872C218.361 194.364 217.314 197.161 216.873 200.083C215.292 194.284 214.504 185.801 207.75 178.213C211.574 189.625 210.133 198.695 210.133 198.695C209.559 195.164 204.26 186.182 199.201 182.905C199.221 182.885 206.609 196.045 206.075 204.534Z" fill="#4C4DDC"/>
<g opacity="0.7">
<path d="M206.075 204.534C204.293 196.072 197.486 190.94 190.552 185.781C194.77 193.015 199.735 199.642 201.958 207.718C198.91 203.427 195.029 199.795 190.546 197.04C190.546 197.04 196.952 209.479 199.402 211.889C194.063 206.63 188.056 203.373 180.635 202.325C194.063 211.241 198.841 219.597 200.656 224.549C201.097 225.714 201.885 226.717 202.914 227.421C203.943 228.125 205.162 228.497 206.409 228.486L220.624 228.386C221.864 228.371 223.071 227.981 224.085 227.266C225.099 226.551 225.873 225.545 226.303 224.382C228.786 217.708 233.117 211.929 239.55 208.632C234.145 210.14 229.593 211.241 226.343 215.819C228.345 209.146 231.802 205.255 238.196 202.432C232.256 203.393 226.397 205.595 223.974 211.108C224.681 204.367 227.444 199.462 232.81 195.325C227.725 196.092 222.84 199.716 221.865 204.768C221.692 198.034 222.412 191.254 226.09 185.614C223.628 187.248 221.536 189.38 219.949 191.872C218.361 194.364 217.314 197.161 216.873 200.083C215.292 194.284 214.504 185.801 207.75 178.213C211.574 189.625 210.133 198.695 210.133 198.695C209.559 195.164 204.26 186.182 199.201 182.905C199.221 182.885 206.609 196.045 206.075 204.534Z" fill="white"/>
</g>
</g>
</svg>
