<svg width="179" height="152" viewBox="0 0 179 152" fill="none" xmlns="http://www.w3.org/2000/svg">
    <path d="M32.7147 138.715C64.79 155.477 116.813 155.477 148.893 138.715C180.973 121.952 180.968 94.7761 148.893 78.0223C116.818 61.2684 64.7988 61.2597 32.7147 78.0223C0.630658 94.7849 0.635049 121.957 32.7147 138.715Z"
          fill="#F5F5F5"/>
    <path d="M62.8743 135.608L19.7748 110.734C19.6817 110.704 19.6004 110.646 19.5428 110.567C19.4852 110.488 19.4541 110.393 19.4541 110.295C19.4541 110.197 19.4852 110.102 19.5428 110.023C19.6004 109.944 19.6817 109.885 19.7748 109.856L68.226 81.8797C68.4625 81.7607 68.7236 81.6987 68.9884 81.6987C69.2531 81.6987 69.5142 81.7607 69.7507 81.8797L112.859 106.753C113.298 106.999 113.298 107.391 112.859 107.632L64.3946 135.608C64.1589 135.727 63.8985 135.789 63.6344 135.789C63.3703 135.789 63.1099 135.727 62.8743 135.608Z"
          fill="#EBEBEB"/>
    <path d="M159.157 101.569L157.013 100.506C157.072 97.7905 157.442 95.0911 158.116 92.4603C159.715 86.5594 164.654 81.9546 168.45 81.669C173.349 81.2999 172.11 85.6718 169.179 87.3503C164.495 90.0173 160.651 94.3893 159.157 101.569Z"
          fill="#4C4DDC"/>
    <g opacity="0.2">
        <path d="M159.157 101.569L157.013 100.506C157.072 97.7905 157.442 95.0911 158.116 92.4603C159.715 86.5594 164.654 81.9546 168.45 81.669C173.349 81.2999 172.11 85.6718 169.179 87.3503C164.495 90.0173 160.651 94.3893 159.157 101.569Z"
              fill="black"/>
    </g>
    <path d="M158.814 99.5829H158.841C158.872 99.5802 158.902 99.5713 158.929 99.5567C158.957 99.5421 158.981 99.5221 159.001 99.4979C159.021 99.4738 159.035 99.4459 159.044 99.4159C159.053 99.386 159.055 99.3547 159.052 99.3237C158.546 94.2927 163.419 85.461 169.1 83.3256C169.129 83.3149 169.156 83.2985 169.179 83.2774C169.201 83.2562 169.219 83.2308 169.232 83.2026C169.245 83.1744 169.252 83.1439 169.252 83.113C169.253 83.082 169.248 83.0513 169.237 83.0224C169.215 82.9637 169.171 82.916 169.114 82.8897C169.057 82.8634 168.992 82.8605 168.933 82.8818C163.081 85.0788 158.059 94.1829 158.581 99.372C158.588 99.4296 158.615 99.4827 158.658 99.5216C158.701 99.5604 158.756 99.5822 158.814 99.5829Z"
          fill="white"/>
    <path d="M157.86 100.826C157.825 100.101 157.86 99.0466 157.86 98.7874C157.887 97.8749 158.101 96.9776 158.489 96.151C159.001 95.0523 159.874 94.1622 160.962 93.629C161.556 93.3477 162.232 93.1896 162.645 92.6667C162.953 92.1944 163.143 91.6548 163.199 91.0937C163.388 90.2149 163.753 89.2614 164.517 88.7737C165.282 88.286 166.275 88.3343 167.153 88.5277C168.441 88.7781 169.64 89.0593 170.91 88.5672C171.925 88.1373 172.965 87.7719 174.025 87.4731C175.344 87.1436 178.327 86.7569 178.784 88.6331C178.83 88.8918 178.819 89.1574 178.75 89.4111C178.682 89.6648 178.558 89.9003 178.389 90.1007C178.043 90.4951 177.642 90.837 177.198 91.1157L175.001 92.6315C174.745 92.7894 174.517 92.9901 174.329 93.2247C173.889 93.8618 174.083 94.745 173.929 95.5139C173.84 95.9036 173.667 96.2692 173.423 96.5856C173.178 96.9019 172.868 97.1615 172.514 97.3462C171.799 97.7113 170.985 97.8347 170.194 97.6977C169.135 97.5351 167.474 96.5684 166.718 97.768C166.496 98.1782 166.347 98.6244 166.279 99.0861C166.212 99.5488 166.02 99.9845 165.725 100.347C165.26 100.839 164.513 100.932 163.832 100.94C162.882 100.881 161.929 100.95 160.998 101.147C160.62 101.257 160.352 101.705 160.119 101.995C159.543 101.67 158.84 101.34 157.86 100.826Z"
          fill="#4C4DDC"/>
    <path d="M158.497 100.506C158.463 100.505 158.428 100.498 158.396 100.484C158.345 100.457 158.305 100.412 158.287 100.356C158.269 100.301 158.274 100.241 158.3 100.189C161.617 93.6424 170.752 89.5385 176.082 88.3741C176.11 88.3677 176.139 88.3669 176.167 88.3719C176.195 88.3768 176.222 88.3874 176.247 88.403C176.271 88.4185 176.292 88.4388 176.308 88.4625C176.324 88.4862 176.335 88.5129 176.341 88.5411C176.347 88.5694 176.348 88.5987 176.343 88.6273C176.338 88.6559 176.328 88.6832 176.312 88.7077C176.297 88.7322 176.277 88.7534 176.253 88.7701C176.229 88.7867 176.202 88.7985 176.174 88.8047C170.928 89.9471 161.942 93.9763 158.691 100.387C158.672 100.422 158.645 100.452 158.611 100.473C158.577 100.494 158.537 100.505 158.497 100.506Z"
          fill="white"/>
    <path d="M171.328 94.3101C171.278 94.3095 171.23 94.2925 171.192 94.2618C169.487 92.8953 166.956 92.4778 166.93 92.4734C166.901 92.4687 166.874 92.4583 166.849 92.4428C166.824 92.4274 166.803 92.4073 166.786 92.3836C166.77 92.3599 166.758 92.3331 166.751 92.3048C166.745 92.2765 166.744 92.2472 166.749 92.2186C166.754 92.1901 166.764 92.1629 166.779 92.1383C166.794 92.1138 166.813 92.0925 166.837 92.0757C166.86 92.0589 166.886 92.0469 166.914 92.0405C166.943 92.0342 166.972 92.0334 167 92.0385C167.11 92.0385 169.671 92.4778 171.464 93.919C171.509 93.9553 171.538 94.0079 171.545 94.0656C171.552 94.1232 171.535 94.1811 171.499 94.2266C171.479 94.2522 171.452 94.273 171.423 94.2875C171.393 94.3019 171.361 94.3096 171.328 94.3101Z"
          fill="white"/>
    <path d="M165.304 93.3917H165.238C165.183 93.3736 165.137 93.3343 165.111 93.2824C165.084 93.2305 165.08 93.1703 165.098 93.1149C165.359 92.0281 165.464 90.9096 165.41 89.7932C165.405 89.7349 165.424 89.6772 165.462 89.6327C165.499 89.5882 165.554 89.5605 165.612 89.5559C165.67 89.5512 165.728 89.5699 165.772 89.6078C165.817 89.6457 165.844 89.6997 165.849 89.758C165.904 90.9309 165.792 92.1057 165.515 93.2467C165.5 93.2899 165.471 93.3271 165.433 93.3531C165.395 93.3791 165.35 93.3926 165.304 93.3917Z"
          fill="white"/>
    <path d="M8.55677 95.8833C8.49735 95.5345 8.35909 95.2039 8.15253 94.9166C7.7866 94.5169 7.28584 94.2665 6.74649 94.2136C6.21126 94.1628 5.67893 94.0851 5.15151 93.9807C4.75271 93.873 4.3792 93.6873 4.05253 93.4345C3.72587 93.1816 3.45252 92.8665 3.24827 92.5074C3.04401 92.1484 2.9129 91.7524 2.86249 91.3424C2.81208 90.9323 2.84338 90.5164 2.95458 90.1185C3.09957 89.6088 3.39396 89.1387 3.5126 88.629C3.88168 87.2845 2.84473 86.7221 1.89126 86.0762C1.22778 85.6368 0.133709 84.9645 0.278707 84.011C0.537945 82.2315 3.15669 81.7834 5.6656 82.4952C8.1745 83.207 9.50584 83.7694 11.3776 83.2641C13.2494 82.7588 14.9718 82.649 15.9517 84.3186C16.9315 85.9883 15.9517 87.5525 17.2083 88.7125C18.4649 89.8725 20.7234 89.0772 21.5494 91.6081V106.675C21.5494 106.587 21.1101 106.292 21.0529 106.235L19.7084 105.023C19.269 104.649 18.6759 104.302 18.3903 103.823C17.986 103.16 17.7839 102.373 17.3665 101.705C16.8992 100.901 16.2217 100.238 15.4068 99.7894C13.8074 98.9678 11.8917 99.1084 10.244 98.3087C9.65009 98.0401 9.16732 97.5744 8.87752 96.9906C8.73618 96.6323 8.62879 96.2616 8.55677 95.8833Z"
          fill="#4C4DDC"/>
    <path opacity="0.1"
          d="M8.55677 95.8833C8.49735 95.5345 8.35909 95.2039 8.15253 94.9166C7.7866 94.5169 7.28584 94.2665 6.74649 94.2136C6.21126 94.1628 5.67893 94.0851 5.15151 93.9807C4.75271 93.873 4.3792 93.6873 4.05253 93.4345C3.72587 93.1816 3.45252 92.8665 3.24827 92.5074C3.04401 92.1484 2.9129 91.7524 2.86249 91.3424C2.81208 90.9323 2.84338 90.5164 2.95458 90.1185C3.09957 89.6088 3.39396 89.1387 3.5126 88.629C3.88168 87.2845 2.84473 86.7221 1.89126 86.0762C1.22778 85.6368 0.133709 84.9645 0.278707 84.011C0.537945 82.2315 3.15669 81.7834 5.6656 82.4952C8.1745 83.207 9.50584 83.7694 11.3776 83.2641C13.2494 82.7588 14.9718 82.649 15.9517 84.3186C16.9315 85.9883 15.9517 87.5525 17.2083 88.7125C18.4649 89.8725 20.7234 89.0772 21.5494 91.6081V106.675C21.5494 106.587 21.1101 106.292 21.0529 106.235L19.7084 105.023C19.269 104.649 18.6759 104.302 18.3903 103.823C17.986 103.16 17.7839 102.373 17.3665 101.705C16.8992 100.901 16.2217 100.238 15.4068 99.7894C13.8074 98.9678 11.8917 99.1084 10.244 98.3087C9.65009 98.0401 9.16732 97.5744 8.87752 96.9906C8.73618 96.6323 8.62879 96.2616 8.55677 95.8833Z"
          fill="black"/>
    <path d="M21.6333 103.397C21.5818 103.398 21.5317 103.38 21.4922 103.347C21.4527 103.314 21.4264 103.268 21.418 103.217C19.8274 94.1565 9.21621 85.7862 2.89782 84.222C2.86897 84.2151 2.84176 84.2025 2.81776 84.1851C2.79375 84.1677 2.77342 84.1457 2.75791 84.1204C2.74241 84.0951 2.73204 84.067 2.72739 84.0377C2.72275 84.0084 2.72392 83.9784 2.73085 83.9496C2.73777 83.9207 2.75031 83.8935 2.76775 83.8695C2.78519 83.8455 2.80718 83.8252 2.83248 83.8097C2.85778 83.7942 2.88588 83.7838 2.91518 83.7791C2.94448 83.7745 2.97442 83.7757 3.00327 83.7826C9.4315 85.3732 20.2273 93.8885 21.8486 103.116C21.8543 103.144 21.8542 103.173 21.8484 103.201C21.8426 103.23 21.8312 103.257 21.8148 103.28C21.7984 103.304 21.7773 103.324 21.753 103.34C21.7286 103.355 21.7013 103.366 21.6728 103.37L21.6333 103.397Z"
          fill="white"/>
    <path d="M6.61034 90.7949C6.57676 90.7945 6.54366 90.7868 6.51333 90.7724C6.48299 90.758 6.45613 90.7372 6.43459 90.7114C6.39891 90.6646 6.38305 90.6057 6.39045 90.5473C6.39785 90.4889 6.42791 90.4358 6.47413 90.3994C7.99002 89.2043 11.0701 88.8484 12.3048 88.9275C12.3341 88.9292 12.3627 88.9367 12.389 88.9495C12.4154 88.9624 12.4388 88.9805 12.4581 89.0026C12.4773 89.0247 12.4919 89.0505 12.5011 89.0783C12.5102 89.1062 12.5137 89.1355 12.5113 89.1648C12.5097 89.1935 12.5023 89.2215 12.4896 89.2473C12.4769 89.2731 12.4592 89.2961 12.4375 89.3149C12.4158 89.3338 12.3905 89.3481 12.3632 89.357C12.3359 89.3659 12.3071 89.3693 12.2784 89.3669C11.0218 89.2834 8.10426 89.6745 6.74655 90.7466C6.70742 90.7767 6.65972 90.7936 6.61034 90.7949Z"
          fill="white"/>
    <path d="M13.6225 90.5224C13.5951 90.529 13.5665 90.529 13.5391 90.5224C13.5122 90.5118 13.4877 90.4959 13.467 90.4758C13.4463 90.4557 13.4297 90.4317 13.4183 90.4052C13.4069 90.3786 13.4008 90.3501 13.4004 90.3212C13.4 90.2923 13.4053 90.2637 13.416 90.2368C14.2201 88.2904 13.7807 84.9993 13.7763 84.9642C13.7688 84.906 13.7843 84.8472 13.8197 84.8004C13.855 84.7536 13.9073 84.7225 13.9653 84.7137C14.0229 84.7063 14.0812 84.7219 14.1273 84.7574C14.1735 84.7928 14.2037 84.845 14.2113 84.9027C14.2333 85.0433 14.6727 88.3431 13.8247 90.3994C13.8067 90.4374 13.7779 90.4693 13.742 90.4912C13.7061 90.513 13.6646 90.5239 13.6225 90.5224Z"
          fill="white"/>
    <path d="M20.7981 109.333C20.3587 107.975 18.1222 105.119 14.1062 102.883C10.6175 100.941 5.23059 99.495 5.70513 96.9333C6.17967 94.3717 11.136 94.297 14.5632 96.3753C18.8648 98.9633 21.2814 104.254 21.567 106.341L20.7981 109.333Z"
          fill="#4C4DDC"/>
    <path d="M21.2158 107.927C21.1649 107.928 21.1154 107.911 21.076 107.878C21.0365 107.846 21.0098 107.801 21.0005 107.751C20.1217 103.023 13.4123 96.5996 8.06051 96.7402C8.00225 96.7402 7.94637 96.717 7.90517 96.6758C7.86396 96.6346 7.84082 96.5787 7.84082 96.5205C7.84082 96.4622 7.86396 96.4063 7.90517 96.3651C7.94637 96.3239 8.00225 96.3008 8.06051 96.3008C13.61 96.1382 20.5215 102.786 21.4443 107.668C21.4546 107.725 21.442 107.785 21.4092 107.833C21.3763 107.882 21.3258 107.915 21.2685 107.927H21.2158Z"
          fill="white"/>
    <path d="M155.602 23.0284C155.602 23.3797 155.51 23.7249 155.334 24.029C155.158 24.333 154.905 24.5851 154.6 24.7596L150.263 27.2509C150.014 27.3946 149.736 27.4828 149.45 27.5093C149.163 27.5358 148.874 27.5002 148.602 27.4047C148.55 27.677 148.441 27.9352 148.282 28.1624C148.123 28.3895 147.918 28.5805 147.68 28.7229L147.522 28.8151L143.325 31.2406L143.207 31.3065C142.96 31.4257 142.692 31.4938 142.419 31.5067C142.146 31.5195 141.873 31.4768 141.616 31.3812C141.57 31.6732 141.458 31.9512 141.29 32.1945C141.122 32.4378 140.902 32.6404 140.645 32.7872L136.691 35.072C137.422 36.2926 137.832 37.679 137.881 39.1012C137.881 40.538 137.306 41.4871 136.418 41.8386C136.273 41.9532 136.111 42.0465 135.939 42.1154C135.794 42.2328 135.631 42.3262 135.456 42.3922C135.136 42.5791 134.815 42.7651 134.494 42.9502C134.346 43.0643 134.183 43.1574 134.01 43.227C133.865 43.3419 133.704 43.4352 133.531 43.5039C133.384 43.6179 133.221 43.711 133.048 43.7807C132.904 43.8976 132.742 43.9911 132.569 44.0575C131.818 44.6507 130.715 44.6726 129.467 43.952C127.213 42.6339 125.381 39.4835 125.381 36.8691C125.381 35.5509 125.847 34.637 126.589 34.2548C126.669 34.2173 126.751 34.185 126.835 34.1581C126.909 34.0918 126.989 34.0316 127.072 33.9779C127.151 33.9412 127.232 33.9089 127.314 33.8813C127.387 33.8137 127.467 33.7533 127.551 33.7011C127.63 33.6618 127.713 33.6294 127.797 33.6045C127.872 33.5368 127.951 33.4751 128.035 33.4199C128.113 33.3846 128.194 33.3538 128.276 33.3276C128.35 33.26 128.43 33.1983 128.514 33.1431C128.593 33.1052 128.675 33.0743 128.76 33.0508C128.833 32.9819 128.912 32.9201 128.997 32.8663C129.076 32.8295 129.156 32.7973 129.239 32.7696C129.313 32.7034 129.392 32.6431 129.476 32.5895C129.556 32.552 129.638 32.5197 129.722 32.4928C129.796 32.4266 129.875 32.3663 129.959 32.3127C130.038 32.2759 130.119 32.2436 130.201 32.216C130.275 32.1666 130.353 32.1225 130.434 32.0842C130.514 32.0474 130.596 32.0152 130.68 31.9875C130.753 31.9199 130.832 31.8596 130.917 31.8074C130.806 31.7034 130.689 31.6066 130.566 31.5174L130.205 31.2581L129.849 31.0209C129.722 30.9374 129.595 30.8583 129.463 30.7836C129.042 30.5409 128.601 30.3351 128.145 30.1685C128.004 30.1157 127.863 30.0674 127.705 30.0279C127.196 29.8687 126.666 29.7858 126.132 29.7818H125.882H125.697C125.603 29.7818 125.511 29.7818 125.42 29.7818C124.976 29.7867 124.538 29.6734 124.152 29.4533C123.766 29.2332 123.446 28.9144 123.223 28.5295L123.118 28.3494C123.118 28.3494 124.085 25.0188 124.093 25.0057L127.169 23.1602C127.777 22.7303 128.448 22.3996 129.16 22.1804C129.28 22.1542 129.402 22.1366 129.524 22.1277H129.625C129.782 22.1166 129.939 22.1166 130.095 22.1277H130.262H130.306C130.615 22.1648 130.921 22.2251 131.22 22.3078C132.35 22.6391 133.43 23.1193 134.432 23.7358C134.669 23.872 134.872 24.0126 135.113 24.1752C134.731 23.8281 134.34 23.5029 133.94 23.191C133.76 23.046 133.58 22.9054 133.395 22.7516C133.37 22.726 133.342 22.7038 133.312 22.6857C133.154 22.5627 132.991 22.444 132.824 22.3254C132.53 22.1145 132.231 21.886 131.923 21.7015L131.519 21.4378C131.313 21.3016 131.08 21.1698 130.891 21.0424C130.702 20.915 130.368 20.726 130.104 20.5722C127.657 19.1618 125.438 18.5642 123.43 18.5642H123.012L122.542 18.595C122.424 18.595 122.309 18.595 122.191 18.6345L121.945 18.6697L121.725 18.7048L121.396 18.7664L121.013 18.8586C120.877 18.8938 120.741 18.9289 120.605 18.9729C120.468 19.0168 120.376 19.0432 120.266 19.0783C119.992 19.1732 119.704 19.2222 119.414 19.2233C118.97 19.2274 118.532 19.1136 118.146 18.8936C117.761 18.6736 117.44 18.3553 117.217 17.9711L117.169 17.8876L117.92 14.6713C117.92 14.6713 117.92 14.6713 117.973 14.6273C118.32 14.3813 120.033 13.1905 120.17 13.1114C120.976 12.6388 121.823 12.2389 122.701 11.9163C123.061 11.7786 123.43 11.6556 123.808 11.5472L124.309 11.411C124.476 11.3715 124.643 11.3275 124.814 11.2924C125.157 11.2177 125.499 11.1562 125.851 11.1034L126.29 11.0419H126.391L126.919 10.9936C126.924 10.9915 126.929 10.9905 126.934 10.9905C126.939 10.9905 126.945 10.9915 126.949 10.9936L127.437 10.9628C127.482 10.9584 127.528 10.9584 127.573 10.9628C128.168 10.9455 128.764 10.9631 129.357 11.0156C130.13 11.091 130.895 11.2276 131.646 11.4242C128.99 9.93502 126.043 9.03864 123.008 8.79665C121.916 8.72664 120.82 8.75901 119.735 8.89332C119.462 8.92408 119.185 8.96362 118.917 9.01195H118.834C118.667 9.03831 118.509 9.06907 118.346 9.10862C118.069 9.16574 117.797 9.22725 117.525 9.29755C117.252 9.36786 116.988 9.44695 116.725 9.53043C116.532 9.58608 116.343 9.6476 116.158 9.71497C115.916 9.79845 115.675 9.89073 115.442 9.983C115.107 10.1193 114.749 10.1894 114.387 10.1895C113.871 10.1865 113.365 10.0481 112.92 9.78826C112.474 9.52842 112.104 9.1562 111.848 8.70878L111.786 8.60332C111.821 8.43635 112.625 4.89489 112.625 4.89489H112.647L112.704 4.85095L112.744 4.8202C113.148 4.52141 114.458 3.55915 114.594 3.50203C115.548 2.94586 116.548 2.47111 117.582 2.08281C118.168 1.86312 118.753 1.66979 119.339 1.50282L119.976 1.34025L120.64 1.19086C121.321 1.0551 122.009 0.953908 122.701 0.887681C122.933 0.861318 123.166 0.843742 123.404 0.826167C123.641 0.808591 123.878 0.799803 124.115 0.791015C124.353 0.782227 124.594 0.791015 124.836 0.791015C128.72 0.791015 132.982 1.84994 137.389 4.39399C139.107 5.38701 140.654 6.34927 142.077 7.3291C142.253 7.44774 142.425 7.56637 142.592 7.6894C143.031 8.00576 143.47 8.3309 143.91 8.65605L144.485 9.09544C144.925 9.42937 145.325 9.7677 145.729 10.1192C145.891 10.2554 146.045 10.3916 146.203 10.5322L146.441 10.7431L146.942 11.2045C147.943 12.1431 148.892 13.1361 149.784 14.1791L150.127 14.5878C150.303 14.7943 150.474 15.0272 150.646 15.2205C150.914 15.55 151.182 15.8928 151.445 16.2443L151.907 16.8594C152.232 17.2988 152.557 17.7382 152.882 18.2391C153.04 18.472 153.203 18.7048 153.361 18.9465C153.519 19.1882 153.682 19.4298 153.844 19.6803C154.007 19.9307 154.169 20.1812 154.328 20.436C154.653 20.9501 154.982 21.4774 155.312 22.0266C155.496 22.3287 155.596 22.6746 155.602 23.0284Z"
          fill="#4C4DDC"/>
    <g opacity="0.2">
        <path d="M155.602 23.0284C155.602 23.3797 155.51 23.7249 155.334 24.029C155.158 24.333 154.905 24.5851 154.6 24.7596L150.263 27.2509C150.014 27.3946 149.736 27.4828 149.45 27.5093C149.163 27.5358 148.874 27.5002 148.602 27.4047C148.55 27.677 148.441 27.9352 148.282 28.1624C148.123 28.3895 147.918 28.5805 147.68 28.7229L147.522 28.8151L143.325 31.2406L143.207 31.3065C142.96 31.4257 142.692 31.4938 142.419 31.5067C142.146 31.5195 141.873 31.4768 141.616 31.3812C141.57 31.6732 141.458 31.9512 141.29 32.1945C141.122 32.4378 140.902 32.6404 140.645 32.7872L136.691 35.072C137.422 36.2926 137.832 37.679 137.881 39.1012C137.881 40.538 137.306 41.4871 136.418 41.8386C136.273 41.9532 136.111 42.0465 135.939 42.1154C135.794 42.2328 135.631 42.3262 135.456 42.3922C135.136 42.5791 134.815 42.7651 134.494 42.9502C134.346 43.0643 134.183 43.1574 134.01 43.227C133.865 43.3419 133.704 43.4352 133.531 43.5039C133.384 43.6179 133.221 43.711 133.048 43.7807C132.904 43.8976 132.742 43.9911 132.569 44.0575C131.818 44.6507 130.715 44.6726 129.467 43.952C127.213 42.6339 125.381 39.4835 125.381 36.8691C125.381 35.5509 125.847 34.637 126.589 34.2548C126.669 34.2173 126.751 34.185 126.835 34.1581C126.909 34.0918 126.989 34.0316 127.072 33.9779C127.151 33.9412 127.232 33.9089 127.314 33.8813C127.387 33.8137 127.467 33.7533 127.551 33.7011C127.63 33.6618 127.713 33.6294 127.797 33.6045C127.872 33.5368 127.951 33.4751 128.035 33.4199C128.113 33.3846 128.194 33.3538 128.276 33.3276C128.35 33.26 128.43 33.1983 128.514 33.1431C128.593 33.1052 128.675 33.0743 128.76 33.0508C128.833 32.9819 128.912 32.9201 128.997 32.8663C129.076 32.8295 129.156 32.7973 129.239 32.7696C129.313 32.7034 129.392 32.6431 129.476 32.5895C129.556 32.552 129.638 32.5197 129.722 32.4928C129.796 32.4266 129.875 32.3663 129.959 32.3127C130.038 32.2759 130.119 32.2436 130.201 32.216C130.275 32.1666 130.353 32.1225 130.434 32.0842C130.514 32.0474 130.596 32.0152 130.68 31.9875C130.753 31.9199 130.832 31.8596 130.917 31.8074C130.806 31.7034 130.689 31.6066 130.566 31.5174L130.205 31.2581L129.849 31.0209C129.722 30.9374 129.595 30.8583 129.463 30.7836C129.042 30.5409 128.601 30.3351 128.145 30.1685C128.004 30.1157 127.863 30.0674 127.705 30.0279C127.196 29.8687 126.666 29.7858 126.132 29.7818H125.882H125.697C125.603 29.7818 125.511 29.7818 125.42 29.7818C124.976 29.7867 124.538 29.6734 124.152 29.4533C123.766 29.2332 123.446 28.9144 123.223 28.5295L123.118 28.3494C123.118 28.3494 124.085 25.0188 124.093 25.0057L127.169 23.1602C127.777 22.7303 128.448 22.3996 129.16 22.1804C129.28 22.1542 129.402 22.1366 129.524 22.1277H129.625C129.782 22.1166 129.939 22.1166 130.095 22.1277H130.262H130.306C130.615 22.1648 130.921 22.2251 131.22 22.3078C132.35 22.6391 133.43 23.1193 134.432 23.7358C134.669 23.872 134.872 24.0126 135.113 24.1752C134.731 23.8281 134.34 23.5029 133.94 23.191C133.76 23.046 133.58 22.9054 133.395 22.7516C133.37 22.726 133.342 22.7038 133.312 22.6857C133.154 22.5627 132.991 22.444 132.824 22.3254C132.53 22.1145 132.231 21.886 131.923 21.7015L131.519 21.4378C131.313 21.3016 131.08 21.1698 130.891 21.0424C130.702 20.915 130.368 20.726 130.104 20.5722C127.657 19.1618 125.438 18.5642 123.43 18.5642H123.012L122.542 18.595C122.424 18.595 122.309 18.595 122.191 18.6345L121.945 18.6697L121.725 18.7048L121.396 18.7664L121.013 18.8586C120.877 18.8938 120.741 18.9289 120.605 18.9729C120.468 19.0168 120.376 19.0432 120.266 19.0783C119.992 19.1732 119.704 19.2222 119.414 19.2233C118.97 19.2274 118.532 19.1136 118.146 18.8936C117.761 18.6736 117.44 18.3553 117.217 17.9711L117.169 17.8876L117.92 14.6713C117.92 14.6713 117.92 14.6713 117.973 14.6273C118.32 14.3813 120.033 13.1905 120.17 13.1114C120.976 12.6388 121.823 12.2389 122.701 11.9163C123.061 11.7786 123.43 11.6556 123.808 11.5472L124.309 11.411C124.476 11.3715 124.643 11.3275 124.814 11.2924C125.157 11.2177 125.499 11.1562 125.851 11.1034L126.29 11.0419H126.391L126.919 10.9936C126.924 10.9915 126.929 10.9905 126.934 10.9905C126.939 10.9905 126.945 10.9915 126.949 10.9936L127.437 10.9628C127.482 10.9584 127.528 10.9584 127.573 10.9628C128.168 10.9455 128.764 10.9631 129.357 11.0156C130.13 11.091 130.895 11.2276 131.646 11.4242C128.99 9.93502 126.043 9.03864 123.008 8.79665C121.916 8.72664 120.82 8.75901 119.735 8.89332C119.462 8.92408 119.185 8.96362 118.917 9.01195H118.834C118.667 9.03831 118.509 9.06907 118.346 9.10862C118.069 9.16574 117.797 9.22725 117.525 9.29755C117.252 9.36786 116.988 9.44695 116.725 9.53043C116.532 9.58608 116.343 9.6476 116.158 9.71497C115.916 9.79845 115.675 9.89073 115.442 9.983C115.107 10.1193 114.749 10.1894 114.387 10.1895C113.871 10.1865 113.365 10.0481 112.92 9.78826C112.474 9.52842 112.104 9.1562 111.848 8.70878L111.786 8.60332C111.821 8.43635 112.625 4.89489 112.625 4.89489H112.647L112.704 4.85095L112.744 4.8202C113.148 4.52141 114.458 3.55915 114.594 3.50203C115.548 2.94586 116.548 2.47111 117.582 2.08281C118.168 1.86312 118.753 1.66979 119.339 1.50282L119.976 1.34025L120.64 1.19086C121.321 1.0551 122.009 0.953908 122.701 0.887681C122.933 0.861318 123.166 0.843742 123.404 0.826167C123.641 0.808591 123.878 0.799803 124.115 0.791015C124.353 0.782227 124.594 0.791015 124.836 0.791015C128.72 0.791015 132.982 1.84994 137.389 4.39399C139.107 5.38701 140.654 6.34927 142.077 7.3291C142.253 7.44774 142.425 7.56637 142.592 7.6894C143.031 8.00576 143.47 8.3309 143.91 8.65605L144.485 9.09544C144.925 9.42937 145.325 9.7677 145.729 10.1192C145.891 10.2554 146.045 10.3916 146.203 10.5322L146.441 10.7431L146.942 11.2045C147.943 12.1431 148.892 13.1361 149.784 14.1791L150.127 14.5878C150.303 14.7943 150.474 15.0272 150.646 15.2205C150.914 15.55 151.182 15.8928 151.445 16.2443L151.907 16.8594C152.232 17.2988 152.557 17.7382 152.882 18.2391C153.04 18.472 153.203 18.7048 153.361 18.9465C153.519 19.1882 153.682 19.4298 153.844 19.6803C154.007 19.9307 154.169 20.1812 154.328 20.436C154.653 20.9501 154.982 21.4774 155.312 22.0266C155.496 22.3287 155.596 22.6746 155.602 23.0284Z"
              fill="black"/>
    </g>
    <path d="M133.544 41.632C133.544 44.2244 131.716 45.2921 129.462 43.9827C127.208 42.6733 125.376 39.5185 125.376 36.9042C125.376 35.586 125.842 34.6721 126.584 34.2898C127.327 33.9075 128.342 33.9075 129.462 34.5491C130.654 35.3235 131.644 36.3691 132.354 37.6002C133.063 38.8313 133.471 40.2129 133.544 41.632Z"
          fill="#4C4DDC"/>
    <path d="M136.954 32.4007C135.182 29.8359 132.836 27.7192 130.104 26.2185C128.834 25.457 127.438 24.9301 125.982 24.6631C125.563 24.5892 125.132 24.6191 124.727 24.7501C124.322 24.881 123.955 25.1091 123.658 25.4145L123.632 25.4452C123.266 25.8245 123.026 26.3066 122.943 26.8265C122.859 27.3465 122.937 27.8795 123.166 28.354C123.196 28.4216 123.23 28.4876 123.267 28.5517C123.489 28.9366 123.81 29.2554 124.196 29.4754C124.582 29.6955 125.019 29.8089 125.464 29.8039C125.555 29.8039 125.647 29.8039 125.741 29.8039H125.925H126.176C126.709 29.8079 127.239 29.8908 127.749 30.05C127.889 30.0895 128.03 30.1379 128.188 30.1906C128.644 30.3572 129.085 30.5631 129.506 30.8057C129.638 30.8804 129.765 30.9595 129.893 31.043C130.02 31.1265 130.135 31.1968 130.249 31.2803C130.363 31.3638 130.49 31.4472 130.609 31.5395C130.728 31.6318 130.851 31.7241 130.969 31.8207C132.012 32.6768 132.937 33.6666 133.72 34.7646C134.039 35.1735 134.503 35.4436 135.015 35.5188C135.528 35.594 136.05 35.4684 136.473 35.1682C136.895 34.868 137.186 34.4164 137.284 33.9074C137.381 33.3984 137.279 32.8713 136.998 32.4359L136.954 32.4007Z"
          fill="#4C4DDC"/>
    <path d="M144.011 28.4637C140.373 22.5847 136.647 18.7576 131.119 15.493C129.237 14.3698 127.126 13.6844 124.944 13.4874C122.761 13.2904 120.561 13.5869 118.509 14.355C118.321 14.422 118.142 14.5121 117.977 14.623L117.924 14.6669C117.431 15.0213 117.083 15.5425 116.945 16.134C116.807 16.7255 116.888 17.347 117.173 17.8833L117.221 17.9667C117.444 18.351 117.765 18.6693 118.151 18.8893C118.537 19.1093 118.974 19.223 119.418 19.219C119.708 19.2179 119.996 19.1689 120.271 19.074C120.38 19.0388 120.495 18.9993 120.609 18.9685C120.723 18.9378 120.881 18.8895 121.018 18.8543L121.4 18.762L121.729 18.7005L121.949 18.6654L122.195 18.6302C122.314 18.6302 122.428 18.5995 122.547 18.5907L123.017 18.5599H123.434C125.442 18.5599 127.661 19.1575 130.109 20.5679L130.895 21.0381C131.106 21.1655 131.334 21.2973 131.523 21.4335L131.928 21.6971C132.235 21.8993 132.534 22.1102 132.828 22.3211C132.995 22.4397 133.158 22.5583 133.316 22.6814C133.347 22.6995 133.375 22.7216 133.4 22.7473C133.584 22.8791 133.764 23.0197 133.944 23.1867C134.344 23.4986 134.735 23.8238 135.118 24.1709C135.118 24.1709 135.118 24.1709 135.139 24.1709C137.265 26.0618 139.114 28.2419 140.632 30.6475C140.864 31.0075 141.208 31.2808 141.612 31.4252C141.868 31.5208 142.141 31.5635 142.415 31.5507C142.688 31.5378 142.956 31.4697 143.202 31.3505L143.321 31.2846C143.554 31.1485 143.758 30.967 143.92 30.7507C144.082 30.5344 144.199 30.2878 144.263 30.0255C144.328 29.7632 144.339 29.4906 144.297 29.2238C144.254 28.957 144.158 28.7015 144.015 28.4725L144.011 28.4637Z"
          fill="#4C4DDC"/>
    <path d="M150.984 24.5004C145.711 15.7126 141.317 11.6395 133.057 6.85899C125.724 2.64526 118.79 2.51345 113.342 4.52584C113.128 4.607 112.923 4.71007 112.731 4.83342L112.691 4.86417L112.634 4.90811H112.612C112.057 5.32651 111.668 5.92824 111.514 6.6064C111.36 7.28456 111.452 7.99523 111.773 8.61215C111.773 8.65169 111.813 8.68245 111.834 8.72199C112.091 9.16942 112.461 9.54164 112.907 9.80148C113.352 10.0613 113.858 10.1997 114.374 10.2027C114.736 10.2026 115.094 10.1325 115.429 9.99622C115.662 9.90395 115.903 9.81168 116.145 9.72819C116.387 9.64471 116.518 9.60077 116.712 9.54365C116.975 9.46016 117.239 9.38107 117.511 9.31077C117.784 9.24047 118.056 9.17896 118.333 9.12183C118.496 9.08229 118.654 9.05153 118.821 9.02517H118.904C119.172 8.97684 119.449 8.93729 119.721 8.90654C120.811 8.76486 121.912 8.72808 123.008 8.79669C126.06 9.02896 129.024 9.92894 131.69 11.433L132.345 11.8021C139.287 15.8093 143.114 19.2717 147.548 26.5831C147.834 27.0136 148.274 27.3171 148.778 27.4303C149.283 27.5435 149.811 27.4576 150.253 27.1906C150.695 26.9235 151.017 26.4959 151.152 25.9971C151.286 25.4983 151.223 24.9668 150.975 24.5136L150.984 24.5004Z"
          fill="#4C4DDC"/>
    <path d="M124.059 103.564L137.574 95.7603L131.493 76.4492L124.059 103.564Z" fill="#37474F"/>
    <path d="M123.514 107.391C123.746 107.238 123.922 107.012 124.014 106.749L133.013 75.5527L131.493 76.4315L122.371 108.032L123.514 107.391Z"
          fill="#263238"/>
    <path d="M121.233 107.391L122.371 108.05L131.493 76.4623L129.995 75.5835L120.996 106.78C120.97 106.894 120.979 107.013 121.021 107.122C121.063 107.231 121.137 107.324 121.233 107.391Z"
          fill="#37474F"/>
    <path d="M161.81 105.862C161.831 105.987 161.815 106.115 161.763 106.231C161.712 106.346 161.627 106.444 161.52 106.512L160.382 107.171L151.261 65.0384L152.781 64.1597L160.549 100.053L161.81 105.862Z"
          fill="#37474F"/>
    <path d="M159.241 106.512C159.008 106.362 158.84 106.13 158.771 105.862L149.741 64.1597L151.261 65.0384L160.383 107.171L159.241 106.512Z"
          fill="#263238"/>
    <path d="M131.493 76.4623L140.615 118.595L139.477 117.936C139.245 117.787 139.076 117.557 139.003 117.29L129.995 75.5835L131.493 76.4623Z"
          fill="#263238"/>
    <path d="M141.757 117.923C141.864 117.856 141.948 117.759 141.999 117.644C142.05 117.529 142.065 117.401 142.043 117.277L133.013 75.5835L131.493 76.4623L140.615 118.595L141.757 117.923Z"
          fill="#37474F"/>
    <path d="M151.261 63.2808L152.781 64.1595L131.493 76.4492L129.973 75.5704L151.261 63.2808Z" fill="#37474F"/>
    <path d="M152.781 64.1597L131.493 76.4493L139.266 112.343L160.55 100.053L152.781 64.1597Z" fill="#455A64"/>
    <path d="M139.907 87.1789C139.683 87.1789 139.556 87.1789 139.529 87.1789C139.492 87.1749 139.456 87.1635 139.424 87.1454C139.392 87.1273 139.363 87.1028 139.34 87.0734C139.295 87.0146 139.275 86.9406 139.283 86.8669C139.371 86.0628 140.004 83.9845 143.905 82.0073C147.082 80.3947 149.477 80.8473 149.947 81.0582C150.013 81.0881 150.065 81.1422 150.092 81.2093C150.119 81.2764 150.119 81.3513 150.092 81.4185C150.061 81.4976 149.27 83.3738 145.751 85.4038C142.965 87.0075 140.755 87.1789 139.907 87.1789ZM148.348 81.3878C146.883 81.4205 145.447 81.7984 144.156 82.4906C140.913 84.1383 140.1 85.83 139.898 86.6165C141.871 86.5303 143.789 85.9404 145.47 84.9029C148.027 83.4309 149.064 82.06 149.424 81.4844C149.07 81.4159 148.709 81.3835 148.348 81.3878Z"
          fill="white"/>
    <path d="M144.495 93.7304C143.975 93.734 143.461 93.6245 142.988 93.4097C140.822 92.4254 139.868 89.4552 139.284 86.9507C139.271 86.9135 139.266 86.874 139.27 86.8348C139.273 86.7957 139.285 86.7576 139.304 86.7232C139.323 86.6888 139.349 86.6588 139.38 86.6351C139.411 86.6113 139.447 86.5944 139.486 86.5855C139.524 86.5765 139.564 86.5757 139.602 86.5831C139.641 86.5904 139.678 86.6058 139.71 86.6282C139.742 86.6506 139.77 86.6796 139.79 86.7131C139.81 86.7467 139.824 86.7842 139.829 86.8232C140.387 89.1871 141.274 92.0168 143.221 92.9C144.266 93.3745 145.536 93.2163 146.999 92.4386C151.213 90.2021 150.717 85.1931 149.561 81.3836C149.546 81.3474 149.54 81.3086 149.541 81.2695C149.542 81.2305 149.551 81.1922 149.568 81.1569C149.585 81.1217 149.609 81.0904 149.639 81.0649C149.668 81.0395 149.703 81.0205 149.74 81.0092C149.778 80.9978 149.817 80.9944 149.856 80.9991C149.894 81.0038 149.932 81.0165 149.965 81.0365C149.999 81.0564 150.028 81.0831 150.051 81.1149C150.073 81.1467 150.089 81.1828 150.097 81.221C151.855 86.9726 150.866 91.0238 147.263 92.9351C146.419 93.4218 145.469 93.6948 144.495 93.7304Z"
          fill="white"/>
    <path d="M150.615 87.6095C150.56 87.6092 150.505 87.5923 150.459 87.561C150.413 87.5297 150.377 87.4854 150.356 87.4337C150.342 87.3997 150.335 87.3632 150.335 87.3263C150.335 87.2895 150.342 87.253 150.356 87.219C150.371 87.185 150.392 87.1543 150.418 87.1285C150.444 87.1028 150.476 87.0825 150.51 87.069C151.806 86.5374 152.347 85.2016 152.417 84.1295C152.474 83.2727 152.232 82.6663 151.978 82.5126C151.906 82.4679 151.826 82.439 151.743 82.4276C151.66 82.4163 151.575 82.4228 151.494 82.4467C151.099 82.6274 150.776 82.9373 150.58 83.3254C150.546 83.3919 150.487 83.4419 150.415 83.4646C150.344 83.4872 150.267 83.4806 150.2 83.4463C150.134 83.4119 150.084 83.3525 150.061 83.2812C150.038 83.21 150.045 83.1326 150.079 83.0662C150.351 82.5411 150.794 82.1253 151.336 81.8886C151.49 81.8429 151.651 81.8297 151.81 81.8502C151.969 81.8706 152.122 81.9241 152.259 82.0073C152.768 82.3017 153.054 83.1453 152.984 84.1515C152.9 85.3906 152.268 86.9416 150.73 87.5699C150.695 87.5906 150.656 87.6041 150.615 87.6095Z"
          fill="white"/>
    <path d="M141.093 82.082L141.014 82.0468C140.937 82.0193 140.863 81.9824 140.794 81.937L140.645 81.8271L140.496 81.6778C140.382 81.5453 140.287 81.3974 140.214 81.2384C140.132 81.0489 140.074 80.8495 140.043 80.6452C140.004 80.4234 139.989 80.198 139.999 79.9729C140.019 79.4868 140.107 79.006 140.263 78.5449C140.342 78.3077 140.439 78.1055 140.522 77.8771C140.599 77.681 140.662 77.4799 140.711 77.2751C140.802 76.919 140.802 76.5459 140.711 76.1898C140.634 75.9311 140.499 75.6936 140.315 75.4956C140.262 75.4363 140.205 75.3806 140.144 75.3286L140.083 75.2715C140.187 75.308 140.289 75.3536 140.386 75.4077C140.654 75.5611 140.871 75.7904 141.01 76.0668C141.201 76.4688 141.265 76.9192 141.194 77.3586C141.163 77.6014 141.106 77.8401 141.023 78.0704C140.944 78.2945 140.856 78.5098 140.79 78.7207C140.724 78.9316 140.654 79.1601 140.601 79.371C140.551 79.5809 140.513 79.7937 140.487 80.0081C140.463 80.2063 140.451 80.4059 140.452 80.6056C140.458 80.7828 140.478 80.9592 140.513 81.1329C140.55 81.2841 140.601 81.4313 140.667 81.5723C140.721 81.6768 140.786 81.7755 140.86 81.8667C140.909 81.93 140.965 81.9875 141.027 82.0381L141.093 82.082Z"
          fill="white"/>
    <path d="M142.425 80.4784L142.363 80.4081C142.304 80.3466 142.248 80.2821 142.196 80.2148C142.119 80.1015 142.049 79.9825 141.99 79.8589C141.913 79.6945 141.861 79.5198 141.836 79.3404C141.798 79.1288 141.789 78.9129 141.81 78.6989C141.827 78.4649 141.864 78.2327 141.919 78.0047C142.025 77.5345 142.187 77.0644 142.306 76.5986C142.368 76.3658 142.433 76.1241 142.469 75.9044C142.509 75.6886 142.527 75.4692 142.521 75.2497C142.509 75.049 142.475 74.8501 142.42 74.6565C142.312 74.3249 142.127 74.0236 141.88 73.7778C141.789 73.6861 141.694 73.5996 141.594 73.5185C141.506 73.4473 141.413 73.3813 141.317 73.3208C141.431 73.3446 141.543 73.3784 141.651 73.4219C141.945 73.5426 142.211 73.722 142.433 73.9491C142.755 74.2922 142.959 74.7297 143.013 75.197C143.027 75.3269 143.035 75.4574 143.035 75.588C143.035 75.719 143.025 75.8497 143.005 75.9791C142.966 76.2337 142.913 76.486 142.846 76.7348C142.706 77.2269 142.534 77.6971 142.407 78.1277C142.341 78.343 142.275 78.5671 142.236 78.7472C142.194 78.9305 142.171 79.1174 142.165 79.3053C142.159 79.3886 142.159 79.4724 142.165 79.5557C142.166 79.6328 142.177 79.7095 142.196 79.7842C142.219 79.908 142.252 80.0299 142.293 80.1489C142.372 80.3598 142.425 80.4784 142.425 80.4784Z"
          fill="white"/>
    <path d="M144.696 80.4169L144.617 80.3818C144.537 80.3544 144.461 80.3143 144.393 80.2631C144.278 80.1897 144.174 80.0994 144.086 79.9951L143.936 79.793C143.892 79.7139 143.853 79.6304 143.809 79.5381C143.729 79.3434 143.673 79.1398 143.642 78.9318C143.605 78.6964 143.596 78.4574 143.615 78.22C143.642 77.7238 143.74 77.234 143.905 76.7656C143.989 76.5239 144.09 76.2999 144.173 76.0846C144.257 75.8693 144.332 75.6452 144.389 75.4562C144.499 75.0907 144.534 74.7064 144.49 74.327C144.465 74.175 144.419 74.0272 144.354 73.8876C144.302 73.7763 144.237 73.6715 144.16 73.5756C144.111 73.51 144.057 73.4483 143.998 73.3911L143.941 73.3296C144.044 73.376 144.142 73.4319 144.235 73.4966C144.347 73.5721 144.448 73.6639 144.534 73.769C144.65 73.9072 144.741 74.0649 144.802 74.2347C144.94 74.6605 144.963 75.1154 144.868 75.5529C144.825 75.7952 144.762 76.0333 144.679 76.2647C144.595 76.4976 144.503 76.7041 144.433 76.937C144.354 77.1542 144.288 77.3757 144.235 77.6004C144.179 77.8146 144.135 78.0317 144.103 78.2507C144.078 78.4548 144.064 78.6602 144.064 78.8659C144.064 79.0487 144.082 79.2311 144.116 79.4107C144.154 79.5616 144.205 79.7087 144.27 79.8501C144.324 79.9584 144.391 80.0602 144.468 80.1533C144.518 80.2168 144.574 80.2756 144.635 80.329L144.696 80.4169Z"
          fill="white"/>
    <path d="M146.305 100.304C146.367 100.268 146.433 100.304 146.433 100.383C146.377 100.801 146.225 101.2 145.991 101.55C145.756 101.901 145.444 102.193 145.079 102.404C144.078 102.984 143.353 102.755 143.353 101.424C143.351 100.859 143.501 100.303 143.785 99.8145C144.069 99.3258 144.478 98.9214 144.969 98.6427C145.642 98.256 145.967 98.4933 145.967 98.8448C145.962 98.9245 145.939 99.0021 145.899 99.0715C145.86 99.1408 145.805 99.2001 145.738 99.2446C145.602 99.3237 145.567 99.2842 145.567 99.2842C145.587 99.2202 145.598 99.1535 145.598 99.0864C145.598 98.7481 145.378 98.647 144.943 98.8931C144.585 99.1544 144.295 99.497 144.095 99.8928C143.896 100.289 143.793 100.726 143.796 101.169C143.796 102.298 144.398 102.553 145.079 102.162C145.399 101.986 145.669 101.733 145.866 101.426C146.063 101.119 146.181 100.768 146.209 100.405C146.231 100.363 146.265 100.328 146.305 100.304Z"
          fill="white"/>
    <path d="M147.215 100.923C146.687 101.231 146.23 101.112 146.23 100.387C146.232 100.052 146.322 99.7238 146.491 99.4346C146.66 99.1454 146.902 98.9057 147.193 98.7394C147.729 98.4274 148.155 98.5549 148.155 99.2755C148.148 99.6067 148.058 99.9308 147.894 100.219C147.73 100.506 147.496 100.748 147.215 100.923ZM147.215 100.734C147.336 100.665 147.439 100.568 147.516 100.451C147.592 100.334 147.64 100.201 147.654 100.062C147.493 100.142 147.31 100.164 147.135 100.125C146.96 100.086 146.803 99.9875 146.692 99.8467C146.692 99.9301 146.692 100.022 146.692 100.119C146.692 100.778 146.846 100.95 147.215 100.734ZM146.868 99.3633C146.868 99.8027 147.25 99.9917 147.685 99.8598C147.685 99.7632 147.685 99.6577 147.685 99.5391C147.685 98.8888 147.579 98.6955 147.18 98.9283C147.097 98.9713 147.026 99.0331 146.972 99.1086C146.918 99.1842 146.882 99.2714 146.868 99.3633Z"
          fill="white"/>
    <path d="M148.923 97.9921V101.709C148.879 101.784 148.815 101.844 148.739 101.885C148.607 101.96 148.488 101.942 148.488 101.731V97.4912C148.488 96.7047 148.624 96.217 149.081 95.9534C149.402 95.7688 149.56 95.8831 149.56 96.3225C149.548 96.8381 149.373 97.3366 149.059 97.7461L149.499 97.4956C149.639 97.4165 149.666 97.4561 149.666 97.5703L148.923 97.9921ZM149.363 96.4499C149.363 96.1203 149.266 96.0413 149.13 96.1203C148.994 96.1994 148.945 96.384 148.932 97.7197C149.214 97.3507 149.363 96.8968 149.354 96.4323L149.363 96.4499Z"
          fill="white"/>
    <path d="M150.277 97.1928V100.91C150.232 100.984 150.168 101.045 150.092 101.086C149.96 101.16 149.842 101.143 149.842 100.936V96.6743C149.842 95.8878 149.978 95.4001 150.435 95.1365C150.756 94.9519 150.914 95.0662 150.914 95.5056C150.902 96.0212 150.727 96.5197 150.413 96.9292L150.852 96.6787C150.993 96.5996 151.019 96.6392 151.019 96.7534L150.277 97.1928ZM150.716 95.6506C150.716 95.321 150.62 95.2419 150.483 95.321C150.347 95.4001 150.299 95.5847 150.286 96.9248C150.564 96.5587 150.712 96.1104 150.707 95.6506H150.716Z"
          fill="white"/>
    <path d="M153.225 96.3532C153.286 96.3137 153.326 96.3532 153.326 96.4499C153.3 96.7614 153.197 97.0616 153.028 97.3244C152.859 97.5871 152.628 97.8044 152.355 97.957C151.643 98.3657 151.199 98.2558 151.199 97.566C151.198 97.224 151.287 96.8878 151.456 96.5904C151.624 96.293 151.868 96.0447 152.161 95.8699C152.601 95.6151 152.746 95.826 152.746 96.0764C152.696 96.3879 152.573 96.6831 152.387 96.9376C152.2 97.192 151.956 97.3984 151.674 97.5396C151.735 97.9263 151.995 97.979 152.355 97.7681C152.59 97.6297 152.787 97.4337 152.926 97.1986C153.065 96.9634 153.142 96.6967 153.15 96.4236C153.15 96.4236 153.154 96.3928 153.225 96.3532ZM151.656 97.3682C151.849 97.2562 152.016 97.1035 152.144 96.9206C152.272 96.7378 152.359 96.5292 152.399 96.3093C152.399 96.0545 152.28 95.9886 152.082 96.1028C151.784 96.2742 151.643 96.6081 151.643 97.3243L151.656 97.3682Z"
          fill="white"/>
    <path d="M155.189 95.2154C155.255 95.1803 155.29 95.2154 155.29 95.3121C155.266 95.6241 155.164 95.9251 154.995 96.1882C154.825 96.4512 154.593 96.668 154.319 96.8192C153.612 97.2322 153.168 97.1224 153.168 96.4281C153.167 96.0867 153.255 95.7509 153.423 95.4537C153.591 95.1564 153.833 94.9077 154.126 94.7321C154.565 94.4772 154.715 94.6882 154.715 94.943C154.664 95.2541 154.54 95.5487 154.353 95.8024C154.165 96.0561 153.92 96.2615 153.638 96.4018C153.704 96.7928 153.963 96.8412 154.319 96.6302C154.555 96.4921 154.753 96.2963 154.892 96.0611C155.032 95.826 155.11 95.5592 155.119 95.2857C155.119 95.2857 155.123 95.255 155.189 95.2154ZM153.625 96.2348C153.818 96.1235 153.985 95.9709 154.112 95.7878C154.24 95.6048 154.326 95.3958 154.363 95.1759C154.363 94.9254 154.249 94.8551 154.051 94.9694C153.752 95.1451 153.612 95.4791 153.612 96.1909L153.625 96.2348Z"
          fill="white"/>
    <path d="M116.272 67.8413V90.3686C116.278 90.4674 116.306 90.5636 116.356 90.6492C116.406 90.7347 116.475 90.8072 116.558 90.8608L117.323 91.3001C117.411 91.3456 117.509 91.3693 117.608 91.3693C117.708 91.3693 117.805 91.3456 117.894 91.3001L118.663 90.8608C118.746 90.806 118.815 90.7326 118.864 90.6464C118.914 90.5602 118.943 90.4636 118.948 90.3643V67.8413C118.947 67.7542 118.912 67.6711 118.851 67.6095C118.789 67.5479 118.706 67.5129 118.619 67.5117H116.602C116.515 67.5117 116.431 67.5464 116.369 67.6082C116.307 67.67 116.272 67.7539 116.272 67.8413Z"
          fill="#263238"/>
    <path d="M118.619 67.5117H117.938C117.851 67.5129 117.768 67.5479 117.706 67.6095C117.645 67.6711 117.61 67.7542 117.608 67.8413V91.1288C117.608 91.3089 117.736 91.3836 117.894 91.2914L118.663 90.852C118.746 90.7973 118.815 90.7238 118.865 90.6376C118.914 90.5514 118.943 90.4548 118.949 90.3555V67.8413C118.947 67.7542 118.912 67.6711 118.851 67.6095C118.789 67.5479 118.706 67.5129 118.619 67.5117Z"
          fill="#455A64"/>
    <path d="M103.346 75.2758V97.8032C103.351 97.902 103.379 97.9982 103.429 98.0837C103.479 98.1693 103.548 98.2418 103.631 98.2953L104.396 98.7347C104.484 98.7802 104.582 98.8039 104.681 98.8039C104.781 98.8039 104.879 98.7802 104.967 98.7347L105.736 98.2953C105.819 98.2418 105.888 98.1693 105.938 98.0837C105.988 97.9982 106.016 97.902 106.022 97.8032V75.2758C106.022 75.1884 105.987 75.1046 105.925 75.0428C105.863 74.981 105.779 74.9463 105.692 74.9463H103.675C103.588 74.9463 103.504 74.981 103.442 75.0428C103.38 75.1046 103.346 75.1884 103.346 75.2758Z"
          fill="#263238"/>
    <path d="M105.692 74.9463H105.011C104.924 74.9474 104.841 74.9825 104.779 75.0441C104.718 75.1056 104.683 75.1888 104.682 75.2758V98.5634C104.682 98.7435 104.813 98.8182 104.967 98.7259L105.736 98.2866C105.819 98.233 105.889 98.1605 105.938 98.0749C105.988 97.9894 106.017 97.8932 106.022 97.7944V75.2758C106.022 75.1884 105.987 75.1046 105.925 75.0428C105.863 74.981 105.78 74.9463 105.692 74.9463Z"
          fill="#455A64"/>
    <path d="M104.202 58.7417C104.222 58.8992 104.211 59.0591 104.168 59.2122C104.126 59.3652 104.054 59.5085 103.957 59.6338C103.859 59.759 103.738 59.8639 103.6 59.9423C103.462 60.0206 103.31 60.0711 103.152 60.0906H103.003C102.708 60.0907 102.424 59.9832 102.203 59.7881C101.982 59.5931 101.84 59.3241 101.803 59.0317C101.109 53.469 102.098 41.0168 104.479 34.0218C104.536 33.8507 104.63 33.6944 104.754 33.5645C104.879 33.4345 105.031 33.3342 105.2 33.271C105.369 33.2077 105.549 33.1831 105.729 33.199C105.908 33.2149 106.082 33.2708 106.237 33.3627C106.479 33.5026 106.665 33.7228 106.762 33.9851C106.859 34.2475 106.861 34.5356 106.768 34.7995C104.47 41.3947 103.535 53.3856 104.202 58.7417Z"
          fill="#455A64"/>
    <path d="M118.214 61.9622C118.053 61.9621 117.895 61.9111 117.764 61.8164C117.634 61.7218 117.536 61.5883 117.485 61.4349C115.934 56.6895 107.862 52.2341 102.752 52.2341C102.548 52.2341 102.353 52.1531 102.209 52.0089C102.064 51.8647 101.983 51.6691 101.983 51.4652C101.983 51.2613 102.064 51.0657 102.209 50.9215C102.353 50.7773 102.548 50.6963 102.752 50.6963C108.407 50.6963 117.164 55.5295 118.948 60.9296C118.98 61.0257 118.992 61.127 118.984 61.2279C118.977 61.3287 118.949 61.427 118.904 61.5172C118.858 61.6074 118.795 61.6877 118.718 61.7535C118.641 61.8193 118.552 61.8693 118.456 61.9007C118.379 61.9346 118.298 61.9554 118.214 61.9622Z"
          fill="#37474F"/>
    <path d="M119.041 54.9324C118.878 54.9326 118.72 54.8813 118.589 54.7857C118.458 54.6901 118.361 54.5553 118.311 54.4007C116.686 49.4708 108.416 45.3318 103.425 45.8459C103.225 45.8607 103.028 45.7972 102.874 45.6688C102.721 45.5404 102.623 45.3572 102.603 45.1582C102.582 44.9591 102.64 44.7599 102.764 44.6027C102.888 44.4456 103.068 44.3431 103.267 44.3168C108.908 43.7412 117.916 48.2932 119.77 53.9218C119.802 54.0179 119.814 54.1192 119.806 54.22C119.799 54.3209 119.771 54.4192 119.725 54.5094C119.68 54.5996 119.617 54.6799 119.54 54.7457C119.463 54.8115 119.374 54.8615 119.278 54.8928C119.201 54.9187 119.121 54.9321 119.041 54.9324Z"
          fill="#37474F"/>
    <path d="M120.9 49.4969C120.752 49.4988 120.607 49.4584 120.482 49.3805C120.356 49.3027 120.256 49.1906 120.192 49.0575C117.824 43.6662 109.142 39.057 104.638 39.681C104.535 39.7019 104.429 39.7015 104.326 39.6798C104.223 39.6581 104.126 39.6156 104.04 39.5549C103.955 39.4942 103.882 39.4166 103.828 39.3269C103.773 39.2371 103.738 39.1371 103.723 39.0331C103.709 38.9291 103.716 38.8232 103.744 38.722C103.772 38.6208 103.82 38.5264 103.886 38.4446C103.952 38.3629 104.034 38.2955 104.127 38.2467C104.22 38.1979 104.322 38.1686 104.427 38.1607C109.533 37.4533 118.953 42.4096 121.603 48.4424C121.643 48.5346 121.666 48.634 121.668 48.7349C121.67 48.8358 121.652 48.936 121.615 49.03C121.579 49.1239 121.524 49.2097 121.453 49.2822C121.383 49.3548 121.3 49.4129 121.207 49.4529C121.109 49.4882 121.004 49.5032 120.9 49.4969Z"
          fill="#37474F"/>
    <path d="M122.705 42.8932C122.961 43.042 123.153 43.2796 123.244 43.5608C123.336 43.842 123.321 44.1471 123.202 44.4179C120.425 50.9076 118.962 58.8386 118.962 67.5208V68.6852L118.869 68.7819C118.822 68.831 118.766 68.8697 118.703 68.8954C118.64 68.9212 118.572 68.9334 118.505 68.9313C118.33 68.9206 118.159 68.8789 117.999 68.8083C117.919 68.7764 117.837 68.75 117.753 68.7292C117.433 68.7292 117.125 68.6019 116.899 68.3753C116.672 68.1487 116.545 67.8413 116.545 67.5208C116.545 58.5134 118.078 50.2617 120.987 43.4644C121.053 43.3067 121.152 43.1649 121.278 43.0485C121.403 42.9321 121.552 42.8437 121.714 42.7892C121.876 42.7348 122.048 42.7155 122.218 42.7326C122.388 42.7498 122.553 42.803 122.701 42.8888L122.705 42.8932Z"
          fill="#455A64"/>
    <path d="M118.949 68.3996V68.6939C118.933 68.9635 118.862 69.2269 118.74 69.4674C118.617 69.708 118.446 69.9204 118.237 70.0912L105.389 79.3711C105.172 79.513 104.92 79.5947 104.661 79.6079C104.402 79.621 104.143 79.565 103.913 79.4458L85.8099 68.9927C85.5893 68.8474 85.4057 68.6525 85.2737 68.4237C85.1418 68.1948 85.0651 67.9383 85.0498 67.6746V67.3714C85.0622 67.1116 85.1425 66.8596 85.2829 66.6406C85.4232 66.4216 85.6186 66.2433 85.8495 66.1235L102.107 58.6144C102.356 58.5153 102.624 58.4707 102.893 58.4836C103.161 58.4965 103.423 58.5666 103.662 58.6891L118.193 67.0814C118.413 67.227 118.596 67.422 118.727 67.6508C118.858 67.8797 118.934 68.1361 118.949 68.3996Z"
          fill="#263238"/>
    <path d="M118.189 67.0814L103.658 58.6891C103.419 58.5666 103.157 58.4965 102.889 58.4836C102.62 58.4707 102.352 58.5153 102.103 58.6144L85.8454 66.1235C85.406 66.3256 85.406 66.6859 85.8059 66.932L103.917 77.385C104.148 77.5043 104.406 77.5603 104.666 77.5471C104.925 77.534 105.176 77.4523 105.394 77.3103L118.233 68.0349C118.321 67.9882 118.395 67.9172 118.444 67.8303C118.494 67.7434 118.518 67.6442 118.513 67.5442C118.509 67.4442 118.476 67.3475 118.418 67.2656C118.361 67.1836 118.281 67.1197 118.189 67.0814Z"
          fill="#37474F"/>
    <path d="M24.3214 68.3247V90.8477C24.3162 90.9471 24.2876 91.0438 24.238 91.1301C24.1884 91.2164 24.1191 91.2897 24.0358 91.3442L23.2669 91.7836C23.1793 91.829 23.0821 91.8528 22.9835 91.8528C22.8848 91.8528 22.7876 91.829 22.7001 91.7836L21.9311 91.3442C21.8478 91.2897 21.7786 91.2164 21.7289 91.1301C21.6793 91.0438 21.6507 90.9471 21.6455 90.8477V68.3247C21.6449 68.2812 21.6531 68.2381 21.6694 68.1979C21.6858 68.1576 21.71 68.1211 21.7407 68.0904C21.7715 68.0596 21.808 68.0354 21.8483 68.019C21.8885 68.0027 21.9316 67.9946 21.9751 67.9951H23.9919C24.0353 67.9946 24.0784 68.0027 24.1187 68.019C24.1589 68.0354 24.1955 68.0596 24.2262 68.0904C24.2569 68.1211 24.2812 68.1576 24.2975 68.1979C24.3139 68.2381 24.322 68.2812 24.3214 68.3247Z"
          fill="#263238"/>
    <path d="M21.9756 67.9956H22.6566C22.744 67.9956 22.8278 68.0303 22.8896 68.0921C22.9514 68.1539 22.9862 68.2377 22.9862 68.3251V91.6127C22.9862 91.7972 22.8587 91.8719 22.705 91.7796L21.936 91.3403C21.8527 91.2858 21.7834 91.2124 21.7338 91.1262C21.6842 91.0399 21.6556 90.9431 21.6504 90.8438V68.3251C21.6498 68.2821 21.6578 68.2393 21.6739 68.1994C21.69 68.1594 21.7138 68.1231 21.7441 68.0924C21.7743 68.0617 21.8104 68.0374 21.8501 68.0208C21.8899 68.0042 21.9325 67.9956 21.9756 67.9956Z"
          fill="#455A64"/>
    <path d="M37.2482 75.7593V98.2823C37.243 98.3816 37.2144 98.4784 37.1648 98.5647C37.1151 98.651 37.0459 98.7243 36.9626 98.7788L36.1936 99.2182C36.1047 99.2616 36.007 99.2842 35.908 99.2842C35.809 99.2842 35.7114 99.2616 35.6224 99.2182L34.8579 98.7788C34.7746 98.7243 34.7053 98.651 34.6557 98.5647C34.6061 98.4784 34.5775 98.3816 34.5723 98.2823V75.7593C34.5717 75.7158 34.5798 75.6727 34.5962 75.6325C34.6125 75.5922 34.6368 75.5556 34.6675 75.5249C34.6982 75.4942 34.7348 75.47 34.775 75.4536C34.8153 75.4372 34.8584 75.4291 34.9018 75.4297H36.9186C37.006 75.4297 37.0898 75.4644 37.1516 75.5262C37.2134 75.588 37.2482 75.6719 37.2482 75.7593Z"
          fill="#263238"/>
    <path d="M34.9018 75.4297H35.5785C35.6219 75.4291 35.6651 75.4372 35.7053 75.4536C35.7455 75.47 35.7821 75.4942 35.8128 75.5249C35.8435 75.5556 35.8678 75.5922 35.8842 75.6325C35.9005 75.6727 35.9086 75.7158 35.908 75.7593V99.0468C35.908 99.2313 35.7806 99.3016 35.6224 99.2138L34.8579 98.7744C34.7746 98.7199 34.7053 98.6466 34.6557 98.5603C34.6061 98.474 34.5775 98.3773 34.5723 98.2779V75.7593C34.5717 75.7158 34.5798 75.6727 34.5962 75.6325C34.6125 75.5922 34.6368 75.5556 34.6675 75.5249C34.6982 75.4942 34.7348 75.47 34.775 75.4536C34.8153 75.4372 34.8584 75.4291 34.9018 75.4297Z"
          fill="#455A64"/>
    <path d="M36.4049 59.221C36.3852 59.3785 36.3967 59.5384 36.4389 59.6915C36.481 59.8445 36.5529 59.9878 36.6504 60.1131C36.7479 60.2384 36.8692 60.3432 37.0072 60.4216C37.1453 60.4999 37.2975 60.5504 37.455 60.5699H37.6044C37.8991 60.57 38.1836 60.4625 38.4045 60.2675C38.6255 60.0724 38.7675 59.8034 38.8039 59.511C39.4982 53.9484 38.5095 41.4961 36.128 34.5011C35.882 33.7805 35.1878 33.6223 34.5287 34.0046C34.0278 34.2946 33.6499 34.7339 33.8564 35.2832C36.1237 41.874 37.0596 53.8649 36.4049 59.221Z"
          fill="#4C4DDC"/>
    <path d="M22.3797 62.4021C22.2579 62.4038 22.1375 62.3761 22.0286 62.3215C21.9197 62.2668 21.8256 62.1868 21.7541 62.0882C21.6826 61.9896 21.6358 61.8752 21.6178 61.7547C21.5997 61.6342 21.6109 61.5112 21.6503 61.3959C23.4079 55.9783 32.1956 51.1582 37.8461 51.1582C38.0501 51.1582 38.2457 51.2392 38.3899 51.3834C38.5341 51.5276 38.6151 51.7232 38.6151 51.9271C38.6151 52.1311 38.5341 52.3266 38.3899 52.4708C38.2457 52.615 38.0501 52.6961 37.8461 52.6961C32.7317 52.6961 24.6645 57.1471 23.1091 61.8749C23.0595 62.029 22.962 62.1632 22.8308 62.258C22.6996 62.3529 22.5416 62.4034 22.3797 62.4021Z"
          fill="#37474F"/>
    <path d="M21.5534 55.3981C21.4713 55.3975 21.3898 55.3842 21.3117 55.3586C21.1184 55.2944 20.9584 55.156 20.867 54.974C20.7755 54.7919 20.7601 54.581 20.824 54.3875C22.6738 48.759 31.6901 44.2025 37.3274 44.7869C37.5258 44.8132 37.7061 44.9158 37.8301 45.0729C37.9541 45.23 38.0119 45.4293 37.9913 45.6283C37.9707 45.8274 37.8733 46.0106 37.7198 46.139C37.5663 46.2674 37.3688 46.3309 37.1692 46.316C32.1822 45.8063 23.9085 49.9365 22.2828 54.8709C22.232 55.0242 22.1342 55.1577 22.0033 55.2524C21.8724 55.347 21.7149 55.398 21.5534 55.3981Z"
          fill="#37474F"/>
    <path d="M19.7082 49.9805C19.5805 49.9794 19.4551 49.9468 19.3431 49.8854C19.2311 49.824 19.1361 49.7359 19.0665 49.6289C18.9968 49.5218 18.9548 49.3992 18.9441 49.272C18.9334 49.1447 18.9544 49.0168 19.0052 48.8996C21.6415 42.8668 31.0796 37.9149 36.1809 38.618C36.3831 38.6459 36.5658 38.7531 36.689 38.9158C36.8122 39.0786 36.8657 39.2836 36.8377 39.4858C36.8098 39.6879 36.7026 39.8707 36.5399 39.9939C36.3772 40.1171 36.1721 40.1706 35.97 40.1426C31.4574 39.5143 22.7883 44.1279 20.4113 49.5192C20.3511 49.6557 20.2527 49.7719 20.1279 49.8537C20.0032 49.9356 19.8574 49.9796 19.7082 49.9805Z"
          fill="#37474F"/>
    <path d="M17.8846 43.3722C17.6287 43.5218 17.4368 43.7602 17.3452 44.0422C17.2537 44.3241 17.2689 44.6298 17.3881 44.9012C20.1695 51.391 21.6326 59.3175 21.6326 67.9998V69.1642L21.7249 69.2609C21.7718 69.31 21.8285 69.3487 21.8913 69.3744C21.9542 69.4002 22.0217 69.4124 22.0896 69.4103C22.264 69.3996 22.4351 69.3579 22.5949 69.2872C22.675 69.2554 22.7572 69.229 22.8409 69.2082C23.1614 69.2082 23.4687 69.0808 23.6953 68.8542C23.922 68.6276 24.0493 68.3203 24.0493 67.9998C24.0493 58.9968 22.5158 50.7407 19.6027 43.9434C19.5358 43.7868 19.4366 43.646 19.3115 43.5305C19.1865 43.4149 19.0384 43.327 18.877 43.2727C18.7156 43.2183 18.5446 43.1987 18.3751 43.2151C18.2055 43.2315 18.0414 43.2835 17.8934 43.3678L17.8846 43.3722Z"
          fill="#455A64"/>
    <path d="M21.6455 68.8831V69.1775C21.6587 69.4455 21.7276 69.7078 21.8479 69.9476C21.9682 70.1875 22.1372 70.3996 22.3441 70.5704L35.183 79.8546C35.4013 79.9945 35.6524 80.0749 35.9113 80.088C36.1702 80.1011 36.4281 80.0464 36.6594 79.9293L54.7665 69.4719C54.9889 69.3281 55.1741 69.1337 55.307 68.9046C55.4399 68.6755 55.5167 68.4182 55.5311 68.1537V67.8506C55.5166 67.5913 55.4353 67.3402 55.2952 67.1215C55.1551 66.9029 54.9609 66.7242 54.7314 66.6027L38.474 59.098C38.2239 58.9984 37.9555 58.9532 37.6866 58.9653C37.4176 58.9774 37.1544 59.0466 36.9142 59.1683L22.4056 67.565C22.1838 67.709 21.9993 67.9036 21.8672 68.1327C21.735 68.3618 21.6591 68.619 21.6455 68.8831Z"
          fill="#263238"/>
    <path d="M22.406 67.565L36.9321 59.1683C37.1723 59.0466 37.4355 58.9774 37.7045 58.9653C37.9734 58.9532 38.2418 58.9984 38.492 59.098L54.7493 66.6027C55.1887 66.8092 55.1887 67.1695 54.7844 67.4112L36.6773 77.8686C36.446 77.9857 36.1881 78.0404 35.9292 78.0273C35.6703 78.0142 35.4192 77.9338 35.2009 77.7939L22.3445 68.5184C22.2549 68.4715 22.1809 68.3996 22.1314 68.3114C22.0819 68.2232 22.059 68.1226 22.0655 68.0217C22.072 67.9208 22.1077 67.824 22.1681 67.7429C22.2285 67.6618 22.3112 67.6 22.406 67.565Z"
          fill="#37474F"/>
    <path d="M63.7523 92.478C66.6083 96.5291 68.9107 97.5177 69.6972 98.4009C70.4837 99.2841 69.9565 100.954 67.9397 101.283C65.9229 101.613 63.7831 101.055 62.5352 99.7279C61.2874 98.4009 60.4569 96.6873 59.1739 95.7031C57.8909 94.7189 57.2274 94.4464 57.0692 93.3304C56.9111 92.2144 58.0139 88.9365 58.0139 88.9365L63.7523 92.478Z"
          fill="#4C4DDC"/>
    <path d="M62.5223 86.4102C62.1928 87.8338 61.8457 89.0772 62.7596 90.8392C63.0585 91.4043 63.3901 91.9515 63.7526 92.4781C65.4179 94.8815 66.7756 96.7621 67.0173 97.0917C67.2589 97.4212 65.743 98.4098 64.0734 97.6409C62.4037 96.872 61.046 94.3323 59.9959 92.8076C59.5257 92.1178 59.0688 91.4895 58.6997 91.0105C58.2119 90.3646 57.9746 89.5639 58.0318 88.7565L58.1988 86.4673L62.5223 86.4102Z"
          fill="#FFA8A7"/>
    <path d="M53.1981 97.4389C56.0541 101.49 58.3565 102.483 59.1474 103.366C59.9383 104.249 59.4022 105.915 57.3898 106.244C55.3774 106.574 53.2332 106.02 51.9897 104.693C50.7463 103.366 49.907 101.653 48.624 100.668C47.341 99.6842 46.6776 99.4118 46.5194 98.2957C46.3612 97.1797 47.4684 93.9019 47.4684 93.9019L53.1981 97.4389Z"
          fill="#37474F"/>
    <path d="M51.968 91.375C51.6384 92.7986 51.2913 94.0421 52.2097 95.7996C52.5034 96.3667 52.8336 96.9142 53.1983 97.4385C54.8636 99.8464 56.2213 101.727 56.4629 102.057C56.7046 102.386 55.1887 103.375 53.5234 102.601C51.8581 101.828 50.4916 99.2971 49.4415 97.7681C48.9758 97.0782 48.5144 96.4499 48.1497 95.971C47.6579 95.3252 47.4188 94.5221 47.4774 93.7125L47.6444 91.4277L51.968 91.375Z"
          fill="#FFA8A7"/>
    <path d="M37.5426 31.456C35.2236 31.456 32.9996 30.5348 31.3598 28.895C29.72 27.2552 28.7988 25.0312 28.7988 22.7122V22.6375C28.7988 20.5807 29.6159 18.6081 31.0703 17.1538C32.5246 15.6994 34.4972 14.8823 36.554 14.8823H38.5269C39.5457 14.8817 40.5546 15.0819 41.496 15.4714C42.4374 15.8609 43.2928 16.432 44.0134 17.1522C44.734 17.8724 45.3057 18.7275 45.6957 19.6687C46.0857 20.6099 46.2864 21.6187 46.2864 22.6375V22.7122C46.2864 23.8605 46.0603 24.9975 45.6209 26.0583C45.1814 27.1192 44.5374 28.0831 43.7254 28.895C42.9135 29.707 41.9496 30.351 40.8887 30.7904C39.8279 31.2299 38.6909 31.456 37.5426 31.456Z"
          fill="#37474F"/>
    <path d="M46.2559 52.3574C45.6803 51.8917 45.0651 51.07 44.4719 49.3564C44.0633 48.1744 40.2846 37.5457 39.6826 34.9796C39.6826 34.9796 39.1466 34.2415 40.5614 33.3012C42.4464 33.0859 44.0765 33.0947 45.3947 36.6054C46.7128 40.1161 49.3755 48.4249 49.3755 48.4249"
          fill="#FFA8A7"/>
    <path d="M27.5515 59.2164C26.5937 60.952 25.794 64.2562 26.7079 66.9013C27.222 68.3645 34.0896 75.9219 38.9273 75.2892C47.2756 74.2039 55.0089 63.1182 55.0089 63.1182L43.9451 56.8042L27.5515 59.2164Z"
          fill="#4C4DDC"/>
    <g opacity="0.1">
        <path d="M27.5515 59.2164C26.5937 60.952 25.794 64.2562 26.7079 66.9013C27.222 68.3645 34.0896 75.9219 38.9273 75.2892C47.2756 74.2039 55.0089 63.1182 55.0089 63.1182L43.9451 56.8042L27.5515 59.2164Z"
              fill="black"/>
    </g>
    <path d="M40.0343 33.3319C41.3085 33.2308 42.82 33.2221 44.2524 35.8364C45.3728 37.8708 45.9792 38.7144 45.9352 41.4913C45.9045 43.4949 44.6742 45.9072 44.3974 47.5065C44.1206 49.1059 43.98 56.1757 43.958 56.804C42.8941 58.0037 41.5924 58.9693 40.1356 59.6395C38.6789 60.3096 37.0987 60.6697 35.4954 60.6969C29.9459 60.8463 27.5645 59.2162 27.5645 59.2162L31.8001 51.6104L30.6929 36.1484L34.8363 33.6702L40.0343 33.3319Z"
          fill="#4C4DDC"/>
    <g opacity="0.5">
        <path d="M40.0343 33.3319C41.3085 33.2308 42.82 33.2221 44.2524 35.8364C45.3728 37.8708 45.9792 38.7144 45.9352 41.4913C45.9045 43.4949 44.6742 45.9072 44.3974 47.5065C44.1206 49.1059 43.98 56.1757 43.958 56.804C42.8941 58.0037 41.5924 58.9693 40.1356 59.6395C38.6789 60.3096 37.0987 60.6697 35.4954 60.6969C29.9459 60.8463 27.5645 59.2162 27.5645 59.2162L31.8001 51.6104L30.6929 36.1484L34.8363 33.6702L40.0343 33.3319Z"
              fill="white"/>
    </g>
    <path d="M42.3234 18.415C43.2461 18.9643 45.4782 21.2842 45.3683 26.157C45.2717 30.2829 43.9359 31.3067 43.2637 31.5967C42.5914 31.8867 41.2952 31.7153 40.0342 31.5044V33.9825C40.0342 33.9825 41.7917 36.0037 41.6643 37.1373C41.5369 38.271 39.151 38.5434 37.5253 37.4317C36.4677 36.6725 35.5604 35.7234 34.8494 34.6328V28.6484C34.8494 28.6484 33.997 29.782 32.6085 28.8593C31.2201 27.9366 31.1629 25.6474 31.9714 24.8257C32.7799 24.004 34.5242 24.2677 34.8494 25.4013C34.8494 25.4013 36.563 25.8407 39.2433 24.3643C41.9235 22.888 42.1476 20.0188 42.3234 18.415Z"
          fill="#FFA8A7"/>
    <path d="M40.7596 25.1198C40.7603 25.2214 40.7312 25.321 40.6758 25.4062C40.6205 25.4913 40.5413 25.5583 40.4482 25.5989C40.3551 25.6395 40.2521 25.6518 40.152 25.6343C40.0519 25.6169 39.9592 25.5704 39.8853 25.5007C39.8114 25.431 39.7597 25.3411 39.7364 25.2422C39.7132 25.1433 39.7195 25.0398 39.7546 24.9445C39.7897 24.8491 39.852 24.7662 39.9338 24.706C40.0156 24.6458 40.1133 24.6109 40.2148 24.6058C40.2844 24.6034 40.3538 24.6149 40.4189 24.6395C40.4841 24.6641 40.5437 24.7014 40.5943 24.7492C40.645 24.797 40.6857 24.8544 40.714 24.918C40.7424 24.9816 40.7579 25.0502 40.7596 25.1198Z"
          fill="#37474F"/>
    <path d="M39.8235 23.5295L38.7426 24.1974C38.6607 24.0509 38.6373 23.8787 38.6773 23.7156C38.7172 23.5526 38.8175 23.4107 38.9579 23.3186C39.0284 23.2748 39.1069 23.2455 39.1888 23.2324C39.2707 23.2193 39.3544 23.2227 39.435 23.2423C39.5156 23.262 39.5915 23.2975 39.6582 23.3468C39.7249 23.3961 39.7811 23.4582 39.8235 23.5295Z"
          fill="#37474F"/>
    <path d="M40.8952 28.6177L42.1166 29.0087C42.0954 29.0902 42.058 29.1665 42.0065 29.2331C41.955 29.2997 41.8906 29.3552 41.8171 29.3962C41.7437 29.4373 41.6626 29.463 41.5789 29.472C41.4953 29.4809 41.4106 29.4728 41.3301 29.4481C41.1631 29.3946 41.0239 29.2774 40.9425 29.122C40.8611 28.9667 40.8441 28.7855 40.8952 28.6177Z"
          fill="#F28F8F"/>
    <path d="M44.7533 24.7463C44.7587 24.8154 44.7503 24.8848 44.7287 24.9506C44.707 25.0164 44.6724 25.0772 44.6271 25.1295C44.5817 25.1818 44.5264 25.2246 44.4643 25.2554C44.4023 25.2862 44.3347 25.3043 44.2656 25.3088C44.1249 25.3123 43.9884 25.2604 43.8857 25.1642C43.7829 25.0681 43.7221 24.9353 43.7164 24.7947C43.7132 24.7266 43.7235 24.6585 43.7466 24.5944C43.7697 24.5303 43.8052 24.4714 43.8512 24.421C43.8971 24.3706 43.9524 24.3297 44.0141 24.3007C44.0758 24.2718 44.1426 24.2552 44.2107 24.252C44.2788 24.2489 44.3468 24.2591 44.4109 24.2822C44.4751 24.3054 44.534 24.3409 44.5844 24.3868C44.6348 24.4327 44.6756 24.4881 44.7046 24.5498C44.7336 24.6115 44.7502 24.6783 44.7533 24.7463Z"
          fill="#37474F"/>
    <path d="M42.3232 24.4478L42.4067 27.5718L44.05 27.0621L42.3232 24.4478Z" fill="#F28F8F"/>
    <path d="M40.0341 31.5042C38.984 31.3855 36.8793 30.7484 36.418 30.041C36.5076 30.4926 36.7572 30.8968 37.121 31.179C37.8108 31.8337 40.0341 32.3082 40.0341 32.3082V31.5042Z"
          fill="#F28F8F"/>
    <path d="M41.6772 18.059C41.6772 18.059 42.5911 21.2358 41.4971 24.2104C41.4971 24.2104 45.4779 24.4609 45.6976 21.4511C45.6976 21.4511 45.5043 18.9729 43.7423 17.4966L41.6772 18.059Z"
          fill="#37474F"/>
    <path d="M32.4507 14.478C33.8436 15.7171 32.7012 16.9166 31.3698 18.4105C30.0385 19.9044 29.0235 21.1215 27.6307 19.8781C26.9757 19.2218 26.5968 18.3397 26.5717 17.4129C26.5465 16.4861 26.877 15.5848 27.4953 14.8939C28.1137 14.2031 28.973 13.7751 29.8969 13.6977C30.8208 13.6204 31.7393 13.8996 32.4639 14.478H32.4507Z"
          fill="#37474F"/>
    <path d="M61.8457 102.997V133.034C61.8533 133.166 61.8918 133.294 61.9582 133.409C62.0246 133.523 62.117 133.62 62.228 133.693L63.2517 134.281C63.3693 134.342 63.4996 134.373 63.6318 134.373C63.764 134.373 63.8943 134.342 64.0119 134.281L65.0357 133.693C65.1466 133.62 65.239 133.523 65.3054 133.409C65.3718 133.294 65.4104 133.166 65.4179 133.034V102.997C65.4179 102.88 65.3716 102.769 65.2892 102.686C65.2068 102.604 65.0951 102.558 64.9785 102.558H62.2851C62.1686 102.558 62.0568 102.604 61.9744 102.686C61.892 102.769 61.8457 102.88 61.8457 102.997Z"
          fill="#263238"/>
    <path d="M64.9646 102.557H64.0859C63.9693 102.557 63.8576 102.604 63.7752 102.686C63.6928 102.769 63.6465 102.88 63.6465 102.997V134.061C63.6465 134.303 63.8178 134.404 64.0244 134.281L65.0481 133.692C65.1591 133.62 65.2515 133.523 65.3179 133.408C65.3843 133.294 65.4228 133.165 65.4304 133.033V102.997C65.4305 102.937 65.4183 102.877 65.3946 102.822C65.3709 102.767 65.3362 102.718 65.2925 102.676C65.2489 102.635 65.1973 102.603 65.1409 102.583C65.0845 102.563 65.0245 102.554 64.9646 102.557Z"
          fill="#455A64"/>
    <path d="M108.254 76.2031V106.24C108.262 106.371 108.3 106.499 108.365 106.614C108.431 106.728 108.522 106.825 108.632 106.899L109.656 107.492C109.775 107.549 109.905 107.579 110.038 107.579C110.17 107.579 110.301 107.549 110.42 107.492L111.444 106.899C111.554 106.825 111.645 106.728 111.71 106.614C111.776 106.499 111.814 106.371 111.822 106.24V76.2031C111.822 76.0865 111.775 75.9748 111.693 75.8924C111.611 75.81 111.499 75.7637 111.382 75.7637H108.693C108.577 75.7637 108.465 75.81 108.383 75.8924C108.3 75.9748 108.254 76.0865 108.254 76.2031Z"
          fill="#263238"/>
    <path d="M111.382 75.7637H110.476C110.36 75.7637 110.248 75.81 110.166 75.8924C110.083 75.9748 110.037 76.0865 110.037 76.2031V107.272C110.037 107.514 110.208 107.61 110.419 107.492L111.443 106.899C111.553 106.825 111.644 106.728 111.71 106.614C111.775 106.499 111.813 106.371 111.821 106.24V76.2031C111.821 76.0865 111.775 75.9748 111.692 75.8924C111.61 75.81 111.498 75.7637 111.382 75.7637Z"
          fill="#455A64"/>
    <path d="M20.7979 79.2963V109.333C20.8049 109.465 20.8428 109.593 20.9084 109.707C20.974 109.822 21.0656 109.919 21.1757 109.992L22.1995 110.585C22.3187 110.643 22.4494 110.673 22.5818 110.673C22.7141 110.673 22.8448 110.643 22.964 110.585L23.9878 109.992C24.0984 109.92 24.1904 109.822 24.2561 109.708C24.3217 109.593 24.3593 109.465 24.3657 109.333V79.2963C24.3657 79.1798 24.3194 79.068 24.237 78.9856C24.1546 78.9032 24.0428 78.8569 23.9263 78.8569H21.2372C21.1207 78.8569 21.0089 78.9032 20.9265 78.9856C20.8441 79.068 20.7979 79.1798 20.7979 79.2963Z"
          fill="#37474F"/>
    <path d="M23.9266 78.8569H23.0214C22.9049 78.8569 22.7931 78.9032 22.7107 78.9856C22.6283 79.068 22.582 79.1798 22.582 79.2963V110.365C22.582 110.607 22.7534 110.704 22.9643 110.585L23.9881 109.992C24.0987 109.92 24.1906 109.822 24.2563 109.708C24.322 109.593 24.3596 109.465 24.3659 109.333V79.2963C24.3659 79.1798 24.3197 79.068 24.2372 78.9856C24.1548 78.9032 24.0431 78.8569 23.9266 78.8569Z"
          fill="#263238"/>
    <path d="M62.8733 105.207L19.7738 80.3248C19.552 80.1807 19.3675 79.9862 19.2353 79.7571C19.1032 79.5279 19.0272 79.2708 19.0137 79.0066V78.7035C19.0283 78.4396 19.1047 78.1828 19.2367 77.9538C19.3687 77.7249 19.5527 77.5301 19.7738 77.3853L68.2251 49.4139C68.4616 49.2949 68.7226 49.2329 68.9874 49.2329C69.2522 49.2329 69.5132 49.2949 69.7497 49.4139L112.858 74.2964C113.08 74.4405 113.264 74.635 113.397 74.8641C113.529 75.0933 113.605 75.3504 113.618 75.6146V75.9177C113.604 76.1818 113.528 76.4388 113.396 76.6679C113.264 76.897 113.08 77.0916 112.858 77.2359L64.3936 105.207C64.1586 105.329 63.898 105.392 63.6335 105.392C63.369 105.392 63.1083 105.329 62.8733 105.207Z"
          fill="#37474F"/>
    <path d="M63.6466 52.063L19.7738 77.3849C19.5527 77.5297 19.3687 77.7244 19.2367 77.9534C19.1047 78.1824 19.0283 78.4391 19.0137 78.703V79.0062C19.0272 79.2704 19.1032 79.5275 19.2353 79.7567C19.3675 79.9858 19.552 80.1803 19.7738 80.3244L62.8733 105.207C63.1063 105.334 63.3683 105.397 63.6335 105.391L63.6466 52.063Z"
          fill="#263238"/>
    <path d="M62.8734 103.147L19.7739 78.2641C19.3345 78.0224 19.3345 77.6314 19.7739 77.3853L68.2251 49.4139C68.4616 49.2949 68.7227 49.2329 68.9875 49.2329C69.2522 49.2329 69.5133 49.2949 69.7498 49.4139L112.858 74.2964C112.951 74.3262 113.032 74.3848 113.09 74.4638C113.148 74.5428 113.179 74.638 113.179 74.7358C113.179 74.8336 113.148 74.9288 113.09 75.0078C113.032 75.0868 112.951 75.1454 112.858 75.1752L64.3937 103.147C64.1587 103.268 63.898 103.331 63.6335 103.331C63.369 103.331 63.1084 103.268 62.8734 103.147Z"
          fill="#455A64"/>
    <path d="M42.8242 70.3639V70.8033C42.8254 71.0244 42.8839 71.2415 42.994 71.4332C43.1042 71.625 43.2621 71.7849 43.4525 71.8974L55.4654 78.8089C55.6567 78.9184 55.8733 78.9759 56.0937 78.9759C56.3141 78.9759 56.5307 78.9184 56.722 78.8089L78.7573 66.0667C78.9494 65.9568 79.109 65.7982 79.2201 65.6069C79.3312 65.4155 79.3898 65.1983 79.39 64.977V64.6694L56.1025 78.1191L42.8242 70.3639Z"
          fill="#E6E6E6"/>
    <path d="M79.3898 64.6914L66.3224 57.1515C66.2093 57.0846 66.0803 57.0493 65.9489 57.0493C65.8175 57.0493 65.6885 57.0846 65.5754 57.1515L42.9074 70.2364C42.8819 70.251 42.8606 70.2721 42.8458 70.2976C42.831 70.3231 42.8232 70.352 42.8232 70.3814C42.8232 70.4109 42.831 70.4398 42.8458 70.4653C42.8606 70.4907 42.8819 70.5118 42.9074 70.5264L56.089 78.141L79.3898 64.6914Z"
          fill="#FAFAFA"/>
    <path d="M55.9755 77.0337L48.9277 72.9694L69.535 61.0708L76.6179 65.1176L55.9755 77.0337Z" fill="#E6E6E6"/>
    <path d="M52.5127 65.728L52.6401 65.8027L56.0937 67.7975L62.2363 64.2472L62.3638 64.1769L58.7827 62.1074L52.5127 65.728Z"
          fill="#E0E0E0"/>
    <path d="M49.3579 48.4253C49.3579 48.4253 52.7544 51.233 56.6693 54.3394C58.4269 55.7411 60.3953 57.1515 62.0123 57.3273C63.2953 57.4635 65.5757 57.5558 66.0634 58.0039C66.5512 58.4521 67.9616 60.7897 68.4186 61.5454C68.8755 62.3011 68.5723 64.0719 67.1004 64.1817C65.6285 64.2916 65.0045 63.2414 64.3894 62.5867C64.0518 62.2219 63.6795 61.8908 63.2777 61.5981C63.2777 61.5981 61.7443 61.6816 60.8743 61.1587C60.0043 60.6359 59.5078 60.3371 59.5078 60.3371C56.4584 58.6279 48.7472 54.3526 46.2646 52.3402"
          fill="#FFA8A7"/>
    <path d="M52.6406 65.8027L56.0942 67.7975L62.2368 64.2473L58.7833 62.2568L52.6406 65.8027Z" fill="#E6E6E6"/>
    <path d="M56.0938 78.1411V78.9803C56.3141 78.9801 56.5307 78.9226 56.7221 78.8133L78.7574 66.0711C78.9494 65.9612 79.1091 65.8026 79.2202 65.6113C79.3313 65.4199 79.3899 65.2027 79.3901 64.9814V64.6738L56.0938 78.1411Z"
          fill="#E0E0E0"/>
    <path d="M56.4492 78.3252C56.6574 78.4064 56.8811 78.4398 57.1039 78.4231C57.3267 78.4064 57.5429 78.3399 57.7366 78.2285L79.6752 65.561C79.8655 65.4517 80.0292 65.3017 80.1545 65.1216C80.2799 64.9416 80.3638 64.736 80.4002 64.5196L82.8037 50.1956C82.8397 49.9568 82.8187 49.7128 82.7424 49.4837C82.666 49.2546 82.5364 49.0468 82.3643 48.8774L59.5645 62.0591C59.4242 62.1412 59.3036 62.2529 59.211 62.3865C59.1184 62.52 59.0561 62.6722 59.0284 62.8324L56.4492 78.3252Z"
          fill="#EBEBEB"/>
    <path d="M56.0938 78.1406L56.2431 78.2285C56.3103 78.2643 56.3792 78.2965 56.4497 78.3251L59.0464 62.8411C59.0741 62.681 59.1364 62.5288 59.229 62.3952C59.3216 62.2616 59.4422 62.1499 59.5825 62.0678L82.3823 48.8862C82.2903 48.7956 82.1869 48.7173 82.0747 48.6533L59.2266 61.8349C59.0863 61.917 58.9657 62.0288 58.8731 62.1623C58.7805 62.2959 58.7182 62.4481 58.6905 62.6083L56.0938 78.1406Z"
          fill="#F5F5F5"/>
    <path d="M68.8054 65.1042C68.968 64.1463 69.9566 62.8721 71.0024 62.2613C72.0481 61.6506 72.7951 61.9318 72.6325 62.8897C72.4699 63.8475 71.4813 65.1218 70.4356 65.7325C69.3898 66.3433 68.6473 66.0664 68.8054 65.1042Z"
          fill="#E0E0E0"/>
    <path d="M42.2136 78.8569L40.4297 79.8851L42.2136 80.9177L43.9975 79.8851L42.2136 78.8569Z" fill="#4C4DDC"/>
    <path d="M33.769 81.7348L40.1489 78.0527C40.2675 77.9958 40.3974 77.9663 40.529 77.9663C40.6605 77.9663 40.7904 77.9958 40.909 78.0527L45.5006 80.6891C45.6116 80.7612 45.704 80.8585 45.7704 80.973C45.8368 81.0875 45.8754 81.216 45.8829 81.3482V81.4975C45.8764 81.6299 45.8383 81.7589 45.7718 81.8735C45.7053 81.9882 45.6123 82.0852 45.5006 82.1566L39.1251 85.8431C39.0059 85.9007 38.8752 85.9306 38.7429 85.9306C38.6105 85.9306 38.4798 85.9007 38.3606 85.8431L33.769 83.2068C33.658 83.1346 33.5656 83.0373 33.4992 82.9228C33.4328 82.8083 33.3943 82.6798 33.3867 82.5477V82.3939C33.3943 82.2618 33.4328 82.1332 33.4992 82.0187C33.5656 81.9042 33.658 81.807 33.769 81.7348Z"
          fill="#4C4DDC"/>
    <path d="M38.3469 84.8105L33.7685 82.1742C33.5576 82.0556 33.5576 81.8578 33.7685 81.7348L40.1484 78.0527C40.2671 77.9958 40.3969 77.9663 40.5285 77.9663C40.6601 77.9663 40.79 77.9958 40.9086 78.0527L45.5002 80.6891C45.5457 80.7051 45.5851 80.7348 45.613 80.7742C45.6408 80.8135 45.6558 80.8605 45.6558 80.9088C45.6558 80.957 45.6408 81.004 45.613 81.0434C45.5851 81.0827 45.5457 81.1125 45.5002 81.1285L39.1115 84.8105C38.9932 84.8711 38.8621 84.9026 38.7292 84.9026C38.5963 84.9026 38.4653 84.8711 38.3469 84.8105Z"
          fill="#4C4DDC"/>
    <g opacity="0.3">
        <path d="M38.3469 84.8105L33.7685 82.1742C33.5576 82.0556 33.5576 81.8578 33.7685 81.7348L40.1484 78.0527C40.2671 77.9958 40.3969 77.9663 40.5285 77.9663C40.6601 77.9663 40.79 77.9958 40.9086 78.0527L45.5002 80.6891C45.5457 80.7051 45.5851 80.7348 45.613 80.7742C45.6408 80.8135 45.6558 80.8605 45.6558 80.9088C45.6558 80.957 45.6408 81.004 45.613 81.0434C45.5851 81.0827 45.5457 81.1125 45.5002 81.1285L39.1115 84.8105C38.9932 84.8711 38.8621 84.9026 38.7292 84.9026C38.5963 84.9026 38.4653 84.8711 38.3469 84.8105Z"
              fill="white"/>
    </g>
    <path d="M40.0515 78.7865C39.7966 78.9359 39.7966 79.1732 40.0515 79.3182C40.1941 79.3918 40.3523 79.4302 40.5128 79.4302C40.6734 79.4302 40.8315 79.3918 40.9742 79.3182C41.229 79.1732 41.229 78.9359 40.9742 78.7865C40.8309 78.715 40.673 78.6777 40.5128 78.6777C40.3527 78.6777 40.1948 78.715 40.0515 78.7865Z"
          fill="#4C4DDC"/>
    <path d="M38.2683 79.819C38.0134 79.964 38.0134 80.2013 38.2683 80.3507C38.4115 80.4223 38.5695 80.4595 38.7296 80.4595C38.8898 80.4595 39.0477 80.4223 39.191 80.3507C39.4458 80.2013 39.4458 79.964 39.191 79.819C39.0483 79.7454 38.8902 79.707 38.7296 79.707C38.5691 79.707 38.4109 79.7454 38.2683 79.819Z"
          fill="#4C4DDC"/>
    <g opacity="0.2">
        <path d="M40.0515 78.7865C39.7966 78.9359 39.7966 79.1732 40.0515 79.3182C40.1941 79.3918 40.3523 79.4302 40.5128 79.4302C40.6734 79.4302 40.8315 79.3918 40.9742 79.3182C41.229 79.1732 41.229 78.9359 40.9742 78.7865C40.8309 78.715 40.673 78.6777 40.5128 78.6777C40.3527 78.6777 40.1948 78.715 40.0515 78.7865Z"
              fill="black"/>
    </g>
    <g opacity="0.2">
        <path d="M38.2683 79.819C38.0134 79.964 38.0134 80.2013 38.2683 80.3507C38.4115 80.4223 38.5695 80.4595 38.7296 80.4595C38.8898 80.4595 39.0477 80.4223 39.191 80.3507C39.4458 80.2013 39.4458 79.964 39.191 79.819C39.0483 79.7454 38.8902 79.707 38.7296 79.707C38.5691 79.707 38.4109 79.7454 38.2683 79.819Z"
              fill="black"/>
    </g>
    <path d="M33.9797 83.879C33.9407 83.8791 33.9023 83.869 33.8684 83.8497C33.8345 83.8305 33.8062 83.8027 33.7864 83.7692C33.759 83.7182 33.7525 83.6587 33.768 83.603C33.7836 83.5473 33.8201 83.4998 33.8698 83.4704L34.5597 83.0705C34.6105 83.0415 34.6707 83.0335 34.7274 83.0483C34.784 83.0631 34.8327 83.0994 34.8629 83.1496C34.8775 83.1746 34.887 83.2022 34.8908 83.231C34.8945 83.2597 34.8925 83.2889 34.8847 83.3168C34.8769 83.3447 34.8635 83.3707 34.8454 83.3933C34.8273 83.4159 34.8049 83.4347 34.7794 83.4484L34.0895 83.8482C34.0565 83.8686 34.0185 83.8793 33.9797 83.879Z"
          fill="#4C4DDC"/>
    <path d="M33.9794 84.0989C33.8629 84.0989 33.7511 84.0526 33.6687 83.9702C33.5863 83.8878 33.54 83.7761 33.54 83.6596V76.7963C33.54 76.6798 33.5863 76.568 33.6687 76.4856C33.7511 76.4032 33.8629 76.3569 33.9794 76.3569C34.096 76.3569 34.2077 76.4032 34.2901 76.4856C34.3725 76.568 34.4188 76.6798 34.4188 76.7963V83.6596C34.4188 83.7761 34.3725 83.8878 34.2901 83.9702C34.2077 84.0526 34.096 84.0989 33.9794 84.0989Z"
          fill="#4C4DDC"/>
    <g opacity="0.2">
        <path d="M33.9797 83.8795C33.9407 83.8796 33.9023 83.8695 33.8684 83.8502C33.8345 83.831 33.8062 83.8032 33.7864 83.7696C33.759 83.7187 33.7525 83.6591 33.768 83.6035C33.7836 83.5478 33.8201 83.5003 33.8698 83.4709L34.5597 83.071C34.6105 83.042 34.6707 83.034 34.7274 83.0488C34.784 83.0635 34.8327 83.0999 34.8629 83.1501C34.8775 83.1751 34.887 83.2027 34.8908 83.2315C34.8945 83.2602 34.8925 83.2894 34.8847 83.3172C34.8769 83.3451 34.8635 83.3712 34.8454 83.3938C34.8273 83.4164 34.8049 83.4352 34.7794 83.4489L34.0895 83.8487C34.0565 83.8691 34.0185 83.8798 33.9797 83.8795Z"
              fill="black"/>
        <path d="M33.9794 84.0989C33.8629 84.0989 33.7511 84.0526 33.6687 83.9702C33.5863 83.8878 33.54 83.7761 33.54 83.6596V76.7963C33.54 76.6798 33.5863 76.568 33.6687 76.4856C33.7511 76.4032 33.8629 76.3569 33.9794 76.3569C34.096 76.3569 34.2077 76.4032 34.2901 76.4856C34.3725 76.568 34.4188 76.6798 34.4188 76.7963V83.6596C34.4188 83.7761 34.3725 83.8878 34.2901 83.9702C34.2077 84.0526 34.096 84.0989 33.9794 84.0989Z"
              fill="black"/>
    </g>
    <path d="M45.8695 83.1017C45.7155 83.1028 45.564 83.0634 45.4301 82.9875L44.4019 82.3943C44.3768 82.3802 44.3547 82.3612 44.3371 82.3384C44.3194 82.3157 44.3065 82.2896 44.2992 82.2617C44.2918 82.2338 44.2901 82.2048 44.2941 82.1762C44.2982 82.1477 44.308 82.1203 44.3228 82.0956C44.3522 82.0458 44.3998 82.0093 44.4554 81.9938C44.5111 81.9782 44.5707 81.9848 44.6216 82.0121L45.6498 82.6053C45.7116 82.642 45.7822 82.6614 45.8541 82.6614C45.926 82.6614 45.9966 82.642 46.0584 82.6053L54.5737 77.7324C54.5988 77.718 54.6265 77.7087 54.6552 77.705C54.684 77.7012 54.7131 77.7032 54.7411 77.7108C54.769 77.7183 54.7952 77.7313 54.8181 77.7489C54.8411 77.7666 54.8603 77.7886 54.8747 77.8137C54.8891 77.8388 54.8985 77.8665 54.9022 77.8952C54.9059 77.9239 54.904 77.9531 54.8964 77.9811C54.8889 78.009 54.8759 78.0352 54.8582 78.0581C54.8405 78.0811 54.8185 78.1003 54.7934 78.1147L46.2913 82.9875C46.1632 83.062 46.0177 83.1014 45.8695 83.1017Z"
          fill="#F0F0F0"/>
    <path d="M39.2252 75.6365C39.2261 75.8766 39.1557 76.1115 39.023 76.3115C38.8903 76.5115 38.7012 76.6676 38.4796 76.7601C38.2581 76.8525 38.0142 76.8772 37.7786 76.8309C37.5431 76.7846 37.3266 76.6694 37.1566 76.5C36.9865 76.3306 36.8706 76.1145 36.8234 75.8791C36.7763 75.6438 36.8 75.3997 36.8917 75.1779C36.9834 74.956 37.1388 74.7664 37.3383 74.6329C37.5378 74.4995 37.7725 74.4282 38.0125 74.4282C38.3334 74.4282 38.6412 74.5554 38.8685 74.7819C39.0958 75.0083 39.2241 75.3157 39.2252 75.6365Z"
          fill="#4C4DDC"/>
    <path d="M38.0133 72.4463C37.4357 72.4466 36.8691 72.6037 36.3738 72.9009C35.8786 73.198 35.4733 73.6241 35.2012 74.1335C35.1487 74.2322 35.1326 74.3462 35.1559 74.4556C35.1793 74.5649 35.2404 74.6625 35.3286 74.7311C35.3824 74.7733 35.4447 74.8032 35.5112 74.8189C35.5777 74.8345 35.6468 74.8354 35.7138 74.8216C35.7807 74.8078 35.8438 74.7796 35.8987 74.7389C35.9536 74.6983 35.999 74.6461 36.0316 74.5861C36.2207 74.2252 36.5048 73.923 36.8534 73.7121C37.2019 73.5012 37.6015 73.3897 38.0089 73.3897C38.4163 73.3897 38.8159 73.5012 39.1644 73.7121C39.5129 73.923 39.7971 74.2252 39.9861 74.5861C40.0187 74.6468 40.0643 74.6996 40.1195 74.7407C40.1748 74.7819 40.2384 74.8104 40.3059 74.8242C40.3734 74.838 40.4431 74.8369 40.5101 74.8208C40.5771 74.8047 40.6397 74.7741 40.6935 74.7311C40.7825 74.663 40.8442 74.5654 40.8676 74.4558C40.8909 74.3463 40.8744 74.232 40.821 74.1335C40.5496 73.6244 40.1451 73.1985 39.6506 72.9014C39.1561 72.6042 38.5902 72.4469 38.0133 72.4463Z"
          fill="#4C4DDC"/>
    <path d="M38.0132 70.5132C37.1524 70.5132 36.3055 70.7307 35.5512 71.1455C34.7969 71.5603 34.1596 72.159 33.6984 72.8859C33.6324 72.9851 33.6057 73.1053 33.6236 73.2231C33.6415 73.3409 33.7026 73.4478 33.7951 73.523C33.8475 73.5638 33.9079 73.5932 33.9725 73.6092C34.037 73.6252 34.1041 73.6275 34.1696 73.6159C34.235 73.6043 34.2973 73.5791 34.3524 73.5419C34.4075 73.5047 34.4541 73.4563 34.4893 73.4C34.8662 72.8094 35.3858 72.3232 36.0002 71.9865C36.6145 71.6497 37.3038 71.4732 38.0044 71.4732C38.705 71.4732 39.3943 71.6497 40.0087 71.9865C40.623 72.3232 41.1427 72.8094 41.5195 73.4C41.5543 73.4562 41.6005 73.5045 41.6552 73.5417C41.7099 73.5789 41.7718 73.6041 41.8369 73.6157C41.902 73.6273 41.9689 73.625 42.033 73.6091C42.0972 73.5931 42.1573 73.5638 42.2094 73.523C42.3025 73.4485 42.3645 73.3418 42.3832 73.224C42.4019 73.1062 42.376 72.9856 42.3104 72.8859C41.8509 72.1615 41.2164 71.5644 40.4654 71.1498C39.7144 70.7351 38.8711 70.5162 38.0132 70.5132Z"
          fill="#4C4DDC"/>
    <path d="M45.7861 68.0655C42.7367 66.3563 36.2997 61.7647 33.8128 59.7655C33.2416 59.3042 32.4946 59.0273 32.1035 57.2346C31.8399 56.0131 28.7554 45.648 28.1974 41.9264C27.6525 38.2883 29.3046 37.0931 30.7063 36.166C32.7143 37.7522 32.789 39.7163 33.6941 43.0424C34.6915 46.6937 36.9192 55.8374 36.9192 55.8374C36.9192 55.8374 39.8499 58.7461 43.1849 61.9888C44.8018 63.5662 46.7 64.8668 48.2994 65.0382C49.5824 65.1788 51.8628 65.2666 52.3505 65.7192C52.8382 66.1718 54.2487 68.5005 54.7056 69.2343C55.1626 69.9681 54.8594 71.7652 53.3875 71.8706C51.9155 71.9761 51.2916 70.9259 50.6764 70.2757C50.3396 69.9088 49.9672 69.5762 49.5648 69.2826C49.5648 69.2826 48.0313 69.3705 47.1613 68.8433C46.2914 68.316 45.7861 68.0655 45.7861 68.0655Z"
          fill="#FFA8A7"/>
    <path d="M68.6209 48.3898C67.106 47.9065 65.4783 47.9065 63.9634 48.3898C62.7023 48.8731 62.7023 49.6508 63.9634 50.1473C65.4783 50.6305 67.106 50.6305 68.6209 50.1473C69.9302 49.6596 69.9302 48.8731 68.6209 48.3898Z"
          fill="#E0E0E0"/>
    <path d="M69.706 46.272H62.9131L63.4272 54.2776C63.4579 54.5676 63.7303 54.8532 64.2488 55.0773C65.5665 55.552 67.0086 55.552 68.3263 55.0773C68.8624 54.8532 69.1436 54.5676 69.1744 54.2776L69.706 46.272Z"
          fill="#4C4DDC"/>
    <path d="M62.9131 46.2808L63.0185 47.9065C63.1964 48.0271 63.3863 48.1287 63.5853 48.2097C65.3381 48.8204 67.2459 48.8204 68.9986 48.2097L69.1787 48.1262C69.3304 48.057 69.4771 47.9777 69.6181 47.8889L69.7192 46.272L62.9131 46.2808Z"
          fill="#4C4DDC"/>
    <path opacity="0.1"
          d="M62.9131 46.2808L63.0185 47.9065C63.1964 48.0271 63.3863 48.1287 63.5853 48.2097C65.3381 48.8204 67.2459 48.8204 68.9986 48.2097L69.1787 48.1262C69.3304 48.057 69.4771 47.9777 69.6181 47.8889L69.7192 46.272L62.9131 46.2808Z"
          fill="black"/>
    <path d="M70.137 46.5092V45.2657H69.3593C69.2539 45.213 69.1352 45.1603 69.0122 45.1076C67.2587 44.5013 65.3524 44.5013 63.599 45.1076C63.4759 45.1603 63.3661 45.213 63.265 45.2657H62.4961V46.4916C62.4961 46.8915 62.8652 47.2913 63.599 47.5945C65.3524 48.2008 67.2587 48.2008 69.0122 47.5945C69.7548 47.3045 70.137 46.9091 70.137 46.5092Z"
          fill="#4C4DDC"/>
    <g opacity="0.3">
        <path d="M70.137 46.5092V45.2657H69.3593C69.2539 45.213 69.1352 45.1603 69.0122 45.1076C67.2587 44.5013 65.3524 44.5013 63.599 45.1076C63.4759 45.1603 63.3661 45.213 63.265 45.2657H62.4961V46.4916C62.4961 46.8915 62.8652 47.2913 63.599 47.5945C65.3524 48.2008 67.2587 48.2008 69.0122 47.5945C69.7548 47.3045 70.137 46.9091 70.137 46.5092Z"
              fill="white"/>
    </g>
    <path d="M68.9983 44.1851C67.2456 43.5744 65.3378 43.5744 63.585 44.1851C62.1175 44.7915 62.1175 45.7801 63.585 46.3821C65.3378 46.9928 67.2456 46.9928 68.9983 46.3821C70.5142 45.7801 70.5142 44.7915 68.9983 44.1851Z"
          fill="#4C4DDC"/>
    <path opacity="0.1"
          d="M68.9983 44.1851C67.2456 43.5744 65.3378 43.5744 63.585 44.1851C62.1175 44.7915 62.1175 45.7801 63.585 46.3821C65.3378 46.9928 67.2456 46.9928 68.9983 46.3821C70.5142 45.7801 70.5142 44.7915 68.9983 44.1851Z"
          fill="white"/>
    <path d="M68.3308 44.3302C67.006 43.9173 65.5869 43.9173 64.2621 44.3302C63.1548 44.7476 63.1548 45.4199 64.2621 45.8373C65.5862 46.2547 67.0067 46.2547 68.3308 45.8373C69.4732 45.4199 69.4732 44.7476 68.3308 44.3302Z"
          fill="#4C4DDC"/>
    <path opacity="0.3"
          d="M68.3308 44.3302C67.006 43.9173 65.5869 43.9173 64.2621 44.3302C63.1548 44.7476 63.1548 45.4199 64.2621 45.8373C65.5862 46.2547 67.0067 46.2547 68.3308 45.8373C69.4732 45.4199 69.4732 44.7476 68.3308 44.3302Z"
          fill="white"/>
    <path d="M69.1613 44.9407L68.8537 43.8247H63.7656L63.458 44.9407H69.1613Z" fill="#4C4DDC"/>
    <path opacity="0.3" d="M69.1613 44.9407L68.8537 43.8247H63.7656L63.458 44.9407H69.1613Z" fill="white"/>
    <path d="M68.1064 43.2533C66.9278 42.8843 65.6645 42.8843 64.4859 43.2533C63.506 43.6224 63.506 44.22 64.4859 44.5934C65.6645 44.9624 66.9278 44.9624 68.1064 44.5934C69.1214 44.22 69.1214 43.6224 68.1064 43.2533Z"
          fill="#4C4DDC"/>
    <path opacity="0.1"
          d="M68.5154 43.9212C68.5154 43.9212 68.4891 43.9827 68.4056 44.0486C68.2712 44.1417 68.1229 44.2129 67.9662 44.2596C67.416 44.4389 66.84 44.5265 66.2614 44.5188C65.6929 44.5295 65.1268 44.4434 64.5873 44.2639C64.4433 44.2142 64.3083 44.1415 64.1875 44.0486C64.104 43.9827 64.082 43.9344 64.082 43.9212C64.082 43.908 64.1699 43.7411 64.5873 43.5829C65.1268 43.4035 65.6929 43.3173 66.2614 43.328C66.8398 43.3189 67.4158 43.405 67.9662 43.5829C68.41 43.7367 68.5154 43.8905 68.5154 43.9212Z"
          fill="#4C4DDC"/>
    <path opacity="0.1"
          d="M68.5154 43.9212C68.5154 43.9212 68.4891 43.9827 68.4056 44.0486C68.2712 44.1417 68.1229 44.2129 67.9662 44.2596C67.416 44.4389 66.84 44.5265 66.2614 44.5188C65.6929 44.5295 65.1268 44.4434 64.5873 44.2639C64.4433 44.2142 64.3083 44.1415 64.1875 44.0486C64.104 43.9827 64.082 43.9344 64.082 43.9212C64.082 43.908 64.1699 43.7411 64.5873 43.5829C65.1268 43.4035 65.6929 43.3173 66.2614 43.328C66.8398 43.3189 67.4158 43.405 67.9662 43.5829C68.41 43.7367 68.5154 43.8905 68.5154 43.9212Z"
          fill="black"/>
    <path d="M68.4056 44.0487C68.2712 44.1418 68.1229 44.2129 67.9662 44.2596C67.416 44.439 66.8401 44.5266 66.2614 44.5188C65.693 44.5296 65.1268 44.4434 64.5873 44.264C64.4433 44.2143 64.3083 44.1416 64.1875 44.0487C64.3087 43.9576 64.4437 43.8864 64.5873 43.8378C65.1268 43.6584 65.693 43.5722 66.2614 43.5829C66.8398 43.5738 67.4158 43.6599 67.9662 43.8378C68.1229 43.8844 68.2712 43.9556 68.4056 44.0487Z"
          fill="#4C4DDC"/>
    <path d="M67.3857 44.0706C67.444 44.0321 67.5094 44.0056 67.5781 43.9928C67.6467 43.98 67.7173 43.981 67.7856 43.9959C67.8602 44.0398 67.7856 44.1409 67.6537 44.2244C67.5953 44.2645 67.5293 44.2922 67.4598 44.3058C67.3903 44.3194 67.3187 44.3186 67.2495 44.3035C67.1616 44.2595 67.2363 44.1585 67.3857 44.0706Z"
          fill="#4C4DDC"/>
    <path opacity="0.1"
          d="M67.3857 44.0706C67.444 44.0321 67.5094 44.0056 67.5781 43.9928C67.6467 43.98 67.7173 43.981 67.7856 43.9959C67.8602 44.0398 67.7856 44.1409 67.6537 44.2244C67.5953 44.2645 67.5293 44.2922 67.4598 44.3058C67.3903 44.3194 67.3187 44.3186 67.2495 44.3035C67.1616 44.2595 67.2363 44.1585 67.3857 44.0706Z"
          fill="black"/>
    <path d="M63.207 52.1641C63.207 52.4585 63.5058 52.7573 64.0858 52.9858C65.5153 53.4394 67.0502 53.4394 68.4797 52.9858C69.0948 52.7573 69.4024 52.4629 69.4024 52.1641L69.5957 49.2642C69.5957 49.5761 69.2662 49.8925 68.6115 50.1429C67.0966 50.6262 65.4689 50.6262 63.954 50.1429C63.3212 49.9013 63.0049 49.5849 63.0049 49.2642L63.207 52.1641Z"
          fill="#4C4DDC"/>
    <path opacity="0.4"
          d="M63.207 52.1641C63.207 52.4585 63.5058 52.7573 64.0858 52.9858C65.5153 53.4394 67.0502 53.4394 68.4797 52.9858C69.0948 52.7573 69.4024 52.4629 69.4024 52.1641L69.5957 49.2642C69.5957 49.5761 69.2662 49.8925 68.6115 50.1429C67.0966 50.6262 65.4689 50.6262 63.954 50.1429C63.3212 49.9013 63.0049 49.5849 63.0049 49.2642L63.207 52.1641Z"
          fill="white"/>
    <path d="M65.8966 52.3357C65.7998 52.1773 65.7133 52.013 65.6373 51.8436C65.4704 51.5375 65.2014 51.2996 64.8772 51.1714C64.8553 51.1649 64.8319 51.1656 64.8105 51.1736C64.7892 51.1815 64.7709 51.1961 64.7585 51.2153C64.6956 51.4133 64.6881 51.6247 64.7368 51.8267C64.7854 52.0286 64.8885 52.2134 65.0347 52.361C65.1809 52.5085 65.3647 52.6133 65.5662 52.6638C65.7677 52.7144 65.9792 52.7088 66.1778 52.6477C66.1778 52.6477 66.1997 52.6038 66.1778 52.595C66.0684 52.5272 65.9729 52.4393 65.8966 52.3357Z"
          fill="#4C4DDC"/>
    <path d="M65.0616 51.0834C65.2367 51.1512 65.3976 51.2511 65.5361 51.3778C65.6835 51.5085 65.8017 51.6687 65.8832 51.848C65.9768 52.0762 66.1282 52.2761 66.3226 52.4279C66.3326 52.4355 66.344 52.4409 66.3561 52.4438C66.3683 52.4468 66.3809 52.4473 66.3932 52.4452C66.4056 52.4431 66.4173 52.4386 66.4279 52.4319C66.4384 52.4251 66.4474 52.4163 66.4544 52.406C66.5597 52.2061 66.594 51.9764 66.5516 51.7545C66.5093 51.5326 66.393 51.3316 66.2216 51.1845C66.0793 51.0232 65.89 50.9105 65.6803 50.8624C65.4706 50.8144 65.2512 50.8332 65.0528 50.9165C65.0373 50.9247 65.0245 50.9372 65.0158 50.9525C65.0072 50.9678 65.0031 50.9852 65.004 51.0027C65.005 51.0203 65.0109 51.0372 65.021 51.0515C65.0312 51.0657 65.0453 51.0768 65.0616 51.0834Z"
          fill="#4C4DDC"/>
</svg>
