<svg width="288" height="204" viewBox="0 0 288 204" fill="none" xmlns="http://www.w3.org/2000/svg">
<mask id="mask0_1052_12070" style="mask-type:alpha" maskUnits="userSpaceOnUse" x="0" y="0" width="288" height="204">
<rect x="0.5" width="287" height="204" rx="64" fill="#EAF0FF"/>
</mask>
<g mask="url(#mask0_1052_12070)">
<rect x="0.5" y="33" width="287" height="198" rx="64" fill="#224495" fill-opacity="0.2"/>
<path d="M297.217 193.177H-8.5V193.33H297.217V193.177Z" fill="#EBEBEB"/>
<path d="M266.584 203.015H257.474V203.168H266.584V203.015Z" fill="#EBEBEB"/>
<path d="M254.894 197.341H233.989V197.494H254.894V197.341Z" fill="#EBEBEB"/>
<path d="M58.5316 200.496H32.1237V200.649H58.5316V200.496Z" fill="#EBEBEB"/>
<path d="M73.4995 200.496H63.9733V200.649H73.4995V200.496Z" fill="#EBEBEB"/>
<path d="M147.269 198.441H89.9899V198.594H147.269V198.441Z" fill="#EBEBEB"/>
<path d="M136.41 165.907H18.3481C17.4232 165.905 16.5368 165.537 15.8833 164.882C15.2299 164.228 14.8629 163.341 14.8629 162.416V-3.54595C14.871 -4.46553 15.2415 -5.3448 15.8941 -5.99278C16.5466 -6.64075 17.4285 -7.00509 18.3481 -7.00667H136.41C137.336 -7.00667 138.224 -6.63884 138.879 -5.98409C139.533 -5.32935 139.901 -4.44133 139.901 -3.51538V162.416C139.901 163.342 139.533 164.23 138.879 164.884C138.224 165.539 137.336 165.907 136.41 165.907ZM18.3481 -6.88438C17.4637 -6.88276 16.6162 -6.53032 15.9914 -5.90442C15.3667 -5.27852 15.0158 -4.4303 15.0158 -3.54595V162.416C15.0158 163.3 15.3667 164.148 15.9914 164.774C16.6162 165.4 17.4637 165.753 18.3481 165.754H136.41C137.295 165.753 138.143 165.4 138.769 164.775C139.395 164.149 139.747 163.301 139.748 162.416V-3.54595C139.747 -4.43086 139.395 -5.27906 138.769 -5.90479C138.143 -6.53052 137.295 -6.88276 136.41 -6.88438H18.3481Z" fill="#EBEBEB"/>
<path d="M268.669 165.907H150.601C149.676 165.905 148.789 165.537 148.134 164.883C147.48 164.228 147.112 163.341 147.11 162.416V-3.54595C147.12 -4.46609 147.492 -5.34535 148.145 -5.99316C148.799 -6.64096 149.681 -7.00511 150.601 -7.00667H268.669C269.588 -7.00349 270.468 -6.63843 271.119 -5.99063C271.771 -5.34283 272.14 -4.46448 272.148 -3.54595V162.416C272.148 163.34 271.782 164.226 271.13 164.88C270.478 165.535 269.593 165.904 268.669 165.907ZM150.601 -6.88438C149.716 -6.88276 148.868 -6.53052 148.243 -5.90479C147.617 -5.27906 147.265 -4.43086 147.263 -3.54595V162.416C147.265 163.301 147.617 164.149 148.243 164.775C148.868 165.4 149.716 165.753 150.601 165.754H268.669C269.554 165.753 270.403 165.4 271.028 164.775C271.654 164.149 272.006 163.301 272.008 162.416V-3.54595C272.006 -4.43086 271.654 -5.27906 271.028 -5.90479C270.403 -6.53052 269.554 -6.88276 268.669 -6.88438H150.601Z" fill="#EBEBEB"/>
<path d="M42.243 193.177H118.165L118.165 20.1717H42.243L42.243 193.177Z" fill="#F0F0F0"/>
<path d="M42.2368 193.177H116.758L116.758 20.1717H42.2368L42.2368 193.177Z" fill="#F5F5F5"/>
<path d="M112.839 193.171L112.839 24.0909L46.1745 24.0909L46.1745 193.171H112.839Z" fill="#F0F0F0"/>
<path d="M61.8517 109.166H51.3656C51.0412 109.166 50.7302 109.037 50.5009 108.808C50.2715 108.578 50.1427 108.267 50.1427 107.943C50.1427 107.619 50.2715 107.308 50.5009 107.078C50.7302 106.849 51.0412 106.72 51.3656 106.72H61.8517C62.176 106.72 62.487 106.849 62.7164 107.078C62.9457 107.308 63.0745 107.619 63.0745 107.943C63.0745 108.267 62.9457 108.578 62.7164 108.808C62.487 109.037 62.176 109.166 61.8517 109.166Z" fill="#FAFAFA"/>
<path d="M47.1833 189.252L47.1833 24.097H46.1623L46.1623 189.252H47.1833Z" fill="#F0F0F0"/>
<path d="M186.749 142.379H192.858V118.704H186.749V142.379Z" fill="#E6E6E6"/>
<path d="M170.186 142.379H190.461L193.524 114.669H173.249L170.186 142.379Z" fill="#F0F0F0"/>
<path d="M167.991 142.379H188.932L191.996 114.669H171.048L167.991 142.379Z" fill="#F5F5F5"/>
<path d="M187.422 140.196L189.996 116.852H172.564L169.984 140.196H187.422Z" fill="white"/>
<path d="M184.713 134.18L185.936 123.229C185.963 122.998 185.941 122.764 185.87 122.543C185.8 122.321 185.684 122.117 185.529 121.944C185.374 121.77 185.184 121.632 184.972 121.537C184.76 121.442 184.53 121.394 184.298 121.395H176.96C176.556 121.395 176.165 121.544 175.863 121.813C175.561 122.083 175.368 122.454 175.322 122.856L174.099 133.807C174.071 134.037 174.093 134.271 174.162 134.493C174.232 134.714 174.347 134.918 174.502 135.092C174.656 135.265 174.846 135.404 175.058 135.499C175.27 135.593 175.499 135.642 175.731 135.641H183.069C183.475 135.644 183.868 135.496 184.171 135.226C184.475 134.956 184.668 134.583 184.713 134.18Z" fill="#F5F5F5"/>
<path d="M228.877 192.138H246.474V142.379H228.877V192.138Z" fill="#E6E6E6"/>
<path d="M149.495 192.138H232.222V142.379H149.495V192.138Z" fill="#F0F0F0"/>
<path d="M229.88 192.138H226.75H153.983V193.177H226.75H229.88H241.986V192.138H229.88Z" fill="#E0E0E0"/>
<path d="M152.46 165.571H229.25V145.491H152.46V165.571Z" fill="#E6E6E6"/>
<path d="M152.46 188.891H229.25V168.811H152.46V188.891Z" fill="#E6E6E6"/>
<path d="M167.324 155.531C167.324 155.967 167.195 156.394 166.952 156.757C166.71 157.12 166.365 157.403 165.962 157.57C165.558 157.737 165.114 157.781 164.686 157.696C164.258 157.611 163.865 157.4 163.556 157.092C163.247 156.783 163.037 156.39 162.952 155.962C162.867 155.533 162.911 155.09 163.078 154.686C163.245 154.283 163.528 153.938 163.891 153.696C164.254 153.453 164.68 153.324 165.117 153.324C165.407 153.324 165.694 153.381 165.962 153.492C166.229 153.603 166.473 153.765 166.678 153.97C166.883 154.175 167.045 154.418 167.156 154.686C167.267 154.954 167.324 155.241 167.324 155.531Z" fill="white"/>
<path d="M218.801 155.531C218.801 155.967 218.671 156.394 218.429 156.757C218.186 157.12 217.842 157.403 217.438 157.57C217.035 157.737 216.591 157.781 216.163 157.696C215.735 157.611 215.341 157.4 215.033 157.092C214.724 156.783 214.514 156.39 214.429 155.962C214.343 155.533 214.387 155.09 214.554 154.686C214.721 154.283 215.004 153.938 215.367 153.696C215.73 153.453 216.157 153.324 216.594 153.324C216.883 153.324 217.17 153.381 217.438 153.492C217.706 153.603 217.949 153.765 218.154 153.97C218.359 154.175 218.522 154.418 218.633 154.686C218.744 154.954 218.801 155.241 218.801 155.531Z" fill="white"/>
<path d="M165.117 181.058C166.336 181.058 167.324 180.07 167.324 178.851C167.324 177.632 166.336 176.644 165.117 176.644C163.898 176.644 162.91 177.632 162.91 178.851C162.91 180.07 163.898 181.058 165.117 181.058Z" fill="white"/>
<path d="M218.801 178.869C218.801 179.306 218.671 179.733 218.429 180.096C218.186 180.459 217.842 180.742 217.438 180.909C217.035 181.076 216.591 181.119 216.163 181.034C215.735 180.949 215.341 180.739 215.033 180.43C214.724 180.122 214.514 179.728 214.429 179.3C214.343 178.872 214.387 178.428 214.554 178.025C214.721 177.621 215.004 177.277 215.367 177.034C215.73 176.792 216.157 176.662 216.594 176.662C217.179 176.662 217.74 176.895 218.154 177.309C218.568 177.723 218.801 178.284 218.801 178.869Z" fill="white"/>
<path d="M242.427 44.3722H150.724V64.9959H242.427V44.3722Z" fill="#E6E6E6"/>
<path d="M235.811 44.3722H149.489V64.9959H235.811V44.3722Z" fill="#F5F5F5"/>
<path d="M166.59 54.0452H161.766C161.61 53.3659 161.209 52.7679 160.64 52.3652C160.071 51.9626 159.374 51.7835 158.681 51.8621C157.989 51.9407 157.349 52.2716 156.885 52.7915C156.421 53.3114 156.164 53.984 156.164 54.6811C156.164 55.3781 156.421 56.0507 156.885 56.5706C157.349 57.0906 157.989 57.4214 158.681 57.5C159.374 57.5786 160.071 57.3995 160.64 56.9969C161.209 56.5942 161.61 55.9962 161.766 55.3169H166.59C166.759 55.3169 166.921 55.25 167.04 55.1307C167.159 55.0115 167.226 54.8497 167.226 54.6811C167.226 54.5124 167.159 54.3507 167.04 54.2314C166.921 54.1122 166.759 54.0452 166.59 54.0452Z" fill="#E6E6E6"/>
<path d="M185.649 54.0452H180.831C180.674 53.3659 180.274 52.7679 179.705 52.3652C179.136 51.9626 178.438 51.7835 177.746 51.8621C177.053 51.9407 176.414 52.2716 175.95 52.7915C175.485 53.3114 175.229 53.984 175.229 54.6811C175.229 55.3781 175.485 56.0507 175.95 56.5706C176.414 57.0906 177.053 57.4214 177.746 57.5C178.438 57.5786 179.136 57.3995 179.705 56.9969C180.274 56.5942 180.674 55.9962 180.831 55.3169H185.649C185.817 55.3169 185.979 55.25 186.098 55.1307C186.218 55.0115 186.285 54.8497 186.285 54.6811C186.285 54.5124 186.218 54.3507 186.098 54.2314C185.979 54.1122 185.817 54.0452 185.649 54.0452Z" fill="#E6E6E6"/>
<path d="M204.713 54.0452H199.889C199.733 53.3659 199.332 52.7679 198.763 52.3652C198.194 51.9626 197.497 51.7835 196.804 51.8621C196.112 51.9407 195.472 52.2716 195.008 52.7915C194.544 53.3114 194.287 53.984 194.287 54.6811C194.287 55.3781 194.544 56.0507 195.008 56.5706C195.472 57.0906 196.112 57.4214 196.804 57.5C197.497 57.5786 198.194 57.3995 198.763 56.9969C199.332 56.5942 199.733 55.9962 199.889 55.3169H204.713C204.882 55.3169 205.044 55.25 205.163 55.1307C205.282 55.0115 205.349 54.8497 205.349 54.6811C205.349 54.5124 205.282 54.3507 205.163 54.2314C205.044 54.1122 204.882 54.0452 204.713 54.0452Z" fill="#E6E6E6"/>
<path d="M223.772 54.0452H218.954C218.797 53.3659 218.397 52.7679 217.828 52.3652C217.259 51.9626 216.561 51.7835 215.869 51.8621C215.176 51.9407 214.537 52.2716 214.073 52.7915C213.608 53.3114 213.352 53.984 213.352 54.6811C213.352 55.3781 213.608 56.0507 214.073 56.5706C214.537 57.0906 215.176 57.4214 215.869 57.5C216.561 57.5786 217.259 57.3995 217.828 56.9969C218.397 56.5942 218.797 55.9962 218.954 55.3169H223.778C223.946 55.3169 224.108 55.25 224.227 55.1307C224.347 55.0115 224.414 54.8497 224.414 54.6811C224.414 54.5124 224.347 54.3507 224.227 54.2314C224.108 54.1122 223.946 54.0452 223.778 54.0452H223.772Z" fill="#E6E6E6"/>
<path d="M214.136 50.0585C211.745 51.6544 206.132 83.2166 206.132 83.2166L208.217 87.1542L206.23 116.852L214.136 121.395L225.19 115.28L223.166 92.9996L226.156 90.2787L219.663 51.1469C219.663 51.1469 218.006 47.4783 214.136 50.0585Z" fill="#E0E0E0"/>
<path d="M76.9968 213.868H147.367C148.531 213.87 149.683 213.639 150.756 213.187C151.829 212.736 152.801 212.074 153.613 211.24C154.425 210.407 155.062 209.419 155.486 208.335C155.91 207.251 156.112 206.092 156.08 204.929L151.849 36.442C151.771 34.0556 150.773 31.7918 149.063 30.1253C147.353 28.4588 145.065 27.5189 142.677 27.5028H72.3194C71.1554 27.5007 70.0028 27.7322 68.9299 28.1836C67.8571 28.6349 66.8856 29.297 66.0732 30.1305C65.2608 30.964 64.6238 31.9521 64.2001 33.0362C63.7764 34.1203 63.5745 35.2784 63.6064 36.442L67.8375 204.929C67.9163 207.313 68.9134 209.574 70.6202 211.24C72.3271 212.906 74.6118 213.847 76.9968 213.868Z" fill="#263238"/>
<path d="M65.3612 83.9382H66.5841C66.803 83.9383 67.0196 83.8945 67.2212 83.8095C67.4229 83.7245 67.6055 83.5999 67.7582 83.4432C67.9109 83.2865 68.0307 83.1008 68.1105 82.897C68.1903 82.6932 68.2285 82.4755 68.2228 82.2568L67.6786 60.5936C67.6629 60.1453 67.4749 59.7203 67.1537 59.4071C66.8325 59.0939 66.4029 58.9166 65.9543 58.9122H64.7315C64.5129 58.9121 64.2965 58.9559 64.0952 59.041C63.8939 59.126 63.7117 59.2507 63.5595 59.4075C63.4072 59.5643 63.288 59.7501 63.2089 59.9539C63.1298 60.1576 63.0924 60.3752 63.0989 60.5936L63.6492 82.2629C63.6634 82.709 63.8495 83.1325 64.1685 83.4447C64.4875 83.7569 64.9149 83.9337 65.3612 83.9382Z" fill="#263238"/>
<path d="M153.622 86.6958C153.918 86.6967 154.212 86.6381 154.485 86.5234C154.758 86.4088 155.006 86.2404 155.213 86.0282C155.42 85.8161 155.582 85.5645 155.69 85.2885C155.798 85.0124 155.85 84.7175 155.841 84.4212L155.23 61.1867C155.211 60.58 154.958 60.0042 154.523 59.5801C154.089 59.156 153.507 58.9166 152.9 58.9122C152.604 58.9113 152.31 58.9699 152.037 59.0845C151.764 59.1992 151.516 59.3676 151.309 59.5798C151.102 59.7919 150.94 60.0434 150.832 60.3195C150.724 60.5955 150.673 60.8904 150.681 61.1867L151.292 84.4212C151.311 85.028 151.564 85.6038 151.999 86.0279C152.433 86.452 153.015 86.6913 153.622 86.6958Z" fill="#263238"/>
<path d="M154.545 123.431C154.841 123.432 155.135 123.373 155.408 123.258C155.681 123.143 155.928 122.975 156.134 122.763C156.341 122.551 156.502 122.299 156.61 122.023C156.717 121.747 156.768 121.452 156.759 121.156L156.178 97.9216C156.157 97.3154 155.904 96.7404 155.47 96.3167C155.035 95.8929 154.455 95.653 153.848 95.6471C153.552 95.6461 153.258 95.7048 152.985 95.8194C152.711 95.9341 152.464 96.1025 152.257 96.3146C152.05 96.5268 151.888 96.7783 151.78 97.0544C151.672 97.3304 151.62 97.6253 151.629 97.9216L152.209 121.156C152.23 121.763 152.484 122.339 152.92 122.763C153.355 123.187 153.938 123.426 154.545 123.431Z" fill="#263238"/>
<path d="M78.4888 213.868H148.859C150.023 213.87 151.175 213.639 152.248 213.187C153.321 212.736 154.293 212.074 155.105 211.24C155.917 210.407 156.554 209.419 156.978 208.335C157.402 207.251 157.604 206.092 157.572 204.929L153.341 36.442C153.263 34.0556 152.265 31.7918 150.555 30.1253C148.845 28.4588 146.557 27.5189 144.169 27.5028H73.8113C72.6473 27.5007 71.4948 27.7322 70.4219 28.1836C69.349 28.6349 68.3776 29.297 67.5651 30.1305C66.7527 30.964 66.1158 31.9521 65.6921 33.0362C65.2683 34.1203 65.0665 35.2784 65.0984 36.442L69.3295 204.929C69.4068 207.313 70.4033 209.575 72.1105 211.241C73.8178 212.908 76.1033 213.849 78.4888 213.868Z" fill="#4C4DDC"/>
<path opacity="0.8" d="M71.066 203.688H155.725C155.851 203.688 155.975 203.662 156.09 203.613C156.206 203.564 156.31 203.491 156.396 203.4C156.482 203.309 156.549 203.202 156.593 203.084C156.636 202.966 156.655 202.841 156.648 202.715L152.533 38.8511C152.529 38.611 152.43 38.3824 152.258 38.2144C152.087 38.0463 151.856 37.9522 151.616 37.9523H66.951C66.8277 37.9522 66.7056 37.9769 66.5919 38.0248C66.4783 38.0727 66.3754 38.1429 66.2893 38.2313C66.2033 38.3196 66.1358 38.4243 66.0909 38.5391C66.0459 38.654 66.0245 38.7767 66.0277 38.9L70.1427 202.764C70.1427 203.009 70.24 203.244 70.4131 203.417C70.5862 203.59 70.8211 203.688 71.066 203.688Z" fill="white"/>
<path d="M98.336 52.1681C94.4839 53.1158 91.6958 66.4512 97.5656 75.7144C103.435 84.9776 117.932 83.2045 119.449 66.5429C121.124 47.9736 105.068 41.4129 98.336 52.1681Z" fill="#263238"/>
<path d="M115.756 80.3062C116.142 82.1634 116.622 84 117.193 85.8091C117.755 87.6006 118.415 89.3676 119.137 91.1163C119.863 92.8819 120.709 94.5958 121.668 96.2463C122.151 97.0778 122.677 97.8972 123.234 98.692C123.509 99.0956 123.802 99.493 124.108 99.9149C124.255 100.111 124.42 100.3 124.573 100.496L124.811 100.783C124.965 100.972 125.135 101.148 125.319 101.309C125.735 101.67 126.222 101.939 126.749 102.098C127.229 102.241 127.73 102.297 128.229 102.263C128.961 102.199 129.674 101.991 130.326 101.651C131.302 101.159 132.211 100.542 133.029 99.8171C134.478 98.5576 135.823 97.1835 137.052 95.7082C139.421 92.8675 141.579 89.8573 143.509 86.7018L141.418 85.216C140.262 86.5612 139.082 87.9247 137.877 89.2331C136.673 90.5416 135.432 91.8501 134.209 93.0729C133.013 94.2889 131.73 95.4149 130.369 96.4419C129.796 96.8828 129.17 97.2485 128.504 97.5303C128.345 97.605 128.172 97.6446 127.997 97.6465C127.997 97.6465 128.033 97.6465 128.131 97.6465C128.225 97.6756 128.314 97.7189 128.394 97.7749C128.403 97.7886 128.416 97.7993 128.431 97.8054C128.431 97.8054 128.461 97.8482 128.431 97.8054L128.247 97.5548C128.131 97.3897 128.003 97.2368 127.893 97.0595C127.654 96.7232 127.428 96.3808 127.208 96.0262C126.768 95.323 126.352 94.5954 125.985 93.8434C125.209 92.3392 124.524 90.7862 123.882 89.1598C123.24 87.5333 122.702 85.9008 122.194 84.2377C121.687 82.5746 121.222 80.8443 120.843 79.2484L115.756 80.3062Z" fill="#FF8B7B"/>
<path d="M112.014 81.4557C112.497 83.0148 114.239 85.8458 115.615 87.9491C116.618 89.4593 117.419 90.5905 117.419 90.5905L118.287 90.0586L125.459 85.6012C124.31 81.5596 122.744 77.2062 117.926 75.8182C114.9 74.9867 111.152 78.6736 112.014 81.4557Z" fill="#4C4DDC"/>
<path opacity="0.3" d="M115.621 87.9491C116.624 89.4594 117.425 90.5905 117.425 90.5905L118.293 90.0586C117.939 88.4444 117.266 85.9253 116.22 84.892C115.805 85.8568 115.601 86.8991 115.621 87.9491Z" fill="black"/>
<path d="M140.91 86.3288L140.586 81.7186L145.795 82.6663C145.795 82.6663 144.456 86.1821 142.836 87.5578L140.91 86.3288Z" fill="#FF8B7B"/>
<path d="M141.846 78.3069L145.581 79.7315L145.795 82.6664L140.586 81.7187L141.846 78.3069Z" fill="#FF8B7B"/>
<path d="M93.365 208.976L98.3298 209.453L101.638 197.805L96.6728 197.329L93.365 208.976Z" fill="#FF8B7B"/>
<path d="M56.9846 199.169L61.5765 201.303L67.9966 191.349L63.4047 189.215L56.9846 199.169Z" fill="#FF8B7B"/>
<path d="M62.9522 199.756L57.9201 197.109C57.8345 197.06 57.7339 197.045 57.6379 197.067C57.5419 197.088 57.4573 197.144 57.4004 197.225L54.7284 200.893C54.6638 200.988 54.6201 201.095 54.6002 201.208C54.5802 201.321 54.5846 201.437 54.613 201.548C54.6413 201.659 54.693 201.763 54.7646 201.852C54.8361 201.942 54.9259 202.015 55.028 202.067C56.7951 202.96 57.7 203.29 59.9195 204.47C61.283 205.192 64.1996 206.977 66.0705 207.968C67.9415 208.958 69.0299 207.154 68.3329 206.567C65.2207 203.963 64.224 202.031 63.5637 200.416C63.4448 200.131 63.228 199.897 62.9522 199.756Z" fill="#263238"/>
<path opacity="0.2" d="M101.638 197.812L99.9318 203.81H94.8264L96.6668 197.329L101.638 197.812Z" fill="black"/>
<path opacity="0.2" d="M63.3986 189.221L67.9965 191.355L64.6887 196.485L60.0907 194.351L63.3986 189.221Z" fill="black"/>
<path d="M91.3228 102.526L111.598 105.98C121.381 77.5058 119.253 76.3563 119.253 76.3563C119.253 76.3563 115.902 75.0112 112.472 73.984C111.953 73.825 111.427 73.6782 110.913 73.5376C107.885 72.7965 104.808 72.2713 101.705 71.9662C101.246 71.9051 100.788 71.8623 100.335 71.8195C97.8609 71.609 95.3762 71.5457 92.8942 71.6299C93.1143 75.3536 93.255 78.5147 93.3161 81.2661C93.3956 84.8553 93.3161 87.7473 93.1877 90.2603C92.892 94.3918 92.2685 98.4931 91.3228 102.526Z" fill="#4C4DDC"/>
<path d="M101.21 73.4153C100.924 73.3164 100.674 73.1365 100.49 72.8976C100.305 72.6587 100.194 72.3712 100.17 72.0702C100.161 71.9807 100.161 71.8906 100.17 71.8011H100.329C100.782 71.8501 101.24 71.8929 101.699 71.954L103.215 72.1374C105.441 72.4248 107.428 72.7122 109.421 73.1646C109.91 73.2747 110.406 73.3909 110.907 73.5315C111.408 73.6721 111.885 73.7944 112.374 73.9473V74.0084C112.341 74.1033 112.3 74.1953 112.252 74.2836C112.222 74.3325 112.185 74.3692 112.154 74.412C112.378 74.6005 112.544 74.8493 112.63 75.129C112.717 75.4086 112.722 75.7073 112.643 75.9895C112.576 76.2241 112.453 76.4394 112.286 76.6179C112.12 76.7964 111.913 76.933 111.684 77.0167C111.755 77.2281 111.779 77.4526 111.754 77.6742C111.729 77.8959 111.655 78.1094 111.539 78.2996C111.422 78.4897 111.265 78.6519 111.079 78.7747C110.892 78.8974 110.681 78.9778 110.461 79.01C110.488 79.229 110.469 79.4515 110.404 79.6625C110.338 79.8734 110.228 80.0679 110.082 80.2328C109.818 80.5318 109.446 80.7142 109.048 80.7403C109.018 80.7434 108.987 80.7434 108.957 80.7403C108.962 81.111 108.834 81.4714 108.596 81.7553C108.527 81.8293 108.453 81.8987 108.376 81.9632C108.296 82.0182 108.211 82.0671 108.125 82.116C108.036 82.1642 107.942 82.2012 107.844 82.2261C107.745 82.2513 107.645 82.2677 107.544 82.275C107.344 82.2892 107.143 82.2637 106.952 82.2C106.762 82.1364 106.585 82.0358 106.434 81.9041C106.282 81.7723 106.158 81.612 106.068 81.4323C105.979 81.2525 105.926 81.0569 105.912 80.8565C105.899 80.668 105.924 80.4789 105.985 80.3001C105.869 80.342 105.747 80.3667 105.624 80.3735C105.397 80.3939 105.169 80.3614 104.957 80.2787C104.745 80.1959 104.554 80.0651 104.401 79.8965C104.202 79.6881 104.066 79.4277 104.009 79.1454C103.952 78.863 103.975 78.5702 104.077 78.3007C103.795 78.3674 103.5 78.3515 103.227 78.255C102.954 78.1585 102.714 77.9855 102.536 77.7565C102.356 77.5208 102.247 77.2383 102.222 76.9425C102.197 76.6467 102.257 76.3499 102.396 76.0873C102.077 76.1162 101.757 76.0437 101.481 75.8801C101.206 75.7166 100.989 75.4702 100.861 75.1762C100.734 74.8822 100.703 74.5555 100.772 74.2426C100.841 73.9298 101.007 73.6467 101.246 73.4337L101.21 73.4153Z" fill="white"/>
<path opacity="0.3" d="M93.1877 90.2603C94.6857 87.3499 95.6334 80.9788 94.8447 78.7409L93.3161 81.2661C93.3956 84.8552 93.3405 87.7657 93.1877 90.2603Z" fill="black"/>
<path d="M104.206 65.8947C103.906 68.4077 103.209 70.9513 101.699 71.9662C101.699 71.9662 100.476 74.253 107.397 80.7342C112.992 75.4514 110.907 73.5376 110.907 73.5376C107.74 72.1864 108.052 69.9852 109.568 66.4817L107.122 65.0203C106.916 64.7692 106.639 64.5846 106.328 64.4899C106.017 64.3951 105.685 64.3944 105.373 64.4878C105.062 64.5812 104.785 64.7646 104.577 65.0149C104.369 65.2652 104.24 65.5713 104.206 65.8947Z" fill="#FF8B7B"/>
<path opacity="0.2" d="M107.104 65.0203C106.91 64.788 106.655 64.6139 106.368 64.517C106.081 64.4202 105.773 64.4044 105.478 64.4714C105.183 64.5384 104.912 64.6856 104.695 64.8968C104.478 65.1081 104.323 65.3751 104.249 65.6684C105.119 67.6342 106.592 69.2723 108.455 70.3459C108.582 68.9984 108.957 67.6861 109.562 66.4755L107.104 65.0203Z" fill="black"/>
<path d="M100.623 57.8054C101.668 62.6969 102.005 64.8247 104.903 66.977C109.244 70.242 115.053 67.8819 115.499 62.7519C115.896 58.1295 114.117 50.8657 108.963 49.6183C107.825 49.3343 106.634 49.3468 105.502 49.6548C104.371 49.9627 103.337 50.5557 102.501 51.3771C101.664 52.1985 101.052 53.2208 100.723 54.3463C100.394 55.4718 100.36 56.6628 100.623 57.8054Z" fill="#FF8B7B"/>
<path d="M105.337 48.5239C102.744 48.6523 99.9807 50.7923 103.619 52.4737C107.257 54.1552 116.905 54.1552 114.625 51.6972C112.344 49.2392 109.03 48.3404 105.337 48.5239Z" fill="#263238"/>
<path d="M103.931 49.4594C105.422 50.9207 105.979 61.3701 99.5282 61.2723C93.0776 61.1744 98.8373 50.8901 103.931 49.4594Z" fill="#263238"/>
<path d="M100.189 62.6175C100.56 63.5162 101.272 64.2309 102.17 64.6046C103.362 65.0877 104.102 64.0543 103.894 62.8559C103.704 61.7737 102.861 60.2145 101.601 60.239C101.327 60.2504 101.059 60.3302 100.823 60.471C100.588 60.6119 100.391 60.8093 100.25 61.0455C100.11 61.2817 100.031 61.5492 100.02 61.8237C100.009 62.0982 100.067 62.371 100.189 62.6175Z" fill="#FF8B7B"/>
<path d="M111.598 105.986C111.598 105.986 117.786 145.73 114.545 160.82C111.439 175.299 102.078 202.104 102.078 202.104L93.3344 201.878C93.3344 201.878 100.672 170.163 101.283 157.977C102.304 137.763 96.7279 103.48 96.7279 103.48L111.598 105.986Z" fill="#263238"/>
<path d="M102.622 202.526L92.509 202.251L93.1326 198.931L104.09 199.493L102.622 202.526Z" fill="#4C4DDC"/>
<path opacity="0.3" d="M104.291 110.468L101.051 104.189L96.7707 103.449C96.7707 103.449 99.3081 119.047 100.647 135.396C103.393 127.705 104.787 114.057 104.291 110.468Z" fill="black"/>
<path d="M107.159 105.289C107.159 105.289 99.5894 138.362 93.2855 157.163C88.1923 172.352 67.2078 194.155 67.2078 194.155L60.5921 190.817C60.5921 190.817 75.6517 166.243 79.1919 155.935C90.5218 122.917 83.2519 110.462 91.2983 102.526L107.159 105.289Z" fill="#263238"/>
<path d="M67.1528 196.204L59.3876 192.15L60.5676 188.842L69.1461 193.642L67.1528 196.204Z" fill="#4C4DDC"/>
<path d="M91.2188 101.285L89.996 102.942C89.8981 103.07 90.0449 103.241 90.2772 103.284L111.543 106.91C111.726 106.946 111.891 106.879 111.922 106.769L112.417 104.984C112.454 104.861 112.313 104.727 112.112 104.69L91.5735 101.217C91.5135 101.198 91.4495 101.193 91.3875 101.205C91.3255 101.217 91.2674 101.244 91.2188 101.285Z" fill="#4C4DDC"/>
<path opacity="0.4" d="M91.2188 101.285L89.996 102.942C89.8981 103.07 90.0449 103.241 90.2772 103.284L111.543 106.91C111.726 106.946 111.891 106.879 111.922 106.769L112.417 104.984C112.454 104.861 112.313 104.727 112.112 104.69L91.5735 101.217C91.5135 101.198 91.4495 101.193 91.3875 101.205C91.3255 101.217 91.2674 101.244 91.2188 101.285Z" fill="white"/>
<path d="M93.6095 104.048L93.0593 103.956C92.9492 103.956 92.8758 103.865 92.8942 103.797L93.5545 101.486C93.5545 101.413 93.6829 101.376 93.793 101.395L94.3433 101.486C94.4533 101.486 94.5267 101.578 94.5022 101.645L93.8419 103.963C93.7991 104.03 93.6951 104.067 93.6095 104.048Z" fill="#263238"/>
<path d="M109.965 106.843L109.415 106.751C109.305 106.751 109.232 106.659 109.25 106.592L109.91 104.281C109.91 104.213 110.039 104.171 110.149 104.189L110.693 104.287C110.803 104.287 110.876 104.372 110.858 104.44L110.198 106.757C110.179 106.824 110.075 106.867 109.965 106.843Z" fill="#263238"/>
<path d="M101.772 105.448L101.228 105.35C101.118 105.35 101.045 105.265 101.063 105.198L101.723 102.88C101.723 102.813 101.846 102.776 101.956 102.795L102.506 102.886C102.616 102.886 102.689 102.978 102.671 103.045L102.011 105.357C101.992 105.424 101.882 105.497 101.772 105.448Z" fill="#263238"/>
<path d="M108.963 57.9705C109.024 58.374 109.287 58.6675 109.574 58.6308C109.862 58.5942 110.008 58.2273 109.947 57.8237C109.886 57.4202 109.623 57.1267 109.336 57.1634C109.048 57.2001 108.895 57.5669 108.963 57.9705Z" fill="#263238"/>
<path d="M113.53 57.2857C113.591 57.6892 113.854 57.9827 114.142 57.946C114.429 57.9093 114.576 57.5486 114.514 57.145C114.453 56.7415 114.19 56.4419 113.903 56.4847C113.616 56.5275 113.469 56.8821 113.53 57.2857Z" fill="#263238"/>
<path d="M113.787 56.5214L114.716 56.0995C114.716 56.0995 114.331 56.9311 113.787 56.5214Z" fill="#263238"/>
<path d="M112.295 58.1355C112.795 59.0045 113.413 59.8006 114.129 60.5018C113.945 60.6792 113.724 60.8143 113.482 60.8977C113.241 60.9811 112.984 61.0108 112.729 60.9848L112.295 58.1355Z" fill="#FF5652"/>
<path d="M111.109 62.9231C111.128 62.9098 111.144 62.8913 111.154 62.8697C111.163 62.8482 111.167 62.8243 111.164 62.8008C111.162 62.7855 111.156 62.7708 111.148 62.7575C111.14 62.7442 111.13 62.7327 111.117 62.7236C111.105 62.7145 111.09 62.7079 111.075 62.7044C111.06 62.7009 111.045 62.7004 111.029 62.703C110.528 62.7884 110.013 62.7549 109.527 62.6051C109.04 62.4554 108.596 62.1936 108.229 61.8409C108.218 61.8293 108.206 61.8198 108.192 61.813C108.178 61.8063 108.162 61.8023 108.147 61.8015C108.131 61.8006 108.115 61.8029 108.101 61.8081C108.086 61.8132 108.072 61.8213 108.061 61.8317C108.049 61.8422 108.04 61.8548 108.033 61.8689C108.026 61.883 108.022 61.8983 108.021 61.9139C108.021 61.9295 108.023 61.9451 108.028 61.9599C108.033 61.9746 108.041 61.9882 108.052 61.9999C108.441 62.3865 108.917 62.6735 109.441 62.8364C109.965 62.9992 110.52 63.0332 111.06 62.9354L111.109 62.9231Z" fill="#263238"/>
<path d="M107.459 56.6681C107.494 56.6476 107.524 56.6181 107.544 56.5825C107.681 56.3142 107.879 56.0818 108.122 55.9044C108.365 55.727 108.647 55.6095 108.944 55.5614C109.008 55.5565 109.066 55.5268 109.108 55.4786C109.149 55.4304 109.169 55.3679 109.164 55.3046C109.16 55.2414 109.13 55.1826 109.082 55.1414C109.034 55.1001 108.971 55.0796 108.908 55.0845C108.53 55.1351 108.17 55.2768 107.859 55.4972C107.548 55.7177 107.295 56.0104 107.122 56.3502C107.106 56.3776 107.096 56.4081 107.093 56.4396C107.089 56.4711 107.092 56.503 107.101 56.5333C107.11 56.5637 107.126 56.5919 107.146 56.6161C107.167 56.6403 107.192 56.6601 107.22 56.6742C107.257 56.6942 107.298 56.7042 107.34 56.7031C107.382 56.702 107.423 56.69 107.459 56.6681Z" fill="#263238"/>
<path d="M115.218 54.9928V54.95C115.228 54.9203 115.233 54.8888 115.231 54.8573C115.23 54.8258 115.222 54.795 115.208 54.7665C115.194 54.7381 115.175 54.7127 115.152 54.6917C115.128 54.6707 115.101 54.6546 115.071 54.6443C114.713 54.5102 114.329 54.4646 113.95 54.5114C113.57 54.5582 113.208 54.6962 112.894 54.9133C112.869 54.9326 112.848 54.9566 112.833 54.9839C112.817 55.0113 112.807 55.0414 112.803 55.0726C112.799 55.1038 112.801 55.1356 112.81 55.1659C112.818 55.1963 112.832 55.2247 112.851 55.2496C112.871 55.2745 112.895 55.2954 112.922 55.311C112.949 55.3266 112.979 55.3367 113.011 55.3407C113.042 55.3446 113.074 55.3424 113.104 55.3342C113.134 55.3259 113.163 55.3117 113.188 55.2924C113.439 55.1263 113.727 55.0219 114.026 54.9879C114.326 54.9539 114.629 54.9912 114.912 55.0968C114.967 55.1195 115.028 55.1215 115.084 55.1024C115.141 55.0833 115.188 55.0443 115.218 54.9928Z" fill="#263238"/>
<path d="M90.5891 76.6864C89.8859 77.3835 89.2989 78.0255 88.6936 78.7164C88.0883 79.4073 87.5197 80.086 86.9571 80.7891C85.8362 82.2077 84.7825 83.6772 83.796 85.1976C82.7995 86.7247 81.901 88.3136 81.1057 89.9545C80.8917 90.3581 80.7144 90.7922 80.4943 91.1774C80.2742 91.5626 80.1152 92.0151 79.9501 92.4553C79.785 92.8955 79.6138 93.293 79.4426 93.776L79.1919 94.5525L79.0146 95.3291C78.6647 97.2852 78.6503 99.2867 78.9718 101.248C79.2641 103.07 79.7121 104.864 80.3109 106.61C80.8976 108.309 81.5711 109.976 82.3286 111.605C83.0907 113.224 83.9398 114.799 84.8722 116.326L87.1345 115.103C86.523 113.574 85.9116 111.966 85.3735 110.37C84.8269 108.788 84.3636 107.177 83.9856 105.546C83.612 103.982 83.3545 102.392 83.2152 100.789C83.1695 100.021 83.1695 99.2517 83.2152 98.4841C83.2613 97.7712 83.3676 97.0635 83.5331 96.3685L83.6676 95.8855L83.8388 95.4391C83.9733 95.1089 84.1629 94.7176 84.3219 94.3569C84.4808 93.9961 84.6704 93.6293 84.8599 93.2685C85.0495 92.9078 85.2207 92.547 85.4286 92.1924C86.2112 90.7678 87.1222 89.3981 88.0394 88.0285C88.9565 86.6589 89.9837 85.3443 91.0354 84.0603C91.549 83.4122 92.0871 82.7763 92.6251 82.1465C93.1632 81.5167 93.7441 80.8931 94.2516 80.355L90.5891 76.6864Z" fill="#FF8B7B"/>
<path d="M86.2295 113.666L90.2038 115.818L85.9238 118.875C85.9238 118.875 84.2118 116.625 84.3769 114.522L86.2295 113.666Z" fill="#FF8B7B"/>
<path d="M91.9403 119.921L88.3206 121.615L85.8994 118.9L90.21 115.818L91.9403 119.921Z" fill="#FF8B7B"/>
<path d="M92.8942 71.6299C90.3567 71.8684 86.2723 78.7531 86.2723 78.7531L92.3867 85.3199C92.3867 85.3199 97.5411 79.9149 97.5411 76.6315C97.5655 73.8555 96.1287 71.3303 92.8942 71.6299Z" fill="#4C4DDC"/>
<path d="M64.97 201.584H65.0495C65.1626 201.553 65.2659 201.494 65.3494 201.411C65.433 201.329 65.4939 201.226 65.5264 201.113C65.5537 201.046 65.563 200.973 65.5534 200.901C65.5437 200.829 65.5155 200.761 65.4714 200.704C65.0739 200.19 63.2518 200.355 63.0256 200.374C63.0018 200.376 62.9793 200.386 62.9608 200.401C62.9423 200.416 62.9287 200.436 62.9217 200.459C62.9152 200.481 62.9152 200.504 62.9217 200.526C62.9282 200.548 62.941 200.567 62.9584 200.581C63.4597 200.991 64.3524 201.67 64.97 201.584ZM63.3558 200.569C64.0895 200.526 65.0739 200.569 65.2818 200.832C65.2979 200.86 65.3064 200.892 65.3064 200.924C65.3064 200.956 65.2979 200.988 65.2818 201.016C65.2617 201.09 65.2231 201.158 65.1697 201.214C65.1163 201.269 65.0497 201.311 64.9761 201.334C64.6581 201.419 64.0528 201.138 63.3558 200.569Z" fill="#4C4DDC"/>
<path d="M63.1907 200.582C63.8021 200.496 64.9516 200.001 65.1045 199.481C65.1313 199.389 65.1259 199.292 65.0892 199.204C65.0524 199.116 64.9866 199.043 64.9027 198.998C64.8282 198.943 64.7422 198.905 64.6511 198.888C64.56 198.871 64.4662 198.875 64.3769 198.9C63.6615 199.077 62.9767 200.361 62.9461 200.416C62.9354 200.435 62.9297 200.456 62.9297 200.478C62.9297 200.499 62.9354 200.52 62.9461 200.539C62.9574 200.556 62.9729 200.57 62.9911 200.58C63.0092 200.589 63.0295 200.594 63.0501 200.594L63.1907 200.582ZM64.4869 199.126C64.5858 199.113 64.6862 199.137 64.7682 199.194C64.8905 199.285 64.8905 199.359 64.8722 199.414C64.7743 199.756 63.8816 200.215 63.2763 200.331C63.527 199.909 64.01 199.242 64.438 199.108L64.4869 199.126Z" fill="#4C4DDC"/>
<path d="M109.219 57.194L110.149 56.766C110.149 56.766 109.764 57.6159 109.219 57.194Z" fill="#263238"/>
<g opacity="0.2">
<path d="M119.656 12.5782L100.694 8.30492L52.7281 221.145L71.6901 225.419L119.656 12.5782Z" fill="white"/>
<path d="M151.616 18.1597L141.505 15.8812L93.5396 228.722L103.65 231L151.616 18.1597Z" fill="white"/>
</g>
<path opacity="0.2" d="M108.791 32.7366C108.804 33.1259 108.738 33.5136 108.597 33.8767C108.456 34.2398 108.243 34.5708 107.971 34.8499C107.7 35.129 107.375 35.3504 107.015 35.501C106.656 35.6517 106.27 35.7283 105.881 35.7265C105.082 35.7267 104.314 35.4138 103.743 34.855C103.171 34.2961 102.841 33.5357 102.824 32.7366C102.812 32.3478 102.879 31.9607 103.02 31.5983C103.162 31.2359 103.374 30.9057 103.646 30.6273C103.918 30.3488 104.242 30.1279 104.601 29.9777C104.96 29.8275 105.345 29.751 105.734 29.7528C106.533 29.7525 107.299 30.0645 107.87 30.6221C108.442 31.1797 108.772 31.9385 108.791 32.7366Z" fill="black"/>
<path opacity="0.2" d="M113.787 32.7367C113.792 32.8848 113.767 33.0323 113.713 33.1705C113.66 33.3087 113.579 33.4347 113.476 33.5409C113.372 33.6471 113.249 33.7314 113.112 33.7886C112.975 33.8458 112.828 33.8748 112.68 33.8739C112.377 33.8709 112.087 33.7509 111.871 33.5389C111.654 33.327 111.528 33.0395 111.518 32.7367C111.515 32.5893 111.541 32.4427 111.596 32.3056C111.65 32.1685 111.731 32.0436 111.834 31.9382C111.937 31.8329 112.06 31.7492 112.196 31.692C112.332 31.6349 112.478 31.6055 112.625 31.6055C112.928 31.6069 113.218 31.7256 113.434 31.9366C113.651 32.1476 113.777 32.4344 113.787 32.7367Z" fill="black"/>
<path d="M154.142 83.7364C153.836 84.6841 153.616 85.5156 153.396 86.4083C153.176 87.301 152.986 88.1693 152.784 89.0497C152.446 90.8229 152.191 92.6124 152.02 94.4181C151.841 96.2344 151.776 98.06 151.824 99.8844C151.824 100.343 151.867 100.802 151.892 101.26C151.916 101.719 151.94 102.183 151.995 102.648C152.051 103.113 152.081 103.547 152.154 104.054L152.295 104.855L152.497 105.632C153.09 107.527 154.002 109.308 155.193 110.896C156.292 112.381 157.52 113.766 158.862 115.036C160.165 116.273 161.53 117.442 162.952 118.539C164.377 119.621 165.859 120.626 167.391 121.547L168.841 119.432C167.575 118.362 166.285 117.225 165.086 116.045C163.874 114.893 162.721 113.681 161.632 112.413C160.569 111.187 159.6 109.883 158.733 108.512C158.33 107.857 157.964 107.179 157.639 106.482C157.349 105.828 157.116 105.151 156.942 104.458L156.844 103.963L156.783 103.486C156.752 103.137 156.74 102.697 156.716 102.306C156.691 101.914 156.716 101.499 156.716 101.083C156.716 100.667 156.716 100.276 156.716 99.8599C156.752 98.2274 156.93 96.5948 157.107 94.9684C157.284 93.342 157.596 91.6911 157.933 90.0769C158.091 89.2637 158.269 88.4566 158.464 87.6312C158.66 86.8058 158.874 85.9987 159.076 85.2894L154.142 83.7364Z" fill="#FF8B7B"/>
<path d="M167.367 118.551L171.892 118.625L169.495 123.345C169.495 123.345 166.933 122.122 166.114 120.202L167.367 118.551Z" fill="#FF8B7B"/>
<path d="M175.322 121.462L172.888 124.635L169.495 123.345L171.892 118.625L175.322 121.462Z" fill="#FF8B7B"/>
<path d="M165.685 81.4558C165.202 83.0149 163.46 85.8459 162.078 87.9492C161.081 89.4595 160.244 90.5906 160.244 90.5906L159.382 90.0587L152.209 85.6013C153.359 81.5597 154.918 77.2063 159.736 75.8184C162.8 74.9868 166.548 78.6738 165.685 81.4558Z" fill="#4C4DDC"/>
<path opacity="0.3" d="M162.09 87.9491C161.094 89.4594 160.256 90.5905 160.256 90.5905L159.394 90.0586C159.742 88.4444 160.421 85.9253 161.46 84.892C161.889 85.8535 162.104 86.8965 162.09 87.9491Z" fill="black"/>
<path d="M217.456 194.015L213.463 197.133L204.964 188.885L208.957 185.773L217.456 194.015Z" fill="#FF8B7B"/>
<path d="M211.775 195.935L216.086 192.217C216.16 192.153 216.254 192.117 216.352 192.117C216.45 192.117 216.544 192.153 216.618 192.217L220.048 195.201C220.136 195.277 220.207 195.371 220.255 195.476C220.303 195.582 220.328 195.696 220.328 195.812C220.328 195.928 220.303 196.043 220.255 196.149C220.207 196.254 220.136 196.348 220.048 196.424C218.526 197.696 217.725 198.258 215.835 199.872C214.668 200.875 212.24 203.278 210.632 204.666C209.024 206.054 207.575 204.538 208.107 203.816C210.553 200.575 211.091 198.466 211.366 196.742C211.406 196.434 211.55 196.149 211.775 195.935Z" fill="#263238"/>
<path opacity="0.2" d="M208.957 185.773L204.964 188.891L209.348 193.14L213.341 190.022L208.957 185.773Z" fill="black"/>
<path d="M173.493 65.8948C173.787 68.4078 174.49 70.9514 175.994 71.9664C175.994 71.9664 177.217 74.2531 170.302 80.7344C164.701 75.4516 166.786 73.5378 166.786 73.5378C169.959 72.1865 169.648 69.9853 168.131 66.4818L170.577 65.0205C170.784 64.7693 171.06 64.5847 171.371 64.49C171.682 64.3953 172.014 64.3945 172.326 64.4879C172.637 64.5813 172.915 64.7647 173.122 65.015C173.33 65.2653 173.459 65.5714 173.493 65.8948Z" fill="#FF8B7B"/>
<path d="M186.321 75.5371C188.205 78.5515 189.892 81.5842 191.476 84.7086C193.091 87.8484 194.52 91.0803 195.756 94.3876L196.208 95.6472C196.355 96.0568 196.459 96.3687 196.587 96.6499C196.633 96.7525 196.684 96.8525 196.74 96.9495C196.64 96.8615 196.526 96.7894 196.404 96.7355C196.073 96.595 195.705 96.5692 195.358 96.6622C195.128 96.72 194.917 96.8382 194.747 97.0046C194.619 97.1574 194.692 97.1085 194.747 97.0046C194.893 96.7287 195.014 96.4401 195.108 96.1424C195.218 95.7878 195.322 95.4087 195.42 95.0235C195.615 94.2409 195.774 93.4277 195.921 92.5778C196.532 89.276 196.948 85.852 197.388 82.4586L199.675 82.5503C199.799 86.0557 199.715 89.5653 199.424 93.0608C199.333 93.9474 199.229 94.834 199.076 95.745C199.003 96.2036 198.911 96.6683 198.795 97.1452C198.672 97.6843 198.498 98.2105 198.275 98.7166C198.094 99.1215 197.843 99.4919 197.535 99.8111C197.22 100.132 196.825 100.364 196.392 100.484C195.834 100.632 195.242 100.582 194.716 100.343C194.401 100.188 194.113 99.9817 193.866 99.7316C193.71 99.5767 193.567 99.409 193.438 99.2302C193.253 98.969 193.085 98.6953 192.937 98.4109C192.68 97.9156 192.485 97.4203 192.326 97.0229L191.855 95.8612C190.565 92.804 189.024 89.7468 187.459 86.7447C185.893 83.7426 184.102 80.8566 182.402 77.9828L186.321 75.5371Z" fill="#FF8B7B"/>
<path d="M199.638 83.9199L199.889 79.701L195.799 80.3613C195.799 80.3613 196.856 83.6508 198.134 84.9471L199.638 83.9199Z" fill="#FF8B7B"/>
<path d="M198.886 76.5155L195.958 77.6772L195.799 80.3614L199.889 79.7011L198.886 76.5155Z" fill="#FF8B7B"/>
<path d="M184.799 71.63C187.343 71.8624 191.445 80.1901 191.445 80.1901L184.022 85.8887C184.022 85.8887 180.134 79.9456 180.128 76.6621C180.128 73.8557 181.564 71.3304 184.799 71.63Z" fill="#4C4DDC"/>
<path opacity="0.3" d="M182.879 80.2697C182.072 79.5665 181.656 80.1963 181.485 81.3336C182.224 82.897 183.062 84.4123 183.992 85.8704L185.704 84.5558C185.144 82.9093 184.171 81.4337 182.879 80.2697Z" fill="black"/>
<path d="M186.376 102.526L166.101 105.98C156.318 77.506 158.44 76.3565 158.44 76.3565C158.44 76.3565 161.791 75.0113 165.227 73.9841C165.747 73.8251 166.273 73.6784 166.786 73.5377C169.814 72.7966 172.892 72.2715 175.994 71.9664C176.453 71.9052 176.905 71.8624 177.364 71.8196C179.836 71.6092 182.319 71.5459 184.799 71.6301C184.579 75.3537 184.438 78.5148 184.383 81.2663C184.304 84.8554 184.383 87.7475 184.512 90.2605C184.804 94.3922 185.428 98.4938 186.376 102.526Z" fill="#4C4DDC"/>
<path d="M197.81 208.977L192.845 209.454L189.538 197.806L194.502 197.329L197.81 208.977Z" fill="#FF8B7B"/>
<path opacity="0.2" d="M189.538 197.812L191.243 203.81H196.349L194.509 197.329L189.538 197.812Z" fill="black"/>
<path d="M173.94 104.648C173.94 104.648 175.316 145.418 178.556 160.527C181.656 175.011 189.097 202.104 189.097 202.104L197.841 201.878C197.841 201.878 190.32 170.169 189.892 157.977C189.116 136.98 193.396 110.352 186.401 102.556L173.94 104.648Z" fill="#263238"/>
<path opacity="0.3" d="M173.94 104.648C173.94 104.648 175.316 145.418 178.556 160.527C181.656 175.011 189.097 202.104 189.097 202.104L197.841 201.878C197.841 201.878 190.32 170.169 189.892 157.977C189.116 136.98 193.396 110.352 186.401 102.556L173.94 104.648Z" fill="black"/>
<path d="M188.553 202.526L198.666 202.251L198.043 198.931L187.086 199.493L188.553 202.526Z" fill="#4C4DDC"/>
<path d="M163.136 57.9706C163.075 58.3742 162.812 58.6677 162.524 58.631C162.237 58.5943 162.096 58.2274 162.158 57.8239C162.219 57.4203 162.482 57.1268 162.769 57.1635C163.056 57.2002 163.197 57.5671 163.136 57.9706Z" fill="#263238"/>
<path d="M164.646 56.6682C164.6 56.6542 164.561 56.6237 164.536 56.5826C164.399 56.3132 164.2 56.0802 163.956 55.9026C163.711 55.7251 163.428 55.6082 163.13 55.5615C163.068 55.5539 163.011 55.5234 162.97 55.4758C162.929 55.4283 162.908 55.3673 162.91 55.3047C162.912 55.2728 162.921 55.2417 162.935 55.2132C162.95 55.1847 162.97 55.1594 162.994 55.1389C163.019 55.1184 163.047 55.103 163.078 55.0936C163.108 55.0843 163.141 55.0812 163.172 55.0846C163.55 55.1357 163.91 55.2776 164.221 55.498C164.532 55.7184 164.785 56.0108 164.958 56.3503C164.973 56.3779 164.982 56.4083 164.985 56.4396C164.989 56.4709 164.986 56.5025 164.976 56.5327C164.967 56.5628 164.952 56.5908 164.932 56.6151C164.912 56.6394 164.888 56.6596 164.86 56.6743C164.826 56.6901 164.789 56.6977 164.752 56.6966C164.715 56.6956 164.679 56.6858 164.646 56.6682Z" fill="#263238"/>
<path d="M162.879 57.194L161.95 56.766C161.95 56.766 162.335 57.6159 162.879 57.194Z" fill="#263238"/>
<path d="M163.001 58.1358C162.501 59.0047 161.884 59.8009 161.167 60.5021C161.352 60.6791 161.572 60.814 161.814 60.8974C162.056 60.9808 162.313 61.0107 162.567 60.9851L163.001 58.1358Z" fill="#FF5652"/>
<path d="M177.076 57.8056C176.025 62.6971 175.689 64.8249 172.796 66.9771C168.455 70.2422 162.641 67.882 162.2 62.7521C161.803 58.1296 163.582 50.8658 168.73 49.6185C169.868 49.335 171.06 49.3478 172.191 49.6559C173.322 49.9639 174.356 50.5567 175.193 51.3779C176.03 52.199 176.643 53.221 176.973 54.3463C177.302 55.4715 177.338 56.6625 177.076 57.8056Z" fill="#FF8B7B"/>
<path d="M166.101 105.98C166.101 105.98 169.917 135.678 176.606 154.345C182.005 169.423 206.37 191.447 206.37 191.447L212.038 186.702C212.038 186.702 194.356 163.92 190.712 153.648C182.506 130.566 189.605 114.259 183.215 103.052L166.101 105.98Z" fill="#263238"/>
<path d="M206.884 193.422L213.53 187.717L211.635 184.758L204.365 191.373L206.884 193.422Z" fill="#4C4DDC"/>
<path d="M186.474 101.285L187.697 102.942C187.789 103.07 187.648 103.241 187.416 103.284L166.144 106.91C165.961 106.947 165.796 106.879 165.765 106.769L165.27 104.984C165.27 104.862 165.38 104.727 165.582 104.69L186.12 101.217C186.18 101.197 186.244 101.193 186.306 101.204C186.368 101.216 186.426 101.244 186.474 101.285Z" fill="#4C4DDC"/>
<path opacity="0.4" d="M186.474 101.285L187.697 102.942C187.789 103.07 187.648 103.241 187.416 103.284L166.144 106.91C165.961 106.947 165.796 106.879 165.765 106.769L165.27 104.984C165.27 104.862 165.38 104.727 165.582 104.69L186.12 101.217C186.18 101.197 186.244 101.193 186.306 101.204C186.368 101.216 186.426 101.244 186.474 101.285Z" fill="white"/>
<path d="M184.921 103.853L185.465 103.755C185.576 103.755 185.649 103.669 185.631 103.602L184.97 101.285C184.97 101.217 184.848 101.175 184.738 101.199L184.188 101.291C184.078 101.291 184.004 101.376 184.022 101.45L184.683 103.761C184.713 103.828 184.811 103.871 184.921 103.853Z" fill="#263238"/>
<path d="M172.98 105.98L173.53 105.883C173.64 105.883 173.714 105.797 173.695 105.73L173.035 103.412C173.011 103.373 172.974 103.343 172.931 103.328C172.887 103.312 172.84 103.312 172.796 103.327L172.246 103.419C172.136 103.419 172.063 103.51 172.087 103.578L172.748 105.889C172.766 105.956 172.87 105.999 172.98 105.98Z" fill="#263238"/>
<path d="M210.222 198.166H210.143C210.026 198.161 209.912 198.126 209.812 198.063C209.713 198.001 209.631 197.915 209.574 197.812C209.532 197.753 209.505 197.685 209.498 197.613C209.49 197.541 209.502 197.468 209.531 197.402C209.807 196.791 211.616 196.558 211.824 196.534C211.847 196.53 211.87 196.533 211.891 196.543C211.912 196.553 211.929 196.569 211.94 196.589C211.952 196.609 211.958 196.633 211.958 196.656C211.958 196.68 211.952 196.703 211.94 196.724C211.561 197.249 210.846 198.111 210.222 198.166ZM211.567 196.821C210.846 196.944 209.892 197.2 209.733 197.506C209.716 197.534 209.708 197.566 209.708 197.598C209.708 197.63 209.716 197.662 209.733 197.69C209.77 197.758 209.823 197.817 209.888 197.86C209.954 197.902 210.028 197.928 210.106 197.934C210.497 197.94 211.005 197.531 211.567 196.821Z" fill="#4C4DDC"/>
<path d="M211.733 196.791C211.121 196.852 209.898 196.619 209.623 196.179C209.576 196.096 209.559 195.999 209.575 195.904C209.591 195.81 209.638 195.724 209.709 195.66C209.769 195.59 209.845 195.536 209.93 195.5C210.014 195.464 210.106 195.447 210.198 195.452C210.932 195.452 211.892 196.558 211.928 196.601C211.938 196.62 211.944 196.641 211.944 196.662C211.944 196.684 211.938 196.705 211.928 196.723C211.921 196.743 211.909 196.76 211.892 196.773C211.876 196.785 211.857 196.794 211.837 196.797C211.802 196.799 211.767 196.797 211.733 196.791ZM210.143 195.666C210.044 195.675 209.953 195.721 209.886 195.794C209.782 195.91 209.801 195.984 209.831 196.032C210.002 196.344 210.974 196.589 211.592 196.564C211.256 196.216 210.632 195.672 210.192 195.666H210.143Z" fill="#4C4DDC"/>
<path d="M180.922 50.4683C185.814 50.8046 185.325 61.8654 186.425 72.5594C187.997 87.668 165.942 89.9364 165.025 70.829C164.09 52.0886 170.51 42.2445 180.922 50.4683Z" fill="#263238"/>
<path d="M174.832 47.5151C167.116 46.1699 160.201 50.9085 166.101 58.631C172.13 66.5368 191.684 50.4683 174.832 47.5151Z" fill="#263238"/>
<path d="M166.022 59.8048C165.947 60.1561 165.796 60.4867 165.58 60.773C165.363 61.0594 165.086 61.2946 164.768 61.4618C164.065 61.7308 163.717 60.5202 163.912 59.3279C164.09 58.2457 164.677 56.8088 165.38 57.0839C166.083 57.3591 166.37 58.7532 166.022 59.8048Z" fill="#FF8B7B"/>
</g>
</svg>
