<svg width="288" height="204" viewBox="0 0 288 204" fill="none" xmlns="http://www.w3.org/2000/svg">
<mask id="mask0_1052_16239" style="mask-type:alpha" maskUnits="userSpaceOnUse" x="0" y="0" width="288" height="204">
<rect x="0.5" width="287" height="204" rx="64" fill="#EAF0FF"/>
</mask>
<g mask="url(#mask0_1052_16239)">
<rect x="0.5" y="33" width="287" height="198" rx="64" fill="#224495" fill-opacity="0.2"/>
<path d="M250.117 200.646H238.596V200.796H250.117V200.646Z" fill="#EBEBEB"/>
<path d="M57.9242 201.654H31.9947V201.804H57.9242V201.654Z" fill="#EBEBEB"/>
<path d="M67.0735 201.654H63.2732V201.804H67.0735V201.654Z" fill="#EBEBEB"/>
<path d="M91.0338 96.0092L55.4326 104.462C55.2863 104.497 55.1347 104.502 54.9863 104.478C54.8379 104.454 54.6957 104.401 54.5679 104.322C54.4402 104.243 54.3293 104.139 54.2418 104.017C54.1542 103.895 54.0917 103.756 54.0578 103.61L42.753 56.0134C42.6826 55.718 42.7321 55.4068 42.8908 55.148C43.0495 54.8891 43.3044 54.7038 43.5996 54.6326L65.5306 49.4275L83.8535 60.8343L91.8863 94.6464C91.9529 94.9401 91.9006 95.2482 91.7409 95.5035C91.5812 95.7588 91.327 95.9406 91.0338 96.0092Z" fill="#F0F0F0"/>
<path d="M83.8538 60.8223L65.5309 49.4275L64.3662 49.7036L68.6828 67.8765L84.6283 64.0882L83.8538 60.8223Z" fill="#E6E6E6"/>
<path d="M83.8236 60.6962L69.0428 64.2083L65.5307 49.4275L83.8236 60.6962Z" fill="#FAFAFA"/>
<path d="M79.0395 66.3678L52.7078 72.6215L56.6712 89.3096L83.0029 83.0559L79.0395 66.3678Z" fill="#E6E6E6"/>
<path d="M62.6912 81.8228L58.3206 88.9191L69.7875 86.1934L62.6912 81.8228Z" fill="#FAFAFA"/>
<path d="M67.2059 86.8056L83.0013 83.0534L82.6411 81.5345L73.8099 76.0952L67.2059 86.8056Z" fill="#FAFAFA"/>
<path d="M67.4637 75.3808C67.597 75.9379 67.5621 76.522 67.3632 77.0592C67.1643 77.5964 66.8104 78.0625 66.3464 78.3984C65.8824 78.7344 65.3291 78.925 64.7567 78.9462C64.1842 78.9675 63.6183 78.8183 63.1307 78.5176C62.6431 78.217 62.2557 77.7784 62.0176 77.2574C61.7795 76.7364 61.7013 76.1564 61.7931 75.591C61.8849 75.0255 62.1424 74.5 62.5331 74.0811C62.9237 73.6621 63.4299 73.3685 63.9876 73.2375C64.7328 73.0608 65.5176 73.1873 66.1695 73.5892C66.8214 73.9912 67.2869 74.6356 67.4637 75.3808Z" fill="#FAFAFA"/>
<path d="M244.311 56.2297L218.34 44.1325C218.232 44.0829 218.135 44.0122 218.054 43.9247C217.974 43.8372 217.912 43.7346 217.872 43.6228C217.831 43.511 217.814 43.3924 217.82 43.2737C217.826 43.1551 217.856 43.0388 217.907 42.9318L234.081 8.2011C234.131 8.09371 234.202 7.99731 234.29 7.91742C234.378 7.83753 234.48 7.77574 234.592 7.73558C234.703 7.69541 234.822 7.67768 234.94 7.68339C235.058 7.6891 235.175 7.71814 235.282 7.76884L251.269 15.2313L256.991 31.1288L245.5 55.7975C245.399 56.0124 245.218 56.1787 244.995 56.2597C244.772 56.3408 244.526 56.33 244.311 56.2297Z" fill="#EBEBEB"/>
<path d="M256.991 31.1286L251.27 15.2311L250.423 14.8409L244.245 28.0968L255.88 33.512L256.991 31.1286Z" fill="#E0E0E0"/>
<path d="M257.033 31.0387L246.245 26.0197L251.27 15.2313L257.033 31.0387Z" fill="#F5F5F5"/>
<path d="M245.488 46.3834L226.277 37.4321C224.98 36.8317 223.845 38.7529 225.148 39.3592L244.359 48.3046C245.656 48.9049 246.791 46.9898 245.488 46.3834Z" fill="#FAFAFA"/>
<path d="M230.827 27.1845L250.039 36.1358C251.329 36.7362 252.44 34.815 251.161 34.2087L231.95 25.2633C230.659 24.663 229.548 26.5781 230.827 27.1845Z" fill="#FAFAFA"/>
<path d="M227.856 33.434L247.067 42.3854C248.358 42.9857 249.468 41.0646 248.19 40.4582L228.978 31.5129C227.687 30.9125 226.577 32.8277 227.856 33.434Z" fill="#FAFAFA"/>
<path d="M182.408 164.714L181.808 162.751C181.71 162.431 181.528 162.143 181.281 161.917C181.034 161.691 180.731 161.535 180.403 161.466L165.923 158.374C165.682 158.323 165.435 158.32 165.193 158.365C164.952 158.41 164.722 158.502 164.516 158.636C164.31 158.769 164.133 158.942 163.994 159.145C163.855 159.347 163.758 159.575 163.707 159.815L157.794 187.498C157.688 188.002 157.787 188.527 158.066 188.958C158.346 189.39 158.786 189.694 159.289 189.803L192.2 196.821C192.704 196.928 193.23 196.831 193.662 196.551C194.094 196.27 194.398 195.83 194.506 195.327L199.657 171.168C199.709 170.928 199.712 170.679 199.668 170.437C199.624 170.195 199.532 169.964 199.398 169.758C199.264 169.551 199.091 169.374 198.888 169.234C198.685 169.095 198.457 168.997 198.216 168.947L183.609 165.831C183.328 165.767 183.069 165.63 182.858 165.434C182.647 165.238 182.492 164.99 182.408 164.714Z" fill="#E0E0E0"/>
<path d="M198.228 168.947L183.747 165.861C183.421 165.791 183.081 165.809 182.765 165.915C182.448 166.02 182.165 166.209 181.946 166.461L180.607 168.016C180.417 168.234 180.172 168.397 179.898 168.489C179.623 168.581 179.329 168.598 179.046 168.538L164.434 165.422C163.949 165.319 163.443 165.412 163.027 165.681C162.61 165.95 162.317 166.373 162.212 166.857L157.794 187.498C157.688 188.001 157.787 188.526 158.066 188.958C158.346 189.39 158.786 189.693 159.289 189.803L192.2 196.821C192.704 196.928 193.23 196.831 193.662 196.55C194.094 196.27 194.398 195.83 194.506 195.326L199.657 171.168C199.709 170.928 199.713 170.681 199.669 170.439C199.626 170.198 199.535 169.967 199.402 169.761C199.27 169.555 199.098 169.377 198.896 169.237C198.695 169.097 198.467 168.998 198.228 168.947Z" fill="#F0F0F0"/>
<path d="M219.003 19.4172H67.8208C63.5753 19.4172 60.1337 22.8589 60.1337 27.1043V142.049C60.1337 146.294 63.5753 149.736 67.8208 149.736H219.003C223.248 149.736 226.69 146.294 226.69 142.049V27.1043C226.69 22.8589 223.248 19.4172 219.003 19.4172Z" fill="#4C4DDC"/>
<path opacity="0.4" d="M219.003 19.4172H67.8208C63.5753 19.4172 60.1337 22.8589 60.1337 27.1043V142.049C60.1337 146.294 63.5753 149.736 67.8208 149.736H219.003C223.248 149.736 226.69 146.294 226.69 142.049V27.1043C226.69 22.8589 223.248 19.4172 219.003 19.4172Z" fill="white"/>
<path opacity="0.8" d="M219.003 28.2424H67.8208C65.0036 28.2424 62.7198 30.5262 62.7198 33.3434V142.049C62.7198 144.866 65.0036 147.15 67.8208 147.15H219.003C221.82 147.15 224.104 144.866 224.104 142.049V33.3434C224.104 30.5262 221.82 28.2424 219.003 28.2424Z" fill="white"/>
<path opacity="0.3" d="M72.0102 21.4924H70.1999C69.5251 21.4924 68.978 22.0394 68.978 22.7143V24.5245C68.978 25.1994 69.5251 25.7465 70.1999 25.7465H72.0102C72.685 25.7465 73.2321 25.1994 73.2321 24.5245V22.7143C73.2321 22.0394 72.685 21.4924 72.0102 21.4924Z" fill="white"/>
<path opacity="0.5" d="M78.9086 21.4924H77.0983C76.4235 21.4924 75.8764 22.0394 75.8764 22.7143V24.5245C75.8764 25.1994 76.4235 25.7465 77.0983 25.7465H78.9086C79.5834 25.7465 80.1305 25.1994 80.1305 24.5245V22.7143C80.1305 22.0394 79.5834 21.4924 78.9086 21.4924Z" fill="white"/>
<path opacity="0.7" d="M85.8133 21.4924H84.003C83.3282 21.4924 82.7811 22.0394 82.7811 22.7143V24.5245C82.7811 25.1994 83.3282 25.7465 84.003 25.7465H85.8133C86.4882 25.7465 87.0352 25.1994 87.0352 24.5245V22.7143C87.0352 22.0394 86.4882 21.4924 85.8133 21.4924Z" fill="white"/>
<path d="M135.621 25.6754V22.9989L134.283 25.2358H133.946L132.608 23.0376V25.7013H131.884V21.6282H132.53L134.147 24.3242L135.737 21.6282H136.384V25.7013L135.621 25.6754Z" fill="white"/>
<path d="M140.276 22.5662L138.821 25.9216C138.728 26.2021 138.558 26.4508 138.33 26.6392C138.122 26.7796 137.876 26.8519 137.625 26.8461C137.469 26.8461 137.314 26.8199 137.166 26.7685C137.029 26.725 136.901 26.6547 136.791 26.5616L137.082 26.025C137.154 26.0914 137.237 26.144 137.328 26.1802C137.42 26.2181 137.519 26.2379 137.619 26.2384C137.732 26.2432 137.844 26.209 137.936 26.1414C138.034 26.0469 138.111 25.9322 138.162 25.8052L138.214 25.6888L136.862 22.5662H137.619L138.595 24.8678L139.578 22.5662H140.276Z" fill="white"/>
<path d="M143.159 22.2359V23.4772H145.131V24.1238H143.159V25.6819H142.384V21.6088H145.358V22.2553L143.159 22.2359Z" fill="white"/>
<path d="M146.017 21.9324C145.974 21.8921 145.94 21.8429 145.918 21.7882C145.895 21.7335 145.885 21.6746 145.888 21.6156C145.886 21.5576 145.896 21.4998 145.918 21.4462C145.941 21.3926 145.974 21.3445 146.017 21.3053C146.109 21.2218 146.229 21.1776 146.353 21.1824C146.474 21.1795 146.591 21.2209 146.683 21.2988C146.726 21.3365 146.761 21.3832 146.785 21.4357C146.808 21.4882 146.82 21.5452 146.819 21.6027C146.82 21.663 146.808 21.723 146.785 21.7786C146.762 21.8343 146.727 21.8845 146.683 21.9259C146.64 21.9688 146.588 22.0025 146.532 22.0247C146.475 22.0469 146.414 22.0573 146.353 22.0552C146.23 22.0574 146.11 22.0136 146.017 21.9324ZM145.985 22.5789H146.709V25.6887H145.985V22.5789Z" fill="white"/>
<path d="M147.666 21.3572H148.39V25.676H147.666V21.3572Z" fill="white"/>
<path d="M152.256 24.3503H149.819C149.855 24.5701 149.976 24.7671 150.155 24.8998C150.386 25.0515 150.661 25.1201 150.936 25.0943C151.211 25.0684 151.469 24.9497 151.668 24.7576L152.062 25.2102C151.92 25.3782 151.738 25.5073 151.532 25.5851C151.301 25.6731 151.055 25.717 150.808 25.7144C150.495 25.7218 150.184 25.653 149.903 25.514C149.653 25.3845 149.445 25.1874 149.302 24.9451C149.157 24.6935 149.084 24.4076 149.088 24.1175C149.085 23.8327 149.157 23.5519 149.295 23.3029C149.43 23.0633 149.629 22.8662 149.871 22.734C150.124 22.5967 150.41 22.5277 150.698 22.5336C150.981 22.5268 151.26 22.596 151.506 22.734C151.743 22.8645 151.938 23.0595 152.069 23.2965C152.207 23.5547 152.276 23.8442 152.269 24.1369C152.269 24.1887 152.263 24.2921 152.256 24.3503ZM150.142 23.3223C149.979 23.4625 149.873 23.6583 149.845 23.8719H151.61C151.588 23.657 151.485 23.4585 151.321 23.3177C151.158 23.1768 150.946 23.1044 150.73 23.1154C150.515 23.1064 150.304 23.1805 150.142 23.3223Z" fill="white"/>
<path d="M153.187 25.6174C152.982 25.5684 152.787 25.483 152.612 25.3652L152.89 24.8157C153.218 25.0126 153.593 25.1175 153.976 25.1196C154.409 25.1196 154.622 25.0096 154.622 24.7769C154.624 24.7266 154.61 24.677 154.58 24.636C154.551 24.595 154.509 24.565 154.461 24.5506C154.287 24.4913 154.107 24.4502 153.924 24.4278C153.705 24.3997 153.489 24.3543 153.278 24.292C153.115 24.2459 152.969 24.1539 152.857 24.0269C152.731 23.8826 152.666 23.6947 152.676 23.5033C152.672 23.3634 152.705 23.2249 152.771 23.1014C152.836 22.9778 152.933 22.8735 153.051 22.7986C153.346 22.6053 153.695 22.5123 154.047 22.5335C154.265 22.531 154.482 22.5549 154.693 22.6046C154.877 22.6419 155.054 22.7073 155.217 22.7986L154.939 23.3546C154.668 23.1978 154.36 23.1174 154.047 23.1218C153.88 23.1134 153.714 23.1445 153.562 23.2123C153.513 23.2353 153.471 23.2718 153.441 23.3175C153.411 23.3632 153.395 23.4164 153.394 23.4709C153.393 23.526 153.41 23.5799 153.443 23.6243C153.476 23.6686 153.522 23.7011 153.575 23.7166C153.754 23.7781 153.938 23.8235 154.125 23.8524C154.33 23.8816 154.534 23.927 154.732 23.9881C154.889 24.0373 155.031 24.1239 155.146 24.2403C155.265 24.3853 155.325 24.5701 155.314 24.7575C155.316 24.8962 155.283 25.0331 155.217 25.1553C155.152 25.2775 155.056 25.3809 154.939 25.4557C154.629 25.645 154.268 25.7352 153.905 25.7144C153.662 25.7131 153.421 25.6805 153.187 25.6174Z" fill="white"/>
<path d="M93.1321 54.8465L92.4144 53.5535C92.2974 53.3402 92.1253 53.1623 91.9161 53.0384C91.7068 52.9144 91.4681 52.8489 91.2248 52.8488H80.4668C80.1067 52.8488 79.7613 52.9918 79.5067 53.2464C79.2521 53.5011 79.1091 53.8464 79.1091 54.2065V74.7658C79.1091 75.1413 79.2582 75.5014 79.5238 75.7669C79.7893 76.0325 80.1494 76.1816 80.5249 76.1816H104.963C105.339 76.1816 105.699 76.0325 105.965 75.7669C106.23 75.5014 106.379 75.1413 106.379 74.7658V56.8119C106.379 56.4519 106.236 56.1065 105.982 55.8519C105.727 55.5973 105.382 55.4543 105.022 55.4543H94.1665C93.9554 55.4551 93.748 55.3991 93.566 55.2921C93.384 55.1852 93.2341 55.0313 93.1321 54.8465Z" fill="#4C4DDC"/>
<path opacity="0.3" d="M93.1321 54.8465L92.4144 53.5535C92.2974 53.3402 92.1253 53.1623 91.9161 53.0384C91.7068 52.9144 91.4681 52.8489 91.2248 52.8488H80.4668C80.1067 52.8488 79.7613 52.9918 79.5067 53.2464C79.2521 53.5011 79.1091 53.8464 79.1091 54.2065V74.7658C79.1091 75.1413 79.2582 75.5014 79.5238 75.7669C79.7893 76.0325 80.1494 76.1816 80.5249 76.1816H104.963C105.339 76.1816 105.699 76.0325 105.965 75.7669C106.23 75.5014 106.379 75.1413 106.379 74.7658V56.8119C106.379 56.4519 106.236 56.1065 105.982 55.8519C105.727 55.5973 105.382 55.4543 105.022 55.4543H94.1665C93.9554 55.4551 93.748 55.3991 93.566 55.2921C93.384 55.1852 93.2341 55.0313 93.1321 54.8465Z" fill="white"/>
<path d="M102.979 56.2754H82.1284V71.863H102.979V56.2754Z" fill="#263238"/>
<path opacity="0.8" d="M102.979 56.2754H82.1284V71.863H102.979V56.2754Z" fill="white"/>
<path d="M104.485 57.8399H80.6216V75.6838H104.485V57.8399Z" fill="#263238"/>
<path opacity="0.9" d="M104.485 57.8399H80.6216V75.6838H104.485V57.8399Z" fill="white"/>
<path d="M108.765 58.2858H94.47C94.1783 58.2719 93.8869 58.3187 93.6142 58.4233C93.3415 58.5279 93.0936 58.688 92.8861 58.8936L91.9551 60.0185C91.7855 60.1973 91.5793 60.3373 91.3505 60.4288C91.1217 60.5203 90.8758 60.5612 90.6297 60.5486H76.6649C75.6951 60.5486 75.0486 61.0723 75.2167 61.7188C76.5809 67.0138 77.2662 69.6581 78.6303 74.9466C78.7529 75.3034 78.984 75.613 79.2912 75.8321C79.5983 76.0512 79.9663 76.1688 80.3436 76.1685H104.575C104.952 76.1688 105.32 76.0512 105.628 75.8321C105.935 75.613 106.166 75.3034 106.288 74.9466L110.284 59.4625C110.446 58.816 109.773 58.2858 108.765 58.2858Z" fill="#4C4DDC"/>
<g opacity="0.6">
<path opacity="0.6" d="M108.765 58.2858H94.47C94.1783 58.2719 93.8869 58.3187 93.6142 58.4233C93.3415 58.5279 93.0936 58.688 92.8861 58.8936L91.9551 60.0185C91.7855 60.1973 91.5793 60.3373 91.3505 60.4288C91.1217 60.5203 90.8758 60.5612 90.6297 60.5486H76.6649C75.6951 60.5486 75.0486 61.0723 75.2167 61.7188C76.5809 67.0138 77.2662 69.6581 78.6303 74.9466C78.7529 75.3034 78.984 75.613 79.2912 75.8321C79.5983 76.0512 79.9663 76.1688 80.3436 76.1685H104.575C104.952 76.1688 105.32 76.0512 105.628 75.8321C105.935 75.613 106.166 75.3034 106.288 74.9466L110.284 59.4625C110.446 58.816 109.773 58.2858 108.765 58.2858Z" fill="white"/>
</g>
<path d="M79.6713 83.9139C79.4419 83.943 79.2089 83.9229 78.9879 83.855C78.7668 83.787 78.5628 83.6728 78.3893 83.5199C78.2158 83.3671 78.0768 83.179 77.9816 82.9682C77.8864 82.7575 77.8372 82.5289 77.8372 82.2976C77.8372 82.0664 77.8864 81.8378 77.9816 81.627C78.0768 81.4163 78.2158 81.2282 78.3893 81.0753C78.5628 80.9224 78.7668 80.8082 78.9879 80.7403C79.2089 80.6723 79.4419 80.6523 79.6713 80.6813H105.745C105.975 80.6523 106.208 80.6723 106.429 80.7403C106.65 80.8082 106.854 80.9224 107.027 81.0753C107.201 81.2282 107.34 81.4163 107.435 81.627C107.53 81.8378 107.579 82.0664 107.579 82.2976C107.579 82.5289 107.53 82.7575 107.435 82.9682C107.34 83.179 107.201 83.3671 107.027 83.5199C106.854 83.6728 106.65 83.787 106.429 83.855C106.208 83.9229 105.975 83.943 105.745 83.9139H79.6713Z" fill="#263238"/>
<path opacity="0.6" d="M79.6713 83.9139C79.4419 83.943 79.2089 83.9229 78.9879 83.855C78.7668 83.787 78.5628 83.6728 78.3893 83.5199C78.2158 83.3671 78.0768 83.179 77.9816 82.9682C77.8864 82.7575 77.8372 82.5289 77.8372 82.2976C77.8372 82.0664 77.8864 81.8378 77.9816 81.627C78.0768 81.4163 78.2158 81.2282 78.3893 81.0753C78.5628 80.9224 78.7668 80.8082 78.9879 80.7403C79.2089 80.6723 79.4419 80.6523 79.6713 80.6813H105.745C105.975 80.6523 106.208 80.6723 106.429 80.7403C106.65 80.8082 106.854 80.9224 107.027 81.0753C107.201 81.2282 107.34 81.4163 107.435 81.627C107.53 81.8378 107.579 82.0664 107.579 82.2976C107.579 82.5289 107.53 82.7575 107.435 82.9682C107.34 83.179 107.201 83.3671 107.027 83.5199C106.854 83.6728 106.65 83.787 106.429 83.855C106.208 83.9229 105.975 83.943 105.745 83.9139H79.6713Z" fill="white"/>
<path d="M141.737 54.8465L141.02 53.5535C140.902 53.3407 140.73 53.1632 140.521 53.0393C140.312 52.9154 140.073 52.8496 139.83 52.8488H129.098C128.738 52.8488 128.392 52.9918 128.138 53.2464C127.883 53.5011 127.74 53.8464 127.74 54.2065V74.7658C127.739 74.9514 127.775 75.1354 127.846 75.3071C127.916 75.4789 128.02 75.635 128.151 75.7666C128.282 75.8981 128.437 76.0025 128.609 76.0738C128.78 76.145 128.964 76.1816 129.15 76.1816H153.594C153.78 76.1816 153.964 76.145 154.135 76.0738C154.307 76.0025 154.462 75.8981 154.593 75.7666C154.724 75.635 154.828 75.4789 154.898 75.3071C154.969 75.1354 155.005 74.9514 155.004 74.7658V56.8119C155.004 56.4519 154.861 56.1065 154.606 55.8519C154.352 55.5973 154.006 55.4543 153.646 55.4543H142.791C142.577 55.4586 142.365 55.4043 142.18 55.2971C141.994 55.19 141.841 55.0342 141.737 54.8465Z" fill="#4C4DDC"/>
<path opacity="0.3" d="M141.737 54.8465L141.02 53.5535C140.902 53.3407 140.73 53.1632 140.521 53.0393C140.312 52.9154 140.073 52.8496 139.83 52.8488H129.098C128.738 52.8488 128.392 52.9918 128.138 53.2464C127.883 53.5011 127.74 53.8464 127.74 54.2065V74.7658C127.739 74.9514 127.775 75.1354 127.846 75.3071C127.916 75.4789 128.02 75.635 128.151 75.7666C128.282 75.8981 128.437 76.0025 128.609 76.0738C128.78 76.145 128.964 76.1816 129.15 76.1816H153.594C153.78 76.1816 153.964 76.145 154.135 76.0738C154.307 76.0025 154.462 75.8981 154.593 75.7666C154.724 75.635 154.828 75.4789 154.898 75.3071C154.969 75.1354 155.005 74.9514 155.004 74.7658V56.8119C155.004 56.4519 154.861 56.1065 154.606 55.8519C154.352 55.5973 154.006 55.4543 153.646 55.4543H142.791C142.577 55.4586 142.365 55.4043 142.18 55.2971C141.994 55.19 141.841 55.0342 141.737 54.8465Z" fill="white"/>
<path d="M151.61 56.2754H130.759V71.863H151.61V56.2754Z" fill="#263238"/>
<path opacity="0.8" d="M151.61 56.2754H130.759V71.863H151.61V56.2754Z" fill="white"/>
<path d="M153.116 57.8399H129.253V75.6838H153.116V57.8399Z" fill="#263238"/>
<path opacity="0.9" d="M153.116 57.8399H129.253V75.6838H153.116V57.8399Z" fill="white"/>
<path d="M157.402 58.2859H143.101C142.809 58.2718 142.516 58.3185 142.242 58.4231C141.969 58.5277 141.719 58.6879 141.511 58.8936L140.573 60.0185C140.407 60.1931 140.206 60.3306 139.984 60.422C139.761 60.5134 139.521 60.5566 139.28 60.5487H125.283C124.32 60.5487 123.673 61.0724 123.835 61.7189C125.206 67.0139 125.884 69.6581 127.249 74.9467C127.372 75.303 127.603 75.612 127.91 75.8309C128.217 76.0499 128.585 76.1679 128.962 76.1686H153.2C153.577 76.1679 153.944 76.0499 154.251 75.8309C154.558 75.612 154.79 75.303 154.913 74.9467L158.909 59.4625C159.07 58.816 158.398 58.2859 157.402 58.2859Z" fill="#4C4DDC"/>
<g opacity="0.6">
<path opacity="0.6" d="M157.402 58.2859H143.101C142.809 58.2718 142.516 58.3185 142.242 58.4231C141.969 58.5277 141.719 58.6879 141.511 58.8936L140.573 60.0185C140.407 60.1931 140.206 60.3306 139.984 60.422C139.761 60.5134 139.521 60.5566 139.28 60.5487H125.283C124.32 60.5487 123.673 61.0724 123.835 61.7189C125.206 67.0139 125.884 69.6581 127.249 74.9467C127.372 75.303 127.603 75.612 127.91 75.8309C128.217 76.0499 128.585 76.1679 128.962 76.1686H153.2C153.577 76.1679 153.944 76.0499 154.251 75.8309C154.558 75.612 154.79 75.303 154.913 74.9467L158.909 59.4625C159.07 58.816 158.398 58.2859 157.402 58.2859Z" fill="white"/>
</g>
<path d="M128.335 83.9139C127.942 83.8641 127.58 83.6724 127.318 83.3748C127.055 83.0772 126.911 82.6942 126.911 82.2976C126.911 81.901 127.055 81.518 127.318 81.2204C127.58 80.9229 127.942 80.7312 128.335 80.6813H154.409C154.639 80.6523 154.872 80.6723 155.093 80.7403C155.314 80.8082 155.518 80.9224 155.691 81.0753C155.865 81.2282 156.004 81.4163 156.099 81.627C156.194 81.8378 156.243 82.0664 156.243 82.2976C156.243 82.5289 156.194 82.7575 156.099 82.9682C156.004 83.179 155.865 83.3671 155.691 83.5199C155.518 83.6728 155.314 83.787 155.093 83.855C154.872 83.9229 154.639 83.943 154.409 83.9139H128.335Z" fill="#263238"/>
<path opacity="0.6" d="M128.335 83.9139C127.942 83.8641 127.58 83.6724 127.318 83.3748C127.055 83.0772 126.911 82.6942 126.911 82.2976C126.911 81.901 127.055 81.518 127.318 81.2204C127.58 80.9229 127.942 80.7312 128.335 80.6813H154.409C154.639 80.6523 154.872 80.6723 155.093 80.7403C155.314 80.8082 155.518 80.9224 155.691 81.0753C155.865 81.2282 156.004 81.4163 156.099 81.627C156.194 81.8378 156.243 82.0664 156.243 82.2976C156.243 82.5289 156.194 82.7575 156.099 82.9682C156.004 83.179 155.865 83.3671 155.691 83.5199C155.518 83.6728 155.314 83.787 155.093 83.855C154.872 83.9229 154.639 83.943 154.409 83.9139H128.335Z" fill="white"/>
<path d="M93.1321 106.749L92.4144 105.456C92.2985 105.242 92.1266 105.063 91.9171 104.939C91.7076 104.815 91.4683 104.75 91.2248 104.751H80.4668C80.1067 104.751 79.7613 104.894 79.5067 105.149C79.2521 105.404 79.1091 105.749 79.1091 106.109V126.668C79.1091 126.854 79.1457 127.038 79.217 127.209C79.2882 127.381 79.3926 127.536 79.5242 127.667C79.6557 127.798 79.8119 127.902 79.9836 127.972C80.1553 128.043 80.3393 128.079 80.5249 128.078H104.963C105.149 128.079 105.333 128.043 105.505 127.972C105.676 127.902 105.833 127.798 105.964 127.667C106.096 127.536 106.2 127.381 106.271 127.209C106.343 127.038 106.379 126.854 106.379 126.668V108.721C106.379 108.36 106.236 108.014 105.982 107.759C105.728 107.503 105.382 107.358 105.022 107.357H94.1665C93.9554 107.358 93.748 107.302 93.566 107.195C93.384 107.088 93.2341 106.934 93.1321 106.749Z" fill="#4C4DDC"/>
<path opacity="0.3" d="M93.1321 106.749L92.4144 105.456C92.2985 105.242 92.1266 105.063 91.9171 104.939C91.7076 104.815 91.4683 104.75 91.2248 104.751H80.4668C80.1067 104.751 79.7613 104.894 79.5067 105.149C79.2521 105.404 79.1091 105.749 79.1091 106.109V126.668C79.1091 126.854 79.1457 127.038 79.217 127.209C79.2882 127.381 79.3926 127.536 79.5242 127.667C79.6557 127.798 79.8119 127.902 79.9836 127.972C80.1553 128.043 80.3393 128.079 80.5249 128.078H104.963C105.149 128.079 105.333 128.043 105.505 127.972C105.676 127.902 105.833 127.798 105.964 127.667C106.096 127.536 106.2 127.381 106.271 127.209C106.343 127.038 106.379 126.854 106.379 126.668V108.721C106.379 108.36 106.236 108.014 105.982 107.759C105.728 107.503 105.382 107.358 105.022 107.357H94.1665C93.9554 107.358 93.748 107.302 93.566 107.195C93.384 107.088 93.2341 106.934 93.1321 106.749Z" fill="white"/>
<path d="M102.979 108.184H82.1284V123.772H102.979V108.184Z" fill="#263238"/>
<path opacity="0.8" d="M102.979 108.184H82.1284V123.772H102.979V108.184Z" fill="white"/>
<path d="M104.485 109.749H80.6216V127.593H104.485V109.749Z" fill="#263238"/>
<path opacity="0.9" d="M104.485 109.749H80.6216V127.593H104.485V109.749Z" fill="white"/>
<path d="M108.765 110.195H94.4702C94.1785 110.181 93.887 110.228 93.6144 110.333C93.3417 110.437 93.0937 110.597 92.8862 110.803C92.5048 111.255 92.3173 111.449 91.9488 111.928C91.7779 112.104 91.5712 112.243 91.3427 112.333C91.1141 112.423 90.8689 112.464 90.6234 112.452H76.6586C75.6888 112.452 75.0423 112.982 75.2104 113.628C76.5746 118.917 77.2599 121.561 78.624 126.856C78.7477 127.212 78.9793 127.52 79.2863 127.738C79.5934 127.955 79.9608 128.072 80.3373 128.071H104.569C104.945 128.072 105.313 127.955 105.62 127.738C105.927 127.52 106.158 127.212 106.282 126.856L110.278 111.34C110.446 110.719 109.773 110.195 108.765 110.195Z" fill="#4C4DDC"/>
<g opacity="0.6">
<path opacity="0.6" d="M108.765 110.195H94.4702C94.1785 110.181 93.887 110.228 93.6144 110.333C93.3417 110.437 93.0937 110.597 92.8862 110.803C92.5048 111.255 92.3173 111.449 91.9488 111.928C91.7779 112.104 91.5712 112.243 91.3427 112.333C91.1141 112.423 90.8689 112.464 90.6234 112.452H76.6586C75.6888 112.452 75.0423 112.982 75.2104 113.628C76.5746 118.917 77.2599 121.561 78.624 126.856C78.7477 127.212 78.9793 127.52 79.2863 127.738C79.5934 127.955 79.9608 128.072 80.3373 128.071H104.569C104.945 128.072 105.313 127.955 105.62 127.738C105.927 127.52 106.158 127.212 106.282 126.856L110.278 111.34C110.446 110.719 109.773 110.195 108.765 110.195Z" fill="white"/>
</g>
<path d="M79.6716 136.47C79.2781 136.42 78.9163 136.228 78.6541 135.93C78.3919 135.633 78.2472 135.25 78.2472 134.853C78.2472 134.457 78.3919 134.074 78.6541 133.776C78.9163 133.479 79.2781 133.287 79.6716 133.237H105.746C105.975 133.208 106.208 133.228 106.429 133.296C106.65 133.364 106.854 133.478 107.028 133.631C107.201 133.784 107.34 133.972 107.435 134.183C107.531 134.393 107.58 134.622 107.58 134.853C107.58 135.085 107.531 135.313 107.435 135.524C107.34 135.735 107.201 135.923 107.028 136.076C106.854 136.228 106.65 136.343 106.429 136.411C106.208 136.479 105.975 136.499 105.746 136.47H79.6716Z" fill="#263238"/>
<path opacity="0.6" d="M79.6716 136.47C79.2781 136.42 78.9163 136.228 78.6541 135.93C78.3919 135.633 78.2472 135.25 78.2472 134.853C78.2472 134.457 78.3919 134.074 78.6541 133.776C78.9163 133.479 79.2781 133.287 79.6716 133.237H105.746C105.975 133.208 106.208 133.228 106.429 133.296C106.65 133.364 106.854 133.478 107.028 133.631C107.201 133.784 107.34 133.972 107.435 134.183C107.531 134.393 107.58 134.622 107.58 134.853C107.58 135.085 107.531 135.313 107.435 135.524C107.34 135.735 107.201 135.923 107.028 136.076C106.854 136.228 106.65 136.343 106.429 136.411C106.208 136.479 105.975 136.499 105.746 136.47H79.6716Z" fill="white"/>
<path d="M141.737 106.749L141.02 105.456C140.903 105.242 140.731 105.064 140.522 104.94C140.312 104.816 140.073 104.751 139.83 104.751H129.098C128.738 104.751 128.392 104.894 128.138 105.149C127.883 105.404 127.74 105.749 127.74 106.109V126.668C127.739 126.854 127.775 127.037 127.846 127.209C127.916 127.38 128.02 127.536 128.151 127.667C128.282 127.798 128.438 127.902 128.609 127.972C128.781 128.043 128.964 128.079 129.15 128.078H153.594C153.78 128.079 153.963 128.043 154.135 127.972C154.306 127.902 154.462 127.798 154.593 127.667C154.724 127.536 154.828 127.38 154.898 127.209C154.969 127.037 155.005 126.854 155.004 126.668V108.721C155.004 108.36 154.861 108.014 154.607 107.759C154.352 107.503 154.007 107.358 153.646 107.357H142.791C142.577 107.361 142.365 107.307 142.18 107.2C141.994 107.093 141.841 106.937 141.737 106.749Z" fill="#4C4DDC"/>
<path opacity="0.3" d="M141.737 106.749L141.02 105.456C140.903 105.242 140.731 105.064 140.522 104.94C140.312 104.816 140.073 104.751 139.83 104.751H129.098C128.738 104.751 128.392 104.894 128.138 105.149C127.883 105.404 127.74 105.749 127.74 106.109V126.668C127.739 126.854 127.775 127.037 127.846 127.209C127.916 127.38 128.02 127.536 128.151 127.667C128.282 127.798 128.438 127.902 128.609 127.972C128.781 128.043 128.964 128.079 129.15 128.078H153.594C153.78 128.079 153.963 128.043 154.135 127.972C154.306 127.902 154.462 127.798 154.593 127.667C154.724 127.536 154.828 127.38 154.898 127.209C154.969 127.037 155.005 126.854 155.004 126.668V108.721C155.004 108.36 154.861 108.014 154.607 107.759C154.352 107.503 154.007 107.358 153.646 107.357H142.791C142.577 107.361 142.365 107.307 142.18 107.2C141.994 107.093 141.841 106.937 141.737 106.749Z" fill="white"/>
<path d="M151.61 108.184H130.759V123.772H151.61V108.184Z" fill="#263238"/>
<path opacity="0.8" d="M151.61 108.184H130.759V123.772H151.61V108.184Z" fill="white"/>
<path d="M153.116 109.749H129.253V127.593H153.116V109.749Z" fill="#263238"/>
<path opacity="0.9" d="M153.116 109.749H129.253V127.593H153.116V109.749Z" fill="white"/>
<path d="M157.402 110.195H143.101C142.809 110.181 142.516 110.228 142.242 110.332C141.969 110.437 141.719 110.597 141.511 110.803C141.129 111.256 140.942 111.449 140.573 111.928C140.406 112.101 140.205 112.237 139.982 112.327C139.76 112.417 139.52 112.459 139.28 112.452H125.283C124.32 112.452 123.673 112.982 123.835 113.628C125.206 118.917 125.884 121.561 127.249 126.856C127.373 127.211 127.605 127.519 127.912 127.736C128.219 127.954 128.586 128.071 128.962 128.071H153.2C153.576 128.071 153.943 127.954 154.25 127.736C154.557 127.519 154.789 127.211 154.913 126.856L158.909 111.34C159.07 110.719 158.398 110.195 157.402 110.195Z" fill="#4C4DDC"/>
<g opacity="0.6">
<path opacity="0.6" d="M157.402 110.195H143.101C142.809 110.181 142.516 110.228 142.242 110.332C141.969 110.437 141.719 110.597 141.511 110.803C141.129 111.256 140.942 111.449 140.573 111.928C140.406 112.101 140.205 112.237 139.982 112.327C139.76 112.417 139.52 112.459 139.28 112.452H125.283C124.32 112.452 123.673 112.982 123.835 113.628C125.206 118.917 125.884 121.561 127.249 126.856C127.373 127.211 127.605 127.519 127.912 127.736C128.219 127.954 128.586 128.071 128.962 128.071H153.2C153.576 128.071 153.943 127.954 154.25 127.736C154.557 127.519 154.789 127.211 154.913 126.856L158.909 111.34C159.07 110.719 158.398 110.195 157.402 110.195Z" fill="white"/>
</g>
<path d="M128.335 136.47C127.942 136.42 127.58 136.228 127.318 135.931C127.055 135.633 126.911 135.25 126.911 134.853C126.911 134.457 127.055 134.074 127.318 133.776C127.58 133.479 127.942 133.287 128.335 133.237H154.409C154.803 133.287 155.164 133.479 155.427 133.776C155.689 134.074 155.834 134.457 155.834 134.853C155.834 135.25 155.689 135.633 155.427 135.931C155.164 136.228 154.803 136.42 154.409 136.47H128.335Z" fill="#263238"/>
<path opacity="0.6" d="M128.335 136.47C127.942 136.42 127.58 136.228 127.318 135.931C127.055 135.633 126.911 135.25 126.911 134.853C126.911 134.457 127.055 134.074 127.318 133.776C127.58 133.479 127.942 133.287 128.335 133.237H154.409C154.803 133.287 155.164 133.479 155.427 133.776C155.689 134.074 155.834 134.457 155.834 134.853C155.834 135.25 155.689 135.633 155.427 135.931C155.164 136.228 154.803 136.42 154.409 136.47H128.335Z" fill="white"/>
<path d="M189.295 106.749L188.578 105.456C188.46 105.242 188.287 105.063 188.077 104.939C187.866 104.815 187.626 104.75 187.382 104.751H176.649C176.471 104.751 176.295 104.786 176.13 104.855C175.965 104.923 175.815 105.023 175.689 105.149C175.563 105.275 175.463 105.425 175.395 105.589C175.327 105.754 175.292 105.931 175.292 106.109V126.668C175.291 126.854 175.327 127.037 175.397 127.209C175.468 127.38 175.572 127.536 175.703 127.667C175.834 127.798 175.989 127.902 176.161 127.972C176.332 128.043 176.516 128.079 176.701 128.078H201.146C201.52 128.078 201.878 127.929 202.143 127.665C202.407 127.401 202.555 127.042 202.555 126.668V108.721C202.555 108.36 202.413 108.014 202.158 107.759C201.904 107.503 201.558 107.358 201.198 107.357H190.323C190.113 107.356 189.907 107.3 189.727 107.193C189.546 107.086 189.397 106.933 189.295 106.749Z" fill="#4C4DDC"/>
<path opacity="0.3" d="M189.295 106.749L188.578 105.456C188.46 105.242 188.287 105.063 188.077 104.939C187.866 104.815 187.626 104.75 187.382 104.751H176.649C176.471 104.751 176.295 104.786 176.13 104.855C175.965 104.923 175.815 105.023 175.689 105.149C175.563 105.275 175.463 105.425 175.395 105.589C175.327 105.754 175.292 105.931 175.292 106.109V126.668C175.291 126.854 175.327 127.037 175.397 127.209C175.468 127.38 175.572 127.536 175.703 127.667C175.834 127.798 175.989 127.902 176.161 127.972C176.332 128.043 176.516 128.079 176.701 128.078H201.146C201.52 128.078 201.878 127.929 202.143 127.665C202.407 127.401 202.555 127.042 202.555 126.668V108.721C202.555 108.36 202.413 108.014 202.158 107.759C201.904 107.503 201.558 107.358 201.198 107.357H190.323C190.113 107.356 189.907 107.3 189.727 107.193C189.546 107.086 189.397 106.933 189.295 106.749Z" fill="white"/>
<path d="M199.142 108.184H178.292V123.772H199.142V108.184Z" fill="#263238"/>
<path opacity="0.8" d="M199.142 108.184H178.292V123.772H199.142V108.184Z" fill="white"/>
<path d="M200.648 109.749H176.785V127.593H200.648V109.749Z" fill="#263238"/>
<path opacity="0.9" d="M200.648 109.749H176.785V127.593H200.648V109.749Z" fill="white"/>
<path d="M204.934 110.195H190.633C190.341 110.181 190.048 110.228 189.775 110.332C189.501 110.437 189.252 110.597 189.043 110.803C188.662 111.256 188.474 111.449 188.106 111.928C187.939 112.101 187.737 112.237 187.515 112.327C187.292 112.417 187.053 112.459 186.813 112.452H172.815C171.852 112.452 171.206 112.982 171.367 113.628C172.738 118.917 173.417 121.561 174.781 126.856C174.905 127.211 175.137 127.519 175.444 127.736C175.751 127.954 176.118 128.071 176.494 128.071H200.726C201.103 128.073 201.471 127.956 201.78 127.738C202.088 127.521 202.32 127.212 202.445 126.856C203.773 121.684 205.103 116.512 206.434 111.34C206.602 110.719 205.93 110.195 204.934 110.195Z" fill="#4C4DDC"/>
<g opacity="0.6">
<path opacity="0.6" d="M204.934 110.195H190.633C190.341 110.181 190.048 110.228 189.775 110.332C189.501 110.437 189.252 110.597 189.043 110.803C188.662 111.256 188.474 111.449 188.106 111.928C187.939 112.101 187.737 112.237 187.515 112.327C187.292 112.417 187.053 112.459 186.813 112.452H172.815C171.852 112.452 171.206 112.982 171.367 113.628C172.738 118.917 173.417 121.561 174.781 126.856C174.905 127.211 175.137 127.519 175.444 127.736C175.751 127.954 176.118 128.071 176.494 128.071H200.726C201.103 128.073 201.471 127.956 201.78 127.738C202.088 127.521 202.32 127.212 202.445 126.856C203.773 121.684 205.103 116.512 206.434 111.34C206.602 110.719 205.93 110.195 204.934 110.195Z" fill="white"/>
</g>
<path d="M175.867 136.47C175.473 136.42 175.112 136.228 174.849 135.931C174.587 135.633 174.442 135.25 174.442 134.853C174.442 134.457 174.587 134.074 174.849 133.776C175.112 133.479 175.473 133.287 175.867 133.237H201.941C202.334 133.287 202.696 133.479 202.958 133.776C203.221 134.074 203.365 134.457 203.365 134.853C203.365 135.25 203.221 135.633 202.958 135.931C202.696 136.228 202.334 136.42 201.941 136.47H175.867Z" fill="#263238"/>
<path opacity="0.6" d="M175.867 136.47C175.473 136.42 175.112 136.228 174.849 135.931C174.587 135.633 174.442 135.25 174.442 134.853C174.442 134.457 174.587 134.074 174.849 133.776C175.112 133.479 175.473 133.287 175.867 133.237H201.941C202.334 133.287 202.696 133.479 202.958 133.776C203.221 134.074 203.365 134.457 203.365 134.853C203.365 135.25 203.221 135.633 202.958 135.931C202.696 136.228 202.334 136.42 201.941 136.47H175.867Z" fill="white"/>
<path d="M175.531 83.9139C175.302 83.943 175.069 83.9229 174.848 83.855C174.626 83.787 174.422 83.6728 174.249 83.5199C174.075 83.3671 173.937 83.179 173.841 82.9682C173.746 82.7575 173.697 82.5289 173.697 82.2976C173.697 82.0664 173.746 81.8378 173.841 81.627C173.937 81.4163 174.075 81.2282 174.249 81.0753C174.422 80.9224 174.626 80.8082 174.848 80.7403C175.069 80.6723 175.302 80.6523 175.531 80.6813H201.605C201.835 80.6523 202.067 80.6723 202.289 80.7403C202.51 80.8082 202.714 80.9224 202.887 81.0753C203.061 81.2282 203.2 81.4163 203.295 81.627C203.39 81.8378 203.439 82.0664 203.439 82.2976C203.439 82.5289 203.39 82.7575 203.295 82.9682C203.2 83.179 203.061 83.3671 202.887 83.5199C202.714 83.6728 202.51 83.787 202.289 83.855C202.067 83.9229 201.835 83.943 201.605 83.9139H175.531Z" fill="#263238"/>
<path opacity="0.6" d="M175.531 83.9139C175.302 83.943 175.069 83.9229 174.848 83.855C174.626 83.787 174.422 83.6728 174.249 83.5199C174.075 83.3671 173.937 83.179 173.841 82.9682C173.746 82.7575 173.697 82.5289 173.697 82.2976C173.697 82.0664 173.746 81.8378 173.841 81.627C173.937 81.4163 174.075 81.2282 174.249 81.0753C174.422 80.9224 174.626 80.8082 174.848 80.7403C175.069 80.6723 175.302 80.6523 175.531 80.6813H201.605C201.835 80.6523 202.067 80.6723 202.289 80.7403C202.51 80.8082 202.714 80.9224 202.887 81.0753C203.061 81.2282 203.2 81.4163 203.295 81.627C203.39 81.8378 203.439 82.0664 203.439 82.2976C203.439 82.5289 203.39 82.7575 203.295 82.9682C203.2 83.179 203.061 83.3671 202.887 83.5199C202.714 83.6728 202.51 83.787 202.289 83.855C202.067 83.9229 201.835 83.943 201.605 83.9139H175.531Z" fill="white"/>
<path d="M174.639 76.7442L180.199 93.0106C180.349 93.3673 180.599 93.6729 180.919 93.8908C181.239 94.1087 181.615 94.2296 182.002 94.239H192.942C193.156 94.2602 193.372 94.2078 193.553 94.0903C193.734 93.9728 193.869 93.7972 193.937 93.5925L194.26 92.4093C194.32 92.233 194.437 92.0819 194.593 91.9809C194.749 91.8799 194.935 91.8349 195.12 91.8533H206.156C206.313 91.8765 206.473 91.8577 206.621 91.799C206.768 91.7402 206.897 91.6436 206.995 91.5189C207.093 91.3941 207.156 91.2457 207.178 91.0887C207.2 90.9317 207.18 90.7717 207.12 90.625L202.374 76.7313L202.303 74.0159V53.1139C202.303 52.7487 202.158 52.3984 201.9 52.1402C201.642 51.8819 201.291 51.7368 200.926 51.7368H189.987C189.74 51.7355 189.497 51.8009 189.285 51.9261C189.072 52.0512 188.897 52.2316 188.778 52.448L188.047 53.7798C187.944 53.9664 187.792 54.1217 187.607 54.2297C187.423 54.3377 187.214 54.3945 187 54.394H175.958C175.591 54.394 175.239 54.5398 174.979 54.7993C174.72 55.0587 174.574 55.4106 174.574 55.7776V74.0288L174.639 76.7442Z" fill="#4C4DDC"/>
<path opacity="0.6" d="M174.639 76.7442L180.199 93.0106C180.349 93.3673 180.599 93.6729 180.919 93.8908C181.239 94.1087 181.615 94.2296 182.002 94.239H192.942C193.156 94.2602 193.372 94.2078 193.553 94.0903C193.734 93.9728 193.869 93.7972 193.937 93.5925L194.26 92.4093C194.32 92.233 194.437 92.0819 194.593 91.9809C194.749 91.8799 194.935 91.8349 195.12 91.8533H206.156C206.313 91.8765 206.473 91.8577 206.621 91.799C206.768 91.7402 206.897 91.6436 206.995 91.5189C207.093 91.3941 207.156 91.2457 207.178 91.0887C207.2 90.9317 207.18 90.7717 207.12 90.625L202.374 76.7313L202.303 74.0159V53.1139C202.303 52.7487 202.158 52.3984 201.9 52.1402C201.642 51.8819 201.291 51.7368 200.926 51.7368H189.987C189.74 51.7355 189.497 51.8009 189.285 51.9261C189.072 52.0512 188.897 52.2316 188.778 52.448L188.047 53.7798C187.944 53.9664 187.792 54.1217 187.607 54.2297C187.423 54.3377 187.214 54.3945 187 54.394H175.958C175.591 54.394 175.239 54.5398 174.979 54.7993C174.72 55.0587 174.574 55.4106 174.574 55.7776V74.0288L174.639 76.7442Z" fill="white"/>
<path d="M174.638 76.744L180.198 93.0104C180.349 93.367 180.599 93.6727 180.919 93.8906C181.239 94.1085 181.615 94.2294 182.002 94.2388H192.941C193.156 94.26 193.372 94.2076 193.553 94.0901C193.734 93.9726 193.869 93.797 193.937 93.5922L194.26 92.4091C194.319 92.2327 194.437 92.0817 194.593 91.9806C194.749 91.8796 194.935 91.8347 195.12 91.8531H206.156C206.313 91.8762 206.473 91.8575 206.62 91.7987C206.768 91.74 206.897 91.6434 206.995 91.5186C207.092 91.3939 207.155 91.2455 207.177 91.0885C207.199 90.9315 207.179 90.7715 207.12 90.6247L202.374 76.731L174.638 76.744Z" fill="#4C4DDC"/>
<path opacity="0.3" d="M174.638 76.744L180.198 93.0104C180.349 93.367 180.599 93.6727 180.919 93.8906C181.239 94.1085 181.615 94.2294 182.002 94.2388H192.941C193.156 94.26 193.372 94.2076 193.553 94.0901C193.734 93.9726 193.869 93.797 193.937 93.5922L194.26 92.4091C194.319 92.2327 194.437 92.0817 194.593 91.9806C194.749 91.8796 194.935 91.8347 195.12 91.8531H206.156C206.313 91.8762 206.473 91.8575 206.62 91.7987C206.768 91.74 206.897 91.6434 206.995 91.5186C207.092 91.3939 207.155 91.2455 207.177 91.0885C207.199 90.9315 207.179 90.7715 207.12 90.6247L202.374 76.731L174.638 76.744Z" fill="white"/>
<path opacity="0.1" d="M177.315 76.7442H199.82L203.926 88.3104H181.42L177.315 76.7442Z" fill="black"/>
<path d="M177.315 76.7442H199.82V58.5059H177.315V76.7442Z" fill="#263238"/>
<path opacity="0.8" d="M177.315 76.7442H199.82V58.5059H177.315V76.7442Z" fill="white"/>
<path d="M177.315 76.7444H199.82L204.385 63.6006H181.873L177.315 76.7444Z" fill="#263238"/>
<path opacity="0.9" d="M177.315 76.7444H199.82L204.385 63.6006H181.873L177.315 76.7444Z" fill="white"/>
<path d="M177.315 76.7442H199.82L204.385 86.4872H181.873L177.315 76.7442Z" fill="#263238"/>
<path opacity="0.9" d="M177.315 76.7442H199.82L204.385 86.4872H181.873L177.315 76.7442Z" fill="white"/>
<path d="M177.315 76.7442H199.82L207.184 71.7336H184.672L177.315 76.7442Z" fill="#263238"/>
<path opacity="0.8" d="M177.315 76.7442H199.82L207.184 71.7336H184.672L177.315 76.7442Z" fill="white"/>
<path d="M53.3581 190.609C53.9141 181.836 57.7609 172.959 63.9481 166.934C65.4933 165.434 68.7388 162.46 66.1075 160.889C63.1012 159.091 57.3342 167.483 56.526 169.035C58.2329 162.35 63.405 157.507 69.0168 154.734C71.7904 153.363 74.4346 152.064 71.48 150.027C68.5254 147.991 62.1314 152.93 60.6508 155.051C64.155 150.156 68.5836 145.256 73.1222 142.327C78.1327 139.095 75.8699 133.703 70.7042 137.873C67.5039 140.459 62.2413 146.924 62.2413 146.924C62.2413 146.924 70.5103 130.315 68.0147 128.821C64.7821 126.882 59.1186 149.51 57.554 153.971C57.9743 150.273 58.3686 141.325 55.6145 140.937C53.0995 140.588 53.7137 162.867 53.1318 166.798C52.7633 168.511 52.5952 169.384 52.3043 171.11C52.0327 168.143 50.3647 160.32 47.8692 161.225C45.7486 161.988 47.061 167.845 47.6106 170.625C48.9424 177.356 50.2871 183.866 50.3001 190.771L53.3581 190.609Z" fill="#4C4DDC"/>
<path opacity="0.4" d="M56.0411 145.25C56.4161 150.085 56.7523 154.999 56.2868 159.861C57.2814 157.039 58.4318 154.274 59.7327 151.579C59.7477 151.533 59.7695 151.489 59.7974 151.45C60.1853 150.641 60.5861 149.84 61.0063 149.045C61.1744 148.728 61.5882 148.87 61.53 149.167C64.5945 145.288 68.2991 141.732 72.7083 139.47C73.0316 139.302 73.2514 139.793 72.9411 139.967C67.8207 142.864 64.0127 146.943 60.2434 151.773C58.6529 154.998 57.3044 158.337 56.2092 161.762C58.9913 157.379 63.2759 154.161 68.2603 152.71C68.5965 152.607 68.784 153.124 68.4478 153.234C61.627 155.387 56.8104 160.158 54.8709 166.41C54.8586 166.459 54.8366 166.505 54.8062 166.546C53.8558 170.541 53.1317 174.42 52.5757 178.494C54.5153 172.759 58.6465 167.697 63.4049 164.141C63.6894 163.927 63.948 164.419 63.6635 164.632C58.1855 168.748 54.2069 174.546 52.3365 181.138C52.3365 181.138 52.3365 181.138 52.3365 181.17C52.1296 183.756 52.0391 186.342 52.065 188.928C52.071 188.967 52.0686 189.007 52.0579 189.044C52.0472 189.082 52.0284 189.117 52.0029 189.147C51.9774 189.176 51.9458 189.2 51.9102 189.217C51.8746 189.233 51.8359 189.242 51.7967 189.242C51.7575 189.242 51.7188 189.233 51.6832 189.217C51.6476 189.2 51.6159 189.176 51.5904 189.147C51.5649 189.117 51.5462 189.082 51.5355 189.044C51.5248 189.007 51.5223 188.967 51.5284 188.928C51.5696 180.259 52.7876 171.635 55.1489 163.294C56.4031 157.417 55.9506 151.282 55.4786 145.366C55.4463 144.959 56.0088 144.849 56.0411 145.25Z" fill="white"/>
<path d="M52.7116 190.603C52.0651 180.194 47.4942 169.662 40.1498 162.518C38.3201 160.74 34.4733 157.21 37.5637 155.348C41.126 153.221 47.9727 163.171 48.923 165.007C46.9059 157.081 40.764 151.34 34.1113 148.049C30.8205 146.42 27.6849 144.887 31.189 142.469C34.6932 140.051 42.2833 145.915 44.0289 148.424C39.8718 142.605 34.622 136.787 29.243 133.334C23.3015 129.507 26.0104 123.106 32.1071 128.052C35.9409 131.117 42.1734 138.765 42.1734 138.765C42.1734 138.765 32.3722 119.072 35.3332 117.262C39.1347 114.934 45.8779 141.829 47.7334 147.086C47.2421 142.702 46.7766 132.086 50.0738 131.627C53.0543 131.214 52.3237 157.63 53.0155 162.298C53.4551 164.335 53.662 165.356 53.9917 167.412C54.3215 163.895 56.2804 154.618 59.2609 155.691C61.7694 156.596 60.2177 163.539 59.5647 166.837C57.9808 174.815 56.3839 182.541 56.3774 190.726L52.7116 190.603Z" fill="#4C4DDC"/>
<path opacity="0.2" d="M49.5305 136.787C49.0909 142.528 48.6901 148.347 49.2396 154.113C48.0612 150.769 46.697 147.492 45.1536 144.299C45.138 144.244 45.114 144.192 45.0825 144.144C44.617 143.187 44.145 142.237 43.6537 141.299C43.4532 140.918 42.9554 141.093 43.0072 141.442C39.3737 136.819 34.9839 132.623 29.7535 129.921C29.3656 129.72 29.107 130.309 29.4755 130.516C35.5463 133.949 40.059 138.791 44.5394 144.519C46.4209 148.345 48.0199 152.304 49.3236 156.363C46.0377 151.159 40.9669 147.332 35.0614 145.599C34.6606 145.476 34.4149 146.09 34.8352 146.213C42.9296 148.767 48.606 154.43 50.9399 161.846C50.9602 161.903 50.9885 161.958 51.024 162.007C52.1489 166.746 53.0023 171.35 53.6682 176.173C51.3796 169.378 46.466 163.365 40.8284 159.156C40.4857 158.898 40.1819 159.486 40.5181 159.738C47.014 164.621 51.7326 171.497 53.9527 179.315C53.9527 179.315 53.9527 179.315 53.9527 179.347C54.1984 182.399 54.3061 185.463 54.276 188.541C54.276 188.626 54.31 188.709 54.3707 188.769C54.4313 188.83 54.5135 188.864 54.5992 188.864C54.685 188.864 54.7672 188.83 54.8278 188.769C54.8884 188.709 54.9225 188.626 54.9225 188.541C54.8538 178.277 53.3922 168.07 50.5779 158.199C49.0909 151.236 49.6275 143.976 50.19 136.935C50.2352 136.457 49.5693 136.321 49.5305 136.787Z" fill="white"/>
<path d="M52.7116 190.603C52.0651 180.194 47.4942 169.662 40.1498 162.518C38.3201 160.74 34.4733 157.21 37.5637 155.348C41.126 153.221 47.9727 163.171 48.923 165.007C46.9059 157.081 40.764 151.34 34.1113 148.049C30.8205 146.42 27.6849 144.887 31.189 142.469C34.6932 140.051 42.2833 145.915 44.0289 148.424C39.8718 142.605 34.622 136.787 29.243 133.334C23.3015 129.507 26.0104 123.106 32.1071 128.052C35.9409 131.117 42.1734 138.765 42.1734 138.765C42.1734 138.765 32.3722 119.072 35.3332 117.262C39.1347 114.934 45.8779 141.829 47.7334 147.086C47.2421 142.702 46.7766 132.086 50.0738 131.627C53.0543 131.214 52.3237 157.63 53.0155 162.298C53.4551 164.335 53.662 165.356 53.9917 167.412C54.3215 163.895 56.2804 154.618 59.2609 155.691C61.7694 156.596 60.2177 163.539 59.5647 166.837C57.9808 174.815 56.3839 182.541 56.3774 190.726L52.7116 190.603Z" fill="#4C4DDC"/>
<path opacity="0.2" d="M52.7116 190.603C52.0651 180.194 47.4942 169.662 40.1498 162.518C38.3201 160.74 34.4733 157.21 37.5637 155.348C41.126 153.221 47.9727 163.171 48.923 165.007C46.9059 157.081 40.764 151.34 34.1113 148.049C30.8205 146.42 27.6849 144.887 31.189 142.469C34.6932 140.051 42.2833 145.915 44.0289 148.424C39.8718 142.605 34.622 136.787 29.243 133.334C23.3015 129.507 26.0104 123.106 32.1071 128.052C35.9409 131.117 42.1734 138.765 42.1734 138.765C42.1734 138.765 32.3722 119.072 35.3332 117.262C39.1347 114.934 45.8779 141.829 47.7334 147.086C47.2421 142.702 46.7766 132.086 50.0738 131.627C53.0543 131.214 52.3237 157.63 53.0155 162.298C53.4551 164.335 53.662 165.356 53.9917 167.412C54.3215 163.895 56.2804 154.618 59.2609 155.691C61.7694 156.596 60.2177 163.539 59.5647 166.837C57.9808 174.815 56.3839 182.541 56.3774 190.726L52.7116 190.603Z" fill="white"/>
<path opacity="0.5" d="M49.5305 136.787C49.0909 142.528 48.6901 148.347 49.2396 154.113C48.0612 150.769 46.697 147.492 45.1536 144.299C45.138 144.244 45.114 144.192 45.0825 144.144C44.617 143.187 44.145 142.237 43.6537 141.299C43.4532 140.918 42.9554 141.093 43.0072 141.442C39.3737 136.819 34.9839 132.623 29.7535 129.921C29.3656 129.72 29.107 130.309 29.4755 130.516C35.5463 133.949 40.059 138.791 44.5394 144.519C46.4209 148.345 48.0199 152.304 49.3236 156.363C46.0377 151.159 40.9669 147.332 35.0614 145.599C34.6606 145.476 34.4149 146.09 34.8352 146.213C42.9296 148.767 48.606 154.43 50.9399 161.846C50.9602 161.903 50.9885 161.958 51.024 162.007C52.1489 166.746 53.0023 171.35 53.6682 176.173C51.3796 169.378 46.466 163.365 40.8284 159.156C40.4857 158.898 40.1819 159.486 40.5181 159.738C47.014 164.621 51.7326 171.497 53.9527 179.315C53.9527 179.315 53.9527 179.315 53.9527 179.347C54.1984 182.399 54.3061 185.463 54.276 188.541C54.276 188.626 54.31 188.709 54.3707 188.769C54.4313 188.83 54.5135 188.864 54.5992 188.864C54.685 188.864 54.7672 188.83 54.8278 188.769C54.8884 188.709 54.9225 188.626 54.9225 188.541C54.8538 178.277 53.3922 168.07 50.5779 158.199C49.0909 151.236 49.6275 143.976 50.19 136.935C50.2352 136.457 49.5693 136.321 49.5305 136.787Z" fill="white"/>
<path d="M63.3986 189.187H43.1755C42.5462 189.187 41.9427 189.437 41.4977 189.882C41.0527 190.327 40.8027 190.931 40.8027 191.56V192.607C40.8044 193.235 41.0552 193.837 41.5 194.281C41.9448 194.724 42.5473 194.974 43.1755 194.974L45.5029 211.783H61.0711L63.3986 194.974C63.7107 194.974 64.0199 194.914 64.3086 194.795C64.5972 194.676 64.8595 194.501 65.0805 194.281C65.3015 194.06 65.4769 193.799 65.5965 193.51C65.7162 193.222 65.7778 192.913 65.7778 192.601V191.553C65.7769 191.242 65.7147 190.934 65.5947 190.646C65.4747 190.358 65.2992 190.097 65.0782 189.878C64.8573 189.658 64.5953 189.484 64.3071 189.365C64.0189 189.247 63.7102 189.186 63.3986 189.187Z" fill="#4C4DDC"/>
<path opacity="0.2" d="M63.3986 189.187H43.1755C42.5462 189.187 41.9427 189.437 41.4977 189.882C41.0527 190.327 40.8027 190.931 40.8027 191.56V192.607C40.8044 193.235 41.0552 193.837 41.5 194.281C41.9448 194.724 42.5473 194.974 43.1755 194.974L45.5029 211.783H61.0711L63.3986 194.974C63.7107 194.974 64.0199 194.914 64.3086 194.795C64.5972 194.676 64.8595 194.501 65.0805 194.281C65.3015 194.06 65.4769 193.799 65.5965 193.51C65.7162 193.222 65.7778 192.913 65.7778 192.601V191.553C65.7769 191.242 65.7147 190.934 65.5947 190.646C65.4747 190.358 65.2992 190.097 65.0782 189.878C64.8573 189.658 64.5953 189.484 64.3071 189.365C64.0189 189.247 63.7102 189.186 63.3986 189.187Z" fill="black"/>
<path opacity="0.2" d="M62.9201 198.445L63.3921 195.032H43.1819L43.6538 198.445H62.9201Z" fill="black"/>
<path d="M234.707 72.846C234.707 72.846 246.286 82.8024 246.286 88.7051C246.286 94.1294 234.784 99.9416 229.729 100.692C228.15 100.782 226.568 100.782 224.99 100.692C224.456 100.692 223.934 100.526 223.498 100.219C223.062 99.9106 222.731 99.4751 222.552 98.9718L222.494 98.8037C222.328 98.3468 222.296 97.8517 222.402 97.3773C222.509 96.9028 222.75 96.469 223.095 96.1271C223.648 95.5488 224.362 95.15 225.145 94.9828C226.968 94.6983 229.535 97.265 229.535 97.265C229.535 97.265 240.765 90.5089 240.765 89.274C240.765 88.0392 235.631 83.992 234.106 81.755C232.819 79.893 231.5 77.1583 234.707 72.846Z" fill="#B97964"/>
<path d="M234.998 72.2898C236.123 72.9363 238.651 74.8758 242.756 80.3066C242.756 80.3066 242.607 83.2547 237.357 86.0024C237.357 86.0024 231.765 81.7031 231.817 77.5589C231.781 76.6181 231.935 75.6797 232.268 74.7991C232.601 73.9186 233.107 73.1137 233.756 72.432C233.921 72.279 234.13 72.1827 234.354 72.1571C234.577 72.1315 234.803 72.178 234.998 72.2898Z" fill="#4C4DDC"/>
<path opacity="0.2" d="M233.814 82.4399C234.85 83.7575 236.032 84.9527 237.338 86.0022L237.752 85.7759C238.288 79.4401 236.291 75.4316 236.291 75.4316L234.312 78.1341L233.814 82.4399Z" fill="black"/>
<path opacity="0.2" d="M229.942 100.652C232.691 100.056 235.337 99.0538 237.791 97.6784C236.73 96.9026 236.414 94.2066 236.33 92.9524C233.446 94.8919 230.149 96.8961 229.619 97.2194L229.942 100.652Z" fill="#606060"/>
<path d="M236.595 85.8277C236.595 85.8277 241.262 83.2998 242.737 79.5047L243.609 80.9788C242.325 83.5693 240.159 85.6166 237.5 86.7522L236.595 85.8277Z" fill="#4C4DDC"/>
<path opacity="0.5" d="M236.595 85.8277C236.595 85.8277 241.262 83.2998 242.737 79.5047L243.609 80.9788C242.325 83.5693 240.159 85.6166 237.5 86.7522L236.595 85.8277Z" fill="white"/>
<path d="M231.041 81.503L230.394 80.669C230.288 80.532 230.146 80.4261 229.985 80.3624C229.823 80.2987 229.648 80.2796 229.476 80.3069L221.906 81.503C221.779 81.5226 221.658 81.5671 221.549 81.6337C221.44 81.7003 221.345 81.7877 221.27 81.8911C221.195 81.9944 221.141 82.1115 221.112 82.2358C221.082 82.36 221.077 82.4889 221.097 82.615L223.392 97.0841C223.434 97.348 223.578 97.5848 223.794 97.7423C224.01 97.8999 224.279 97.9654 224.543 97.9245L241.747 95.1962C242.011 95.1549 242.248 95.0104 242.405 94.7947C242.563 94.5789 242.629 94.3095 242.588 94.0454L240.583 81.4125C240.542 81.16 240.403 80.9342 240.196 80.784C239.989 80.6339 239.731 80.5716 239.478 80.6108L231.836 81.8327C231.686 81.8545 231.533 81.8354 231.393 81.7774C231.253 81.7193 231.131 81.6245 231.041 81.503Z" fill="#4C4DDC"/>
<path opacity="0.4" d="M231.041 81.503L230.394 80.669C230.288 80.532 230.146 80.4261 229.985 80.3624C229.823 80.2987 229.648 80.2796 229.476 80.3069L221.906 81.503C221.779 81.5226 221.658 81.5671 221.549 81.6337C221.44 81.7003 221.345 81.7877 221.27 81.8911C221.195 81.9944 221.141 82.1115 221.112 82.2358C221.082 82.36 221.077 82.4889 221.097 82.615L223.392 97.0841C223.434 97.348 223.578 97.5848 223.794 97.7423C224.01 97.8999 224.279 97.9654 224.543 97.9245L241.747 95.1962C242.011 95.1549 242.248 95.0104 242.405 94.7947C242.563 94.5789 242.629 94.3095 242.588 94.0454L240.583 81.4125C240.542 81.16 240.403 80.9342 240.196 80.784C239.989 80.6339 239.731 80.5716 239.478 80.6108L231.836 81.8327C231.686 81.8545 231.533 81.8354 231.393 81.7774C231.253 81.7193 231.131 81.6245 231.041 81.503Z" fill="white"/>
<path d="M239.478 80.6103L231.907 81.8322C231.734 81.8625 231.572 81.9383 231.438 82.052C231.304 82.1656 231.203 82.3129 231.145 82.4787L230.789 83.4809C230.737 83.6193 230.65 83.7421 230.537 83.8372C230.424 83.9323 230.288 83.9967 230.142 84.0239L222.501 85.2329C222.247 85.2727 222.02 85.4114 221.868 85.6187C221.717 85.8259 221.653 86.0847 221.692 86.3385L223.406 97.1289C223.447 97.3928 223.592 97.6296 223.807 97.7871C224.023 97.9447 224.292 98.0102 224.557 97.9693L241.76 95.241C242.024 95.1997 242.261 95.0552 242.419 94.8395C242.576 94.6237 242.642 94.3543 242.601 94.0902L240.597 81.4572C240.582 81.327 240.541 81.201 240.476 81.0871C240.411 80.9732 240.323 80.8737 240.219 80.7945C240.114 80.7153 239.995 80.6582 239.867 80.6265C239.74 80.5949 239.608 80.5893 239.478 80.6103Z" fill="#4C4DDC"/>
<path opacity="0.7" d="M239.478 80.6103L231.907 81.8322C231.734 81.8625 231.572 81.9383 231.438 82.052C231.304 82.1656 231.203 82.3129 231.145 82.4787L230.789 83.4809C230.737 83.6193 230.65 83.7421 230.537 83.8372C230.424 83.9323 230.288 83.9967 230.142 84.0239L222.501 85.2329C222.247 85.2727 222.02 85.4114 221.868 85.6187C221.717 85.8259 221.653 86.0847 221.692 86.3385L223.406 97.1289C223.447 97.3928 223.592 97.6296 223.807 97.7871C224.023 97.9447 224.292 98.0102 224.557 97.9693L241.76 95.241C242.024 95.1997 242.261 95.0552 242.419 94.8395C242.576 94.6237 242.642 94.3543 242.601 94.0902L240.597 81.4572C240.582 81.327 240.541 81.201 240.476 81.0871C240.411 80.9732 240.323 80.8737 240.219 80.7945C240.114 80.7153 239.995 80.6582 239.867 80.6265C239.74 80.5949 239.608 80.5893 239.478 80.6103Z" fill="white"/>
<path d="M248.801 199.091L251.135 207.237L254.943 206.487L253.947 197.792L248.801 199.091Z" fill="#B97964"/>
<path d="M215.609 197.508V208.304H219.656L221.744 197.76L215.609 197.508Z" fill="#B97964"/>
<path d="M227.899 107.351L235.457 105.217C235.457 105.217 240.817 108.65 241.605 124.27C241.929 130.548 243.719 135.397 243.467 147.293C243.39 150.767 244.158 154.208 245.704 157.32C247.569 161.086 248.971 165.062 249.881 169.164C252.144 179.289 254.943 202.473 254.943 202.473L249.48 203.378C249.48 203.378 244.418 186.194 237.759 169.009C231.099 151.825 226.432 125.602 226.432 125.602L224.679 107.351H227.899Z" fill="#263238"/>
<path opacity="0.6" d="M231.028 126.404L229.496 126.733L227.763 128.466L227.317 130.238C228.009 133.716 229.089 138.843 230.466 144.571C233.103 129.992 231.028 126.404 231.028 126.404Z" fill="black"/>
<path d="M213.908 106.685L215.311 204.807H220.703C220.703 204.807 226.302 180.627 226.302 171.033C226.302 165.356 225.927 159.35 225.623 155.393C225.399 152.458 225.766 149.508 226.703 146.717C228.481 141.435 231.267 132.339 231.629 126.404C231.629 126.404 238.689 126.132 233.627 106.685H213.908Z" fill="#263238"/>
<path d="M218.085 57.0386L215.596 59.4501C215.879 59.742 216.226 59.9633 216.61 60.0958C216.994 60.2284 217.404 60.2685 217.807 60.213L218.085 57.0386Z" fill="#A24E3F"/>
<path d="M231.687 57.5296C230.685 62.4496 230.394 64.5573 227.504 66.7554C223.308 68.8114 217.36 67.7511 216.876 62.6306C216.436 58.021 218.169 50.767 223.289 49.4481C224.421 49.1555 225.609 49.1575 226.739 49.4539C227.87 49.7503 228.906 50.3313 229.749 51.1415C230.591 51.9516 231.212 52.9641 231.553 54.0823C231.893 55.2005 231.942 56.3873 231.694 57.5296H231.687Z" fill="#B97964"/>
<path d="M219.087 53.9026C219.054 53.8967 219.024 53.8838 218.997 53.8648C218.97 53.8458 218.948 53.8212 218.932 53.7927C218.828 53.5691 218.673 53.3736 218.478 53.2228C218.284 53.0719 218.055 52.9703 217.813 52.9264C217.788 52.924 217.763 52.9165 217.74 52.9045C217.718 52.8924 217.698 52.876 217.681 52.8561C217.665 52.8363 217.653 52.8134 217.646 52.7889C217.638 52.7643 217.636 52.7385 217.639 52.7131C217.641 52.6869 217.649 52.6615 217.661 52.6384C217.673 52.6154 217.691 52.595 217.711 52.5787C217.732 52.5624 217.755 52.5504 217.781 52.5435C217.806 52.5366 217.832 52.5349 217.858 52.5385C218.165 52.5897 218.455 52.714 218.704 52.9007C218.952 53.0875 219.152 53.3314 219.287 53.6117C219.3 53.635 219.307 53.6606 219.31 53.6869C219.312 53.7132 219.309 53.7397 219.302 53.765C219.294 53.7902 219.281 53.8136 219.264 53.8339C219.247 53.8542 219.226 53.871 219.203 53.8833L219.087 53.9026Z" fill="#263238"/>
<path opacity="0.2" d="M220.096 65.3139C219.143 65.3049 218.21 65.0415 217.393 64.551C218.285 66.4453 220.173 67.4603 222.294 67.6866L222.223 66.6457C222.223 66.6457 222.41 65.385 220.096 65.3139Z" fill="#606060"/>
<path d="M221.906 71.2358L222.345 64.9193C222.345 64.9193 224.899 63.9818 226.431 64.9193C226.431 64.9193 227.168 69.6453 228.565 70.7767L221.906 71.2358Z" fill="#B97964"/>
<path d="M216.973 55.9265C216.882 56.2885 216.973 56.6376 217.238 56.6958C217.503 56.754 217.761 56.4954 217.845 56.1398C217.929 55.7842 217.845 55.4286 217.58 55.3705C217.315 55.3123 217.07 55.5579 216.973 55.9265Z" fill="#263238"/>
<path d="M217.781 55.364C217.546 55.3139 217.326 55.2111 217.136 55.0632C216.947 54.9154 216.794 54.7264 216.688 54.5106C216.678 54.8017 216.766 55.0877 216.939 55.3224C217.111 55.5571 217.358 55.7267 217.639 55.8037L217.781 55.364Z" fill="#263238"/>
<path d="M218.576 57.0514C218.168 57.9928 218.149 59.0575 218.524 60.0125C219.035 61.2732 220.373 61.0857 221.11 60.0513C221.802 59.1138 222.358 57.3294 221.408 56.392C221.198 56.1947 220.943 56.0523 220.665 55.9774C220.388 55.9025 220.096 55.8974 219.815 55.9627C219.535 56.028 219.275 56.1615 219.059 56.3515C218.843 56.5414 218.677 56.7819 218.576 57.0514Z" fill="#B97964"/>
<path d="M233.724 53.9028C233.724 53.9028 236.394 51.362 234.261 49.4936C232.127 47.6251 234.558 51.5107 233.724 53.9028Z" fill="#263238"/>
<path d="M222.701 50.47C222.701 50.47 219.869 48.1037 218.906 49.9075C217.943 51.7113 220.535 49.6683 222.701 50.47Z" fill="#263238"/>
<path d="M222.404 55.9329L218.221 54.5881L218.253 54.4976C218.303 54.3227 218.282 54.1351 218.195 53.9753C218.108 53.8156 217.962 53.6966 217.787 53.6442L217.025 53.4244C216.939 53.3937 216.848 53.3815 216.757 53.3884C216.667 53.3953 216.578 53.4213 216.499 53.4646C216.419 53.5079 216.349 53.5676 216.293 53.6398C216.238 53.7119 216.199 53.795 216.178 53.8834L215.376 56.6182C215.317 56.8342 215.34 57.0646 215.441 57.2647C215.496 57.3677 215.571 57.4585 215.662 57.5318C215.753 57.6051 215.858 57.6594 215.971 57.6914L216.326 57.8013C216.41 57.8107 216.495 57.8107 216.578 57.8013C216.772 57.8007 216.961 57.7374 217.116 57.6209C217.271 57.5044 217.384 57.3409 217.438 57.1548L218.085 54.9114L222.255 56.2496L222.404 55.9329ZM216.695 53.8252C216.766 53.7995 216.844 53.7995 216.915 53.8252L217.678 54.0515C217.713 54.0618 217.746 54.0791 217.775 54.1024C217.803 54.1256 217.827 54.1543 217.844 54.1868C217.862 54.2193 217.873 54.2549 217.876 54.2916C217.88 54.3283 217.876 54.3654 217.865 54.4006V54.4846L216.572 54.0709V54.0192C216.587 53.9412 216.631 53.8718 216.695 53.8252ZM217.07 57.0966C217.052 57.1625 217.02 57.2239 216.977 57.277C216.934 57.3302 216.88 57.3738 216.82 57.4054C216.759 57.4369 216.693 57.4556 216.624 57.4604C216.556 57.4651 216.488 57.4557 216.423 57.4328L216.074 57.3293C216.011 57.311 215.953 57.2804 215.902 57.2394C215.851 57.1983 215.808 57.1476 215.777 57.0901C215.745 57.0335 215.726 56.9711 215.719 56.9066C215.712 56.8421 215.719 56.777 215.738 56.7151L216.384 54.4329L217.678 54.8532L217.07 57.0966Z" fill="#263238"/>
<path d="M219.708 73.0075C219.708 73.0075 220.354 70.512 224.679 69.6133C225.82 69.3079 227.03 69.3897 228.12 69.8461C229.209 70.3024 230.116 71.1073 230.699 72.1347L219.708 73.0075Z" fill="#4C4DDC"/>
<path opacity="0.5" d="M219.708 73.0075C219.708 73.0075 220.354 70.512 224.679 69.6133C225.82 69.3079 227.03 69.3897 228.12 69.8461C229.209 70.3024 230.116 71.1073 230.699 72.1347L219.708 73.0075Z" fill="white"/>
<path d="M213.411 107.331C213.411 107.331 230.944 109.497 236.543 105.217C235.534 100.73 235.176 96.1199 235.483 91.5304C236.019 84.2377 238.269 77.0419 235.871 73.0982C233.472 69.1544 215.732 72.0961 212.234 75.6842C208.736 79.2724 213.411 93.2954 213.411 107.331Z" fill="#4C4DDC"/>
<path opacity="0.2" d="M216.158 78.8069L214.71 83.1256L211.477 87.1922C211.852 90.1856 212.363 93.554 212.77 97.1098C214.477 95.2432 215.806 93.0629 216.682 90.6899C219.85 82.0588 217.328 77.2487 217.328 77.2487L216.158 78.8069Z" fill="black"/>
<path d="M219.707 59.3853C219.707 59.3853 214.535 72.2381 223.302 72.1411C232.069 72.0441 234.189 69.9106 231.843 68.1779C229.496 66.4453 237.202 60.7171 234.312 53.5278C234.312 53.5278 233.291 47.7997 227.433 47.8643C226.54 46.6827 225.224 45.8927 223.761 45.6597C223.256 45.598 222.743 45.6804 222.282 45.8975C221.821 46.1146 221.431 46.4574 221.157 46.8865C220.883 47.3156 220.735 47.8135 220.731 48.3228C220.728 48.8321 220.868 49.3321 221.136 49.7651L222.345 51.7046C222.345 51.7046 217.774 53.1916 219.707 59.3853Z" fill="#263238"/>
<path d="M215.337 75.0117C215.337 75.0117 211.031 75.9621 210.165 81.3734C209.299 86.7848 208.781 90.8837 207.204 91.4333C205.626 91.9828 198.153 85.7762 198.153 85.7762L198.398 82.1428C198.424 81.7436 198.33 81.3459 198.128 81.0004C197.927 80.6549 197.627 80.3773 197.267 80.2032L196.704 79.9252C196.355 79.7564 195.965 79.6911 195.58 79.7369C195.195 79.7827 194.832 79.9378 194.532 80.1838L194.105 80.5394C193.826 80.7706 193.613 81.0723 193.489 81.4133C193.365 81.7543 193.335 82.1222 193.401 82.479C193.692 83.9337 194.293 86.274 195.34 87.0046C195.34 87.0046 205.827 99.0622 208.949 97.8079C212.072 96.5537 214.438 88.97 215.718 85.8215C216.733 83.3389 218.027 80.5718 215.337 75.0117Z" fill="#B97964"/>
<path d="M215.609 74.307C214.438 73.557 209.564 74.4621 208.413 85.6469C208.413 85.6469 212.26 88.8795 215.906 88.4463C215.906 88.4463 220.651 77.5589 215.609 74.307Z" fill="#4C4DDC"/>
<path d="M208.167 84.574C208.167 84.574 211.936 87.8066 216.656 87.632L216.113 88.8927C216.113 88.8927 212.111 89.772 207.992 85.8282L208.167 84.574Z" fill="#4C4DDC"/>
<path opacity="0.5" d="M208.167 84.574C208.167 84.574 211.936 87.8066 216.656 87.632L216.113 88.8927C216.113 88.8927 212.111 89.772 207.992 85.8282L208.167 84.574Z" fill="white"/>
<path d="M248.542 202.111L249.053 204.121L255.454 202.899L255.234 200.908L248.542 202.111Z" fill="#4C4DDC"/>
<path d="M214.645 203.52L214.723 205.518H221.343L221.744 203.52H214.645Z" fill="#4C4DDC"/>
</g>
</svg>
