<svg width="288" height="204" viewBox="0 0 288 204" fill="none" xmlns="http://www.w3.org/2000/svg">
<mask id="mask0_1052_15909" style="mask-type:alpha" maskUnits="userSpaceOnUse" x="0" y="0" width="288" height="204">
<rect x="0.5" width="287" height="204" rx="64" fill="#EAF0FF"/>
</mask>
<g mask="url(#mask0_1052_15909)">
<rect x="0.5" y="33" width="287" height="198" rx="64" fill="#224495" fill-opacity="0.2"/>
<path d="M137.909 187.194H41.438C40.6823 187.193 39.9579 186.892 39.424 186.357C38.8901 185.822 38.5902 185.097 38.5902 184.342V48.7307C38.5968 47.9793 38.8996 47.2608 39.4328 46.7314C39.966 46.2019 40.6866 45.9042 41.438 45.9029H137.909C138.666 45.9029 139.391 46.2035 139.926 46.7385C140.461 47.2735 140.762 47.9991 140.762 48.7557V184.342C140.762 185.098 140.461 185.824 139.926 186.359C139.391 186.894 138.666 187.194 137.909 187.194ZM41.438 46.0028C40.7154 46.0041 40.0228 46.2921 39.5123 46.8036C39.0018 47.315 38.7151 48.0081 38.7151 48.7307V184.342C38.7151 185.064 39.0018 185.757 39.5123 186.269C40.0228 186.78 40.7154 187.068 41.438 187.069H137.909C138.632 187.068 139.325 186.78 139.836 186.269C140.348 185.758 140.636 185.065 140.637 184.342V48.7307C140.636 48.0076 140.348 47.3146 139.836 46.8033C139.325 46.292 138.632 46.0041 137.909 46.0028H41.438Z" fill="#EBEBEB"/>
<path d="M245.981 187.194H149.505C148.749 187.193 148.024 186.892 147.489 186.357C146.955 185.823 146.654 185.098 146.652 184.342V48.7307C146.66 47.9789 146.964 47.2604 147.498 46.7311C148.032 46.2017 148.753 45.9042 149.505 45.9029H245.981C246.732 45.9055 247.451 46.2038 247.983 46.7331C248.515 47.2625 248.817 47.9802 248.824 48.7307V184.342C248.824 185.096 248.525 185.821 247.992 186.355C247.459 186.89 246.736 187.192 245.981 187.194ZM149.505 46.0028C148.782 46.0041 148.089 46.292 147.578 46.8033C147.066 47.3146 146.779 48.0076 146.777 48.7307V184.342C146.779 185.065 147.066 185.758 147.578 186.269C148.089 186.78 148.782 187.068 149.505 187.069H245.981C246.704 187.068 247.397 186.78 247.909 186.269C248.42 185.758 248.708 185.065 248.709 184.342V48.7307C248.708 48.0076 248.42 47.3146 247.909 46.8033C247.397 46.292 246.704 46.0041 245.981 46.0028H149.505Z" fill="#EBEBEB"/>
<path d="M210.448 93.1716H175.76L170.969 97.963V204.686L175.76 209.477H210.448L215.24 204.686V97.963L210.448 93.1716Z" fill="#E0E0E0"/>
<path d="M170.969 97.963L175.76 93.1716H186.517L181.726 97.963H170.969Z" fill="#EBEBEB"/>
<path d="M229.543 93.1716H186.517L181.725 97.963V204.686L186.517 209.477H229.543C231.412 207.604 232.461 206.555 234.335 204.686V97.963L229.543 93.1716Z" fill="#EBEBEB"/>
<path d="M187.126 207.239L183.964 204.076V98.5724L187.126 95.4099H228.934L232.097 98.5724V204.076L228.934 207.239H187.126Z" fill="white"/>
<path d="M232.097 101.086H186.202V110.328H232.097V101.086Z" fill="#EBEBEB"/>
<path d="M229.504 194.744C229.503 194.824 229.526 194.903 229.57 194.97C229.613 195.037 229.676 195.09 229.75 195.121C229.824 195.152 229.905 195.161 229.984 195.146C230.063 195.131 230.136 195.093 230.193 195.037C230.25 194.98 230.289 194.908 230.305 194.829C230.321 194.751 230.313 194.669 230.283 194.595C230.252 194.521 230.2 194.457 230.134 194.412C230.067 194.368 229.989 194.344 229.908 194.344C229.802 194.344 229.7 194.386 229.624 194.461C229.548 194.536 229.505 194.637 229.504 194.744Z" fill="#F5F5F5"/>
<path d="M227.581 194.744C227.581 194.823 227.604 194.9 227.648 194.966C227.692 195.031 227.754 195.083 227.827 195.113C227.9 195.143 227.981 195.151 228.058 195.136C228.136 195.12 228.207 195.082 228.263 195.026C228.319 194.97 228.357 194.899 228.372 194.822C228.388 194.744 228.38 194.664 228.35 194.591C228.319 194.518 228.268 194.455 228.202 194.411C228.137 194.367 228.059 194.344 227.98 194.344C227.874 194.344 227.773 194.386 227.698 194.461C227.623 194.536 227.581 194.638 227.581 194.744Z" fill="white"/>
<path d="M225.652 194.744C225.652 194.823 225.675 194.9 225.719 194.966C225.763 195.031 225.826 195.083 225.899 195.113C225.972 195.143 226.052 195.151 226.13 195.136C226.207 195.12 226.278 195.082 226.334 195.026C226.39 194.97 226.428 194.899 226.444 194.822C226.459 194.744 226.451 194.664 226.421 194.591C226.391 194.518 226.34 194.455 226.274 194.411C226.208 194.367 226.131 194.344 226.052 194.344C225.946 194.344 225.844 194.386 225.769 194.461C225.694 194.536 225.652 194.638 225.652 194.744Z" fill="#F5F5F5"/>
<path d="M232.097 104.808H186.202V106.606H232.097V104.808Z" fill="#F5F5F5"/>
<path d="M183.964 110.328H186.202V101.085H183.964V110.328Z" fill="#E0E0E0"/>
<path d="M232.097 111.223H186.202V120.466H232.097V111.223Z" fill="#EBEBEB"/>
<path d="M229.504 184.606C229.503 184.687 229.526 184.765 229.57 184.833C229.613 184.9 229.676 184.952 229.75 184.984C229.824 185.015 229.905 185.024 229.984 185.009C230.063 184.994 230.136 184.956 230.193 184.899C230.25 184.843 230.289 184.771 230.305 184.692C230.321 184.614 230.313 184.532 230.283 184.458C230.252 184.383 230.2 184.32 230.134 184.275C230.067 184.231 229.989 184.207 229.908 184.207C229.802 184.207 229.7 184.249 229.624 184.323C229.548 184.398 229.505 184.5 229.504 184.606Z" fill="#F5F5F5"/>
<path d="M227.581 184.606C227.581 184.685 227.604 184.763 227.648 184.828C227.692 184.894 227.754 184.945 227.827 184.976C227.9 185.006 227.981 185.014 228.058 184.998C228.136 184.983 228.207 184.945 228.263 184.889C228.319 184.833 228.357 184.762 228.372 184.684C228.388 184.607 228.38 184.526 228.35 184.453C228.319 184.38 228.268 184.318 228.202 184.274C228.137 184.23 228.059 184.207 227.98 184.207C227.874 184.207 227.773 184.249 227.698 184.324C227.623 184.399 227.581 184.5 227.581 184.606Z" fill="white"/>
<path d="M225.652 184.606C225.652 184.685 225.675 184.763 225.719 184.828C225.763 184.894 225.826 184.945 225.899 184.976C225.972 185.006 226.052 185.014 226.13 184.998C226.207 184.983 226.278 184.945 226.334 184.889C226.39 184.833 226.428 184.762 226.444 184.684C226.459 184.607 226.451 184.526 226.421 184.453C226.391 184.38 226.34 184.318 226.274 184.274C226.208 184.23 226.131 184.207 226.052 184.207C225.946 184.207 225.844 184.249 225.769 184.324C225.694 184.399 225.652 184.5 225.652 184.606Z" fill="white"/>
<path d="M232.097 114.945H186.202V116.743H232.097V114.945Z" fill="#F5F5F5"/>
<path d="M183.964 120.466H186.202V111.223H183.964V120.466Z" fill="#E0E0E0"/>
<path d="M232.097 121.36H186.202V130.603H232.097V121.36Z" fill="#EBEBEB"/>
<path d="M229.504 174.474C229.504 174.554 229.528 174.632 229.572 174.699C229.616 174.766 229.68 174.817 229.754 174.848C229.828 174.879 229.909 174.887 229.987 174.871C230.066 174.855 230.138 174.817 230.195 174.76C230.251 174.704 230.29 174.632 230.305 174.553C230.321 174.475 230.313 174.393 230.282 174.319C230.252 174.245 230.2 174.182 230.133 174.138C230.067 174.093 229.988 174.069 229.908 174.069C229.855 174.069 229.802 174.079 229.753 174.099C229.703 174.119 229.659 174.149 229.621 174.186C229.583 174.224 229.553 174.269 229.533 174.318C229.513 174.368 229.503 174.421 229.504 174.474Z" fill="#F5F5F5"/>
<path d="M227.581 174.474C227.581 174.58 227.623 174.682 227.698 174.757C227.773 174.832 227.874 174.874 227.98 174.874C228.086 174.874 228.188 174.832 228.263 174.757C228.338 174.682 228.38 174.58 228.38 174.474C228.38 174.368 228.338 174.266 228.263 174.191C228.188 174.117 228.086 174.074 227.98 174.074C227.874 174.074 227.773 174.117 227.698 174.191C227.623 174.266 227.581 174.368 227.581 174.474Z" fill="#F5F5F5"/>
<path d="M225.652 174.474C225.653 174.553 225.677 174.63 225.722 174.695C225.766 174.76 225.829 174.81 225.902 174.84C225.975 174.869 226.056 174.877 226.133 174.861C226.21 174.845 226.281 174.806 226.336 174.75C226.392 174.694 226.429 174.623 226.444 174.545C226.459 174.468 226.451 174.388 226.421 174.315C226.39 174.242 226.339 174.18 226.273 174.137C226.208 174.093 226.131 174.069 226.052 174.069C225.999 174.069 225.946 174.08 225.898 174.1C225.849 174.121 225.805 174.151 225.767 174.188C225.73 174.226 225.701 174.271 225.681 174.32C225.661 174.369 225.651 174.421 225.652 174.474Z" fill="#F5F5F5"/>
<path d="M232.097 125.082H186.202V126.881H232.097V125.082Z" fill="#F5F5F5"/>
<path d="M183.964 130.603H186.202V121.36H183.964V130.603Z" fill="#E0E0E0"/>
<path d="M232.097 131.497H186.202V140.74H232.097V131.497Z" fill="#EBEBEB"/>
<path d="M229.504 164.337C229.504 164.417 229.528 164.495 229.572 164.562C229.616 164.628 229.68 164.68 229.754 164.711C229.828 164.741 229.909 164.749 229.987 164.734C230.066 164.718 230.138 164.68 230.195 164.623C230.251 164.566 230.29 164.494 230.305 164.416C230.321 164.337 230.313 164.256 230.282 164.182C230.252 164.108 230.2 164.045 230.133 164C230.067 163.956 229.988 163.932 229.908 163.932C229.855 163.932 229.802 163.942 229.753 163.962C229.703 163.982 229.659 164.012 229.621 164.049C229.583 164.087 229.553 164.132 229.533 164.181C229.513 164.231 229.503 164.284 229.504 164.337Z" fill="white"/>
<path d="M227.581 164.337C227.581 164.443 227.623 164.545 227.698 164.62C227.773 164.694 227.874 164.737 227.98 164.737C228.086 164.737 228.188 164.694 228.263 164.62C228.338 164.545 228.38 164.443 228.38 164.337C228.38 164.231 228.338 164.129 228.263 164.054C228.188 163.979 228.086 163.937 227.98 163.937C227.874 163.937 227.773 163.979 227.698 164.054C227.623 164.129 227.581 164.231 227.581 164.337Z" fill="white"/>
<path d="M225.652 164.337C225.653 164.416 225.677 164.492 225.722 164.558C225.766 164.623 225.829 164.673 225.902 164.703C225.975 164.732 226.056 164.739 226.133 164.723C226.21 164.707 226.281 164.669 226.336 164.613C226.392 164.557 226.429 164.485 226.444 164.408C226.459 164.331 226.451 164.251 226.421 164.178C226.39 164.105 226.339 164.043 226.273 163.999C226.208 163.956 226.131 163.932 226.052 163.932C225.999 163.932 225.946 163.943 225.898 163.963C225.849 163.983 225.805 164.013 225.767 164.051C225.73 164.089 225.701 164.133 225.681 164.182C225.661 164.231 225.651 164.284 225.652 164.337Z" fill="#F5F5F5"/>
<path d="M232.097 135.219H186.202V137.018H232.097V135.219Z" fill="#F5F5F5"/>
<path d="M183.964 140.74H186.202V131.497H183.964V140.74Z" fill="#E0E0E0"/>
<path d="M232.097 141.634H186.202V150.877H232.097V141.634Z" fill="#EBEBEB"/>
<path d="M229.504 154.2C229.504 154.28 229.528 154.358 229.572 154.425C229.616 154.491 229.68 154.543 229.754 154.574C229.828 154.604 229.909 154.612 229.987 154.597C230.066 154.581 230.138 154.542 230.195 154.486C230.251 154.429 230.29 154.357 230.305 154.279C230.321 154.2 230.313 154.119 230.282 154.045C230.252 153.971 230.2 153.908 230.133 153.863C230.067 153.819 229.988 153.795 229.908 153.795C229.855 153.794 229.802 153.804 229.753 153.824C229.703 153.845 229.659 153.874 229.621 153.912C229.583 153.95 229.553 153.995 229.533 154.044C229.513 154.093 229.503 154.146 229.504 154.2Z" fill="white"/>
<path d="M227.581 154.2C227.581 154.306 227.623 154.407 227.698 154.482C227.773 154.557 227.874 154.599 227.98 154.599C228.086 154.599 228.188 154.557 228.263 154.482C228.338 154.407 228.38 154.306 228.38 154.2C228.38 154.094 228.338 153.992 228.263 153.917C228.188 153.842 228.086 153.8 227.98 153.8C227.874 153.8 227.773 153.842 227.698 153.917C227.623 153.992 227.581 154.094 227.581 154.2Z" fill="white"/>
<path d="M225.652 154.2C225.653 154.279 225.677 154.355 225.722 154.42C225.766 154.485 225.829 154.536 225.902 154.565C225.975 154.595 226.056 154.602 226.133 154.586C226.21 154.57 226.281 154.532 226.336 154.476C226.392 154.419 226.429 154.348 226.444 154.271C226.459 154.193 226.451 154.113 226.421 154.041C226.39 153.968 226.339 153.906 226.273 153.862C226.208 153.818 226.131 153.795 226.052 153.795C225.999 153.795 225.946 153.805 225.898 153.826C225.849 153.846 225.805 153.876 225.767 153.914C225.73 153.951 225.701 153.996 225.681 154.045C225.661 154.094 225.651 154.147 225.652 154.2Z" fill="white"/>
<path d="M232.097 145.357H186.202V147.155H232.097V145.357Z" fill="#F5F5F5"/>
<path d="M183.964 150.877H186.202V141.634H183.964V150.877Z" fill="#E0E0E0"/>
<path d="M232.097 151.772H186.202V161.014H232.097V151.772Z" fill="#EBEBEB"/>
<path d="M229.504 144.063C229.515 144.161 229.562 144.253 229.636 144.319C229.71 144.386 229.806 144.422 229.906 144.422C230.005 144.422 230.102 144.386 230.176 144.319C230.25 144.253 230.297 144.161 230.308 144.063C230.297 143.964 230.25 143.872 230.176 143.806C230.102 143.739 230.005 143.703 229.906 143.703C229.806 143.703 229.71 143.739 229.636 143.806C229.562 143.872 229.515 143.964 229.504 144.063Z" fill="#F5F5F5"/>
<path d="M227.581 144.063C227.581 144.142 227.604 144.219 227.648 144.285C227.692 144.35 227.754 144.402 227.827 144.432C227.9 144.462 227.981 144.47 228.058 144.455C228.136 144.439 228.207 144.401 228.263 144.345C228.319 144.289 228.357 144.218 228.372 144.141C228.388 144.063 228.38 143.983 228.35 143.91C228.319 143.837 228.268 143.774 228.202 143.73C228.137 143.686 228.059 143.663 227.98 143.663C227.874 143.663 227.773 143.705 227.698 143.78C227.623 143.855 227.581 143.957 227.581 144.063Z" fill="white"/>
<path d="M225.652 144.063C225.652 144.142 225.675 144.219 225.719 144.285C225.763 144.35 225.826 144.402 225.899 144.432C225.972 144.462 226.052 144.47 226.13 144.455C226.207 144.439 226.278 144.401 226.334 144.345C226.39 144.289 226.428 144.218 226.444 144.141C226.459 144.063 226.451 143.983 226.421 143.91C226.391 143.837 226.34 143.774 226.274 143.73C226.208 143.686 226.131 143.663 226.052 143.663C225.946 143.663 225.844 143.705 225.769 143.78C225.694 143.855 225.652 143.957 225.652 144.063Z" fill="#F5F5F5"/>
<path d="M232.097 155.494H186.202V157.292H232.097V155.494Z" fill="#F5F5F5"/>
<path d="M183.964 161.014H186.202V151.772H183.964V161.014Z" fill="#E0E0E0"/>
<path d="M232.097 161.909H186.202V171.152H232.097V161.909Z" fill="#EBEBEB"/>
<path d="M229.504 133.925C229.503 134.006 229.526 134.084 229.57 134.152C229.613 134.219 229.676 134.271 229.75 134.303C229.824 134.334 229.905 134.343 229.984 134.328C230.063 134.313 230.136 134.275 230.193 134.218C230.25 134.162 230.289 134.09 230.305 134.011C230.321 133.933 230.313 133.851 230.283 133.777C230.252 133.702 230.2 133.639 230.134 133.594C230.067 133.55 229.989 133.526 229.908 133.526C229.856 133.525 229.803 133.535 229.754 133.555C229.705 133.574 229.66 133.604 229.623 133.641C229.585 133.678 229.555 133.722 229.535 133.771C229.514 133.82 229.504 133.872 229.504 133.925Z" fill="white"/>
<path d="M227.581 133.925C227.581 134.004 227.604 134.082 227.648 134.147C227.692 134.213 227.754 134.264 227.827 134.295C227.9 134.325 227.981 134.333 228.058 134.317C228.136 134.302 228.207 134.264 228.263 134.208C228.319 134.152 228.357 134.081 228.372 134.003C228.388 133.926 228.38 133.845 228.35 133.772C228.319 133.699 228.268 133.637 228.202 133.593C228.137 133.549 228.059 133.526 227.98 133.526C227.874 133.526 227.773 133.568 227.698 133.643C227.623 133.718 227.581 133.819 227.581 133.925Z" fill="white"/>
<path d="M225.652 133.925C225.652 134.004 225.675 134.082 225.719 134.147C225.763 134.213 225.826 134.264 225.899 134.295C225.972 134.325 226.052 134.333 226.13 134.317C226.207 134.302 226.278 134.264 226.334 134.208C226.39 134.152 226.428 134.081 226.444 134.003C226.459 133.926 226.451 133.845 226.421 133.772C226.391 133.699 226.34 133.637 226.274 133.593C226.208 133.549 226.131 133.526 226.052 133.526C225.946 133.526 225.844 133.568 225.769 133.643C225.694 133.718 225.652 133.819 225.652 133.925Z" fill="#F5F5F5"/>
<path d="M232.097 165.631H186.202V167.43H232.097V165.631Z" fill="#F5F5F5"/>
<path d="M183.964 171.152H186.202V161.909H183.964V171.152Z" fill="#E0E0E0"/>
<path d="M232.097 172.046H186.202V181.289H232.097V172.046Z" fill="#EBEBEB"/>
<path d="M229.504 123.788C229.503 123.868 229.526 123.947 229.57 124.014C229.613 124.081 229.676 124.134 229.75 124.166C229.824 124.197 229.905 124.206 229.984 124.191C230.063 124.176 230.136 124.137 230.193 124.081C230.25 124.025 230.289 123.953 230.305 123.874C230.321 123.795 230.313 123.714 230.283 123.639C230.252 123.565 230.2 123.502 230.134 123.457C230.067 123.412 229.989 123.388 229.908 123.388C229.856 123.388 229.803 123.398 229.754 123.417C229.705 123.437 229.66 123.467 229.623 123.504C229.585 123.541 229.555 123.585 229.535 123.634C229.514 123.683 229.504 123.735 229.504 123.788Z" fill="white"/>
<path d="M227.581 123.788C227.581 123.867 227.604 123.944 227.648 124.01C227.692 124.076 227.754 124.127 227.827 124.157C227.9 124.188 227.981 124.195 228.058 124.18C228.136 124.165 228.207 124.127 228.263 124.071C228.319 124.015 228.357 123.944 228.372 123.866C228.388 123.789 228.38 123.708 228.35 123.635C228.319 123.562 228.268 123.5 228.202 123.456C228.137 123.412 228.059 123.388 227.98 123.388C227.874 123.388 227.773 123.43 227.698 123.505C227.623 123.58 227.581 123.682 227.581 123.788Z" fill="#F5F5F5"/>
<path d="M225.652 123.788C225.652 123.867 225.675 123.944 225.719 124.01C225.763 124.076 225.826 124.127 225.899 124.157C225.972 124.188 226.052 124.195 226.13 124.18C226.207 124.165 226.278 124.127 226.334 124.071C226.39 124.015 226.428 123.944 226.444 123.866C226.459 123.789 226.451 123.708 226.421 123.635C226.391 123.562 226.34 123.5 226.274 123.456C226.208 123.412 226.131 123.388 226.052 123.388C225.946 123.388 225.844 123.43 225.769 123.505C225.694 123.58 225.652 123.682 225.652 123.788Z" fill="white"/>
<path d="M232.097 175.768H186.202V177.567H232.097V175.768Z" fill="#F5F5F5"/>
<path d="M183.964 181.284H186.202V172.041H183.964V181.284Z" fill="#E0E0E0"/>
<path d="M232.097 182.183H186.202V191.426H232.097V182.183Z" fill="#EBEBEB"/>
<path d="M229.504 113.651C229.503 113.731 229.526 113.81 229.57 113.877C229.613 113.944 229.676 113.997 229.75 114.028C229.824 114.06 229.905 114.068 229.984 114.053C230.063 114.038 230.136 114 230.193 113.944C230.25 113.887 230.289 113.815 230.305 113.737C230.321 113.658 230.313 113.576 230.283 113.502C230.252 113.428 230.2 113.364 230.134 113.32C230.067 113.275 229.989 113.251 229.908 113.251C229.856 113.251 229.803 113.26 229.754 113.28C229.705 113.3 229.66 113.329 229.623 113.366C229.585 113.404 229.555 113.448 229.535 113.497C229.514 113.546 229.504 113.598 229.504 113.651Z" fill="#F5F5F5"/>
<path d="M227.581 113.651C227.581 113.73 227.604 113.807 227.648 113.873C227.692 113.939 227.754 113.99 227.827 114.02C227.9 114.05 227.981 114.058 228.058 114.043C228.136 114.027 228.207 113.989 228.263 113.933C228.319 113.878 228.357 113.806 228.372 113.729C228.388 113.651 228.38 113.571 228.35 113.498C228.319 113.425 228.268 113.362 228.202 113.319C228.137 113.275 228.059 113.251 227.98 113.251C227.874 113.251 227.773 113.293 227.698 113.368C227.623 113.443 227.581 113.545 227.581 113.651Z" fill="white"/>
<path d="M225.652 113.651C225.652 113.73 225.675 113.807 225.719 113.873C225.763 113.939 225.826 113.99 225.899 114.02C225.972 114.05 226.052 114.058 226.13 114.043C226.207 114.027 226.278 113.989 226.334 113.933C226.39 113.878 226.428 113.806 226.444 113.729C226.459 113.651 226.451 113.571 226.421 113.498C226.391 113.425 226.34 113.362 226.274 113.319C226.208 113.275 226.131 113.251 226.052 113.251C225.946 113.251 225.844 113.293 225.769 113.368C225.694 113.443 225.652 113.545 225.652 113.651Z" fill="#F5F5F5"/>
<path d="M232.097 185.905H186.202V187.704H232.097V185.905Z" fill="#F5F5F5"/>
<path d="M183.964 191.421H186.202V182.178H183.964V191.421Z" fill="#E0E0E0"/>
<path d="M232.097 192.32H186.202V201.563H232.097V192.32Z" fill="#EBEBEB"/>
<path d="M229.504 103.514C229.503 103.594 229.526 103.673 229.57 103.74C229.613 103.807 229.676 103.86 229.75 103.891C229.824 103.922 229.905 103.931 229.984 103.916C230.063 103.901 230.136 103.863 230.193 103.807C230.25 103.75 230.289 103.678 230.305 103.599C230.321 103.521 230.313 103.439 230.283 103.365C230.252 103.291 230.2 103.227 230.134 103.182C230.067 103.138 229.989 103.114 229.908 103.114C229.856 103.113 229.803 103.123 229.754 103.143C229.705 103.163 229.66 103.192 229.623 103.229C229.585 103.266 229.555 103.311 229.535 103.359C229.514 103.408 229.504 103.461 229.504 103.514Z" fill="#F5F5F5"/>
<path d="M227.581 103.514C227.581 103.593 227.604 103.67 227.648 103.736C227.692 103.801 227.754 103.853 227.827 103.883C227.9 103.913 227.981 103.921 228.058 103.906C228.136 103.89 228.207 103.852 228.263 103.796C228.319 103.74 228.357 103.669 228.372 103.592C228.388 103.514 228.38 103.434 228.35 103.361C228.319 103.288 228.268 103.225 228.202 103.181C228.137 103.137 228.059 103.114 227.98 103.114C227.874 103.114 227.773 103.156 227.698 103.231C227.623 103.306 227.581 103.408 227.581 103.514Z" fill="#F5F5F5"/>
<path d="M225.652 103.514C225.652 103.593 225.675 103.67 225.719 103.736C225.763 103.801 225.826 103.853 225.899 103.883C225.972 103.913 226.052 103.921 226.13 103.906C226.207 103.89 226.278 103.852 226.334 103.796C226.39 103.74 226.428 103.669 226.444 103.592C226.459 103.514 226.451 103.434 226.421 103.361C226.391 103.288 226.34 103.225 226.274 103.181C226.208 103.137 226.131 103.114 226.052 103.114C225.946 103.114 225.844 103.156 225.769 103.231C225.694 103.306 225.652 103.408 225.652 103.514Z" fill="white"/>
<path d="M232.097 196.043H186.202V197.841H232.097V196.043Z" fill="#F5F5F5"/>
<path d="M183.964 201.558H186.202V192.316H183.964V201.558Z" fill="#E0E0E0"/>
<path d="M152.203 93.1716H117.514L112.718 97.963V204.686L117.514 209.477H152.203L156.994 204.686V97.963L152.203 93.1716Z" fill="#E0E0E0"/>
<path d="M112.724 97.963L117.515 93.1716H128.272L123.48 97.963H112.724Z" fill="#EBEBEB"/>
<path d="M171.293 93.1716H128.271L123.48 97.963V204.686L128.271 209.477H171.293L176.089 204.686V97.963L171.293 93.1716Z" fill="#EBEBEB"/>
<path d="M128.88 207.239L125.718 204.076V98.5724L128.88 95.4099H170.683L173.851 98.5724V204.076L170.683 207.239H128.88Z" fill="white"/>
<path d="M173.851 101.086H127.957V110.328H173.851V101.086Z" fill="#EBEBEB"/>
<path d="M171.258 103.514C171.258 103.435 171.282 103.357 171.326 103.291C171.37 103.226 171.432 103.175 171.505 103.144C171.578 103.114 171.659 103.106 171.736 103.122C171.814 103.137 171.885 103.175 171.941 103.231C171.997 103.287 172.035 103.358 172.05 103.436C172.065 103.513 172.058 103.593 172.027 103.667C171.997 103.74 171.946 103.802 171.88 103.846C171.814 103.89 171.737 103.913 171.658 103.913C171.552 103.913 171.45 103.871 171.375 103.796C171.3 103.721 171.258 103.62 171.258 103.514Z" fill="#F5F5F5"/>
<path d="M169.33 103.514C169.329 103.433 169.352 103.354 169.396 103.287C169.44 103.22 169.503 103.167 169.577 103.136C169.652 103.104 169.733 103.096 169.812 103.112C169.891 103.127 169.964 103.166 170.021 103.223C170.078 103.279 170.116 103.352 170.132 103.431C170.147 103.51 170.139 103.592 170.107 103.666C170.076 103.74 170.024 103.803 169.956 103.847C169.889 103.891 169.81 103.914 169.73 103.913C169.677 103.913 169.625 103.903 169.577 103.883C169.528 103.863 169.484 103.833 169.447 103.796C169.41 103.759 169.38 103.715 169.36 103.667C169.34 103.618 169.33 103.566 169.33 103.514Z" fill="white"/>
<path d="M167.387 103.514C167.386 103.433 167.409 103.354 167.453 103.287C167.497 103.22 167.56 103.167 167.634 103.136C167.708 103.104 167.79 103.096 167.869 103.112C167.948 103.127 168.021 103.166 168.077 103.223C168.134 103.279 168.173 103.352 168.188 103.431C168.204 103.51 168.195 103.592 168.164 103.666C168.133 103.74 168.08 103.803 168.013 103.847C167.946 103.891 167.867 103.914 167.786 103.913C167.68 103.913 167.579 103.871 167.504 103.796C167.429 103.721 167.387 103.62 167.387 103.514Z" fill="#F5F5F5"/>
<path d="M173.851 104.808H127.957V106.606H173.851V104.808Z" fill="#F5F5F5"/>
<path d="M125.714 110.328H127.952V101.085H125.714V110.328Z" fill="#E0E0E0"/>
<path d="M173.851 111.223H127.957V120.466H173.851V111.223Z" fill="#EBEBEB"/>
<path d="M171.258 113.651C171.258 113.572 171.282 113.495 171.326 113.429C171.37 113.363 171.432 113.312 171.505 113.282C171.578 113.251 171.659 113.243 171.736 113.259C171.814 113.274 171.885 113.312 171.941 113.368C171.997 113.424 172.035 113.495 172.05 113.573C172.065 113.65 172.058 113.731 172.027 113.804C171.997 113.877 171.946 113.939 171.88 113.983C171.814 114.027 171.737 114.051 171.658 114.051C171.552 114.051 171.45 114.008 171.375 113.933C171.3 113.859 171.258 113.757 171.258 113.651Z" fill="#F5F5F5"/>
<path d="M169.33 113.651C169.329 113.57 169.352 113.492 169.396 113.424C169.44 113.357 169.503 113.304 169.577 113.273C169.652 113.242 169.733 113.233 169.812 113.249C169.891 113.264 169.964 113.303 170.021 113.36C170.078 113.417 170.116 113.489 170.132 113.568C170.147 113.647 170.139 113.729 170.107 113.803C170.076 113.877 170.024 113.94 169.956 113.985C169.889 114.029 169.81 114.052 169.73 114.051C169.677 114.051 169.625 114.04 169.577 114.02C169.528 114 169.484 113.971 169.447 113.934C169.41 113.896 169.38 113.852 169.36 113.804C169.34 113.755 169.33 113.703 169.33 113.651Z" fill="white"/>
<path d="M167.387 113.651C167.386 113.57 167.409 113.492 167.453 113.424C167.497 113.357 167.56 113.304 167.634 113.273C167.708 113.242 167.79 113.233 167.869 113.249C167.948 113.264 168.021 113.303 168.077 113.36C168.134 113.417 168.173 113.489 168.188 113.568C168.204 113.647 168.195 113.729 168.164 113.803C168.133 113.877 168.08 113.94 168.013 113.985C167.946 114.029 167.867 114.052 167.786 114.051C167.68 114.051 167.579 114.009 167.504 113.934C167.429 113.859 167.387 113.757 167.387 113.651Z" fill="white"/>
<path d="M173.851 114.945H127.957V116.743H173.851V114.945Z" fill="#F5F5F5"/>
<path d="M125.714 120.466H127.952V111.223H125.714V120.466Z" fill="#E0E0E0"/>
<path d="M173.851 121.36H127.957V130.603H173.851V121.36Z" fill="#EBEBEB"/>
<path d="M171.258 123.788C171.258 123.709 171.282 123.632 171.326 123.566C171.37 123.5 171.432 123.449 171.505 123.419C171.578 123.389 171.659 123.381 171.736 123.396C171.814 123.411 171.885 123.45 171.941 123.505C171.997 123.561 172.035 123.633 172.05 123.71C172.065 123.788 172.058 123.868 172.027 123.941C171.997 124.014 171.946 124.076 171.88 124.12C171.814 124.164 171.737 124.188 171.658 124.188C171.552 124.188 171.45 124.146 171.375 124.071C171.3 123.996 171.258 123.894 171.258 123.788Z" fill="#F5F5F5"/>
<path d="M169.33 123.788C169.329 123.708 169.352 123.629 169.396 123.561C169.44 123.494 169.503 123.441 169.577 123.41C169.652 123.379 169.733 123.37 169.812 123.386C169.891 123.401 169.964 123.44 170.021 123.497C170.078 123.554 170.116 123.626 170.132 123.705C170.147 123.784 170.139 123.866 170.107 123.94C170.076 124.014 170.024 124.078 169.956 124.122C169.889 124.166 169.81 124.189 169.73 124.188C169.677 124.188 169.625 124.177 169.577 124.157C169.528 124.137 169.484 124.108 169.447 124.071C169.41 124.034 169.38 123.99 169.36 123.941C169.34 123.893 169.33 123.841 169.33 123.788Z" fill="#F5F5F5"/>
<path d="M167.387 123.788C167.386 123.708 167.409 123.629 167.453 123.561C167.497 123.494 167.56 123.441 167.634 123.41C167.708 123.379 167.79 123.37 167.869 123.386C167.948 123.401 168.021 123.44 168.077 123.497C168.134 123.554 168.173 123.626 168.188 123.705C168.204 123.784 168.195 123.866 168.164 123.94C168.133 124.014 168.08 124.078 168.013 124.122C167.946 124.166 167.867 124.189 167.786 124.188C167.68 124.188 167.579 124.146 167.504 124.071C167.429 123.996 167.387 123.894 167.387 123.788Z" fill="#F5F5F5"/>
<path d="M173.851 125.082H127.957V126.881H173.851V125.082Z" fill="#F5F5F5"/>
<path d="M125.714 130.603H127.952V121.36H125.714V130.603Z" fill="#E0E0E0"/>
<path d="M173.851 131.497H127.957V140.74H173.851V131.497Z" fill="#EBEBEB"/>
<path d="M171.258 133.925C171.258 133.846 171.282 133.769 171.326 133.703C171.37 133.638 171.432 133.586 171.505 133.556C171.578 133.526 171.659 133.518 171.736 133.533C171.814 133.549 171.885 133.587 171.941 133.643C171.997 133.699 172.035 133.77 172.05 133.847C172.065 133.925 172.058 134.005 172.027 134.078C171.997 134.151 171.946 134.214 171.88 134.258C171.814 134.302 171.737 134.325 171.658 134.325C171.552 134.325 171.45 134.283 171.375 134.208C171.3 134.133 171.258 134.031 171.258 133.925Z" fill="white"/>
<path d="M169.33 133.925C169.329 133.845 169.352 133.766 169.396 133.699C169.44 133.631 169.503 133.579 169.577 133.547C169.652 133.516 169.733 133.508 169.812 133.523C169.891 133.539 169.964 133.577 170.021 133.634C170.078 133.691 170.116 133.764 170.132 133.843C170.147 133.922 170.139 134.003 170.107 134.077C170.076 134.152 170.024 134.215 169.956 134.259C169.889 134.303 169.81 134.326 169.73 134.325C169.677 134.325 169.625 134.315 169.577 134.295C169.528 134.274 169.484 134.245 169.447 134.208C169.41 134.171 169.38 134.127 169.36 134.078C169.34 134.03 169.33 133.978 169.33 133.925Z" fill="white"/>
<path d="M167.387 133.925C167.386 133.845 167.409 133.766 167.453 133.699C167.497 133.631 167.56 133.579 167.634 133.547C167.708 133.516 167.79 133.508 167.869 133.523C167.948 133.539 168.021 133.577 168.077 133.634C168.134 133.691 168.173 133.764 168.188 133.843C168.204 133.922 168.195 134.003 168.164 134.077C168.133 134.152 168.08 134.215 168.013 134.259C167.946 134.303 167.867 134.326 167.786 134.325C167.68 134.325 167.579 134.283 167.504 134.208C167.429 134.133 167.387 134.031 167.387 133.925Z" fill="#F5F5F5"/>
<path d="M173.851 135.219H127.957V137.018H173.851V135.219Z" fill="#F5F5F5"/>
<path d="M125.714 140.74H127.952V131.497H125.714V140.74Z" fill="#E0E0E0"/>
<path d="M173.851 141.634H127.957V150.877H173.851V141.634Z" fill="#EBEBEB"/>
<path d="M171.258 144.063C171.258 143.984 171.282 143.906 171.326 143.841C171.37 143.775 171.432 143.724 171.505 143.693C171.578 143.663 171.659 143.655 171.736 143.671C171.814 143.686 171.885 143.724 171.941 143.78C171.997 143.836 172.035 143.907 172.05 143.985C172.065 144.062 172.058 144.142 172.027 144.216C171.997 144.289 171.946 144.351 171.88 144.395C171.814 144.439 171.737 144.462 171.658 144.462C171.552 144.462 171.45 144.42 171.375 144.345C171.3 144.27 171.258 144.169 171.258 144.063Z" fill="white"/>
<path d="M169.33 144.063C169.341 143.964 169.388 143.872 169.462 143.806C169.536 143.739 169.632 143.703 169.732 143.703C169.832 143.703 169.928 143.739 170.002 143.806C170.076 143.872 170.123 143.964 170.134 144.063C170.123 144.161 170.076 144.253 170.002 144.319C169.928 144.386 169.832 144.422 169.732 144.422C169.632 144.422 169.536 144.386 169.462 144.319C169.388 144.253 169.341 144.161 169.33 144.063Z" fill="white"/>
<path d="M167.387 144.063C167.398 143.964 167.445 143.872 167.519 143.806C167.593 143.739 167.689 143.703 167.789 143.703C167.888 143.703 167.984 143.739 168.059 143.806C168.133 143.872 168.18 143.964 168.191 144.063C168.18 144.161 168.133 144.253 168.059 144.319C167.984 144.386 167.888 144.422 167.789 144.422C167.689 144.422 167.593 144.386 167.519 144.319C167.445 144.253 167.398 144.161 167.387 144.063Z" fill="white"/>
<path d="M173.851 145.357H127.957V147.155H173.851V145.357Z" fill="#F5F5F5"/>
<path d="M125.714 150.877H127.952V141.634H125.714V150.877Z" fill="#E0E0E0"/>
<path d="M173.851 151.772H127.957V161.014H173.851V151.772Z" fill="#EBEBEB"/>
<path d="M171.258 154.2C171.258 154.121 171.282 154.043 171.326 153.978C171.37 153.912 171.432 153.861 171.505 153.83C171.578 153.8 171.659 153.792 171.736 153.808C171.814 153.823 171.885 153.861 171.941 153.917C171.997 153.973 172.035 154.044 172.05 154.122C172.065 154.199 172.058 154.28 172.027 154.353C171.997 154.426 171.946 154.488 171.88 154.532C171.814 154.576 171.737 154.599 171.658 154.599C171.552 154.599 171.45 154.557 171.375 154.482C171.3 154.407 171.258 154.306 171.258 154.2Z" fill="#F5F5F5"/>
<path d="M169.33 154.2C169.329 154.119 169.352 154.04 169.396 153.973C169.44 153.906 169.503 153.853 169.577 153.822C169.652 153.791 169.733 153.782 169.812 153.798C169.891 153.813 169.964 153.852 170.021 153.909C170.078 153.965 170.116 154.038 170.132 154.117C170.147 154.196 170.139 154.278 170.107 154.352C170.076 154.426 170.024 154.489 169.956 154.533C169.889 154.577 169.81 154.6 169.73 154.599C169.677 154.599 169.625 154.589 169.577 154.569C169.528 154.549 169.484 154.519 169.447 154.482C169.41 154.445 169.38 154.401 169.36 154.353C169.34 154.304 169.33 154.252 169.33 154.2Z" fill="white"/>
<path d="M167.387 154.2C167.386 154.119 167.409 154.04 167.453 153.973C167.497 153.906 167.56 153.853 167.634 153.822C167.708 153.791 167.79 153.782 167.869 153.798C167.948 153.813 168.021 153.852 168.077 153.909C168.134 153.965 168.173 154.038 168.188 154.117C168.204 154.196 168.195 154.278 168.164 154.352C168.133 154.426 168.08 154.489 168.013 154.533C167.946 154.577 167.867 154.6 167.786 154.599C167.68 154.599 167.579 154.557 167.504 154.482C167.429 154.407 167.387 154.306 167.387 154.2Z" fill="#F5F5F5"/>
<path d="M173.851 155.494H127.957V157.292H173.851V155.494Z" fill="#F5F5F5"/>
<path d="M125.714 161.014H127.952V151.772H125.714V161.014Z" fill="#E0E0E0"/>
<path d="M173.851 161.909H127.957V171.152H173.851V161.909Z" fill="#EBEBEB"/>
<path d="M171.258 164.337C171.258 164.258 171.282 164.181 171.326 164.115C171.37 164.049 171.432 163.998 171.505 163.968C171.578 163.937 171.659 163.929 171.736 163.945C171.814 163.96 171.885 163.998 171.941 164.054C171.997 164.11 172.035 164.181 172.05 164.259C172.065 164.336 172.058 164.417 172.027 164.49C171.997 164.563 171.946 164.625 171.88 164.669C171.814 164.713 171.737 164.737 171.658 164.737C171.552 164.737 171.45 164.694 171.375 164.62C171.3 164.545 171.258 164.443 171.258 164.337Z" fill="white"/>
<path d="M169.33 164.337C169.329 164.256 169.352 164.178 169.396 164.11C169.44 164.043 169.503 163.99 169.577 163.959C169.652 163.928 169.733 163.919 169.812 163.935C169.891 163.95 169.964 163.989 170.021 164.046C170.078 164.103 170.116 164.175 170.132 164.254C170.147 164.333 170.139 164.415 170.107 164.489C170.076 164.563 170.024 164.626 169.956 164.67C169.889 164.715 169.81 164.738 169.73 164.737C169.677 164.737 169.625 164.726 169.577 164.706C169.528 164.686 169.484 164.657 169.447 164.62C169.41 164.582 169.38 164.538 169.36 164.49C169.34 164.441 169.33 164.389 169.33 164.337Z" fill="white"/>
<path d="M167.387 164.337C167.386 164.256 167.409 164.178 167.453 164.11C167.497 164.043 167.56 163.99 167.634 163.959C167.708 163.928 167.79 163.919 167.869 163.935C167.948 163.95 168.021 163.989 168.077 164.046C168.134 164.103 168.173 164.175 168.188 164.254C168.204 164.333 168.195 164.415 168.164 164.489C168.133 164.563 168.08 164.626 168.013 164.67C167.946 164.715 167.867 164.738 167.786 164.737C167.68 164.737 167.579 164.694 167.504 164.62C167.429 164.545 167.387 164.443 167.387 164.337Z" fill="#F5F5F5"/>
<path d="M173.851 165.631H127.957V167.43H173.851V165.631Z" fill="#F5F5F5"/>
<path d="M125.714 171.152H127.952V161.909H125.714V171.152Z" fill="#E0E0E0"/>
<path d="M173.851 172.046H127.957V181.289H173.851V172.046Z" fill="#EBEBEB"/>
<path d="M171.258 174.474C171.258 174.395 171.282 174.318 171.326 174.252C171.37 174.186 171.432 174.135 171.505 174.105C171.578 174.075 171.659 174.067 171.736 174.082C171.814 174.098 171.885 174.136 171.941 174.192C171.997 174.247 172.035 174.319 172.05 174.396C172.065 174.474 172.058 174.554 172.027 174.627C171.997 174.7 171.946 174.763 171.88 174.806C171.814 174.85 171.737 174.874 171.658 174.874C171.552 174.874 171.45 174.832 171.375 174.757C171.3 174.682 171.258 174.58 171.258 174.474Z" fill="white"/>
<path d="M169.33 174.474C169.329 174.394 169.352 174.315 169.396 174.247C169.44 174.18 169.503 174.127 169.577 174.096C169.652 174.065 169.733 174.057 169.812 174.072C169.891 174.087 169.964 174.126 170.021 174.183C170.078 174.24 170.116 174.312 170.132 174.391C170.147 174.47 170.139 174.552 170.107 174.626C170.076 174.7 170.024 174.764 169.956 174.808C169.889 174.852 169.81 174.875 169.73 174.874C169.677 174.874 169.625 174.863 169.577 174.843C169.528 174.823 169.484 174.794 169.447 174.757C169.41 174.72 169.38 174.676 169.36 174.627C169.34 174.579 169.33 174.527 169.33 174.474Z" fill="#F5F5F5"/>
<path d="M167.387 174.474C167.386 174.394 167.409 174.315 167.453 174.247C167.497 174.18 167.56 174.127 167.634 174.096C167.708 174.065 167.79 174.057 167.869 174.072C167.948 174.087 168.021 174.126 168.077 174.183C168.134 174.24 168.173 174.312 168.188 174.391C168.204 174.47 168.195 174.552 168.164 174.626C168.133 174.7 168.08 174.764 168.013 174.808C167.946 174.852 167.867 174.875 167.786 174.874C167.68 174.874 167.579 174.832 167.504 174.757C167.429 174.682 167.387 174.58 167.387 174.474Z" fill="white"/>
<path d="M173.851 175.768H127.957V177.567H173.851V175.768Z" fill="#F5F5F5"/>
<path d="M125.714 181.284H127.952V172.041H125.714V181.284Z" fill="#E0E0E0"/>
<path d="M173.851 182.183H127.957V191.426H173.851V182.183Z" fill="#EBEBEB"/>
<path d="M171.258 184.606C171.259 184.528 171.284 184.451 171.328 184.386C171.373 184.321 171.435 184.27 171.509 184.241C171.582 184.211 171.662 184.204 171.739 184.22C171.816 184.236 171.887 184.274 171.942 184.33C171.998 184.387 172.035 184.458 172.05 184.535C172.065 184.613 172.057 184.693 172.027 184.765C171.996 184.838 171.945 184.9 171.88 184.944C171.814 184.988 171.737 185.011 171.658 185.011C171.605 185.011 171.553 185.001 171.504 184.98C171.455 184.96 171.411 184.93 171.374 184.892C171.336 184.855 171.307 184.81 171.287 184.761C171.268 184.712 171.258 184.659 171.258 184.606Z" fill="#F5F5F5"/>
<path d="M169.33 184.606C169.33 184.526 169.354 184.448 169.398 184.381C169.443 184.314 169.507 184.262 169.581 184.232C169.655 184.202 169.737 184.194 169.815 184.21C169.894 184.226 169.966 184.265 170.022 184.322C170.079 184.379 170.117 184.452 170.132 184.53C170.147 184.609 170.138 184.691 170.107 184.765C170.076 184.839 170.023 184.901 169.956 184.945C169.889 184.989 169.81 185.012 169.73 185.011C169.677 185.011 169.624 185.001 169.575 184.98C169.527 184.96 169.482 184.93 169.445 184.892C169.408 184.855 169.379 184.81 169.359 184.761C169.339 184.712 169.329 184.659 169.33 184.606Z" fill="white"/>
<path d="M167.387 184.606C167.387 184.526 167.411 184.448 167.455 184.381C167.5 184.314 167.563 184.262 167.638 184.232C167.712 184.202 167.793 184.194 167.872 184.21C167.951 184.226 168.023 184.265 168.079 184.322C168.136 184.379 168.174 184.452 168.189 184.53C168.204 184.609 168.195 184.691 168.164 184.765C168.132 184.839 168.08 184.901 168.013 184.945C167.945 184.989 167.867 185.012 167.786 185.011C167.733 185.011 167.681 185.001 167.632 184.98C167.583 184.96 167.539 184.93 167.502 184.892C167.465 184.855 167.435 184.81 167.416 184.761C167.396 184.712 167.386 184.659 167.387 184.606Z" fill="#F5F5F5"/>
<path d="M173.851 185.905H127.957V187.704H173.851V185.905Z" fill="#F5F5F5"/>
<path d="M125.714 191.421H127.952V182.178H125.714V191.421Z" fill="#E0E0E0"/>
<path d="M173.851 192.32H127.957V201.563H173.851V192.32Z" fill="#EBEBEB"/>
<path d="M171.258 194.744C171.259 194.665 171.284 194.588 171.328 194.523C171.373 194.458 171.435 194.407 171.509 194.378C171.582 194.348 171.662 194.341 171.739 194.357C171.816 194.373 171.887 194.412 171.942 194.468C171.998 194.524 172.035 194.595 172.05 194.672C172.065 194.75 172.057 194.83 172.027 194.903C171.996 194.975 171.945 195.038 171.88 195.081C171.814 195.125 171.737 195.148 171.658 195.148C171.605 195.148 171.553 195.138 171.504 195.117C171.455 195.097 171.411 195.067 171.374 195.029C171.336 194.992 171.307 194.947 171.287 194.898C171.268 194.849 171.258 194.796 171.258 194.744Z" fill="#F5F5F5"/>
<path d="M169.33 194.743C169.33 194.663 169.354 194.585 169.398 194.518C169.443 194.451 169.507 194.4 169.581 194.369C169.655 194.339 169.737 194.331 169.815 194.347C169.894 194.363 169.966 194.402 170.022 194.459C170.079 194.516 170.117 194.589 170.132 194.668C170.147 194.746 170.138 194.828 170.107 194.902C170.076 194.976 170.023 195.039 169.956 195.082C169.889 195.126 169.81 195.149 169.73 195.148C169.677 195.148 169.624 195.138 169.575 195.117C169.527 195.097 169.482 195.067 169.445 195.029C169.408 194.992 169.379 194.947 169.359 194.898C169.339 194.849 169.329 194.796 169.33 194.743Z" fill="#F5F5F5"/>
<path d="M167.387 194.743C167.387 194.663 167.411 194.585 167.455 194.518C167.5 194.451 167.563 194.4 167.638 194.369C167.712 194.339 167.793 194.331 167.872 194.347C167.951 194.363 168.023 194.402 168.079 194.459C168.136 194.516 168.174 194.589 168.189 194.668C168.204 194.746 168.195 194.828 168.164 194.902C168.132 194.976 168.08 195.039 168.013 195.082C167.945 195.126 167.867 195.149 167.786 195.148C167.733 195.148 167.681 195.138 167.632 195.117C167.583 195.097 167.539 195.067 167.502 195.029C167.465 194.992 167.435 194.947 167.416 194.898C167.396 194.849 167.386 194.796 167.387 194.743Z" fill="white"/>
<path d="M173.851 196.043H127.957V197.841H173.851V196.043Z" fill="#F5F5F5"/>
<path d="M125.714 201.558H127.952V192.316H125.714V201.558Z" fill="#E0E0E0"/>
<path d="M93.943 93.1716H59.2646L54.4733 97.963V204.686L59.2646 209.477H93.943L98.7393 204.686V97.963L93.943 93.1716Z" fill="#E0E0E0"/>
<path d="M54.4733 97.963L59.2646 93.1716H70.0264L65.2301 97.963H54.4733Z" fill="#EBEBEB"/>
<path d="M113.048 93.1716H70.021L65.2297 97.963V204.686L70.021 209.477H113.048L117.839 204.686V97.963L113.048 93.1716Z" fill="#EBEBEB"/>
<path d="M70.6359 207.239L67.4683 204.076V98.5724L70.6359 95.4099H112.439L115.601 98.5724V204.076L112.439 207.239H70.6359Z" fill="white"/>
<path d="M115.601 101.086H69.7065V110.328H115.601V101.086Z" fill="#EBEBEB"/>
<path d="M113.008 194.744C113.007 194.824 113.03 194.903 113.074 194.97C113.118 195.037 113.181 195.09 113.255 195.121C113.328 195.152 113.41 195.161 113.489 195.146C113.568 195.131 113.64 195.093 113.697 195.037C113.754 194.98 113.793 194.908 113.809 194.829C113.825 194.751 113.818 194.669 113.787 194.595C113.757 194.521 113.705 194.457 113.638 194.412C113.572 194.368 113.493 194.344 113.413 194.344C113.306 194.344 113.204 194.386 113.128 194.461C113.053 194.536 113.01 194.637 113.008 194.744Z" fill="#F5F5F5"/>
<path d="M111.085 194.744C111.085 194.823 111.108 194.9 111.152 194.966C111.196 195.031 111.259 195.083 111.332 195.113C111.405 195.143 111.485 195.151 111.563 195.136C111.64 195.12 111.711 195.082 111.767 195.026C111.823 194.97 111.861 194.899 111.877 194.822C111.892 194.744 111.884 194.664 111.854 194.591C111.824 194.518 111.772 194.455 111.707 194.411C111.641 194.367 111.564 194.344 111.485 194.344C111.432 194.344 111.38 194.354 111.332 194.374C111.283 194.394 111.239 194.424 111.202 194.461C111.165 194.498 111.135 194.542 111.115 194.591C111.095 194.639 111.085 194.691 111.085 194.744Z" fill="white"/>
<path d="M109.156 194.744C109.156 194.823 109.179 194.9 109.223 194.966C109.267 195.031 109.33 195.083 109.403 195.113C109.476 195.143 109.556 195.151 109.634 195.136C109.711 195.12 109.782 195.082 109.838 195.026C109.894 194.97 109.932 194.899 109.948 194.822C109.963 194.744 109.955 194.664 109.925 194.591C109.895 194.518 109.843 194.455 109.778 194.411C109.712 194.367 109.635 194.344 109.556 194.344C109.45 194.344 109.348 194.386 109.273 194.461C109.198 194.536 109.156 194.638 109.156 194.744Z" fill="#F5F5F5"/>
<path d="M115.601 104.808H69.7065V106.606H115.601V104.808Z" fill="#F5F5F5"/>
<path d="M67.4682 110.328H69.7065V101.085H67.4682V110.328Z" fill="#E0E0E0"/>
<path d="M115.601 111.223H69.7065V120.466H115.601V111.223Z" fill="#EBEBEB"/>
<path d="M113.008 184.606C113.007 184.687 113.03 184.765 113.074 184.833C113.118 184.9 113.181 184.952 113.255 184.984C113.328 185.015 113.41 185.024 113.489 185.009C113.568 184.994 113.64 184.956 113.697 184.899C113.754 184.843 113.793 184.771 113.809 184.692C113.825 184.614 113.818 184.532 113.787 184.458C113.757 184.383 113.705 184.32 113.638 184.275C113.572 184.231 113.493 184.207 113.413 184.207C113.306 184.207 113.204 184.249 113.128 184.323C113.053 184.398 113.01 184.5 113.008 184.606Z" fill="#F5F5F5"/>
<path d="M111.085 184.606C111.085 184.685 111.108 184.763 111.152 184.828C111.196 184.894 111.259 184.945 111.332 184.976C111.405 185.006 111.485 185.014 111.563 184.998C111.64 184.983 111.711 184.945 111.767 184.889C111.823 184.833 111.861 184.762 111.877 184.684C111.892 184.607 111.884 184.526 111.854 184.453C111.824 184.38 111.772 184.318 111.707 184.274C111.641 184.23 111.564 184.207 111.485 184.207C111.432 184.207 111.38 184.217 111.332 184.237C111.283 184.257 111.239 184.287 111.202 184.324C111.165 184.361 111.135 184.405 111.115 184.453C111.095 184.502 111.085 184.554 111.085 184.606Z" fill="white"/>
<path d="M109.156 184.606C109.156 184.685 109.179 184.763 109.223 184.828C109.267 184.894 109.33 184.945 109.403 184.976C109.476 185.006 109.556 185.014 109.634 184.998C109.711 184.983 109.782 184.945 109.838 184.889C109.894 184.833 109.932 184.762 109.948 184.684C109.963 184.607 109.955 184.526 109.925 184.453C109.895 184.38 109.843 184.318 109.778 184.274C109.712 184.23 109.635 184.207 109.556 184.207C109.45 184.207 109.348 184.249 109.273 184.324C109.198 184.399 109.156 184.5 109.156 184.606Z" fill="white"/>
<path d="M115.601 114.945H69.7065V116.743H115.601V114.945Z" fill="#F5F5F5"/>
<path d="M67.4682 120.466H69.7065V111.223H67.4682V120.466Z" fill="#E0E0E0"/>
<path d="M115.601 121.36H69.7065V130.603H115.601V121.36Z" fill="#EBEBEB"/>
<path d="M113.008 174.474C113.008 174.554 113.032 174.632 113.076 174.699C113.121 174.766 113.184 174.817 113.258 174.848C113.332 174.879 113.413 174.887 113.492 174.871C113.57 174.855 113.642 174.817 113.699 174.76C113.756 174.704 113.794 174.632 113.81 174.553C113.825 174.475 113.817 174.393 113.787 174.319C113.756 174.245 113.704 174.182 113.638 174.138C113.571 174.093 113.493 174.069 113.413 174.069C113.36 174.069 113.307 174.079 113.257 174.099C113.208 174.119 113.163 174.149 113.125 174.186C113.088 174.224 113.058 174.269 113.038 174.318C113.018 174.368 113.008 174.421 113.008 174.474Z" fill="#F5F5F5"/>
<path d="M111.085 174.474C111.085 174.58 111.127 174.682 111.202 174.757C111.277 174.832 111.379 174.874 111.485 174.874C111.591 174.874 111.692 174.832 111.767 174.757C111.842 174.682 111.884 174.58 111.884 174.474C111.884 174.368 111.842 174.266 111.767 174.191C111.692 174.117 111.591 174.074 111.485 174.074C111.379 174.074 111.277 174.117 111.202 174.191C111.127 174.266 111.085 174.368 111.085 174.474Z" fill="#F5F5F5"/>
<path d="M109.156 174.474C109.157 174.553 109.181 174.63 109.226 174.695C109.27 174.76 109.333 174.81 109.406 174.84C109.479 174.869 109.559 174.877 109.637 174.861C109.714 174.845 109.785 174.806 109.84 174.75C109.895 174.694 109.933 174.623 109.948 174.545C109.963 174.468 109.955 174.388 109.924 174.315C109.894 174.242 109.843 174.18 109.777 174.137C109.712 174.093 109.634 174.069 109.556 174.069C109.503 174.069 109.45 174.08 109.401 174.1C109.353 174.121 109.308 174.151 109.271 174.188C109.234 174.226 109.205 174.271 109.185 174.32C109.165 174.369 109.155 174.421 109.156 174.474Z" fill="#F5F5F5"/>
<path d="M115.601 125.082H69.7065V126.881H115.601V125.082Z" fill="#F5F5F5"/>
<path d="M67.4682 130.603H69.7065V121.36H67.4682V130.603Z" fill="#E0E0E0"/>
<path d="M115.601 131.497H69.7065V140.74H115.601V131.497Z" fill="#EBEBEB"/>
<path d="M113.008 164.337C113.008 164.417 113.032 164.495 113.076 164.562C113.121 164.628 113.184 164.68 113.258 164.711C113.332 164.741 113.413 164.749 113.492 164.734C113.57 164.718 113.642 164.68 113.699 164.623C113.756 164.566 113.794 164.494 113.81 164.416C113.825 164.337 113.817 164.256 113.787 164.182C113.756 164.108 113.704 164.045 113.638 164C113.571 163.956 113.493 163.932 113.413 163.932C113.36 163.932 113.307 163.942 113.257 163.962C113.208 163.982 113.163 164.012 113.125 164.049C113.088 164.087 113.058 164.132 113.038 164.181C113.018 164.231 113.008 164.284 113.008 164.337Z" fill="white"/>
<path d="M111.085 164.337C111.085 164.443 111.127 164.545 111.202 164.62C111.277 164.694 111.379 164.737 111.485 164.737C111.591 164.737 111.692 164.694 111.767 164.62C111.842 164.545 111.884 164.443 111.884 164.337C111.884 164.231 111.842 164.129 111.767 164.054C111.692 163.979 111.591 163.937 111.485 163.937C111.379 163.937 111.277 163.979 111.202 164.054C111.127 164.129 111.085 164.231 111.085 164.337Z" fill="white"/>
<path d="M109.156 164.337C109.157 164.416 109.181 164.492 109.226 164.558C109.27 164.623 109.333 164.673 109.406 164.703C109.479 164.732 109.559 164.739 109.637 164.723C109.714 164.707 109.785 164.669 109.84 164.613C109.895 164.557 109.933 164.485 109.948 164.408C109.963 164.331 109.955 164.251 109.924 164.178C109.894 164.105 109.843 164.043 109.777 163.999C109.712 163.956 109.634 163.932 109.556 163.932C109.503 163.932 109.45 163.943 109.401 163.963C109.353 163.983 109.308 164.013 109.271 164.051C109.234 164.089 109.205 164.133 109.185 164.182C109.165 164.231 109.155 164.284 109.156 164.337Z" fill="#F5F5F5"/>
<path d="M115.601 135.219H69.7065V137.018H115.601V135.219Z" fill="#F5F5F5"/>
<path d="M67.4682 140.74H69.7065V131.497H67.4682V140.74Z" fill="#E0E0E0"/>
<path d="M115.601 141.634H69.7065V150.877H115.601V141.634Z" fill="#EBEBEB"/>
<path d="M113.008 154.2C113.003 154.28 113.023 154.36 113.063 154.429C113.104 154.499 113.164 154.554 113.237 154.589C113.309 154.624 113.391 154.637 113.47 154.625C113.55 154.614 113.624 154.579 113.684 154.525C113.743 154.471 113.786 154.4 113.805 154.322C113.824 154.244 113.82 154.162 113.793 154.086C113.765 154.011 113.716 153.945 113.651 153.898C113.586 153.85 113.508 153.823 113.428 153.82C113.375 153.817 113.323 153.825 113.273 153.843C113.224 153.86 113.178 153.888 113.139 153.923C113.1 153.958 113.069 154.001 113.046 154.048C113.024 154.096 113.011 154.147 113.008 154.2Z" fill="white"/>
<path d="M111.085 154.2C111.085 154.306 111.127 154.407 111.202 154.482C111.277 154.557 111.379 154.599 111.485 154.599C111.591 154.599 111.692 154.557 111.767 154.482C111.842 154.407 111.884 154.306 111.884 154.2C111.884 154.094 111.842 153.992 111.767 153.917C111.692 153.842 111.591 153.8 111.485 153.8C111.379 153.8 111.277 153.842 111.202 153.917C111.127 153.992 111.085 154.094 111.085 154.2Z" fill="white"/>
<path d="M109.156 154.2C109.157 154.279 109.181 154.355 109.226 154.42C109.27 154.485 109.333 154.536 109.406 154.565C109.479 154.595 109.559 154.602 109.637 154.586C109.714 154.57 109.785 154.532 109.84 154.476C109.895 154.419 109.933 154.348 109.948 154.271C109.963 154.193 109.955 154.113 109.924 154.041C109.894 153.968 109.843 153.906 109.777 153.862C109.712 153.818 109.634 153.795 109.556 153.795C109.503 153.795 109.45 153.805 109.401 153.826C109.353 153.846 109.308 153.876 109.271 153.914C109.234 153.951 109.205 153.996 109.185 154.045C109.165 154.094 109.155 154.147 109.156 154.2Z" fill="white"/>
<path d="M115.601 145.357H69.7065V147.155H115.601V145.357Z" fill="#F5F5F5"/>
<path d="M67.4682 150.877H69.7065V141.634H67.4682V150.877Z" fill="#E0E0E0"/>
<path d="M115.601 151.772H69.7065V161.014H115.601V151.772Z" fill="#EBEBEB"/>
<path d="M113.008 144.063C113.019 144.161 113.066 144.253 113.141 144.319C113.215 144.386 113.311 144.422 113.41 144.422C113.51 144.422 113.606 144.386 113.68 144.319C113.754 144.253 113.802 144.161 113.813 144.063C113.802 143.964 113.754 143.872 113.68 143.806C113.606 143.739 113.51 143.703 113.41 143.703C113.311 143.703 113.215 143.739 113.141 143.806C113.066 143.872 113.019 143.964 113.008 144.063Z" fill="#F5F5F5"/>
<path d="M111.085 144.063C111.085 144.142 111.108 144.219 111.152 144.285C111.196 144.35 111.259 144.402 111.332 144.432C111.405 144.462 111.485 144.47 111.563 144.455C111.64 144.439 111.711 144.401 111.767 144.345C111.823 144.289 111.861 144.218 111.877 144.141C111.892 144.063 111.884 143.983 111.854 143.91C111.824 143.837 111.772 143.774 111.707 143.73C111.641 143.686 111.564 143.663 111.485 143.663C111.432 143.663 111.38 143.673 111.332 143.693C111.283 143.713 111.239 143.743 111.202 143.78C111.165 143.817 111.135 143.861 111.115 143.91C111.095 143.958 111.085 144.01 111.085 144.063Z" fill="white"/>
<path d="M109.156 144.063C109.156 144.142 109.179 144.219 109.223 144.285C109.267 144.35 109.33 144.402 109.403 144.432C109.476 144.462 109.556 144.47 109.634 144.455C109.711 144.439 109.782 144.401 109.838 144.345C109.894 144.289 109.932 144.218 109.948 144.141C109.963 144.063 109.955 143.983 109.925 143.91C109.895 143.837 109.843 143.774 109.778 143.73C109.712 143.686 109.635 143.663 109.556 143.663C109.45 143.663 109.348 143.705 109.273 143.78C109.198 143.855 109.156 143.957 109.156 144.063Z" fill="#F5F5F5"/>
<path d="M115.601 155.494H69.7065V157.292H115.601V155.494Z" fill="#F5F5F5"/>
<path d="M67.4682 161.014H69.7065V151.772H67.4682V161.014Z" fill="#E0E0E0"/>
<path d="M115.601 161.909H69.7065V171.152H115.601V161.909Z" fill="#EBEBEB"/>
<path d="M113.008 133.925C113.007 134.006 113.03 134.084 113.074 134.152C113.118 134.219 113.181 134.271 113.255 134.303C113.328 134.334 113.41 134.343 113.489 134.328C113.568 134.313 113.64 134.275 113.697 134.218C113.754 134.162 113.793 134.09 113.809 134.011C113.825 133.933 113.818 133.851 113.787 133.777C113.757 133.702 113.705 133.639 113.638 133.594C113.572 133.55 113.493 133.526 113.413 133.526C113.36 133.525 113.307 133.535 113.258 133.555C113.209 133.574 113.165 133.604 113.127 133.641C113.089 133.678 113.059 133.722 113.039 133.771C113.019 133.82 113.008 133.872 113.008 133.925Z" fill="white"/>
<path d="M111.085 133.925C111.085 134.004 111.108 134.082 111.152 134.147C111.196 134.213 111.259 134.264 111.332 134.295C111.405 134.325 111.485 134.333 111.563 134.317C111.64 134.302 111.711 134.264 111.767 134.208C111.823 134.152 111.861 134.081 111.877 134.003C111.892 133.926 111.884 133.845 111.854 133.772C111.824 133.699 111.772 133.637 111.707 133.593C111.641 133.549 111.564 133.526 111.485 133.526C111.432 133.526 111.38 133.536 111.332 133.556C111.283 133.576 111.239 133.606 111.202 133.643C111.165 133.68 111.135 133.724 111.115 133.772C111.095 133.821 111.085 133.873 111.085 133.925Z" fill="white"/>
<path d="M109.156 133.925C109.156 134.004 109.179 134.082 109.223 134.147C109.267 134.213 109.33 134.264 109.403 134.295C109.476 134.325 109.556 134.333 109.634 134.317C109.711 134.302 109.782 134.264 109.838 134.208C109.894 134.152 109.932 134.081 109.948 134.003C109.963 133.926 109.955 133.845 109.925 133.772C109.895 133.699 109.843 133.637 109.778 133.593C109.712 133.549 109.635 133.526 109.556 133.526C109.45 133.526 109.348 133.568 109.273 133.643C109.198 133.718 109.156 133.819 109.156 133.925Z" fill="#F5F5F5"/>
<path d="M115.601 165.631H69.7065V167.43H115.601V165.631Z" fill="#F5F5F5"/>
<path d="M67.4682 171.152H69.7065V161.909H67.4682V171.152Z" fill="#E0E0E0"/>
<path d="M115.601 172.046H69.7065V181.289H115.601V172.046Z" fill="#EBEBEB"/>
<path d="M113.008 123.788C113.007 123.868 113.03 123.947 113.074 124.014C113.118 124.081 113.181 124.134 113.255 124.166C113.328 124.197 113.41 124.206 113.489 124.191C113.568 124.176 113.64 124.137 113.697 124.081C113.754 124.025 113.793 123.953 113.809 123.874C113.825 123.795 113.818 123.714 113.787 123.639C113.757 123.565 113.705 123.502 113.638 123.457C113.572 123.412 113.493 123.388 113.413 123.388C113.36 123.388 113.307 123.398 113.258 123.417C113.209 123.437 113.165 123.467 113.127 123.504C113.089 123.541 113.059 123.585 113.039 123.634C113.019 123.683 113.008 123.735 113.008 123.788Z" fill="white"/>
<path d="M111.085 123.788C111.085 123.867 111.108 123.944 111.152 124.01C111.196 124.076 111.259 124.127 111.332 124.157C111.405 124.188 111.485 124.195 111.563 124.18C111.64 124.165 111.711 124.127 111.767 124.071C111.823 124.015 111.861 123.944 111.877 123.866C111.892 123.789 111.884 123.708 111.854 123.635C111.824 123.562 111.772 123.5 111.707 123.456C111.641 123.412 111.564 123.388 111.485 123.388C111.432 123.388 111.38 123.399 111.332 123.419C111.283 123.439 111.239 123.468 111.202 123.505C111.165 123.543 111.135 123.587 111.115 123.635C111.095 123.684 111.085 123.736 111.085 123.788Z" fill="#F5F5F5"/>
<path d="M109.156 123.788C109.156 123.867 109.179 123.944 109.223 124.01C109.267 124.076 109.33 124.127 109.403 124.157C109.476 124.188 109.556 124.195 109.634 124.18C109.711 124.165 109.782 124.127 109.838 124.071C109.894 124.015 109.932 123.944 109.948 123.866C109.963 123.789 109.955 123.708 109.925 123.635C109.895 123.562 109.843 123.5 109.778 123.456C109.712 123.412 109.635 123.388 109.556 123.388C109.45 123.388 109.348 123.43 109.273 123.505C109.198 123.58 109.156 123.682 109.156 123.788Z" fill="white"/>
<path d="M115.601 175.768H69.7065V177.567H115.601V175.768Z" fill="#F5F5F5"/>
<path d="M67.4682 181.284H69.7065V172.041H67.4682V181.284Z" fill="#E0E0E0"/>
<path d="M115.601 182.183H69.7065V191.426H115.601V182.183Z" fill="#EBEBEB"/>
<path d="M113.008 113.651C113.007 113.731 113.03 113.81 113.074 113.877C113.118 113.944 113.181 113.997 113.255 114.028C113.328 114.06 113.41 114.068 113.489 114.053C113.568 114.038 113.64 114 113.697 113.944C113.754 113.887 113.793 113.815 113.809 113.737C113.825 113.658 113.818 113.576 113.787 113.502C113.757 113.428 113.705 113.364 113.638 113.32C113.572 113.275 113.493 113.251 113.413 113.251C113.36 113.251 113.307 113.26 113.258 113.28C113.209 113.3 113.165 113.329 113.127 113.366C113.089 113.404 113.059 113.448 113.039 113.497C113.019 113.546 113.008 113.598 113.008 113.651Z" fill="#F5F5F5"/>
<path d="M111.085 113.651C111.085 113.73 111.108 113.807 111.152 113.873C111.196 113.939 111.259 113.99 111.332 114.02C111.405 114.05 111.485 114.058 111.563 114.043C111.64 114.027 111.711 113.989 111.767 113.933C111.823 113.878 111.861 113.806 111.877 113.729C111.892 113.651 111.884 113.571 111.854 113.498C111.824 113.425 111.772 113.362 111.707 113.319C111.641 113.275 111.564 113.251 111.485 113.251C111.432 113.251 111.38 113.261 111.332 113.282C111.283 113.302 111.239 113.331 111.202 113.368C111.165 113.405 111.135 113.449 111.115 113.498C111.095 113.546 111.085 113.598 111.085 113.651Z" fill="white"/>
<path d="M109.156 113.651C109.156 113.73 109.179 113.807 109.223 113.873C109.267 113.939 109.33 113.99 109.403 114.02C109.476 114.05 109.556 114.058 109.634 114.043C109.711 114.027 109.782 113.989 109.838 113.933C109.894 113.878 109.932 113.806 109.948 113.729C109.963 113.651 109.955 113.571 109.925 113.498C109.895 113.425 109.843 113.362 109.778 113.319C109.712 113.275 109.635 113.251 109.556 113.251C109.45 113.251 109.348 113.293 109.273 113.368C109.198 113.443 109.156 113.545 109.156 113.651Z" fill="#F5F5F5"/>
<path d="M115.601 185.905H69.7065V187.704H115.601V185.905Z" fill="#F5F5F5"/>
<path d="M67.4682 191.421H69.7065V182.178H67.4682V191.421Z" fill="#E0E0E0"/>
<path d="M115.601 192.32H69.7065V201.563H115.601V192.32Z" fill="#EBEBEB"/>
<path d="M113.008 103.514C113.007 103.594 113.03 103.673 113.074 103.74C113.118 103.807 113.181 103.86 113.255 103.891C113.328 103.922 113.41 103.931 113.489 103.916C113.568 103.901 113.64 103.863 113.697 103.807C113.754 103.75 113.793 103.678 113.809 103.599C113.825 103.521 113.818 103.439 113.787 103.365C113.757 103.291 113.705 103.227 113.638 103.182C113.572 103.138 113.493 103.114 113.413 103.114C113.36 103.113 113.307 103.123 113.258 103.143C113.209 103.163 113.165 103.192 113.127 103.229C113.089 103.266 113.059 103.311 113.039 103.359C113.019 103.408 113.008 103.461 113.008 103.514Z" fill="#F5F5F5"/>
<path d="M111.085 103.514C111.085 103.593 111.108 103.67 111.152 103.736C111.196 103.801 111.259 103.853 111.332 103.883C111.405 103.913 111.485 103.921 111.563 103.906C111.64 103.89 111.711 103.852 111.767 103.796C111.823 103.74 111.861 103.669 111.877 103.592C111.892 103.514 111.884 103.434 111.854 103.361C111.824 103.288 111.772 103.225 111.707 103.181C111.641 103.137 111.564 103.114 111.485 103.114C111.432 103.114 111.38 103.124 111.332 103.144C111.283 103.164 111.239 103.194 111.202 103.231C111.165 103.268 111.135 103.312 111.115 103.361C111.095 103.409 111.085 103.461 111.085 103.514Z" fill="#F5F5F5"/>
<path d="M109.156 103.514C109.156 103.593 109.179 103.67 109.223 103.736C109.267 103.801 109.33 103.853 109.403 103.883C109.476 103.913 109.556 103.921 109.634 103.906C109.711 103.89 109.782 103.852 109.838 103.796C109.894 103.74 109.932 103.669 109.948 103.592C109.963 103.514 109.955 103.434 109.925 103.361C109.895 103.288 109.843 103.225 109.778 103.181C109.712 103.137 109.635 103.114 109.556 103.114C109.45 103.114 109.348 103.156 109.273 103.231C109.198 103.306 109.156 103.408 109.156 103.514Z" fill="white"/>
<path d="M115.601 196.043H69.7065V197.841H115.601V196.043Z" fill="#F5F5F5"/>
<path d="M67.4682 201.558H69.7065V192.316H67.4682V201.558Z" fill="#E0E0E0"/>
<path d="M110.845 65.9775C110.829 64.0224 110.042 62.1526 108.654 60.7753C107.266 59.3979 105.391 58.6244 103.436 58.6231C102.485 58.6211 101.543 58.8044 100.663 59.1627C99.8472 57.4925 98.5323 56.1173 96.9004 55.2278C95.2684 54.3382 93.4002 53.9782 91.5545 54.1978C89.7089 54.4174 87.9773 55.2056 86.5996 56.4533C85.2219 57.701 84.2664 59.3463 83.8656 61.1612C81.8648 61.286 79.9913 62.1853 78.6425 63.6684C77.2937 65.1515 76.5757 67.1016 76.6407 69.1052C76.7056 71.1088 77.5486 73.0084 78.9906 74.4009C80.4327 75.7934 82.3605 76.5694 84.3652 76.5644H108.901C110.18 76.5673 111.419 76.1214 112.403 75.3045C113.386 74.4875 114.052 73.3513 114.284 72.0938C114.516 70.8364 114.299 69.5374 113.672 68.4234C113.044 67.3093 112.045 66.4508 110.85 65.9975L110.845 65.9775Z" fill="#F5F5F5"/>
<path d="M230.473 58.6431C230.457 57.045 230.051 55.4749 229.29 54.0695C228.529 52.6641 227.436 51.4661 226.106 50.5795C224.776 49.693 223.25 49.1449 221.66 48.9829C220.07 48.8209 218.464 49.0499 216.983 49.65C215.904 47.4423 214.166 45.6244 212.009 44.4477C209.851 43.271 207.382 42.7937 204.941 43.0817C202.501 43.3698 200.211 44.4089 198.387 46.0555C196.563 47.7021 195.295 49.8748 194.76 52.273C192.127 52.4572 189.667 53.6552 187.898 55.6151C186.129 57.575 185.189 60.1442 185.275 62.7828C185.361 65.4214 186.467 67.9239 188.359 69.7644C190.252 71.6049 192.785 72.6401 195.425 72.6524H227.9C229.592 72.6547 231.231 72.0633 232.532 70.9812C233.833 69.8992 234.714 68.395 235.02 66.7307C235.326 65.0664 235.038 63.3474 234.207 61.8733C233.377 60.3991 232.055 59.2631 230.473 58.6631V58.6431Z" fill="#F5F5F5"/>
<path d="M35.8311 200.969V199.994H29.8653C29.7317 199.994 29.6035 200.048 29.5091 200.142C29.4146 200.236 29.3615 200.365 29.3615 200.498C29.3615 200.632 29.4146 200.76 29.5091 200.854C29.6035 200.949 29.7317 201.002 29.8653 201.002L35.8311 200.969Z" fill="#4C4DDC"/>
<path d="M33.6968 197.502C33.5843 197.498 33.4723 197.518 33.3674 197.558C33.2626 197.599 33.1671 197.661 33.0866 197.739C33.0061 197.818 32.9423 197.912 32.8991 198.016C32.8559 198.12 32.8341 198.231 32.835 198.344V207.1C32.8332 207.213 32.8543 207.326 32.8971 207.43C32.94 207.535 33.0036 207.63 33.0842 207.709C33.1647 207.788 33.2606 207.851 33.3659 207.892C33.4712 207.933 33.5838 207.952 33.6968 207.949C33.807 207.949 33.9162 207.927 34.0179 207.885C34.1197 207.842 34.2121 207.78 34.2897 207.702C34.3674 207.624 34.4287 207.531 34.4703 207.429C34.5119 207.326 34.5329 207.217 34.532 207.107V198.344C34.5329 198.234 34.5119 198.124 34.4703 198.022C34.4287 197.92 34.3674 197.827 34.2897 197.749C34.2121 197.671 34.1197 197.609 34.0179 197.566C33.9162 197.524 33.807 197.502 33.6968 197.502Z" fill="#263238"/>
<path d="M36.0694 198.728H33.6964V206.716H36.0694C37.1243 206.716 38.1359 206.297 38.8818 205.551C39.6276 204.805 40.0467 203.794 40.0467 202.739C40.051 202.214 39.9514 201.693 39.7535 201.207C39.5556 200.72 39.2633 200.278 38.8935 199.905C38.5238 199.532 38.0839 199.236 37.5992 199.034C37.1144 198.832 36.5945 198.728 36.0694 198.728Z" fill="#263238"/>
<path d="M54.7891 208.187C53.0768 208.155 51.3679 208.02 49.6718 207.783L46.7552 207.432C46.2911 207.432 45.8205 207.485 45.3432 207.538C44.6804 207.604 43.9844 207.717 43.3215 207.816C42.0523 208.059 40.7625 208.179 39.4702 208.174C39.1994 208.18 38.9304 208.128 38.6814 208.022C38.5274 207.957 38.3959 207.848 38.3035 207.709C38.211 207.57 38.1617 207.407 38.1617 207.239C38.1617 207.072 38.211 206.909 38.3035 206.77C38.3959 206.631 38.5274 206.522 38.6814 206.457C38.9129 206.351 39.1627 206.29 39.4172 206.278C40.888 206.201 42.3628 206.274 43.8186 206.497L46.8016 206.855C48.008 206.802 49.1746 206.855 50.3081 206.855C51.8105 206.92 53.3152 206.902 54.8156 206.802C56.1414 206.696 57.0893 206.245 57.1423 206.046C56.8573 205.702 56.1215 205.596 54.6168 205.383C53.5032 205.244 52.0846 205.204 50.5799 205.165C49.4 205.132 48.1737 205.098 46.9209 205.019C44.4152 204.847 41.1937 204.449 38.456 202.851C38.3944 202.81 38.3508 202.747 38.334 202.675C38.3172 202.603 38.3286 202.527 38.3657 202.463C38.4028 202.399 38.463 202.351 38.5339 202.33C38.6049 202.308 38.6813 202.315 38.7477 202.347C41.3992 203.892 44.5213 204.276 46.954 204.442C48.2002 204.522 49.4199 204.555 50.5998 204.588C52.1111 204.628 53.5496 204.668 54.6897 204.813C55.3481 204.874 56.0014 204.981 56.6452 205.132L56.5722 205.032C56.3535 204.747 56.1281 204.462 55.9094 204.151C55.6123 203.751 55.3879 203.302 55.2465 202.825C55.1772 202.555 55.1705 202.274 55.2268 202.002C55.2831 201.729 55.4009 201.474 55.5713 201.254C55.993 200.843 56.5539 200.606 57.1423 200.591C58.5265 200.504 59.9161 200.591 61.2786 200.849C61.316 200.855 61.352 200.868 61.3844 200.888C61.4168 200.907 61.4451 200.933 61.4675 200.963C61.49 200.994 61.5063 201.028 61.5153 201.065C61.5244 201.102 61.5262 201.14 61.5206 201.178C61.5149 201.215 61.5019 201.251 61.4824 201.283C61.4628 201.316 61.4371 201.344 61.4066 201.366C61.3761 201.389 61.3415 201.405 61.3048 201.414C61.268 201.423 61.2299 201.425 61.1924 201.419C59.8822 201.171 58.5463 201.087 57.2152 201.168C56.7771 201.176 56.3565 201.341 56.0287 201.632C55.9146 201.783 55.8368 201.958 55.8012 202.145C55.7655 202.331 55.7731 202.523 55.8232 202.705C55.9421 203.121 56.1303 203.513 56.38 203.865C56.5656 204.151 56.7777 204.429 56.9898 204.701C57.202 204.972 57.2616 205.052 57.3876 205.231L57.4539 205.324C57.8483 205.739 58.0689 206.289 58.0703 206.862C57.8913 208.141 56.0817 208.187 55.22 208.187H54.7891ZM52.0581 207.471C53.089 207.572 54.1246 207.616 55.1603 207.604C55.9027 207.604 57.3743 207.564 57.487 206.775C57.5062 206.688 57.5062 206.598 57.487 206.51C56.9965 207.027 55.6906 207.306 54.8355 207.379C53.9804 207.452 52.9795 207.471 52.0581 207.471ZM40.4314 206.809C40.0911 206.809 39.7531 206.822 39.4172 206.848C39.239 206.856 39.0637 206.896 38.9002 206.968C38.843 206.984 38.7925 207.018 38.7566 207.065C38.7207 207.112 38.7012 207.17 38.7012 207.23C38.7012 207.289 38.7207 207.347 38.7566 207.394C38.7925 207.441 38.843 207.475 38.9002 207.491C39.077 207.562 39.2665 207.596 39.457 207.591C40.7115 207.593 41.9635 207.476 43.1955 207.239L44.044 207.107L43.6927 207.067C42.6202 206.921 41.5401 206.837 40.4579 206.815L40.4314 206.809Z" fill="#263238"/>
<path d="M124.384 48.1975H64.865L58.2363 54.8262V202.474L64.865 209.102H124.384L131.013 202.474V54.8262L124.384 48.1975Z" fill="black"/>
<path d="M47.5245 61.057L46.1855 62.8866L42.7784 58.0211L45.3304 67.5531L46.676 65.7303L50.0766 70.5957L47.5245 61.057Z" fill="#4C4DDC"/>
<path d="M98.4987 29.1069L96.4835 30.141L95.6019 24.2746L93.6398 33.9459L95.655 32.9118L96.5366 38.7848L98.4987 29.1069Z" fill="#4C4DDC"/>
<path d="M115.461 31.7584L112.399 31.0425L116.734 24.0359L105.969 32.5207L109.031 33.2299L104.69 40.2365L115.461 31.7584Z" fill="#4C4DDC"/>
<path opacity="0.7" d="M58.2363 202.473L64.865 209.102H91.2803L84.6516 202.473H58.2363Z" fill="#263238"/>
<path opacity="0.7" d="M58.2363 54.8329L64.865 48.2042H91.2803L84.6516 54.8329H58.2363Z" fill="#263238"/>
<path d="M150.826 48.1975H91.2801C88.6882 50.7893 87.2432 52.241 84.6514 54.8262V202.474C87.2432 205.059 88.6882 206.51 91.2801 209.102H150.826L157.454 202.474V54.8262L150.826 48.1975Z" fill="#263238"/>
<path opacity="0.6" d="M92.1219 206.007L87.747 201.625V55.6813L92.1219 51.2997H149.957L154.332 55.6813V201.625L149.957 206.007H92.1219Z" fill="#4C4DDC"/>
<path d="M154.332 59.1547H90.8428V71.9414H154.332V59.1547Z" fill="#263238"/>
<path d="M150.746 62.5154C150.748 62.3683 150.807 62.2276 150.911 62.1236C151.015 62.0195 151.156 61.9603 151.303 61.9586C151.451 61.9586 151.592 62.0173 151.697 62.1217C151.801 62.2261 151.86 62.3677 151.86 62.5154C151.86 62.6631 151.801 62.8047 151.697 62.9091C151.592 63.0136 151.451 63.0722 151.303 63.0722C151.156 63.0705 151.015 63.0113 150.911 62.9072C150.807 62.8032 150.748 62.6626 150.746 62.5154Z" fill="#4C4DDC"/>
<path d="M148.081 62.5154C148.081 62.405 148.114 62.2971 148.175 62.2053C148.237 62.1136 148.324 62.0423 148.426 62.0003C148.528 61.9584 148.641 61.9478 148.749 61.9698C148.857 61.9918 148.956 62.0455 149.034 62.1241C149.111 62.2026 149.164 62.3024 149.185 62.4109C149.205 62.5193 149.193 62.6315 149.15 62.7331C149.107 62.8347 149.035 62.9212 148.942 62.9816C148.85 63.042 148.742 63.0735 148.631 63.0722C148.485 63.0704 148.345 63.011 148.242 62.9068C148.139 62.8025 148.081 62.6619 148.081 62.5154Z" fill="white"/>
<path d="M145.41 62.5154C145.41 62.4053 145.443 62.2976 145.504 62.2061C145.565 62.1145 145.652 62.0431 145.754 62.001C145.856 61.9588 145.968 61.9478 146.076 61.9693C146.184 61.9908 146.283 62.0438 146.361 62.1217C146.439 62.1996 146.492 62.2988 146.513 62.4068C146.535 62.5148 146.524 62.6267 146.482 62.7285C146.44 62.8302 146.368 62.9172 146.277 62.9784C146.185 63.0396 146.077 63.0722 145.967 63.0722C145.82 63.0705 145.68 63.0113 145.575 62.9072C145.471 62.8032 145.412 62.6626 145.41 62.5154Z" fill="#4C4DDC"/>
<path d="M154.332 64.3052H90.8428V66.7909H154.332V64.3052Z" fill="#4C4DDC"/>
<path d="M87.7472 71.9481H90.8428V59.1613H87.7472V71.9481Z" fill="black"/>
<path d="M154.332 73.1809H90.8428V85.9677H154.332V73.1809Z" fill="#263238"/>
<path d="M151.303 77.092C151.61 77.092 151.86 76.8427 151.86 76.5352C151.86 76.2277 151.61 75.9784 151.303 75.9784C150.995 75.9784 150.746 76.2277 150.746 76.5352C150.746 76.8427 150.995 77.092 151.303 77.092Z" fill="#4C4DDC"/>
<path d="M148.631 77.092C148.939 77.092 149.188 76.8427 149.188 76.5352C149.188 76.2277 148.939 75.9784 148.631 75.9784C148.324 75.9784 148.075 76.2277 148.075 76.5352C148.075 76.8427 148.324 77.092 148.631 77.092Z" fill="white"/>
<path d="M145.967 77.092C146.275 77.092 146.524 76.8427 146.524 76.5352C146.524 76.2277 146.275 75.9784 145.967 75.9784C145.66 75.9784 145.41 76.2277 145.41 76.5352C145.41 76.8427 145.66 77.092 145.967 77.092Z" fill="white"/>
<path d="M154.332 78.3314H90.8428V80.8172H154.332V78.3314Z" fill="#4C4DDC"/>
<path d="M87.7472 85.9678H90.8428V73.1811H87.7472V85.9678Z" fill="black"/>
<path d="M154.332 87.2007H90.8428V99.9875H154.332V87.2007Z" fill="#263238"/>
<path d="M151.303 91.1183C151.61 91.1183 151.86 90.869 151.86 90.5615C151.86 90.254 151.61 90.0047 151.303 90.0047C150.995 90.0047 150.746 90.254 150.746 90.5615C150.746 90.869 150.995 91.1183 151.303 91.1183Z" fill="#4C4DDC"/>
<path d="M148.631 91.1183C148.939 91.1183 149.188 90.869 149.188 90.5615C149.188 90.254 148.939 90.0047 148.631 90.0047C148.324 90.0047 148.075 90.254 148.075 90.5615C148.075 90.869 148.324 91.1183 148.631 91.1183Z" fill="#4C4DDC"/>
<path d="M145.967 91.1183C146.275 91.1183 146.524 90.869 146.524 90.5615C146.524 90.254 146.275 90.0047 145.967 90.0047C145.66 90.0047 145.41 90.254 145.41 90.5615C145.41 90.869 145.66 91.1183 145.967 91.1183Z" fill="#4C4DDC"/>
<path d="M154.332 92.3512H90.8428V94.837H154.332V92.3512Z" fill="#4C4DDC"/>
<path d="M87.7472 99.994H90.8428V87.2073H87.7472V99.994Z" fill="black"/>
<path d="M154.332 101.227H90.8428V114.014H154.332V101.227Z" fill="#263238"/>
<path d="M151.303 105.138C151.61 105.138 151.86 104.889 151.86 104.581C151.86 104.274 151.61 104.024 151.303 104.024C150.995 104.024 150.746 104.274 150.746 104.581C150.746 104.889 150.995 105.138 151.303 105.138Z" fill="white"/>
<path d="M148.631 105.138C148.939 105.138 149.188 104.889 149.188 104.581C149.188 104.274 148.939 104.024 148.631 104.024C148.324 104.024 148.075 104.274 148.075 104.581C148.075 104.889 148.324 105.138 148.631 105.138Z" fill="white"/>
<path d="M145.967 105.138C146.275 105.138 146.524 104.889 146.524 104.581C146.524 104.274 146.275 104.024 145.967 104.024C145.66 104.024 145.41 104.274 145.41 104.581C145.41 104.889 145.66 105.138 145.967 105.138Z" fill="#4C4DDC"/>
<path d="M154.332 106.377H90.8428V108.863H154.332V106.377Z" fill="#4C4DDC"/>
<path d="M87.7472 114.014H90.8428V101.227H87.7472V114.014Z" fill="black"/>
<path d="M154.332 115.247H90.8428V128.033H154.332V115.247Z" fill="#263238"/>
<path d="M150.746 118.607C150.748 118.46 150.807 118.32 150.911 118.215C151.015 118.111 151.156 118.052 151.303 118.05C151.451 118.05 151.592 118.109 151.697 118.214C151.801 118.318 151.86 118.46 151.86 118.607C151.86 118.755 151.801 118.897 151.697 119.001C151.592 119.105 151.451 119.164 151.303 119.164C151.156 119.162 151.015 119.103 150.911 118.999C150.807 118.895 150.748 118.754 150.746 118.607Z" fill="white"/>
<path d="M148.081 118.607C148.081 118.497 148.114 118.389 148.175 118.297C148.237 118.206 148.324 118.134 148.426 118.092C148.528 118.05 148.641 118.04 148.749 118.062C148.857 118.084 148.956 118.138 149.034 118.216C149.111 118.295 149.164 118.394 149.185 118.503C149.205 118.611 149.193 118.724 149.15 118.825C149.107 118.927 149.035 119.013 148.942 119.074C148.85 119.134 148.742 119.166 148.631 119.164C148.485 119.162 148.345 119.103 148.242 118.999C148.139 118.895 148.081 118.754 148.081 118.607Z" fill="white"/>
<path d="M145.41 118.607C145.41 118.497 145.443 118.39 145.504 118.298C145.565 118.206 145.652 118.135 145.754 118.093C145.856 118.051 145.968 118.04 146.076 118.061C146.184 118.083 146.283 118.136 146.361 118.214C146.439 118.291 146.492 118.391 146.513 118.499C146.535 118.607 146.524 118.719 146.482 118.82C146.44 118.922 146.368 119.009 146.277 119.07C146.185 119.131 146.077 119.164 145.967 119.164C145.82 119.162 145.68 119.103 145.575 118.999C145.471 118.895 145.412 118.754 145.41 118.607Z" fill="white"/>
<path d="M154.332 120.397H90.8428V122.883H154.332V120.397Z" fill="#4C4DDC"/>
<path d="M87.7472 128.04H90.8428V115.253H87.7472V128.04Z" fill="black"/>
<path d="M154.332 129.273H90.8428V142.06H154.332V129.273Z" fill="#263238"/>
<path d="M150.746 132.627C150.748 132.48 150.807 132.341 150.912 132.238C151.016 132.135 151.156 132.077 151.303 132.077C151.439 132.092 151.565 132.157 151.657 132.259C151.748 132.361 151.799 132.493 151.799 132.63C151.799 132.767 151.748 132.9 151.657 133.002C151.565 133.104 151.439 133.169 151.303 133.184C151.155 133.184 151.014 133.125 150.909 133.021C150.805 132.916 150.746 132.775 150.746 132.627Z" fill="#4C4DDC"/>
<path d="M148.081 132.627C148.081 132.517 148.114 132.409 148.175 132.317C148.237 132.225 148.324 132.154 148.426 132.112C148.528 132.07 148.641 132.06 148.749 132.082C148.857 132.104 148.956 132.157 149.034 132.236C149.112 132.314 149.164 132.414 149.185 132.523C149.205 132.631 149.193 132.743 149.15 132.845C149.107 132.946 149.035 133.033 148.942 133.093C148.85 133.154 148.742 133.185 148.631 133.184C148.558 133.184 148.486 133.169 148.419 133.141C148.352 133.113 148.291 133.072 148.24 133.02C148.189 132.969 148.148 132.907 148.121 132.84C148.094 132.772 148.08 132.7 148.081 132.627Z" fill="white"/>
<path d="M145.41 132.627C145.41 132.517 145.443 132.409 145.504 132.318C145.565 132.226 145.652 132.155 145.754 132.113C145.856 132.071 145.968 132.059 146.076 132.081C146.184 132.102 146.283 132.155 146.361 132.233C146.439 132.311 146.492 132.41 146.513 132.518C146.535 132.626 146.524 132.738 146.482 132.84C146.44 132.942 146.368 133.029 146.277 133.09C146.185 133.151 146.077 133.184 145.967 133.184C145.82 133.184 145.678 133.125 145.574 133.021C145.469 132.916 145.41 132.775 145.41 132.627Z" fill="#4C4DDC"/>
<path d="M154.332 134.423H90.8428V136.909H154.332V134.423Z" fill="#4C4DDC"/>
<path d="M87.7472 142.053H90.8428V129.266H87.7472V142.053Z" fill="black"/>
<path d="M154.332 143.293H90.8428V156.079H154.332V143.293Z" fill="#263238"/>
<path d="M151.303 147.21C151.61 147.21 151.86 146.961 151.86 146.653C151.86 146.346 151.61 146.097 151.303 146.097C150.995 146.097 150.746 146.346 150.746 146.653C150.746 146.961 150.995 147.21 151.303 147.21Z" fill="white"/>
<path d="M148.631 147.21C148.939 147.21 149.188 146.961 149.188 146.653C149.188 146.346 148.939 146.097 148.631 146.097C148.324 146.097 148.075 146.346 148.075 146.653C148.075 146.961 148.324 147.21 148.631 147.21Z" fill="white"/>
<path d="M145.967 147.21C146.275 147.21 146.524 146.961 146.524 146.653C146.524 146.346 146.275 146.097 145.967 146.097C145.66 146.097 145.41 146.346 145.41 146.653C145.41 146.961 145.66 147.21 145.967 147.21Z" fill="#4C4DDC"/>
<path d="M154.332 148.443H90.8428V150.929H154.332V148.443Z" fill="#4C4DDC"/>
<path d="M87.7472 156.079H90.8428V143.293H87.7472V156.079Z" fill="black"/>
<path d="M154.332 157.319H90.8428V170.106H154.332V157.319Z" fill="#263238"/>
<path d="M151.303 161.23C151.61 161.23 151.86 160.98 151.86 160.673C151.86 160.365 151.61 160.116 151.303 160.116C150.995 160.116 150.746 160.365 150.746 160.673C150.746 160.98 150.995 161.23 151.303 161.23Z" fill="white"/>
<path d="M148.631 161.23C148.939 161.23 149.188 160.98 149.188 160.673C149.188 160.365 148.939 160.116 148.631 160.116C148.324 160.116 148.075 160.365 148.075 160.673C148.075 160.98 148.324 161.23 148.631 161.23Z" fill="#4C4DDC"/>
<path d="M145.967 161.23C146.275 161.23 146.524 160.98 146.524 160.673C146.524 160.365 146.275 160.116 145.967 160.116C145.66 160.116 145.41 160.365 145.41 160.673C145.41 160.98 145.66 161.23 145.967 161.23Z" fill="white"/>
<path d="M154.332 162.469H90.8428V164.955H154.332V162.469Z" fill="#4C4DDC"/>
<path d="M87.7472 170.099H90.8428V157.312H87.7472V170.099Z" fill="black"/>
<path d="M154.332 171.339H90.8428V184.125H154.332V171.339Z" fill="#263238"/>
<path d="M151.303 175.256C151.61 175.256 151.86 175.007 151.86 174.699C151.86 174.392 151.61 174.143 151.303 174.143C150.995 174.143 150.746 174.392 150.746 174.699C150.746 175.007 150.995 175.256 151.303 175.256Z" fill="#4C4DDC"/>
<path d="M148.631 175.256C148.939 175.256 149.188 175.007 149.188 174.699C149.188 174.392 148.939 174.143 148.631 174.143C148.324 174.143 148.075 174.392 148.075 174.699C148.075 175.007 148.324 175.256 148.631 175.256Z" fill="white"/>
<path d="M145.967 175.256C146.275 175.256 146.524 175.007 146.524 174.699C146.524 174.392 146.275 174.143 145.967 174.143C145.66 174.143 145.41 174.392 145.41 174.699C145.41 175.007 145.66 175.256 145.967 175.256Z" fill="#4C4DDC"/>
<path d="M154.332 176.489H90.8428V178.975H154.332V176.489Z" fill="#4C4DDC"/>
<path d="M87.7472 184.125H90.8428V171.339H87.7472V184.125Z" fill="black"/>
<path d="M154.332 185.365H90.8428V198.152H154.332V185.365Z" fill="#263238"/>
<path d="M151.303 189.276C151.61 189.276 151.86 189.026 151.86 188.719C151.86 188.411 151.61 188.162 151.303 188.162C150.995 188.162 150.746 188.411 150.746 188.719C150.746 189.026 150.995 189.276 151.303 189.276Z" fill="#4C4DDC"/>
<path d="M148.631 189.276C148.939 189.276 149.188 189.026 149.188 188.719C149.188 188.411 148.939 188.162 148.631 188.162C148.324 188.162 148.075 188.411 148.075 188.719C148.075 189.026 148.324 189.276 148.631 189.276Z" fill="#4C4DDC"/>
<path d="M145.967 189.276C146.275 189.276 146.524 189.026 146.524 188.719C146.524 188.411 146.275 188.162 145.967 188.162C145.66 188.162 145.41 188.411 145.41 188.719C145.41 189.026 145.66 189.276 145.967 189.276Z" fill="white"/>
<path d="M154.332 190.515H90.8428V193.001H154.332V190.515Z" fill="#4C4DDC"/>
<path d="M87.7472 198.145H90.8428V185.358H87.7472V198.145Z" fill="black"/>
<path opacity="0.7" d="M92.1219 206.007L87.747 201.625V55.6813L92.1219 51.2997H126.379L130.754 55.6813V201.625L126.379 206.007H92.1219Z" fill="#4C4DDC"/>
<path d="M126.379 206.007L130.754 201.625V55.6813L126.379 51.2997H128.096L131.855 55.0582V202.248L128.096 206.007H126.379Z" fill="#4C4DDC"/>
<path d="M215.906 53.9712C217.351 56.795 218.624 59.599 219.804 62.5288C220.387 63.9871 220.944 65.4786 221.448 67.0032C221.999 68.5888 222.442 70.2099 222.773 71.8554L222.833 72.1868L222.866 72.3658L222.899 72.6111C222.899 72.7702 222.946 72.9425 222.959 73.1016V73.5391C222.97 74.055 222.946 74.571 222.886 75.0836C222.775 75.9648 222.613 76.839 222.402 77.7019C222.002 79.2742 221.515 80.8233 220.944 82.342C219.839 85.2941 218.523 88.1629 217.006 90.9261C216.798 91.317 216.455 91.6185 216.04 91.7738C215.626 91.9292 215.169 91.9278 214.755 91.7698C214.341 91.6119 214 91.3083 213.794 90.9161C213.589 90.5239 213.534 90.0702 213.639 89.6402V89.6004C214.302 86.6705 215.038 83.7009 215.628 80.8108C215.933 79.3657 216.178 77.9207 216.35 76.5551C216.43 75.9151 216.475 75.2711 216.483 74.6262C216.484 74.3758 216.468 74.1256 216.436 73.8772V73.7379V73.665L216.397 73.5258L216.33 73.2938C215.972 72.0808 215.462 70.7285 214.918 69.3829C214.375 68.0373 213.778 66.685 213.162 65.3261C211.942 62.6216 210.656 59.8707 209.397 57.1994V57.1596C208.97 56.2911 208.907 55.2889 209.219 54.3733C209.532 53.4578 210.195 52.7039 211.064 52.2776C211.932 51.8512 212.935 51.7874 213.85 52.1C214.766 52.4127 215.52 53.0762 215.946 53.9447L215.906 53.9712Z" fill="#FFB573"/>
<path d="M212.692 90.5483L214.952 87.2339L217.2 86.571C218.234 87.8305 217.935 89.7727 217.63 90.8863L216.968 95.0359C216.908 95.4148 216.727 95.7642 216.452 96.0319C216.177 96.2995 215.823 96.471 215.443 96.5207L213.965 96.7328C213.705 96.7699 213.44 96.7533 213.186 96.6842C212.932 96.6152 212.696 96.495 212.49 96.3311C212.285 96.1673 212.115 95.9632 211.991 95.7313C211.867 95.4994 211.792 95.2448 211.771 94.9829L211.711 94.267C211.598 92.9512 211.945 91.637 212.692 90.5483Z" fill="#FFB573"/>
<path d="M209 99.5035C209.546 98.8813 209.839 98.0773 209.822 97.2498L220.971 92.0728L221.058 92.1523C221.736 92.723 222.614 93.001 223.498 92.9251C224.381 92.8493 225.199 92.426 225.771 91.748C226.016 91.4542 226.209 91.12 226.341 90.7603L223.921 91.0917C223.769 91.112 223.614 91.1013 223.466 91.0601C223.317 91.019 223.179 90.9483 223.059 90.8523C222.939 90.7563 222.839 90.637 222.767 90.5016C222.694 90.3662 222.649 90.2174 222.635 90.0643L222.562 89.2291C222.549 89.0754 222.567 88.9205 222.615 88.774C222.663 88.6274 222.741 88.4923 222.843 88.3769C222.946 88.2614 223.071 88.1681 223.21 88.1027C223.35 88.0372 223.502 88.0009 223.656 87.9961L226.102 87.9033C225.906 87.5758 225.657 87.2825 225.366 87.035C224.877 86.6062 224.272 86.3308 223.628 86.2432C222.983 86.1556 222.327 86.2597 221.741 86.5424C221.155 86.8251 220.666 87.2739 220.333 87.833C220 88.3921 219.84 89.0367 219.871 89.6864L208.715 94.8634L208.635 94.7839C207.956 94.2132 207.079 93.9353 206.195 94.0111C205.312 94.0869 204.494 94.5103 203.922 95.1883C203.678 95.482 203.484 95.8133 203.346 96.1693L205.772 95.8445C205.924 95.8242 206.079 95.835 206.227 95.8761C206.375 95.9172 206.514 95.9879 206.634 96.0839C206.754 96.1799 206.854 96.2992 206.926 96.4346C206.999 96.57 207.044 96.7188 207.058 96.8719L207.124 97.7072C207.138 97.8603 207.12 98.0147 207.072 98.1608C207.024 98.3069 206.947 98.4417 206.845 98.557C206.743 98.6724 206.619 98.7658 206.48 98.8316C206.342 98.8975 206.191 98.9344 206.037 98.9401L203.591 99.0263C203.781 99.36 204.031 99.6565 204.327 99.9013C204.66 100.182 205.045 100.395 205.46 100.527C205.875 100.659 206.312 100.708 206.746 100.671C207.18 100.634 207.602 100.512 207.989 100.312C208.376 100.111 208.719 99.8367 209 99.5035Z" fill="#263238"/>
<path opacity="0.1" d="M209.563 95.9241C209.524 95.8443 209.502 95.7575 209.497 95.6688C209.492 95.5801 209.506 95.4914 209.536 95.4079C209.566 95.3245 209.613 95.2479 209.673 95.1829C209.734 95.1178 209.807 95.0656 209.888 95.0293L218.81 90.893C218.89 90.8541 218.977 90.8317 219.065 90.827C219.154 90.8224 219.243 90.8356 219.326 90.8659C219.41 90.8962 219.486 90.943 219.551 91.0034C219.616 91.0638 219.668 91.1367 219.705 91.2178C219.743 91.2973 219.764 91.3835 219.768 91.4715C219.772 91.5594 219.759 91.6473 219.729 91.73C219.698 91.8127 219.652 91.8885 219.592 91.9531C219.532 92.0177 219.46 92.0696 219.38 92.106L210.484 96.2291C210.404 96.2729 210.316 96.2997 210.226 96.308C210.135 96.3163 210.044 96.3058 209.957 96.2772C209.871 96.2486 209.791 96.2025 209.723 96.1417C209.655 96.081 209.601 96.0069 209.563 95.9241Z" fill="white"/>
<path d="M208.052 47.0574C212.029 47.9324 214.018 49.974 217.862 56.4038C215.675 59.6453 210.326 62.4492 210.326 62.4492L208.006 59.7977C205.102 54.4086 208.052 47.0707 208.052 47.0707" fill="#263238"/>
<path opacity="0.2" d="M206.733 54.3954C206.716 56.2682 207.152 58.1172 208.005 59.7845L210.319 62.436C210.319 62.436 211.161 61.9919 212.307 61.2561C210.425 57.4778 208.947 55.5886 206.733 54.3954Z" fill="black"/>
<path d="M189.637 53.222L189.564 53.6396L189.497 53.9578L189.358 54.5478C189.252 54.9256 189.133 55.2968 189.007 55.6547C188.75 56.3743 188.447 57.0762 188.099 57.756C187.398 59.1247 186.505 60.386 185.447 61.5013C184.381 62.6226 183.152 63.5768 181.801 64.3317C180.488 65.0673 179.081 65.6225 177.619 65.9822L177.387 66.0419C176.56 66.2486 175.686 66.119 174.955 65.6815C174.224 65.2441 173.697 64.5345 173.489 63.7086C173.45 63.5519 173.423 63.3923 173.41 63.2313C173.293 61.9014 173.371 60.5616 173.642 59.2541C173.884 58.0856 174.21 56.936 174.616 55.8138C175.401 53.7236 176.361 51.7035 177.486 49.7751C178.57 47.9141 179.747 46.1088 181.013 44.3661C182.292 42.6426 183.578 40.9855 185.043 39.3681C185.342 39.0339 185.755 38.8228 186.201 38.7756C186.647 38.7285 187.095 38.8487 187.457 39.1129C187.819 39.3771 188.071 39.7665 188.162 40.2056C188.254 40.6447 188.179 41.1021 187.953 41.4892V41.5356C186.952 43.2525 185.931 45.0488 185.01 46.8386C184.088 48.6283 183.193 50.4313 182.411 52.2476C181.633 54.006 180.981 55.8181 180.462 57.6699C179.98 59.2163 179.814 60.8437 179.972 62.4558L175.756 59.7049C176.617 59.3701 177.438 58.9387 178.202 58.4189C178.923 57.9126 179.578 57.318 180.151 56.6491C180.719 55.97 181.206 55.227 181.603 54.4351C181.81 54.0371 181.989 53.6251 182.139 53.2021C182.219 52.9966 182.279 52.7845 182.345 52.5857L182.431 52.294L182.464 52.1681C182.464 52.1681 182.464 52.062 182.464 52.1681C182.528 51.687 182.687 51.2234 182.932 50.8045C183.177 50.3857 183.503 50.0199 183.891 49.7287C184.279 49.4376 184.722 49.2268 185.192 49.1089C185.663 48.9909 186.153 48.9681 186.632 49.0418C187.112 49.1155 187.572 49.2842 187.986 49.538C188.399 49.7918 188.758 50.1256 189.041 50.5199C189.324 50.9142 189.525 51.361 189.633 51.8341C189.741 52.3072 189.754 52.7971 189.67 53.2751L189.637 53.222Z" fill="#FFB573"/>
<path d="M191.321 52.725C191.732 50.2327 189.995 47.2431 189.995 47.2431C186.018 47.4354 182.226 48.4031 178.567 55.8936C179.449 60.0696 184.984 63.0128 184.984 63.0128L188.888 57.9485C188.888 57.9485 190.903 55.2241 191.321 52.725Z" fill="#263238"/>
<path d="M186.111 37.5121L187.211 36.3189C187.689 35.8063 188.282 35.4153 188.941 35.1788L189.989 34.801C190.265 34.7031 190.56 34.6662 190.853 34.6927C191.145 34.7192 191.429 34.8085 191.683 34.9545C191.938 35.1005 192.159 35.2997 192.329 35.5386C192.5 35.7775 192.617 36.0505 192.673 36.3388L192.932 37.7176C193.026 38.2141 192.933 38.7279 192.669 39.1592C192.406 39.5905 191.991 39.9084 191.507 40.0509L189.896 40.5215C189.314 41.4387 188.426 42.119 187.388 42.4409C186.351 42.7627 185.233 42.705 184.235 42.2781C184.234 40.5092 184.904 38.8057 186.111 37.5121Z" fill="#FFB573"/>
<path d="M215.012 198.728H209.497C209.497 198.728 209.762 202.765 209.742 205.158L214.608 205.742C214.19 203.09 215.012 198.728 215.012 198.728Z" fill="#FFB573"/>
<path d="M190.711 85.2717C190.711 85.2717 200.608 127.211 203.697 144.267C206.938 162.165 209.146 198.072 209.139 199.385C210.916 199.033 213.779 198.954 215.204 199.385C215.204 199.385 222.019 157.16 215.867 141.483C213.527 111.76 216.53 94.943 210.564 85.2784L190.711 85.2717Z" fill="#4C4DDC"/>
<path opacity="0.2" d="M203.312 98.2773C201.695 91.6486 196.206 92.3114 192.633 93.5179C194.86 103.096 198.553 119.224 201.251 132.017C205.082 122.83 205.5 107.193 203.312 98.2773Z" fill="black"/>
<path d="M179.887 198.006C179.389 204.416 174.186 211.31 174.186 211.31L182.213 209.255L185.594 204.23C185.614 202.318 185.866 200.415 186.343 198.563L179.887 198.006Z" fill="#FFB573"/>
<path d="M182.644 85.2717C182.644 85.2717 184.042 129.896 183.678 142.941C183.167 161.024 179.376 199.391 179.376 199.391C182.253 199.093 184.738 199.007 186.329 199.391C186.329 199.391 198.261 168.329 196.862 143.114C199.845 119.748 209.894 98.2838 203.683 85.285L182.644 85.2717Z" fill="#4C4DDC"/>
<path d="M203.902 34.9401C203.119 38.3208 202.238 44.5186 204.525 46.779C202.497 49.8786 199.568 52.2823 196.133 53.6662C191.705 50.8291 194.012 46.779 194.012 46.779C197.816 45.8775 197.816 43.0802 197.253 40.4486L203.902 34.9401Z" fill="#FFB573"/>
<path d="M204.565 43.2724C204.565 43.2724 196.876 42.2251 193.097 45.3671C193.04 46.1486 192.715 46.8863 192.176 47.4551C196.295 48.3594 200.536 48.5678 204.724 48.0716C205.725 46.3547 204.565 43.2724 204.565 43.2724Z" fill="#4C4DDC"/>
<path d="M183.452 54.6937C183.863 65.2996 181.53 81.4272 182.657 85.2718C194.031 86.4252 202.92 86.233 210.57 85.2718C211.896 81.0758 208.74 68.6139 212.366 53.7855C212.563 53.0236 212.593 52.2281 212.454 51.4536C212.315 50.6791 212.009 49.9438 211.559 49.2984C211.109 48.653 210.524 48.1126 209.846 47.7143C209.167 47.316 208.41 47.0693 207.627 46.9911C206.646 46.8917 205.598 46.8055 204.525 46.7525C201.025 46.5037 197.511 46.5037 194.012 46.7525C192.686 46.8718 191.281 47.0508 189.981 47.243C186.282 47.78 183.306 50.9816 183.452 54.6937Z" fill="#263238"/>
<path d="M191.42 29.2263C191.374 29.6903 191.095 30.0482 190.797 30.0283C190.499 30.0085 190.293 29.624 190.339 29.16C190.386 28.696 190.658 28.3447 190.956 28.3646C191.254 28.3844 191.46 28.7689 191.42 29.2263Z" fill="#263238"/>
<path d="M191.089 28.3976L190.021 28.0065C190.021 28.0065 190.499 28.908 191.089 28.3976Z" fill="#263238"/>
<path d="M190.83 26.2035C190.796 26.1967 190.763 26.1825 190.735 26.1619C190.706 26.1414 190.682 26.1148 190.665 26.0842C190.629 26.0218 190.619 25.9476 190.638 25.878C190.656 25.8084 190.702 25.7491 190.764 25.713C191.118 25.4701 191.525 25.3167 191.951 25.2659C192.377 25.2151 192.809 25.2684 193.21 25.4214C193.242 25.4369 193.27 25.4584 193.293 25.4849C193.316 25.5113 193.334 25.5421 193.345 25.5754C193.356 25.6087 193.36 25.6439 193.358 25.6789C193.355 25.7139 193.345 25.748 193.329 25.7793C193.3 25.8452 193.246 25.8969 193.179 25.923C193.112 25.9491 193.037 25.9475 192.972 25.9185C192.652 25.8013 192.31 25.763 191.973 25.8069C191.636 25.8508 191.314 25.9755 191.036 26.1704C190.974 26.207 190.901 26.2188 190.83 26.2035Z" fill="#263238"/>
<path d="M191.328 30.499C190.823 31.525 190.183 32.479 189.426 33.3361C189.644 33.5197 189.901 33.6519 190.178 33.723C190.454 33.7941 190.743 33.8023 191.023 33.747L191.328 30.499Z" fill="#ED893E"/>
<path d="M206.991 28.3114C206.116 33.9458 205.865 36.352 202.762 39.083C198.122 43.1928 191.447 41.1114 190.638 35.3776C189.916 30.2204 191.467 21.8683 197.161 19.9526C198.393 19.5114 199.719 19.4027 201.006 19.6375C202.294 19.8722 203.496 20.4421 204.493 21.2897C205.49 22.1373 206.246 23.2326 206.684 24.4654C207.123 25.6981 207.229 27.0247 206.991 28.3114Z" fill="#FFB573"/>
<path d="M192.931 21.9347C191.798 24.1686 194.032 28.3115 195.53 30.0084C192.878 32.8786 190.227 37.8303 193.72 40.7999C196.942 43.5044 214.216 43.4514 210.855 37.6579C213.818 34.0122 208.867 33.4951 211.24 26.3892C212.957 21.2387 209.728 19.8069 206.832 20.2974C203.531 16.1478 195.284 17.288 192.931 21.9347Z" fill="#263238"/>
<path d="M194.198 24.2746C194.198 24.2746 199.54 28.6495 205.692 29.3654C209.006 29.7499 210.663 29.7035 210.816 29.1997C210.968 28.696 211.253 26.999 211.253 26.999L194.198 24.2746Z" fill="#E0E0E0"/>
<path d="M189.663 23.1278C191.281 24.4072 203.504 27.9005 211.743 27.1051C211.823 26.6145 211.558 26.5549 211.558 26.5549C211.558 26.5549 213.454 20.198 209.099 17.8116C207.044 14.4509 200.839 14.6564 198.095 15.6043L197.704 16.0948C197.704 16.0948 192.328 17.3476 192.249 21.8021C190.127 22.0739 187.88 21.7226 189.663 23.1278Z" fill="#4C4DDC"/>
<path opacity="0.2" d="M197.704 16.1212L198.095 15.6307C200.989 15.4585 203.838 16.4081 206.049 18.2822C203.988 17.0426 200.541 15.8826 197.704 16.1212Z" fill="black"/>
<path d="M194.721 28.2187C193.548 28.0596 192.434 29.7698 192.03 30.9895C191.586 32.355 192.069 33.641 193.289 33.177C194.27 32.7775 195.075 32.0388 195.556 31.0955C196.199 29.8692 195.901 28.3712 194.721 28.2187Z" fill="#FFB573"/>
<path d="M211.419 201.453C214.806 200.856 214.734 202.606 214.959 204.482C215.131 205.618 214.936 206.779 214.402 207.797C213.209 209.898 214.23 213 210.425 213C206.62 213 206.282 212.118 207.303 210.243C208.262 208.344 208.932 206.313 209.291 204.217C209.55 203.13 209.914 201.718 211.419 201.453Z" fill="#263238"/>
<path d="M186.024 202.202C186.277 202.805 186.384 203.459 186.336 204.111C186.197 206.511 185.673 212.887 185.673 212.887H185.123C185.208 210.932 185.191 208.974 185.07 207.021C184.864 205.437 184.082 208.234 182.982 209.812C181.882 211.389 179.787 212.834 176.207 212.947C172.018 213.08 170.328 212.901 171.567 211.853C172.807 210.806 175.631 210.117 175.631 210.117C177.847 209.14 179.691 207.479 180.894 205.377C181.934 203.671 183.46 202.314 185.275 201.479C185.451 201.526 185.612 201.617 185.743 201.744C185.874 201.87 185.971 202.028 186.024 202.202Z" fill="#263238"/>
</g>
</svg>
